<svg xmlns="http://www.w3.org/2000/svg" viewBox="0 0 760 350"><defs><linearGradient id="a"><stop offset="0" stop-color="#b4edad"/><stop offset="1" stop-color="#4bd43a"/></linearGradient></defs><path fill="#f1f5eb" d="M280 70.000281V310.00028h200v-90c-71.76629-42.35599-125.6078-112.44694-200-149.999999Z"/><path fill="#b3ab3f" d="M80.203125 9.0214844a1 1 0 0 0-1.181641.7753906 1 1 0 0 0 .775391 1.181641s34.442165 7.154289 76.648435 18.226562c42.20628 11.072273 92.19275 26.083794 123.10352 41.6875C353.66744 108.30754 407.49857 178.37117 479.49219 220.86133c63.14794 37.26949 200.14843 90.07226 200.14843 90.07226a1 1 0 0 0 1.29297-.57422 1 1 0 0 0-.57422-1.29296s-137.08289-52.88209-199.85156-89.92774c-71.53896-42.22182-125.39086-112.34008-200.05664-150.031248-31.22342-15.761533-81.23797-30.74955-123.49805-41.835938C114.69305 16.185097 80.203125 9.0214844 80.203125 9.0214844Z" color="#000" style="-inkscape-stroke:none"/><path fill="#363a32" d="M58.999908 310.73172q0 2.22168-.758789 3.30176-.758789 1.08008-2.37207 1.08008-1.592773 0-2.358398-1.05274-.765625-1.05957-.792969-3.1582v-1.68848q0-2.19433.758789-3.26074.758789-1.06641 2.378906-1.06641 1.606446 0 2.365235 1.03223.758789 1.02539.779296 3.17187zm-1.264648-1.72949q0-1.60645-.451172-2.33789-.451172-.73828-1.428711-.73828-.970703 0-1.415039.73144-.444336.73145-.458008 2.24902v2.02344q0 1.61328.464844 2.38574.47168.76563 1.421875.76563.936524 0 1.387695-.72461.458008-.72461.478516-2.2832z" aria-label="0" font-family="Roboto" font-size="14px" style="line-height:1.2;-inkscape-font-specification:Roboto;text-align:center" text-anchor="middle"/><path fill="#363a32" d="M49.053619 284.97684h-1.271484v-8.42871l-2.549805.93652v-1.14844l3.623047-1.36035h.198242zm9.946289-4.24512q0 2.22168-.758789 3.30176-.758789 1.08008-2.37207 1.08008-1.592773 0-2.358398-1.05274-.765625-1.05957-.792969-3.1582v-1.68848q0-2.19433.758789-3.26074.758789-1.06641 2.378906-1.06641 1.606446 0 2.365235 1.03223.758789 1.02539.779296 3.17187zm-1.264648-1.72949q0-1.60645-.451172-2.33789-.451172-.73828-1.428711-.73828-.970703 0-1.415039.73144-.444336.73145-.458008 2.24902v2.02344q0 1.61328.464844 2.38574.47168.76563 1.421875.76563.936524 0 1.387695-.72461.458008-.72461.478516-2.2832z" aria-label="10" font-family="Roboto" font-size="14px" style="line-height:1.2;-inkscape-font-specification:Roboto;text-align:center" text-anchor="middle"/><path fill="#363a32" d="M51.418854 254.97684h-6.521485v-.90918l3.445313-3.82813q.765625-.86816 1.052734-1.4082.293946-.54688.293946-1.12793 0-.7793-.47168-1.27832-.47168-.49902-1.257813-.49902-.943359 0-1.469726.54003-.519531.53321-.519531 1.49024h-1.264649q0-1.37402.881836-2.22168.888672-.84766 2.37207-.84766 1.387696 0 2.194336.73145.806641.72461.806641 1.93457 0 1.46973-1.873047 3.5l-2.666016 2.8916h4.997071zm7.581054-4.24512q0 2.22168-.758789 3.30176-.758789 1.08008-2.37207 1.08008-1.592773 0-2.358398-1.05274-.765625-1.05957-.792969-3.1582v-1.68848q0-2.19433.758789-3.26074.758789-1.06641 2.378906-1.06641 1.606446 0 2.365235 1.03223.758789 1.02539.779296 3.17187zm-1.264648-1.72949q0-1.60645-.451172-2.33789-.451172-.73828-1.428711-.73828-.970703 0-1.415039.73144-.444336.73145-.458008 2.24902v2.02344q0 1.61328.464844 2.38574.47168.76563 1.421875.76563.936524 0 1.387695-.72461.458008-.72461.478516-2.2832z" aria-label="20" font-family="Roboto" font-size="14px" style="line-height:1.2;-inkscape-font-specification:Roboto;text-align:center" text-anchor="middle"/><path fill="#363a32" d="M46.736237 219.38504h.950195q.895508-.0137 1.408203-.47168.512695-.45801.512695-1.2373 0-1.75-1.743164-1.75-.820312 0-1.3125.47168-.485351.46484-.485351 1.2373h-1.264649q0-1.18262.861328-1.96191.868164-.78614 2.201172-.78614 1.408203 0 2.208008.74512.799805.74512.799805 2.07129 0 .64941-.423828 1.25781-.416993.6084-1.141602.90918.820313.25977 1.264649.86133.451171.60156.451171 1.46973 0 1.33984-.875 2.12597-.875.78614-2.276367.78614t-2.283203-.75879q-.875-.75879-.875-2.00293h1.271484q0 .78613.512696 1.25781.512695.47168 1.374023.47168.916016 0 1.401367-.47852.485352-.47851.485352-1.37402 0-.86816-.533203-1.33301-.533203-.46484-1.538086-.47851h-.950195zm12.263671 1.34668q0 2.22168-.758789 3.30176-.758789 1.08008-2.37207 1.08008-1.592773 0-2.358398-1.05274-.765625-1.05957-.792969-3.1582v-1.68848q0-2.19433.758789-3.26074.758789-1.06641 2.378906-1.06641 1.606446 0 2.365235 1.03223.758789 1.02539.779296 3.17187zm-1.264648-1.72949q0-1.60645-.451172-2.33789-.451172-.73828-1.428711-.73828-.970703 0-1.415039.73144-.444336.73145-.458008 2.24902v2.02344q0 1.61328.464844 2.38574.47168.76563 1.421875.76563.936524 0 1.387695-.72461.458008-.72461.478516-2.2832z" aria-label="30" font-family="Roboto" font-size="14px" style="line-height:1.2;-inkscape-font-specification:Roboto;text-align:center" text-anchor="middle"/><path fill="#363a32" d="M50.236237 191.63406h1.380859v1.03223h-1.380859v2.31055h-1.271485v-2.31055h-4.532226v-.74512l4.457031-6.89746h1.34668zm-4.368164 0h3.096679v-4.88086l-.15039.27344zm13.131835-.90234q0 2.22168-.758789 3.30176-.758789 1.08008-2.37207 1.08008-1.592773 0-2.358398-1.05274-.765625-1.05957-.792969-3.1582v-1.68848q0-2.19433.758789-3.26074.758789-1.06641 2.378906-1.06641 1.606446 0 2.365235 1.03223.758789 1.02539.779296 3.17187zm-1.264648-1.72949q0-1.60645-.451172-2.33789-.451172-.73828-1.428711-.73828-.970703 0-1.415039.73144-.444336.73145-.458008 2.24902v2.02344q0 1.61328.464844 2.38574.47168.76563 1.421875.76563.936524 0 1.387695-.72461.458008-.72461.478516-2.2832z" aria-label="40" font-family="Roboto" font-size="14px" style="line-height:1.2;-inkscape-font-specification:Roboto;text-align:center" text-anchor="middle"/><path fill="#363a32" d="m45.478424 159.9866.505859-4.96289h5.09961v1.16895h-4.026367l-.300782 2.71386q.731446-.43066 1.661133-.43066 1.360352 0 2.160156.90234.799805.89551.799805 2.42676 0 1.53809-.833984 2.42676-.827149.88184-2.317383.88184-1.319336 0-2.15332-.73145-.833985-.73144-.950196-2.02344h1.196289q.116211.8545.608399 1.292.492187.43066 1.298828.43066.881836 0 1.380859-.60156.50586-.60157.50586-1.66114 0-.99804-.546875-1.59961-.540039-.60839-1.442383-.60839-.827149 0-1.298828.3623l-.334961.27344zm13.521484.74512q0 2.22168-.758789 3.30176-.758789 1.08008-2.37207 1.08008-1.592773 0-2.358398-1.05274-.765625-1.05957-.792969-3.1582v-1.68848q0-2.19433.758789-3.26074.758789-1.06641 2.378906-1.06641 1.606446 0 2.365235 1.03223.758789 1.02539.779296 3.17187zm-1.264648-1.72949q0-1.60645-.451172-2.33789-.451172-.73828-1.428711-.73828-.970703 0-1.415039.73144-.444336.73145-.458008 2.24902v2.02344q0 1.61328.464844 2.38574.47168.76563 1.421875.76563.936524 0 1.387695-.72461.458008-.72461.478516-2.2832z" aria-label="50" font-family="Roboto" font-size="14px" style="line-height:1.2;-inkscape-font-specification:Roboto;text-align:center" text-anchor="middle"/><path fill="#363a32" d="M49.86026 125.01688v1.07324h-.232422q-1.476562.0273-2.351562.875-.875.84765-1.011719 2.38574.786133-.90234 2.146484-.90234 1.298828 0 2.071289.91601.779297.91602.779297 2.36524 0 1.53808-.84082 2.46093-.833984.92286-2.242188.92286-1.428711 0-2.317382-1.09375-.888672-1.10059-.888672-2.83008v-.48535q0-2.74805 1.168945-4.19727 1.175781-1.45605 3.493164-1.49023zm-1.661133 4.48437q-.649414 0-1.196289.38965-.546875.38965-.758789.97754v.46484q0 1.23047.553711 1.98242.553711.75196 1.380859.75196.854493 0 1.339844-.62891.492188-.62891.492188-1.64746 0-1.02539-.499024-1.6543-.492187-.63574-1.3125-.63574zm10.800781 1.23047q0 2.22168-.758789 3.30176-.758789 1.08008-2.37207 1.08008-1.592773 0-2.358398-1.05274-.765625-1.05957-.792969-3.1582v-1.68848q0-2.19433.758789-3.26074.758789-1.06641 2.378906-1.06641 1.606446 0 2.365235 1.03223.758789 1.02539.779296 3.17187zm-1.264648-1.72949q0-1.60645-.451172-2.33789-.451172-.73828-1.428711-.73828-.970703 0-1.415039.73144-.444336.73145-.458008 2.24902v2.02344q0 1.61328.464844 2.38574.47168.76563 1.421875.76563.936524 0 1.387695-.72461.458008-.72461.478516-2.2832z" aria-label="60" font-family="Roboto" font-size="14px" style="line-height:1.2;-inkscape-font-specification:Roboto;text-align:center" text-anchor="middle"/><path fill="#bdbdbd" d="M69 9.0002813v1.9999997h10v28H69v2h10v28H69v2h10v28H69v1.999999h10v28H69v2h10v28H69v2h10v28H69v2h10v28H69v2h10v28H69v2h10v28H69v2h10v28H69v2h10v10h2v-10h600v-2H81V9.0002813H70z" color="#000" style="-inkscape-stroke:none"/><path fill="#30af59" d="M188 175.00028c-3.30858 0-6 2.69141-6 6h-2c-1.10302 0-2 .89745-2 2h-8c-4.41112 0-8 3.58887-8 8 0 4.41112 3.58888 8 8 8h33c3.85986 0 7 3.14061 7 7v12c0 3.519-2.61345 6.43224-6 6.92016v-.92016c0-2.48461-1.82393-4.54611-4.2019-4.93019l-3.07056-12.28173c-.55712-2.23047-2.55175-3.78808-4.85059-3.78808h-19.33447c-3.81786 0-7.30469 1.93261-9.32812 5.16992l-6.7688 10.83008H155c-3.85985 0-7 3.14061-7 7v2c0 2.43556 1.75176 4.46729 4.06079 4.90844.44707 3.43156 3.38743 6.09156 6.93921 6.09156 3.52022 0 6.44059-2.6127 6.9275-6h20.14501c.48691 3.3873 3.40728 6 6.92749 6 3.55179 0 6.49215-2.66 6.93922-6.09156 2.30902-.44115 4.06078-2.47288 4.06078-4.90844v-1.05909c4.4931-.49947 8-4.31638 8-8.94091v-12c0-4.96289-4.0376-9-9-9h-33c-3.30858 0-6-2.69141-6-6s2.69142-6 6-6h8c0 1.10253.89698 2 2 2h2c0 3.30859 2.69142 6 6 6h7c.55226 0 1-.44728 1-1v-2h6c.55226 0 1-.44728 1-1 0-.55273-.44774-1-1-1h-6v-8h6c.55226 0 1-.44728 1-1 0-.55273-.44774-1-1-1h-6v-2c0-.55273-.44774-1-1-1zm0 2h6v14h-6c-2.20557 0-4-1.79396-4-4v-6c0-2.20605 1.79443-4 4-4zm-1 2c-.55225 0-1 .44727-1 1v8c0 .55272.44775 1 1 1 .55226 0 1-.44728 1-1v-8c0-.55273-.44774-1-1-1zm4 0c-.55225 0-1 .44727-1 1v8c0 .55272.44775 1 1 1 .55226 0 1-.44728 1-1v-8c0-.55273-.44774-1-1-1zm-11 4h2v2h-2zm21.00367.012c-.26124 0-.52369.0925-.71363.27759-.18018.18944-.29004.45018-.29004.70996 0 .25976.10987.51953.29004.70996.18994.17969.44971.29004.70996.29004.27003 0 .52003-.1104.70996-.29004.1797-.19043.29004-.4502.29004-.70996 0-.25978-.1104-.52052-.29004-.70996-.18505-.18507-.44506-.27759-.70629-.27759zm3.99243 0c-.26123 0-.52124.0925-.70606.27759-.18018.18944-.29004.45018-.29004.70996 0 .26952.10987.51952.29004.70018.18994.18946.43995.29982.70996.29982.27003 0 .52003-.1104.70996-.29004.1797-.19043.29004-.44044.29004-.70996 0-.25978-.1104-.52052-.29004-.70996-.19018-.18507-.45264-.27759-.71386-.27759zm4 0c-.26123 0-.52124.0925-.70606.27759-.18018.18944-.29004.45018-.29004.70996 0 .26952.10987.51952.29004.70018.18994.18946.43995.29982.70996.29982.27003 0 .52003-.1104.70996-.29004.1797-.19043.29004-.44044.29004-.70996 0-.25978-.1104-.52052-.29004-.70996-.19018-.18507-.45264-.27759-.71386-.27759zm-36.45362 21.9876H175v14h-16.1958l6.10644-9.76953c1.65528-2.64943 4.50831-4.23047 7.63184-4.23047zm4.45752 0h12v14h-12zm14 0h.87695c1.3794 0 2.57619.93456 2.91016 2.27245l2.93213 11.72755H191Zm-22.59618 3.63427c-.24015.004-.47932.0949-.667.27296-.0903.084-.17871.17284-.26416.26366-.37842.40138-.35987 1.03418.042 1.41308.19336.18263.43994.27247.68604.27247.26562 0 .53125-.10547.72802-.31445.0581-.0616.11814-.12107.1792-.1797.40235-.37792.42091-1.01074.0425-1.41308-.20103-.21426-.47443-.3199-.74659-.31494zm-1.88843 2.6333c-.32077.012-.63063.17798-.81372.46972l-2.33252 3.73243c-.29248.46875-.1504 1.08496.31787 1.37793.16504.10347.34814.15235.52929.15235.33349 0 .65919-.16604.84912-.46973l2.33252-3.73243c.29248-.46875.14991-1.08593-.31836-1.37792-.17541-.11053-.37175-.15933-.5642-.15235zM155 220.99988h20v10h-9.0725c-.48691-3.38732-3.40728-6-6.9275-6-3.4714 0-6.35913 2.54081-6.90552 5.85961-1.21288-.38455-2.09448-1.52052-2.09448-2.85921v-2c0-2.75684 2.24316-5 5-5zm22 0h22c1.6543 0 3 1.34569 3 3v4c0 1.33869-.8816 2.47466-2.09448 2.85961-.54638-3.3188-3.43412-5.85961-6.90552-5.85961-3.52021 0-6.44058 2.61268-6.92749 6H177Zm-7 2c-.55225 0-1 .44727-1 1 0 .55272.44775 1 1 1h2c.55226 0 1-.44728 1-1 0-.55273-.44774-1-1-1zm10 0c-.55225 0-1 .44727-1 1 0 .55272.44775 1 1 1h2c.55226 0 1-.44728 1-1 0-.55273-.44774-1-1-1zm-21 4c2.75684 0 5 2.24316 5 5 0 2.75682-2.24316 5-5 5s-5-2.24318-5-5c0-2.75684 2.24316-5 5-5zm34 0c2.75684 0 5 2.24316 5 5 0 2.75682-2.24316 5-5 5s-5-2.24318-5-5c0-2.75684 2.24316-5 5-5zm-34 2c-1.65429 0-3 1.34569-3 3 0 1.65429 1.34571 3 3 3 1.6543 0 3-1.34571 3-3 0-1.65431-1.3457-3-3-3zm34 0c-1.65429 0-3 1.34569-3 3 0 1.65429 1.34571 3 3 3 1.6543 0 3-1.34571 3-3 0-1.65431-1.3457-3-3-3zm-34 2c.55127 0 1 .44824 1 1 0 .55174-.44873 1-1 1-.55126 0-1-.44826-1-1 0-.55176.44874-1 1-1zm34 0c.55127 0 1 .44824 1 1 0 .55174-.44873 1-1 1-.55126 0-1-.44826-1-1 0-.55176.44874-1 1-1zM368.73047 176.99247c-.3384.0181-.67146.0911-.9961.23047-1.2562.54072-1.879 1.86168-2.12695 3.41601-.24795 1.55433-.1678 3.48739.17969 5.76563.67594 4.43165 2.43331 10.18634 5.10351 16.48632-3.9393 5.68323-6.8932 11.23965-8.50781 15.70704-.82991 2.29626-1.32267 4.30178-1.41601 5.96093-.0933 1.65916.19413 3.14 1.35937 3.94141 1.16347.80121 2.65393.61214 4.29883.0488 1.6449-.56331 3.54183-1.59268 5.62109-3.02148 1.42724-.98076 2.94051-2.16561 4.49024-3.51172l-1.73242 13.85937a1.0039065 1.0039065 0 1 0 1.99218.25l2-16a1.0031003 1.0031003 0 0 0 .008-.17578c1.39999-1.33532 2.81172-2.79983 4.2129-4.36914L385 236.08622a1.003686 1.003686 0 1 0 2-.17188l-1.95313-22.45508c.12756-.15322.2577-.29819.38477-.45312 6.91329.42077 12.98226.0928 17.43164-.79883 2.28192-.45728 4.14776-1.04659 5.54297-1.79883 1.39521-.75223 2.44648-1.72815 2.58398-3.07031.13975-1.36325-.7531-2.51354-2.01562-3.48828-1.26252-.97474-3.02579-1.87391-5.22461-2.72461-4.28567-1.65807-10.26577-3.0883-17.11914-4.0293-3.1851-6.10454-6.76985-11.32843-10.0293-14.89843-1.67266-1.83204-3.25183-3.2416-4.70117-4.14063-.72467-.44951-1.44047-.79689-2.13867-.96289-.3491-.083-.69285-.11969-1.03125-.10156zm.11719 2.02343c.41395.003 1.09698.18838 1.99609.7461 1.19882.74363 2.68393 2.04402 4.27539 3.78711 2.65494 2.9079 5.61838 7.05893 8.37109 11.93554-.94144-.31357-1.94543-.48828-2.99023-.48828-3.73527 0-6.96756 2.17671-8.51953 5.32227-2.20308-5.48204-3.63236-10.43627-4.20899-14.2168-.328-2.15051-.37631-3.92613-.18164-5.14648.19432-1.21814.58574-1.73683.93555-1.88867.0762-.0327.18428-.0517.32227-.0508zm-6.03321 11.08204c-.12817-.021-.26223-.0174-.39648.0156l-1.94336.46875c-.537.129-.86728.67003-.73828 1.20703.11.458.5197.76562.9707.76562.078 0 .15733-.009.23633-.0293l1.94336-.46875c.537-.129.86728-.66808.73828-1.20508-.0975-.402-.42603-.69081-.81055-.7539zm1.35157 5.02734c-.12943-.0117-.26474.002-.39649.0449l-1.9043.60937c-.526.168-.81643.72986-.64843 1.25586.137.424.53012.69532.95312.69532.101 0 .20469-.0139.30469-.0469l1.9043-.60938c.526-.168.81643-.73181.64843-1.25781-.126-.39375-.47306-.65639-.86132-.69141zM380.5 197.00419c4.15236 0 7.49609 3.34373 7.49609 7.49609s-3.34373 7.49609-7.49609 7.49609-7.49609-3.34373-7.49609-7.49609 3.34373-7.49609 7.49609-7.49609zm7.99219 2.37695c5.84389.91846 10.8967 2.20756 14.53515 3.61523 2.0873.80756 3.71227 1.66133 4.72266 2.44141 1.01039.78008 1.27589 1.38557 1.24414 1.69531-.034.33184-.42604.90667-1.54102 1.50781-1.11497.60115-2.82754 1.1674-4.98437 1.59961-3.84279.77008-9.11245 1.13028-15.16016.87305 1.66436-1.71299 2.69532-4.04462 2.69532-6.61328 0-1.88452-.56006-3.63937-1.51172-5.11914zm-7.99219.61914c-2.47344 0-4.5 2.02656-4.5 4.5s2.02656 4.5 4.5 4.5 4.5-2.02656 4.5-4.5-2.02656-4.5-4.5-4.5zm-16.29102 1.19727c-.558-.045-1.0397.34748-1.0957.89648-.055.55.34553 1.0397.89453 1.0957l2.23242.22461c.035.003.0705.006.10352.006.507 0 .94214-.38439.99414-.90039.055-.55-.34748-1.0397-.89648-1.0957zm16.29102.80273c1.39256 0 2.5 1.10744 2.5 2.5s-1.10744 2.5-2.5 2.5-2.5-1.10744-2.5-2.5 1.10744-2.5 2.5-2.5zm-19.12695 3.91992c-.38757-.0432-.77993.14436-.98243.50586-.271.481-.10014 1.08838.38086 1.35938l1.74414.98046c.155.087.32424.12696.49024.12696.35 0 .69005-.18277.87305-.50977.271-.481.0982-1.09033-.38282-1.36133l-1.74414-.97851c-.1205-.0675-.24972-.10864-.3789-.12305zm9.76562.15625c.75561 4.48851 4.66289 7.92774 9.36133 7.92774.54686 0 1.0796-.0572 1.60156-.14649-3.76899 4.27161-7.6654 7.73152-10.99219 10.01758-1.9776 1.35895-3.75869 2.3061-5.13476 2.77734-1.37607.47125-2.24723.37611-2.50977.19532a1.0031003 1.0031003 0 0 0-.002-.002c-.26476-.1821-.5697-.83067-.49414-2.17383.0756-1.34316.51307-3.21309 1.30078-5.39258 1.3448-3.72087 3.70736-8.36389 6.86914-13.20313zm-12.14648 4.28516c-.38892-.0188-.76997.19336-.94922.56836-.238.498-.0293 1.09598.46875 1.33398l1.80469.86328c.14.068.28664.0996.43164.0996.372 0 .73034-.21031.90234-.57031.238-.498.0273-1.09403-.4707-1.33203l-1.80274-.86328c-.124-.06-.25512-.0934-.38476-.0996zm-2.07617 4.6289c-.38935.0153-.75099.25994-.89649.64844-.194.516.067 1.09311.58399 1.28711l1.87109.70313c.116.043.23456.0644.35156.0644.404 0 .7865-.24744.9375-.64844.194-.516-.067-1.09311-.58398-1.28711l-1.87305-.70312c-.129-.049-.26084-.0695-.39062-.0645zm-1.62305 4.89063c-.38269.0721-.70447.36333-.79297.76758-.117.54.22367 1.07245.76367 1.18945l1.95508.42773c.071.015.14189.0215.21289.0215.46 0 .87456-.31815.97656-.78515.117-.54-.22367-1.07245-.76367-1.18945l-1.95508-.42773c-.1345-.0288-.26892-.0279-.39648-.004zM572.59961 180.00028c-2.59 0-4.95636 1.41928-6.19336 3.73828l-4.30664 8.82422c-.234.48-.0501 1.06041.41992 1.31641l11 6c.234.129.50863.15612.76563.0781.255-.076.47165-.25133.59765-.48633l5.11133-9.58985 3.64258 5.82618-2.19141 1.46093c-.353.236-.51906.67003-.41406 1.08203.107.41201.46272.7111.88672.7461l12 1c.028.003.055.004.082.004.39 0 .74716-.22894.91016-.58594l5-11c.184-.407.0773-.88678-.26368-1.17578-.339-.289-.82817-.31536-1.20117-.0684l-2.16797 1.44336-3.40429-5.09766c-1.25897-2.26703-3.34402-3.51565-5.87302-3.51565Zm0 2h9.60547c-.437.45-.80785.9633-1.08985 1.5293l-7.52343 14.10937-9.27539-5.05859 3.87109-7.9336c.872-1.632 2.56211-2.64648 4.41211-2.64648zm14.40039 0c1.796 0 3.22397.85869 4.16797 2.55469l4 6c.306.46.92572.58234 1.38672.27734l.084-.0566-3.25782 7.16992-8.4414-.70508.61719-.41015c.45-.3.57997-.90233.29296-1.36133l-4.76757-7.625 1.81445-3.40039c.73698-1.48404 2.3475-2.4434 4.1035-2.4434zm-12.55078.95117c-.38916-.0273-.77344.17592-.96094.54492-.25.492-.0545 1.09571.4375 1.34571l1.7832.90429c.145.073.29918.10938.45118.10938.364 0 .71753-.20088.89453-.54688.25-.492.0525-1.09375-.43946-1.34375l-1.7832-.90625c-.1235-.0625-.25309-.0983-.38281-.10742zm-2.16016 4.25391c-.38929-.0273-.77539.17592-.96289.54492-.25.492-.0525 1.0957.43945 1.3457l1.78321.90625c.145.073.29917.10742.45117.10742.364 0 .71558-.20087.89258-.54687.25-.492.0545-1.09375-.4375-1.34375l-1.78321-.90625c-.12374-.0625-.25304-.0983-.38281-.10742zm-2.16211 4.2539c-.38929-.0273-.77343.17593-.96093.54493-.25.492-.0545 1.0957.4375 1.3457l1.7832.90625c.145.073.30112.10742.45312.10742.364 0 .71558-.20087.89258-.54687.25-.492.0545-1.09375-.4375-1.34375l-1.7832-.90625c-.12375-.0625-.255-.0983-.38477-.10743zm-4.21679 7.75782-12.14844 1.17968c-.435.042-.78986.36011-.88086.78711-.09.426.10433.86413.48633 1.07813l2.61328 1.47461-2.92578 5.18554c-1.484 2.364-1.66611 4.70968-.53711 6.76368l6.60547 12.79492c1.276 2.322 4.3642 3.52148 6.7832 3.52148.031 0 .0638-.002.0937-.002h11c.553 0 1-.447 1-1v-13c0-.553-.447-1-1-1l-12.43359.002 3.60351-6.38281 2.61328 1.47656c.377.213.85483.15642 1.17383-.14258.32-.298.4087-.76615.2207-1.16015l-5.26757-11.01372c-.183-.378-.588-.6035-1-.5625zm35.16015.38086c-.12692.0158-.25359.0572-.37109.125l-10.88867 6.19726c-.48.272-.64796.88133-.37696 1.36133l6.07032 10.71875H588v-3c0-.437-.28322-.82113-.69922-.95313-.416-.13-.86814.0239-1.11914.38086l-7 10c-.241.343-.241.80054 0 1.14454l7 10c.19.273.49836.42773.81836.42773.101 0 .20078-.0159.30078-.0469.416-.13198.69922-.5161.69922-.9531v-3l5.95312-.002c2.798.135 4.92002-.86391 6.16602-2.87891.001-.003.004-.005.006-.008l7.57227-12.23828c1.363-2.203 1.39979-4.96289.0918-7.21289l-5.73633-9.58398c-.21075-.3495-.60166-.526-.98242-.47852zm-35.66406 1.67578 3.59766 7.51953-.72266-.40625c-.232-.13-.50277-.16475-.75977-.0937-.255.072-.47056.24165-.60156.47265l-4.65039 8.23633h-3.3125c-1.619.071-3.81978-.70276-4.67578-2.25976-.781-1.422-.62577-3.02183.49023-4.79883l3.44141-6.0957c.271-.48.10014-1.09033-.38086-1.36133l-.7207-.40625zm35.43359.66992 5.22657 8.73437c.93 1.599.90368 3.57054-.0703 5.14454l-5.05274 8.16601c-.153-.606-.39166-1.18575-.72266-1.71875l-8.55468-15.10547zm-2.88086 4.2832c-.1289.0155-.2572.056-.37695.125l-1.73633.99219c-.48.273-.64704.88233-.37304 1.36133.183.324.52114.50586.86914.50586.168 0 .33814-.0428.49414-.13282l1.73633-.99023c.48-.273.64704-.88428.37304-1.36328-.20475-.36-.59961-.54445-.98633-.49805zm2.60352 4.56641c-.12892.0152-.2572.0567-.37695.125l-1.73828.98828c-.479.273-.64605.88523-.37305 1.36523.184.323.52114.50391.86914.50391.168 0 .33814-.0419.49414-.13086l1.73828-.99023c.479-.273.648-.88328.375-1.36328-.2055-.35925-.60151-.54352-.98828-.49805zm2.60352 4.56445c-.12899.0156-.25721.0577-.37696.12695l-1.73633.99024c-.48.273-.64704.88428-.37304 1.36328.183.324.52114.50586.86914.50586.168 0 .33814-.0428.49414-.13281l1.73633-.99024c.48-.273.64704-.88428.37304-1.36328-.204-.36075-.59937-.54678-.98632-.5zM586 218.17215v.82813c0 .553.447 1 1 1h9.63672l1.86328 3.28906c.875 1.409.84392 3.28535-.0801 4.77735-.85398 1.38-2.3299 2.03859-4.4199 1.93359h-7c-.553 0-1 .447-1 1v.82812l-4.7793-6.82812zm-29.73047.42188c.926.307 1.88847.44525 2.73047.40625h17v11h-10.01172c-1.784-.004-4.20761-.83898-5.09961-2.45898zM563 223.00028c-.553 0-1 .447-1 1v2c0 .553.447 1 1 1 .553 0 1-.447 1-1v-2c0-.553-.447-1-1-1zm5 0c-.553 0-1 .447-1 1v2c0 .553.447 1 1 1 .553 0 1-.447 1-1v-2c0-.553-.447-1-1-1zm5 0c-.553 0-1 .447-1 1v2c0 .553.447 1 1 1 .553 0 1-.447 1-1v-2c0-.553-.447-1-1-1z"/><path fill="#363a32" d="m51.323151 95.73465-4.122071 9.24219h-1.326172l4.108399-8.914065h-5.386719v-1.039063h6.726563zm7.676757 4.99707q0 2.22168-.758789 3.30176-.758789 1.08008-2.37207 1.08008-1.592773 0-2.358398-1.05274-.765625-1.05957-.792969-3.1582v-1.688478q0-2.194336.758789-3.260742.758789-1.066407 2.378906-1.066407 1.606446 0 2.365235 1.032227.758789 1.025391.779296 3.171875zm-1.264648-1.729492q0-1.606446-.451172-2.337891-.451172-.738281-1.428711-.738281-.970703 0-1.415039.731445-.444336.731446-.458008 2.249024v2.023435q0 1.61328.464844 2.38574.47168.76563 1.421875.76563.936524 0 1.387695-.72461.458008-.72461.478516-2.2832z" aria-label="70" font-family="Roboto" font-size="14px" style="line-height:1.2;-inkscape-font-specification:Roboto;text-align:center" text-anchor="middle"/><path fill="#363a32" d="M50.933502 67.621376q0 .745117-.396484 1.326172-.389649.581055-1.05957.90918.779296.334961 1.230468.977539.458008.642578.458008 1.456054 0 1.291993-.875 2.057618-.868164.765625-2.290039.765625-1.435547 0-2.303711-.765625-.861328-.772461-.861328-2.057618 0-.80664.4375-1.456054.444336-.649414 1.223633-.984375-.663086-.328125-1.045899-.90918-.382812-.581055-.382812-1.319336 0-1.257812.80664-1.996094.806641-.738281 2.125977-.738281 1.3125 0 2.119141.738281.813476.738282.813476 1.996094zm-1.032226 4.641602q0-.833985-.533203-1.360352-.526368-.526367-1.38086-.526367t-1.374023.519531q-.512696.519531-.512696 1.367188 0 .847656.499024 1.333007.505859.485352 1.401367.485352.888672 0 1.394531-.485352.50586-.492187.50586-1.333007zm-1.900391-6.336914q-.745117 0-1.209961.464843-.458008.458008-.458008 1.250977 0 .758789.451172 1.230469.458008.464843 1.216797.464843.758789 0 1.209961-.464843.458008-.47168.458008-1.230469t-.47168-1.237305q-.47168-.478515-1.196289-.478515zm10.999023 4.805664q0 2.221679-.758789 3.301757-.758789 1.080079-2.37207 1.080079-1.592773 0-2.358398-1.052735-.765625-1.05957-.792969-3.158203v-1.688477q0-2.194335.758789-3.260742.758789-1.066406 2.378906-1.066406 1.606446 0 2.365235 1.032227.758789 1.02539.779296 3.171875zm-1.264648-1.729493q0-1.606445-.451172-2.33789-.451172-.738281-1.428711-.738281-.970703 0-1.415039.731445-.444336.731445-.458008 2.249023v2.023438q0 1.613281.464844 2.385742.47168.765625 1.421875.765625.936524 0 1.387695-.724609.458008-.72461.478516-2.283204z" aria-label="80" font-family="Roboto" font-size="14px" style="line-height:1.2;-inkscape-font-specification:Roboto;text-align:center" text-anchor="middle"/><path fill="#363a32" d="M49.744049 40.601845q-.396484.471679-.950195.758789-.546875.287109-1.203125.287109-.861328 0-1.503906-.423828-.635743-.423828-.984375-1.189453-.348633-.772461-.348633-1.702148 0-.998047.375976-1.797852.382813-.799805 1.080078-1.223633.697266-.423828 1.626954-.423828 1.476562 0 2.324218 1.107422.854492 1.100586.854492 3.007812v.369141q0 2.905273-1.148437 4.245117-1.148438 1.333008-3.46582 1.367188h-.246094v-1.066407h.266601q1.56543-.02734 2.40625-.813476.840821-.792969.916016-2.501953zm-1.948242 0q.635742 0 1.168945-.389649.540039-.389648.786133-.963867v-.505859q0-1.244141-.540039-2.023438-.540039-.779297-1.367188-.779297-.833984 0-1.339843.642579-.50586.635742-.50586 1.68164 0 1.018555.485352 1.681641.492187.65625 1.3125.65625zm11.204101.129883q0 2.221679-.758789 3.301757-.758789 1.080079-2.37207 1.080079-1.592773 0-2.358398-1.052735-.765625-1.05957-.792969-3.158203v-1.688477q0-2.194335.758789-3.260742.758789-1.066406 2.378906-1.066406 1.606446 0 2.365235 1.032227.758789 1.02539.779296 3.171875zm-1.264648-1.729493q0-1.606445-.451172-2.33789-.451172-.738281-1.428711-.738281-.970703 0-1.415039.731445-.444336.731445-.458008 2.249023v2.023438q0 1.613281.464844 2.385742.47168.765625 1.421875.765625.936524 0 1.387695-.724609.458008-.72461.478516-2.283204z" aria-label="90" font-family="Roboto" font-size="14px" style="line-height:1.2;-inkscape-font-specification:Roboto;text-align:center" text-anchor="middle"/><path fill="#363a32" d="M41.192291 14.976844h-1.271484V6.5481329l-2.549805.9365234V6.3362188l3.623047-1.3603515h.198242zm9.946289-4.245117q0 2.221679-.758789 3.301757-.758789 1.080079-2.37207 1.080079-1.592773 0-2.358398-1.052735-.765625-1.05957-.792969-3.158203V9.2141485q0-2.1943359.758789-3.2607422.758789-1.0664062 2.378906-1.0664062 1.606445 0 2.365234 1.0322265.75879 1.0253907.779297 3.171875zm-1.264648-1.7294925q0-1.6064454-.451172-2.3378907-.451172-.7382812-1.428711-.7382812-.970703 0-1.415039.7314453-.444336.7314453-.458008 2.2490234v2.0234377q0 1.613281.464844 2.385742.47168.765625 1.421875.765625.936523 0 1.387695-.724609.458008-.72461.478516-2.283203zm9.125976 1.7294925q0 2.221679-.758789 3.301757-.758789 1.080079-2.37207 1.080079-1.592773 0-2.358398-1.052735-.765625-1.05957-.792969-3.158203V9.2141485q0-2.1943359.758789-3.2607422.758789-1.0664062 2.378906-1.0664062 1.606446 0 2.365235 1.0322265.758789 1.0253907.779296 3.171875zM57.73526 9.0022345q0-1.6064454-.451172-2.3378907-.451172-.7382812-1.428711-.7382812-.970703 0-1.415039.7314453-.444336.7314453-.458008 2.2490234v2.0234377q0 1.613281.464844 2.385742.47168.765625 1.421875.765625.936524 0 1.387695-.724609.458008-.72461.478516-2.283203z" aria-label="100" font-family="Roboto" font-size="14px" style="line-height:1.2;-inkscape-font-specification:Roboto;text-align:center" text-anchor="middle"/><path fill="#b3ab3f" fill-opacity=".866667" d="M275.84375 17.695312h-4.5v3.046875h5.28125V22.625H269V11.25h7.60937v1.898438h-5.26562v2.710937h4.5zm4.08594-3.523437.0703.976563q.90625-1.132813 2.42969-1.132813 1.34375 0 2 .789063.65625.789062.67187 2.359374V22.625h-2.25781v-5.40625q0-.71875-.3125-1.039063-.3125-.328124-1.03906-.328124-.95313 0-1.42969.812499V22.625h-2.25781v-8.453125zm6.53125 4.164062q0-1.976562.88281-3.148437.89062-1.171875 2.42969-1.171875 1.23437 0 2.03906.921875V10.625h2.26562v12h-2.03906l-.10937-.898438q-.84375 1.054688-2.17188 1.054688-1.49219 0-2.39844-1.171875-.89843-1.179688-.89843-3.273438zm2.25781.164063q0 1.1875.41406 1.820312.41406.632813 1.20313.632813 1.04687 0 1.47656-.882813v-3.335937q-.42188-.882812-1.46094-.882812-1.63281 0-1.63281 2.648437zm10.74219-.179688q0-1.257812.48437-2.242187.48438-.984375 1.39063-1.523437.91406-.539063 2.11718-.539063 1.71094 0 2.78907 1.046875 1.08593 1.046875 1.21093 2.84375l.0156.578125q0 1.945312-1.08594 3.125-1.08594 1.171875-2.91406 1.171875-1.82813 0-2.92188-1.171875-1.08593-1.171875-1.08593-3.1875zm2.25781.164063q0 1.203125.45312 1.84375.45313.632812 1.29688.632812.82031 0 1.28125-.625.46094-.632812.46094-2.015625 0-1.179687-.46094-1.828125-.46094-.648437-1.29688-.648437-.82812 0-1.28125.648437-.45312.640625-.45312 1.992188zm7.75781 4.140625v-6.796875h-1.25781v-1.65625h1.25781v-.71875q0-1.421875.8125-2.203125.82031-.789062 2.28906-.789062.46875 0 1.14844.15625l-.0234 1.75q-.28125-.07031-.6875-.07031-1.27343 0-1.27343 1.195313v.679687h1.67968v1.65625h-1.67968V22.625Zm14.16406-.859375q-.83593 1.015625-2.3125 1.015625-1.35937 0-2.07812-.78125-.71094-.78125-.72656-2.289063v-5.539062h2.25781v5.460937q0 1.320313 1.20312 1.320313 1.14844 0 1.57813-.796875v-5.984375h2.26562V22.625h-2.125zm8.46875-1.476563q0-.414062-.41406-.648437-.40625-.242188-1.3125-.429688-3.01562-.632812-3.01562-2.5625 0-1.124999.92968-1.874999.9375-.757813 2.44532-.757813 1.60937 0 2.57031.757813.96875.757812.96875 1.968749h-2.25781q0-.484375-.3125-.796874-.3125-.320313-.97657-.320313-.57031 0-.88281.257813-.3125.257812-.3125.656249 0 .375.35156.609375.35938.226563 1.20313.398438.84375.164062 1.42187.375 1.78907.65625 1.78907 2.273437 0 1.15625-.99219 1.875-.99219.710938-2.5625.710938-1.0625 0-1.89063-.375-.82031-.382813-1.28906-1.039063-.46875-.664062-.46875-1.429687h2.14063q.0312.601562.44531.921875.41406.320312 1.10937.320312.64844 0 .97657-.242187.33593-.25.33593-.648438zm7.53907 2.492188q-1.85938 0-3.03125-1.140625-1.16407-1.140625-1.16407-3.039063v-.21875q0-1.273437.49219-2.273437.49219-1.007812 1.39063-1.546875.90625-.546875 2.0625-.546875 1.73437 0 2.72656 1.09375 1 1.09375 1 3.101562v.921875h-5.38281q.10937.828125.65625 1.328125.55468.5 1.39843.5 1.30469 0 2.03907-.945312l1.10937 1.242187q-.50781.71875-1.375 1.125-.86719.398438-1.92187.398438zm-.25782-6.9375q-.67187 0-1.09375.453125-.41406.453125-.53125 1.296875h3.14063v-.179688q-.0156-.75-.40625-1.15625-.39063-.414062-1.10938-.414062zm11.38282 6.78125h-2.26563v-8.453125h2.26563zM348.375 11.984375q0-.507812.33594-.835937.34375-.328125.92968-.328125.57813 0 .92188.328125t.34375.835937q0 .515625-.35156.84375-.34375.328125-.91407.328125-.57031 0-.92187-.328125-.34375-.328125-.34375-.84375Zm6.33594 2.1875.0703.976563q.90625-1.132813 2.42969-1.132813 1.34375 0 2 .789063.65625.789062.67187 2.359374V22.625h-2.2578v-5.40625q0-.71875-.3125-1.039063-.3125-.328124-1.03906-.328124-.95313 0-1.42969.812499V22.625h-2.25781v-8.453125zm13.57031-2.078125v2.078125h1.44531v1.65625h-1.44531v4.21875q0 .46875.17969.671875.17968.203125.6875.203125.375 0 .66406-.05469v1.710938q-.66406.203125-1.36719.203125-2.375 0-2.42187-2.398438v-4.554687h-1.23438v-1.65625h1.23438V12.09375Zm4.90625 3q.89844-1.078125 2.25781-1.078125 2.75 0 2.78906 3.195312V22.625h-2.25781v-5.351563q0-.726562-.3125-1.070312-.3125-.351562-1.03906-.351562-.99219 0-1.4375.765624V22.625h-2.25781v-12h2.25781zm10.64062 7.6875q-1.85937 0-3.03125-1.140625-1.16406-1.140625-1.16406-3.039063v-.21875q0-1.273437.49219-2.273437.49219-1.007812 1.39062-1.546875.90625-.546875 2.0625-.546875 1.73438 0 2.72657 1.09375 1 1.09375 1 3.101562v.921875h-5.38282q.10938.828125.65625 1.328125.55469.5 1.39844.5 1.30469 0 2.03906-.945312l1.10938 1.242187q-.50781.71875-1.375 1.125-.86719.398438-1.92188.398438zm-.25781-6.9375q-.67187 0-1.09375.453125-.41406.453125-.53125 1.296875h3.14063v-.179688q-.0156-.75-.40625-1.15625-.39063-.414062-1.10938-.414062zm12.51563 5.117187q.625 0 1.01562-.34375.39063-.34375.40625-.914062h2.11719q-.008.859375-.46875 1.578125-.46094.710937-1.26563 1.109375-.79687.390625-1.76562.390625-1.8125 0-2.85938-1.148438-1.04687-1.15625-1.04687-3.1875v-.148437q0-1.953125 1.03906-3.117187 1.03906-1.164063 2.85156-1.164063 1.58594 0 2.53907.90625.96093.898438.97656 2.398437h-2.11719q-.0156-.65625-.40625-1.0625-.39062-.414062-1.03125-.414062-.78906 0-1.19531.578125-.39844.570312-.39844 1.859375v.234375q0 1.304687.39844 1.875.39844.570312 1.21094.570312zM405.8125 22.625q-.15625-.304688-.22656-.757813-.82032.914063-2.13282.914063-1.24218 0-2.0625-.71875-.8125-.71875-.8125-1.8125 0-1.34375.99219-2.0625 1-.71875 2.88281-.726563h1.03907v-.484375q0-.585937-.30469-.9375-.29688-.351562-.94531-.351562-.57032 0-.89844.273438-.32031.273437-.32031.749999h-2.25782q0-.734374.45313-1.359374.45312-.625 1.28125-.976563.82812-.359375 1.85937-.359375 1.5625 0 2.47657.789063.92187.78125.92187 2.203124v3.664063q.008 1.203125.33594 1.820312V22.625Zm-1.86719-1.570313q.5 0 .92188-.21875.42187-.226562.625-.601562V18.78125h-.84375q-1.69532 0-1.80469 1.171875l-.008.132812q0 .421875.29687.695313.29688.273437.8125.273437zm10.29688-4.765625q-.46094-.0625-.8125-.0625-1.28125 0-1.67969.867188V22.625h-2.25781v-8.453125h2.13281l.0625 1.007813q.67969-1.164063 1.88281-1.164063.375 0 .70313.101563zM419.41406 18q0-1.789063.47656-3.40625.47657-1.617187 1.40625-2.859375.92969-1.25 2.01563-1.734375l.4375 1.21875q-1.14063.84375-1.78125 2.609375-.64063 1.765625-.64063 4.125v.242187q0 2.367188.63282 4.140625.63281 1.773438 1.78906 2.648438l-.4375 1.195312q-1.0625-.476562-1.98438-1.6875-.91406-1.203125-1.39843-2.78125-.48438-1.578125-.51563-3.296875zM432.25 14.273438q0 .828125-.41406 1.46875-.41407.640624-1.14063 1.023437.82813.398437 1.3125 1.101562.48438.695313.48438 1.640625 0 1.515625-1.03125 2.398438-1.03125.875-2.80469.875t-2.8125-.882813q-1.03906-.882812-1.03906-2.390625 0-.945312.48437-1.648437.48438-.703125 1.30469-1.09375-.72656-.382813-1.14063-1.023437-.40625-.640625-.40625-1.46875 0-1.453125.96875-2.3125.96875-.867188 2.63282-.867188 1.65625 0 2.625.859375.97656.851563.97656 2.320313zm-2.02344 5.070312q0-.742188-.42969-1.1875-.42968-.445313-1.15625-.445313-.71875 0-1.14843.445313-.42969.4375-.42969 1.1875 0 .726562.42187 1.171875.42188.445312 1.17188.445312.73437 0 1.14844-.429687.42187-.429688.42187-1.1875zm-.23437-4.960937q0-.664063-.35157-1.0625-.35156-.40625-.99218-.40625-.63282 0-.98438.390625t-.35156 1.078125q0 .679687.35156 1.09375.35156.414062.99219.414062.64062 0 .98437-.414062.35157-.414063.35157-1.09375zm11.67968 3.539062q0 2.359375-.97656 3.609375t-2.85937 1.25q-1.85938 0-2.84375-1.226563-.98438-1.226562-1.00782-3.515625v-2.093749q0-2.382813.98438-3.617188.99219-1.234375 2.85156-1.234375 1.85938 0 2.84375 1.226563.98438 1.21875 1.00781 3.507812zM439.41406 15.625q0-1.414062-.39062-2.054687-.38282-.648438-1.20313-.648438-.79687 0-1.17969.617188-.375.609375-.39843 1.914062v2.765625q0 1.390625.375 2.070312.38281.671875 1.21875.671875.82812 0 1.19531-.648437.36719-.648438.38281-1.984375zm3.75-2.1875q0-1.046875.67969-1.695312.67969-.65625 1.78125-.65625 1.11719 0 1.79687.648437.67969.640625.67969 1.742188v.5625q0 1.054687-.67969 1.695312-.67968.640625-1.78125.640625-1.10937 0-1.79687-.640625-.67969-.648437-.67969-1.742187zm1.5.601563q0 .46875.26563.757812.27343.28125.71093.28125.4375 0 .69532-.289062.25781-.289063.25781-.773438V13.4375q0-.46875-.25781-.757812-.25782-.289063-.71094-.289063-.42969 0-.69531.289063-.26563.28125-.26563.789062zm3.9375 5.796874q0-1.054687.6875-1.695312.6875-.648438 1.78125-.648438 1.10938 0 1.78906.640625.6875.632813.6875 1.75v.5625q0 1.046875-.67187 1.695313-.67188.640625-1.78906.640625-1.125 0-1.80469-.648438-.67969-.648437-.67969-1.71875zm1.5.609375q0 .429688.28125.734375.28125.304688.70313.304688.95312 0 .95312-1.054688v-.59375q0-.46875-.26562-.75-.26563-.289062-.70313-.289062-.4375 0-.70312.289062-.26563.28125-.26563.773438zm-4.01562 1.328125-1.10157-.59375 5.55469-8.890624 1.10156.59375zm12.90625-3.59375q0 1.765625-.50782 3.398438-.50781 1.632812-1.46093 2.882812-.95313 1.25-2.03907 1.71875l-.4375-1.195312q1.10938-.835938 1.75-2.578125.64063-1.742188.66407-4.007813v-.414062q0-2.335937-.64063-4.117187-.63281-1.78125-1.77344-2.671875L454.98437 10q1.0625.460938 2 1.671875.94532 1.210938 1.46094 2.820313.52344 1.609374.54688 3.335937z" aria-label="End of use in the car (80%)" font-family="Roboto" font-size="16px" font-weight="700" style="line-height:1.2;-inkscape-font-specification:&quot;Roboto Bold&quot;"/><g fill="#b3ab3f" color="#000"><path d="M280.00001 70.000281v-40M279 32v2h2v-2zm0 4v2h2v-2zm0 4v2h2v-2zm0 4v2h2v-2zm0 4v2h2v-2zm0 4v2h2v-2zm0 4v2h2v-2zm0 4v2h2v-2zm0 4v2h2v-2zm0 4v2h2v-2z" style="-inkscape-stroke:none"/></g><path fill="#b3ab3f" d="M475.84375 117.69531h-4.5v3.04688h5.28125v1.88281H469V111.25h7.60937v1.89844h-5.26562v2.71094h4.5zm4.08594-3.52343.0703.97656q.90625-1.13281 2.42969-1.13281 1.34375 0 2 .78906t.67187 2.35937v5.46094h-2.25781v-5.40625q0-.71875-.3125-1.03906-.3125-.32813-1.03906-.32813-.95313 0-1.42969.8125v5.96094h-2.25781v-8.45312zm6.53125 4.16406q0-1.97656.88281-3.14844.89062-1.17187 2.42969-1.17187 1.23437 0 2.03906.92187v-4.3125h2.26562v12h-2.03906l-.10937-.89844q-.84375 1.05469-2.17188 1.05469-1.49219 0-2.39844-1.17187-.89843-1.17969-.89843-3.27344zm2.25781.16406q0 1.1875.41406 1.82031.41406.63282 1.20313.63282 1.04687 0 1.47656-.88282v-3.33593q-.42188-.88282-1.46094-.88282-1.63281 0-1.63281 2.64844zm10.74219-.17969q0-1.25781.48437-2.24218.48438-.98438 1.39063-1.52344.91406-.53906 2.11718-.53906 1.71094 0 2.78907 1.04687 1.08593 1.04688 1.21093 2.84375l.0156.57813q0 1.94531-1.08594 3.125-1.08594 1.17187-2.91406 1.17187-1.82813 0-2.92188-1.17187-1.08593-1.17188-1.08593-3.1875zm2.25781.16407q0 1.20312.45312 1.84375.45313.63281 1.29688.63281.82031 0 1.28125-.625.46094-.63281.46094-2.01563 0-1.17968-.46094-1.82812-.46094-.64844-1.29688-.64844-.82812 0-1.28125.64844-.45312.64062-.45312 1.99219zm7.75781 4.14062v-6.79687h-1.25781v-1.65625h1.25781v-.71875q0-1.42188.8125-2.20313.82031-.78906 2.28906-.78906.46875 0 1.14844.15625l-.0234 1.75q-.28125-.0703-.6875-.0703-1.27343 0-1.27343 1.19531v.67969h1.67968v1.65625h-1.67968v6.79687zm14.16406-.85937q-.83593 1.01562-2.3125 1.01562-1.35937 0-2.07812-.78125-.71094-.78125-.72656-2.28906v-5.53906h2.25781v5.46093q0 1.32032 1.20312 1.32032 1.14844 0 1.57813-.79688v-5.98437h2.26562v8.45312h-2.125zm8.46875-1.47657q0-.41406-.41406-.64843-.40625-.24219-1.3125-.42969-3.01562-.63281-3.01562-2.5625 0-1.125.92968-1.875.9375-.75781 2.44532-.75781 1.60937 0 2.57031.75781.96875.75781.96875 1.96875h-2.25781q0-.48438-.3125-.79688-.3125-.32031-.97657-.32031-.57031 0-.88281.25781-.3125.25782-.3125.65625 0 .375.35156.60938.35938.22656 1.20313.39844.84375.16406 1.42187.375 1.78907.65625 1.78907 2.27343 0 1.15625-.99219 1.875-.99219.71094-2.5625.71094-1.0625 0-1.89063-.375-.82031-.38281-1.28906-1.03906-.46875-.66406-.46875-1.42969h2.14063q.0312.60156.44531.92188.41406.32031 1.10937.32031.64844 0 .97657-.24219.33593-.25.33593-.64844zm7.53907 2.49219q-1.85938 0-3.03125-1.14062-1.16407-1.14063-1.16407-3.03907v-.21875q0-1.27343.49219-2.27343.49219-1.00782 1.39063-1.54688.90625-.54687 2.0625-.54687 1.73437 0 2.72656 1.09375 1 1.09375 1 3.10156v.92187h-5.38281q.10937.82813.65625 1.32813.55468.5 1.39843.5 1.30469 0 2.03907-.94531l1.10937 1.24218q-.50781.71875-1.375 1.125-.86719.39844-1.92187.39844zm-.25782-6.9375q-.67187 0-1.09375.45313-.41406.45312-.53125 1.29687h3.14063v-.17969q-.0156-.75-.40625-1.15625-.39063-.41406-1.10938-.41406zm13.89844 6.78125q-.15625-.30469-.22656-.75781-.82031.91406-2.13281.91406-1.24219 0-2.0625-.71875-.8125-.71875-.8125-1.8125 0-1.34375.99218-2.0625 1-.71875 2.88282-.72656h1.03906v-.48438q0-.58593-.30469-.9375-.29687-.35156-.94531-.35156-.57031 0-.89844.27344-.32031.27344-.32031.75h-2.25781q0-.73438.45312-1.35938.45313-.625 1.28125-.97656.82813-.35937 1.85938-.35937 1.5625 0 2.47656.78906.92187.78125.92187 2.20312v3.66407q.008 1.20312.33594 1.82031v.13281zm-1.86719-1.57031q.5 0 .92188-.21875.42187-.22656.625-.60156v-1.45313h-.84375q-1.69531 0-1.80469 1.17188l-.008.13281q0 .42187.29687.69531.29688.27344.8125.27344zm10.125-.76563q0-.41406-.41406-.64843-.40625-.24219-1.3125-.42969-3.01562-.63281-3.01562-2.5625 0-1.125.92968-1.875.9375-.75781 2.44532-.75781 1.60937 0 2.57031.75781.96875.75781.96875 1.96875h-2.25781q0-.48438-.3125-.79688-.3125-.32031-.97657-.32031-.57031 0-.88281.25781-.3125.25782-.3125.65625 0 .375.35156.60938.35938.22656 1.20313.39844.84375.16406 1.42187.375 1.78907.65625 1.78907 2.27343 0 1.15625-.99219 1.875-.99219.71094-2.5625.71094-1.0625 0-1.89063-.375-.82031-.38281-1.28906-1.03906-.46875-.66406-.46875-1.42969h2.14063q.0312.60156.44531.92188.41406.32031 1.10937.32031.64844 0 .97657-.24219.33593-.25.33593-.64844zm12.21094 0q0-.41406-.41406-.64843-.40625-.24219-1.3125-.42969-3.01563-.63281-3.01563-2.5625 0-1.125.92969-1.875.9375-.75781 2.44531-.75781 1.60938 0 2.57032.75781.96875.75781.96875 1.96875h-2.25782q0-.48438-.3125-.79688-.3125-.32031-.97656-.32031-.57031 0-.88281.25781-.3125.25782-.3125.65625 0 .375.35156.60938.35938.22656 1.20313.39844.84375.16406 1.42187.375 1.78906.65625 1.78906 2.27343 0 1.15625-.99218 1.875-.99219.71094-2.5625.71094-1.0625 0-1.89063-.375-.82031-.38281-1.28906-1.03906-.46875-.66406-.46875-1.42969h2.14062q.0312.60156.44532.92188.41406.32031 1.10937.32031.64844 0 .97656-.24219.33594-.25.33594-.64844zm6.35156-8.19531v2.07813h1.44532v1.65625h-1.44532v4.21875q0 .46875.17969.67187.17969.20313.6875.20313.375 0 .66406-.0547v1.71094q-.66406.20312-1.36718.20312-2.375 0-2.42188-2.39844v-4.55468h-1.23437v-1.65625h1.23437v-2.07813zm2.11719 6.22656q0-1.25781.48438-2.24218.48437-.98438 1.39062-1.52344.91406-.53906 2.11719-.53906 1.71094 0 2.78906 1.04687 1.08594 1.04688 1.21094 2.84375l.0156.57813q0 1.94531-1.08593 3.125-1.08594 1.17187-2.91407 1.17187-1.82812 0-2.92187-1.17187-1.08594-1.17188-1.08594-3.1875zm2.25781.16407q0 1.20312.45313 1.84375.45312.63281 1.29687.63281.82032 0 1.28125-.625.46094-.63281.46094-2.01563 0-1.17968-.46094-1.82812-.46093-.64844-1.29687-.64844-.82813 0-1.28125.64844-.45313.64062-.45313 1.99219zm11.89063-2.19532q-.46094-.0625-.8125-.0625-1.28125 0-1.67969.86719v5.53125H591.625v-8.45312h2.13281l.0625 1.00781q.67969-1.16406 1.88281-1.16406.375 0 .70313.10156zm5.75 6.33594q-.15625-.30469-.22656-.75781-.82032.91406-2.13282.91406-1.24218 0-2.0625-.71875-.8125-.71875-.8125-1.8125 0-1.34375.99219-2.0625 1-.71875 2.88281-.72656h1.03907v-.48438q0-.58593-.30469-.9375-.29688-.35156-.94531-.35156-.57032 0-.89844.27344-.32031.27344-.32031.75h-2.25782q0-.73438.45313-1.35938.45312-.625 1.28125-.97656.82812-.35937 1.85937-.35937 1.5625 0 2.47657.78906.92187.78125.92187 2.20312v3.66407q.008 1.20312.33594 1.82031v.13281zm-1.86719-1.57031q.5 0 .92188-.21875.42187-.22656.625-.60156v-1.45313h-.84375q-1.69532 0-1.80469 1.17188l-.008.13281q0 .42187.29687.69531.29688.27344.8125.27344zm5.21875-2.71875q0-1.94531.92188-3.13281.92968-1.1875 2.5-1.1875 1.39062 0 2.16406.95312l.0937-.79687h2.04687v8.17187q0 1.10938-.50781 1.92969-.5.82031-1.41406 1.25-.91406.42969-2.14063.42969-.92968 0-1.8125-.375-.88281-.36719-1.33593-.95313l1-1.375q.84375.94531 2.04687.94531.89844 0 1.39844-.48437.5-.47656.5-1.35938v-.45312q-.78125.88281-2.05469.88281-1.52344 0-2.46875-1.1875-.9375-1.19531-.9375-3.16406zm2.25781.16406q0 1.14844.46094 1.80469.46094.64844 1.26563.64844 1.03125 0 1.47656-.77344V116.625q-.45313-.77344-1.46094-.77344-.8125 0-1.28125.66407-.46094.66406-.46094 1.98437zm11.09375 4.28125q-1.85937 0-3.03125-1.14062-1.16406-1.14063-1.16406-3.03907v-.21875q0-1.27343.49219-2.27343.49219-1.00782 1.39062-1.54688.90625-.54687 2.0625-.54687 1.73438 0 2.72657 1.09375 1 1.09375 1 3.10156v.92187h-5.38282q.10938.82813.65625 1.32813.55469.5 1.39844.5 1.30469 0 2.03906-.94531l1.10938 1.24218q-.50781.71875-1.375 1.125-.86719.39844-1.92188.39844zm-.25781-6.9375q-.67187 0-1.09375.45313-.41406.45312-.53125 1.29687h3.14063v-.17969q-.0156-.75-.40625-1.15625-.39063-.41406-1.10938-.41406zM627.67187 118q0-1.78906.47657-3.40625.47656-1.61719 1.40625-2.85937.92968-1.25 2.01562-1.73438l.4375 1.21875q-1.14062.84375-1.78125 2.60938-.64062 1.76562-.64062 4.125v.24218q0 2.36719.63281 4.14063t1.78906 2.64844l-.4375 1.19531q-1.0625-.47656-1.98437-1.6875-.91407-1.20313-1.39844-2.78125-.48438-1.57813-.51563-3.29688zm7.71875-2.0625h1.20313q.85937 0 1.27344-.42969.41406-.42968.41406-1.14062 0-.6875-.41406-1.07031-.40625-.38282-1.125-.38282-.64844 0-1.08594.35938-.4375.35156-.4375.92187h-2.25781q0-.89062.47656-1.59375.48437-.71093 1.34375-1.10937.86719-.39844 1.90625-.39844 1.80469 0 2.82812.86719 1.02344.85937 1.02344 2.375 0 .78125-.47656 1.4375t-1.25 1.00781q.96094.34375 1.42969 1.03125.47656.6875.47656 1.625 0 1.51563-1.10938 2.42969-1.10156.91406-2.92187.91406-1.70313 0-2.78906-.89844-1.07813-.89843-1.07813-2.375h2.25781q0 .64063.47657 1.04688.48437.40625 1.1875.40625.80468 0 1.25781-.42188.46094-.42968.46094-1.13281 0-1.70312-1.875-1.70312h-1.19532zm14.53907 1.98438q0 2.35937-.97657 3.60937-.97656 1.25-2.85937 1.25-1.85938 0-2.84375-1.22656-.98438-1.22656-1.00781-3.51563v-2.09375q0-2.38281.98437-3.61718.99219-1.23438 2.85156-1.23438 1.85938 0 2.84375 1.22656.98438 1.21875 1.00782 3.50782zm-2.25782-2.29688q0-1.41406-.39062-2.05469-.38281-.64843-1.20313-.64843-.79687 0-1.17968.61718-.375.60938-.39844 1.91407v2.76562q0 1.39063.375 2.07031.38281.67188 1.21875.67188.82812 0 1.19531-.64844.36719-.64844.38281-1.98437zm3.75-2.1875q0-1.04687.67969-1.69531.67969-.65625 1.78125-.65625 1.11719 0 1.79688.64844.67968.64062.67968 1.74218v.5625q0 1.05469-.67968 1.69532-.67969.64062-1.78125.64062-1.10938 0-1.79688-.64062-.67969-.64844-.67969-1.74219zm1.5.60156q0 .46875.26563.75782.27344.28125.71094.28125t.69531-.28907q.25781-.28906.25781-.77343v-.57813q0-.46875-.25781-.75781t-.71094-.28906q-.42969 0-.69531.28906-.26563.28125-.26563.78906zm3.9375 5.79688q0-1.05469.6875-1.69531.6875-.64844 1.78125-.64844 1.10938 0 1.78907.64062.6875.63282.6875 1.75v.5625q0 1.04688-.67188 1.69532-.67187.64062-1.78906.64062-1.125 0-1.80469-.64844-.67969-.64843-.67969-1.71875zm1.5.60937q0 .42969.28125.73438t.70313.30469q.95312 0 .95312-1.05469v-.59375q0-.46875-.26562-.75-.26563-.28906-.70313-.28906-.4375 0-.70312.28906-.26563.28125-.26563.77344zm-4.01562 1.32813-1.10156-.59375 5.55468-8.89063 1.10157.59375zm12.90625-3.59375q0 1.76562-.50781 3.39844-.50782 1.63281-1.46094 2.88281-.95313 1.25-2.03906 1.71875l-.4375-1.19531q1.10937-.83594 1.75-2.57813.64062-1.74219.66406-4.00781v-.41406q0-2.33594-.64063-4.11719-.63281-1.78125-1.77343-2.67188l.4375-1.19531q1.0625.46094 2 1.67188.94531 1.21093 1.46093 2.82031.52344 1.60937.54688 3.33594z" aria-label="End of use as storage (30%)" font-family="Roboto" font-size="16px" font-weight="700" style="line-height:1.2;-inkscape-font-specification:&quot;Roboto Bold&quot;"/><path fill="#363a32" d="M157.98828 338.5159h-4.5v4.64844h-2.34375v-11.375h7.40625v1.89843h-5.0625v2.9375h4.5zm4.15625 4.64844h-2.26562v-8.45313h2.26562zm-2.39844-10.64063q0-.50781.33594-.83594.34375-.32812.92969-.32812.57812 0 .92187.32812.34375.32813.34375.83594 0 .51563-.35156.84375-.34375.32813-.91406.32813t-.92188-.32813q-.34375-.32812-.34375-.84375zm9.00782 4.30469q-.46094-.0625-.8125-.0625-1.28125 0-1.67969.86719v5.53125h-2.25781v-8.45313h2.13281l.0625 1.00781q.67969-1.16406 1.88281-1.16406.375 0 .70313.10156zm5.66406 4q0-.41406-.41406-.64844-.40625-.24219-1.3125-.42969-3.01563-.63281-3.01563-2.5625 0-1.125.92969-1.875.9375-.75781 2.44531-.75781 1.60938 0 2.57031.75781.96875.75782.96875 1.96875h-2.25781q0-.48437-.3125-.79687-.3125-.32031-.97656-.32031-.57031 0-.88281.25781t-.3125.65625q0 .375.35156.60937.35937.22657 1.20312.39844.84375.16406 1.42188.375 1.78906.65625 1.78906 2.27344 0 1.15625-.99219 1.875-.99218.71094-2.5625.71094-1.0625 0-1.89062-.375-.82031-.38282-1.28906-1.03907-.46875-.66406-.46875-1.42968h2.14062q.0312.60156.44531.92187.41407.32031 1.10938.32031.64844 0 .97656-.24218.33594-.25.33594-.64844zm6.35156-8.19531v2.07812h1.44531v1.65625h-1.44531v4.21875q0 .46875.17969.67188.17969.20312.6875.20312.375 0 .66406-.0547v1.71094q-.66406.20313-1.36719.20313-2.375 0-2.42187-2.39844v-4.55469h-1.23438v-1.65625h1.23438v-2.07812zm9.07031 10.53125h-2.26562v-12h2.26562zm4.24219 0h-2.26562v-8.45313h2.26562zm-2.39844-10.64063q0-.50781.33594-.83594.34375-.32812.92969-.32812.57812 0 .92187.32812.34375.32813.34375.83594 0 .51563-.35156.84375-.34375.32813-.91406.32813t-.92188-.32813q-.34375-.32812-.34375-.84375zm4.875 10.64063v-6.79688h-1.25781v-1.65625h1.25781v-.71875q0-1.42187.8125-2.20312.82032-.78907 2.28907-.78907.46875 0 1.14843.15625l-.0234 1.75q-.28125-.0703-.6875-.0703-1.27344 0-1.27344 1.19531v.67969h1.67969v1.65625h-1.67969v6.79688zm8.82032.15625q-1.85938 0-3.03125-1.14063-1.16407-1.14062-1.16407-3.03906v-.21875q0-1.27344.49219-2.27344.49219-1.00781 1.39063-1.54687.90625-.54688 2.0625-.54688 1.73437 0 2.72656 1.09375 1 1.09375 1 3.10156v.92188h-5.38281q.10937.82812.65625 1.32812.55468.5 1.39843.5 1.30469 0 2.03907-.94531l1.10937 1.24219q-.50781.71875-1.375 1.125-.86719.39844-1.92187.39844zm-.25782-6.9375q-.67187 0-1.09375.45312-.41406.45313-.53125 1.29688h3.14063v-.17969q-.0156-.75-.40625-1.15625-.39063-.41406-1.10938-.41406z" aria-label="First life" font-family="Roboto" font-size="16px" font-weight="700" style="line-height:1.2;-inkscape-font-specification:&quot;Roboto Bold&quot;;text-align:center" text-anchor="middle"/><g fill="#b3ab3f" color="#000"><path d="M479.99998 220.00069v-90M479 130v2h2v-2zm0 4v2h2v-2zm0 4v2h2v-2zm0 4v2h2v-2zm0 4v2h2v-2zm0 4v2h2v-2zm0 4v2h2v-2zm0 4v2h2v-2zm0 4v2h2v-2zm0 4v2h2v-2zm0 4v2h2v-2zm0 4v2h2v-2zm0 4v2h2v-2zm0 4v2h2v-2zm0 4v2h2v-2zm0 4v2h2v-2zm0 4v2h2v-2zm0 4v2h2v-2zm0 4v2h2v-2zm0 4v2h2v-2zm0 4v2h2v-2zm0 4v2h2v-2zm0 4v2h2v-2z" style="-inkscape-stroke:none"/></g><path fill="#363a32" d="M346.59375 340.17996q0-.66406-.46875-1.01562-.46875-.35938-1.6875-.75-1.21875-.39844-1.92969-.78125-1.9375-1.04688-1.9375-2.82032 0-.92187.51563-1.64062.52343-.72656 1.49218-1.13281.97657-.40625 2.1875-.40625 1.21875 0 2.17188.44531.95312.4375 1.47656 1.24219.53125.80468.53125 1.82812h-2.34375q0-.78125-.49219-1.21094-.49218-.4375-1.38281-.4375-.85937 0-1.33594.36719-.47656.35938-.47656.95313 0 .55468.55469.92968.5625.375 1.64844.70313 2 .60156 2.91406 1.49219.91406.89062.91406 2.21875 0 1.47656-1.11719 2.32031-1.11718.83594-3.00781.83594-1.3125 0-2.39062-.47657-1.07813-.48437-1.64844-1.32031-.5625-.83594-.5625-1.9375h2.35156q0 1.88281 2.25 1.88281.83594 0 1.30469-.33593.46875-.34375.46875-.95313zm7.67969 3.14063q-1.85938 0-3.03125-1.14063-1.16407-1.14062-1.16407-3.03906v-.21875q0-1.27344.49219-2.27344.49219-1.00781 1.39063-1.54687.90625-.54688 2.0625-.54688 1.73437 0 2.72656 1.09375 1 1.09375 1 3.10156v.92188h-5.38281q.10937.82812.65625 1.32812.55468.5 1.39843.5 1.30469 0 2.03907-.94531l1.10937 1.24219q-.50781.71875-1.375 1.125-.86719.39844-1.92187.39844zm-.25782-6.9375q-.67187 0-1.09375.45312-.41406.45313-.53125 1.29688h3.14063v-.17969q-.0156-.75-.40625-1.15625-.39063-.41406-1.10938-.41406zm8.53125 5.11718q.625 0 1.01563-.34375.39062-.34375.40625-.91406h2.11719q-.008.85938-.46875 1.57813-.46094.71093-1.26563 1.10937-.79687.39063-1.76562.39063-1.8125 0-2.85938-1.14844-1.04687-1.15625-1.04687-3.1875v-.14844q0-1.95312 1.03906-3.11719 1.03906-1.16406 2.85156-1.16406 1.58594 0 2.53906.90625.96094.89844.97657 2.39844h-2.11719q-.0156-.65625-.40625-1.0625-.39063-.41406-1.03125-.41406-.78906 0-1.19531.57812-.39844.57031-.39844 1.85938v.23437q0 1.30469.39844 1.875.39843.57031 1.21093.57031zm4.47657-2.64062q0-1.25781.48437-2.24219.48438-.98437 1.39063-1.52344.91406-.53906 2.11718-.53906 1.71094 0 2.78907 1.04688 1.08593 1.04687 1.21093 2.84375l.0156.57812q0 1.94531-1.08594 3.125-1.08594 1.17188-2.91406 1.17188-1.82813 0-2.92188-1.17188-1.08593-1.17187-1.08593-3.1875zm2.25781.16406q0 1.20313.45312 1.84375.45313.63281 1.29688.63281.82031 0 1.28125-.625.46094-.63281.46094-2.01562 0-1.17969-.46094-1.82813-.46094-.64843-1.29688-.64843-.82812 0-1.28125.64843-.45312.64063-.45312 1.99219zm9.21875-4.3125.0703.97656q.90625-1.13281 2.42969-1.13281 1.34375 0 2 .78906.65625.78907.67187 2.35938v5.46094h-2.25781v-5.40625q0-.71875-.3125-1.03907-.3125-.32812-1.03906-.32812-.95313 0-1.42969.8125v5.96094h-2.2578v-8.45313zm6.53125 4.16406q0-1.97656.88281-3.14843.89063-1.17188 2.42969-1.17188 1.23437 0 2.03906.92188v-4.3125h2.26563v12h-2.03907l-.10937-.89844q-.84375 1.05469-2.17188 1.05469-1.49218 0-2.39843-1.17188-.89844-1.17969-.89844-3.27344zm2.25781.16407q0 1.1875.41406 1.82031.41407.63281 1.20313.63281 1.04687 0 1.47656-.88281v-3.33594q-.42187-.88281-1.46094-.88281-1.63281 0-1.63281 2.64844zm13.47656 4.125H398.5v-12h2.26562zm4.24219 0h-2.26562v-8.45313h2.26562zm-2.39844-10.64063q0-.50781.33594-.83594.34375-.32812.92969-.32812.57812 0 .92187.32812.34375.32813.34375.83594 0 .51563-.35156.84375-.34375.32813-.91406.32813t-.92188-.32813q-.34375-.32812-.34375-.84375zm4.875 10.64063v-6.79688h-1.25781v-1.65625h1.25781v-.71875q0-1.42187.8125-2.20312.82032-.78907 2.28907-.78907.46875 0 1.14843.15625l-.0234 1.75q-.28125-.0703-.6875-.0703-1.27344 0-1.27344 1.19531v.67969h1.67969v1.65625H409.75v6.79688zm8.82032.15625q-1.85938 0-3.03125-1.14063-1.16407-1.14062-1.16407-3.03906v-.21875q0-1.27344.49219-2.27344.49219-1.00781 1.39063-1.54687.90625-.54688 2.0625-.54688 1.73437 0 2.72656 1.09375 1 1.09375 1 3.10156v.92188h-5.38281q.10937.82812.65625 1.32812.55468.5 1.39843.5 1.30469 0 2.03907-.94531l1.10937 1.24219q-.50781.71875-1.375 1.125-.86719.39844-1.92187.39844zm-.25782-6.9375q-.67187 0-1.09375.45312-.41406.45313-.53125 1.29688h3.14063v-.17969q-.0156-.75-.40625-1.15625-.39063-.41406-1.10938-.41406z" aria-label="Second life" font-family="Roboto" font-size="16px" font-weight="700" style="line-height:1.2;-inkscape-font-specification:&quot;Roboto Bold&quot;;text-align:center" text-anchor="middle"/><path fill="#363a32" d="M550.125 339.00027h-1.86719v4.16407h-2.34375v-11.375h4.22656q2.01563 0 3.10938.89843 1.09375.89844 1.09375 2.53907 0 1.16406-.50781 1.94531-.5.77344-1.52344 1.23437l2.46094 4.64844v.10938h-2.51563zm-1.86719-1.89843h1.89063q.88281 0 1.36718-.44532.48438-.45312.48438-1.24218 0-.80469-.46094-1.26563-.45312-.46094-1.39844-.46094h-1.88281zm11.60938 6.21875q-1.85938 0-3.03125-1.14063-1.16407-1.14062-1.16407-3.03906v-.21875q0-1.27344.49219-2.27344.49219-1.00781 1.39063-1.54687.90625-.54688 2.0625-.54688 1.73437 0 2.72656 1.09375 1 1.09375 1 3.10156v.92188h-5.38281q.10937.82812.65625 1.32812.55468.5 1.39843.5 1.30469 0 2.03907-.94531l1.10937 1.24219q-.50781.71875-1.375 1.125-.86719.39844-1.92187.39844zm-.25782-6.9375q-.67187 0-1.09375.45312-.41406.45313-.53125 1.29688h3.14063v-.17969q-.0156-.75-.40625-1.15625-.39063-.41406-1.10938-.41406zm8.53125 5.11718q.625 0 1.01563-.34375.39062-.34375.40625-.91406h2.11719q-.008.85938-.46875 1.57813-.46094.71093-1.26563 1.10937-.79687.39063-1.76562.39063-1.8125 0-2.85938-1.14844-1.04687-1.15625-1.04687-3.1875v-.14844q0-1.95312 1.03906-3.11719 1.03906-1.16406 2.85156-1.16406 1.58594 0 2.53906.90625.96094.89844.97657 2.39844h-2.11719q-.0156-.65625-.40625-1.0625-.39063-.41406-1.03125-.41406-.78906 0-1.19531.57812-.39844.57031-.39844 1.85938v.23437q0 1.30469.39844 1.875.39843.57031 1.21093.57031zm7.98438-1.53125 1.5625-5.25781h2.42187l-3.39843 9.76563-.1875.44531q-.75782 1.65625-2.5 1.65625-.49219 0-1-.14844v-1.71094l.34375.008q.64062 0 .95312-.19532.32031-.19531.5-.64843l.26563-.69532-2.96094-8.47656h2.42969zm8.28906 1.53125q.625 0 1.01563-.34375.39062-.34375.40625-.91406h2.11718q-.008.85938-.46875 1.57813-.46093.71093-1.26562 1.10937-.79688.39063-1.76563.39063-1.8125 0-2.85937-1.14844-1.04688-1.15625-1.04688-3.1875v-.14844q0-1.95312 1.03907-3.11719 1.03906-1.16406 2.85156-1.16406 1.58594 0 2.53906.90625.96094.89844.97656 2.39844h-2.11718q-.0156-.65625-.40625-1.0625-.39063-.41406-1.03125-.41406-.78907 0-1.19532.57812-.39843.57031-.39843 1.85938v.23437q0 1.30469.39843 1.875.39844.57031 1.21094.57031zm7.21094 1.66407h-2.26563v-12h2.26563zm4.24219 0h-2.26563v-8.45313h2.26563zm-2.39844-10.64063q0-.50781.33594-.83594.34375-.32812.92968-.32812.57813 0 .92188.32812.34375.32813.34375.83594 0 .51563-.35156.84375-.34375.32813-.91407.32813-.57031 0-.92187-.32813-.34375-.32812-.34375-.84375zm6.33594 2.1875.0703.97656q.90625-1.13281 2.42969-1.13281 1.34375 0 2 .78906.65625.78907.67187 2.35938v5.46094h-2.25781v-5.40625q0-.71875-.3125-1.03907-.3125-.32812-1.03906-.32812-.95313 0-1.42969.8125v5.96094h-2.25781v-8.45313zm6.55468 4.16406q0-1.94531.92188-3.13281.92969-1.1875 2.5-1.1875 1.39062 0 2.16406.95313l.0937-.79688h2.04688v8.17188q0 1.10937-.50782 1.92968-.5.82032-1.41406 1.25-.91406.42969-2.14062.42969-.92969 0-1.8125-.375-.88282-.36719-1.33594-.95312l1-1.375q.84375.94531 2.04687.94531.89844 0 1.39844-.48438.5-.47656.5-1.35937v-.45313q-.78125.88282-2.05469.88282-1.52343 0-2.46875-1.1875-.9375-1.19532-.9375-3.16407zm2.25782.16407q0 1.14843.46093 1.80468.46094.64844 1.26563.64844 1.03125 0 1.47656-.77344v-3.55468q-.45312-.77344-1.46094-.77344-.8125 0-1.28125.66406-.46093.66406-.46093 1.98438z" aria-label="Recycling" font-family="Roboto" font-size="16px" font-weight="700" style="line-height:1.2;-inkscape-font-specification:&quot;Roboto Bold&quot;;text-align:center" text-anchor="middle"/><path fill="#363a32" d="M-222.09451 21.046875V11.09375h3.48633q1.81152 0 2.74804.697266.93653.690429.93653 2.030273 0 .731445-.37598 1.291992-.37598.553711-1.0459.813477.76563.191406 1.20313.772461.44433.581054.44433 1.421875 0 1.435547-.91601 2.173828-.91602.738281-2.61133.751953zm2.05078-4.333984v2.686523h1.75683q.72461 0 1.12793-.341797.41016-.348633.41016-.957031 0-1.367188-1.41504-1.387695zm0-1.449219h1.51758q1.55175-.02734 1.55175-1.237305 0-.676758-.39648-.970703-.38965-.300781-1.2373-.300781h-1.43555zm11.04004 5.783203q-.13672-.266602-.19824-.663086-.71778.799805-1.86622.799805-1.08691 0-1.80468-.628907-.71094-.628906-.71094-1.585937 0-1.175781.86816-1.804688.875-.628906 2.52246-.635742h.90918v-.423828q0-.512695-.2666-.820312-.25976-.307617-.82715-.307617-.49902 0-.78613.239257-.28027.239258-.28027.65625h-1.97559q0-.642578.39649-1.189453.39648-.546875 1.12109-.854492.72461-.314453 1.62695-.314453 1.36719 0 2.167.69043.80664.683593.80664 1.927734v3.206055q.007 1.052734.29394 1.592773v.116211zm-1.63379-1.374023q.4375 0 .80664-.191407.36914-.198242.54687-.526367v-1.271484h-.73828q-1.4834 0-1.5791 1.02539l-.007.116211q0 .369141.25976.608399.25977.239258.71094.239258zm7.21875-7.840821v1.81836h1.26465v1.449218h-1.26465v3.691407q0 .410156.15722.58789.15723.177735.60157.177735.32812 0 .58105-.04785v1.49707q-.58105.177735-1.19629.177735-2.07812 0-2.11914-2.098633v-3.985352h-1.08008v-1.449218h1.08008v-1.81836zm4.73047 0v1.81836h1.26465v1.449218h-1.26465v3.691407q0 .410156.15722.58789.15723.177735.60157.177735.32812 0 .58105-.04785v1.49707q-.58105.177735-1.19629.177735-2.07812 0-2.11914-2.098633v-3.985352h-1.08008v-1.449218h1.08008v-1.81836zm5.76953 9.351563q-1.62695 0-2.65235-.998047-1.01855-.998047-1.01855-2.65918v-.191406q0-1.114258.43066-1.989258.43067-.881836 1.2168-1.353515.79297-.478516 1.80469-.478516 1.51758 0 2.38574.957031.875.957031.875 2.713867v.806641h-4.70996q.0957.724609.57422 1.162109.48535.4375 1.22363.4375 1.1416 0 1.78418-.827148l.9707 1.086914q-.44433.628906-1.20312.984375-.75879.348633-1.68164.348633zm-.22559-6.070313q-.58789 0-.95703.396485-.3623.396484-.46484 1.134765h2.74804v-.157226q-.0137-.65625-.35546-1.011719-.3418-.362305-.97071-.362305zm8.54492.389649q-.40332-.05469-.71093-.05469-1.1211 0-1.46973.758789v4.839844h-1.97559v-7.396484h1.86622l.0547.881836q.59473-1.018555 1.64746-1.018555.32813 0 .61524.08887zm3.83497 2.748047 1.36718-4.600586h2.11914l-2.97363 8.544921-.16406.389649q-.66309 1.449219-2.1875 1.449219-.43067 0-.875-.129883v-1.49707l.30078.0068q.56055 0 .83398-.170898.28028-.170898.4375-.567383l.23243-.608398-2.59082-7.416992h2.12597zm10.82812 1.339843q.54688 0 .88867-.300781.3418-.300781.35547-.799805h1.85254q-.007.751953-.41016 1.38086-.40332.62207-1.10742.970703-.69726.341797-1.54492.341797-1.58594 0-2.50195-1.004883-.91602-1.011719-.91602-2.789063v-.129882q0-1.708985.90918-2.727539.90918-1.018555 2.49512-1.018555 1.38769 0 2.22168.792969.84082.786132.85449 2.098632h-1.85254q-.0137-.574218-.35547-.929687-.34179-.362305-.90234-.362305-.69043 0-1.0459.50586-.34863.499023-.34863 1.626953v.205078q0 1.141601.34863 1.640625.34863.499023 1.05957.499023zm8.51074 1.456055q-.13672-.266602-.19824-.663086-.71777.799805-1.86621.799805-1.08691 0-1.80469-.628907-.71094-.628906-.71094-1.585937 0-1.175781.86817-1.804688.875-.628906 2.52246-.635742h.90918v-.423828q0-.512695-.2666-.820312-.25977-.307617-.82715-.307617-.49902 0-.78613.239257-.28028.239258-.28028.65625h-1.97558q0-.642578.39648-1.189453.39649-.546875 1.12109-.854492.72461-.314453 1.62696-.314453 1.36719 0 2.16699.69043.80664.683593.80664 1.927734v3.206055q.007 1.052734.29395 1.592773v.116211zm-1.63379-1.374023q.4375 0 .80664-.191407.36914-.198242.54688-.526367v-1.271484h-.73828q-1.4834 0-1.5791 1.02539l-.007.116211q0 .369141.25977.608399.25976.239258.71093.239258zm11.51172-2.25586q0 1.708985-.77929 2.741211-.77247 1.025391-2.0918 1.025391-1.1211 0-1.81153-.779297v3.486328h-1.97558V13.650391h1.83203l.0684.724609q.71777-.861328 1.87305-.861328 1.36718 0 2.12597 1.011719.75879 1.011718.75879 2.789062zm-1.97558-.143555q0-1.032226-.36914-1.592773-.36231-.560547-1.05957-.560547-.92969 0-1.27833.710938v3.02832q.36231.731445 1.292.731445 1.41504 0 1.41504-2.317383zm7.48535 3.773438q-.13672-.266602-.19824-.663086-.71778.799805-1.86622.799805-1.08691 0-1.80468-.628907-.71094-.628906-.71094-1.585937 0-1.175781.86816-1.804688.875-.628906 2.52246-.635742h.90918v-.423828q0-.512695-.2666-.820312-.25976-.307617-.82715-.307617-.49902 0-.78613.239257-.28027.239258-.28027.65625h-1.97559q0-.642578.39649-1.189453.39648-.546875 1.12109-.854492.72461-.314453 1.62695-.314453 1.36719 0 2.167.69043.80664.683593.80664 1.927734v3.206055q.007 1.052734.29394 1.592773v.116211zm-1.63379-1.374023q.4375 0 .80664-.191407.36914-.198242.54687-.526367v-1.271484h-.73828q-1.4834 0-1.5791 1.02539l-.007.116211q0 .369141.25976.608399.25977.239258.71094.239258zm7.92969-.08203q.54687 0 .88867-.300781.34179-.300781.35547-.799805h1.85254q-.007.751953-.41016 1.38086-.40332.62207-1.10742.970703-.69727.341797-1.54492.341797-1.58594 0-2.50196-1.004883-.91601-1.011719-.91601-2.789063v-.129882q0-1.708985.90918-2.727539.90918-1.018555 2.49511-1.018555 1.3877 0 2.22168.792969.84082.786132.8545 2.098632h-1.85254q-.0137-.574218-.35547-.929687-.3418-.362305-.90235-.362305-.69043 0-1.04589.50586-.34864.499023-.34864 1.626953v.205078q0 1.141601.34864 1.640625.34863.499023 1.05957.499023zm6.30957 1.456055h-1.98243v-7.396484h1.98243zm-2.09864-9.310547q0-.444336.29395-.731445.30078-.28711.81348-.28711.50585 0 .80664.28711.30078.287109.30078.731445 0 .451172-.30762.738281-.30078.28711-.7998.28711-.49903 0-.80665-.28711-.30078-.287109-.30078-.738281zm6.09082.0957v1.81836h1.26465v1.449218h-1.26465v3.691407q0 .410156.15723.58789.15723.177735.60156.177735.32813 0 .58106-.04785v1.49707q-.58106.177735-1.19629.177735-2.07813 0-2.11914-2.098633V15.09961h-1.08008v-1.449218h1.08008v-1.81836zm5.12696 6.418946 1.36718-4.600586h2.11915l-2.97364 8.544921-.16406.389649q-.66309 1.449219-2.1875 1.449219-.43066 0-.875-.129883v-1.49707l.30078.0068q.56055 0 .83399-.170898.28027-.170898.4375-.567383l.23242-.608398-2.59082-7.416992h2.12597zM-116.47244 17q0-1.56543.41699-2.980469.41699-1.415039 1.23047-2.501953.81347-1.09375 1.76367-1.517578l.38281 1.066406q-.99804.738282-1.55859 2.283203-.56055 1.544922-.56055 3.609375v.211914q0 2.071289.55371 3.623047t1.56543 2.317383l-.38281 1.045899q-.92969-.416993-1.73633-1.476563-.7998-1.052734-1.22363-2.433594-.42383-1.380859-.45117-2.884765zm4.71679-3.992187q0-.916016.59473-1.483399.59473-.574219 1.55859-.574219.97754 0 1.57227.567383.59473.560547.59473 1.524414v.492188q0 .922851-.59473 1.483398t-1.55859.560547q-.97071 0-1.57227-.560547-.59473-.567383-.59473-1.524414zm1.3125.526367q0 .410156.23243.663086.23925.246093.62207.246093.38281 0 .60839-.252929.22559-.25293.22559-.676758v-.505859q0-.410157-.22559-.663086-.22558-.25293-.62207-.25293-.37597 0-.60839.25293-.23243.246093-.23243.690429zm3.44532 5.072265q0-.922851.60156-1.483398.60156-.567383 1.55859-.567383.97071 0 1.56543.560547.60157.553711.60157 1.53125v.492187q0 .916016-.5879 1.483399-.58789.560547-1.56543.560547-.98437 0-1.5791-.567383-.59472-.567383-.59472-1.503906zm1.3125.533203q0 .375977.24609.642579.24609.266601.61523.266601.83399 0 .83399-.922851v-.519532q0-.410156-.23242-.65625-.23242-.252929-.61524-.252929-.38281 0-.61523.252929-.23242.246094-.23242.676758zm-3.51368 1.16211-.96386-.519531 4.86035-7.779297.96387.519531zm11.292974-3.144531q0 1.544921-.444336 2.973632-.444336 1.428711-1.278321 2.522461-.833987 1.09375-1.784177 1.503907l-.38281-1.045899q.9707-.731445 1.53125-2.255859.560542-1.524414.58105-3.506836v-.362305q0-2.043945-.56055-3.602539-.55371-1.558594-1.55175-2.337891L-101.41287 10q.92969.40332 1.749998 1.462891.827148 1.05957 1.27832 2.467773.458008 1.408203.478516 2.918945z" aria-label="Battery capacity (%)" font-family="Roboto" font-size="14px" font-weight="700" style="line-height:1.2;-inkscape-font-specification:&quot;Roboto Bold&quot;;text-align:center" text-anchor="middle" transform="rotate(-90)"/></svg>