<svg xmlns="http://www.w3.org/2000/svg" viewBox="0 0 860 332"><defs><linearGradient id="a"><stop offset="0" stop-color="#b4edad"/><stop offset="1" stop-color="#30af59"/></linearGradient></defs><path fill="#30af59" d="M20 32c-.2768 0-.54196.0554-.78124.1562-.2396.101-.45204.24892-.63284.42968-.1808.1808-.3288.39336-.42968.63282C18.05504 33.45818 18 33.723 18 34v4h-4c-2.216 0-4 1.784-4 4v54c0 2.216 1.784 4 4 4h20c2.216 0 4-1.784 4-4V42c0-2.216-1.784-4-4-4h-4v-4c0-.277-.0552-.5418-.1564-.78124-.1008-.23944-.2488-.45206-.42968-.63282-.1808-.1808-.3932-.32876-.63284-.4297C28.5418 32.05534 28.2768 32 28 32Z"/><path fill="#fe8c17" d="M60 32c-.2768 0-.54196.0554-.78124.1562-.2396.101-.45204.24892-.63284.42968-.1808.1808-.3288.39336-.42968.63282C58.05504 33.45818 58 33.723 58 34v4h-4c-2.216 0-4 1.784-4 4v54c0 2.216 1.784 4 4 4h20c2.216 0 4-1.784 4-4V42c0-2.216-1.784-4-4-4h-4v-4c0-.277-.0552-.5418-.1564-.78124-.1008-.23944-.2488-.45206-.42968-.63282-.1808-.1808-.3932-.32876-.63284-.4297C68.5418 32.05534 68.2768 32 68 32Z"/><path fill="#30af59" d="M100 32c-.2768 0-.54196.0554-.78124.1562-.2396.101-.45204.24892-.63284.42968-.1808.1808-.3288.39336-.42968.63282C98.05504 33.45818 98 33.723 98 34v4h-4c-2.216 0-4 1.784-4 4v54c0 2.216 1.784 4 4 4h20c2.216 0 4-1.784 4-4V42c0-2.216-1.784-4-4-4h-4v-4c0-.277-.0552-.5418-.1564-.78124-.1008-.23944-.2488-.45206-.42968-.63282-.1808-.1808-.3932-.32876-.63284-.4297C108.5418 32.05534 108.2768 32 108 32Z"/><path fill="red" d="M140 32c-.2768 0-.54196.0554-.78124.1562-.2396.101-.45204.24892-.63284.42968-.1808.1808-.3288.39336-.42968.63282-.1012.23948-.15624.5043-.15624.7813v4h-4c-2.216 0-4 1.784-4 4v54c0 2.216 1.784 4 4 4h20c2.216 0 4-1.784 4-4V42c0-2.216-1.784-4-4-4h-4v-4c0-.277-.0552-.5418-.1564-.78124-.1008-.23944-.2488-.45206-.42968-.63282-.1808-.1808-.3932-.32876-.63284-.4297C148.5418 32.05534 148.2768 32 148 32Z"/><path fill="#fc5d02" d="M20 112c-.2768 0-.54196.0554-.78124.1562-.2396.101-.45204.24892-.63284.42968-.1808.1808-.3288.39336-.42968.63282-.1012.23948-.15624.5043-.15624.7813v4h-4c-2.216 0-4 1.784-4 4v54c0 2.216 1.784 4 4 4h20c2.216 0 4-1.784 4-4v-54c0-2.216-1.784-4-4-4h-4v-4c0-.277-.0552-.5418-.1564-.78124-.1008-.23944-.2488-.45206-.42968-.63282-.1808-.1808-.3932-.32876-.63284-.4297C28.5418 112.05534 28.2768 112 28 112Z"/><path fill="#fe8c17" d="M60 112c-.2768 0-.54196.0554-.78124.1562-.2396.101-.45204.24892-.63284.42968-.1808.1808-.3288.39336-.42968.63282-.1012.23948-.15624.5043-.15624.7813v4h-4c-2.216 0-4 1.784-4 4v54c0 2.216 1.784 4 4 4h20c2.216 0 4-1.784 4-4v-54c0-2.216-1.784-4-4-4h-4v-4c0-.277-.0552-.5418-.1564-.78124-.1008-.23944-.2488-.45206-.42968-.63282-.1808-.1808-.3932-.32876-.63284-.4297C68.5418 112.05534 68.2768 112 68 112Z"/><path fill="#30af59" d="M100 112c-.2768 0-.54196.0554-.78124.1562-.2396.101-.45204.24892-.63284.42968-.1808.1808-.3288.39336-.42968.63282-.1012.23948-.15624.5043-.15624.7813v4h-4c-2.216 0-4 1.784-4 4v54c0 2.216 1.784 4 4 4h20c2.216 0 4-1.784 4-4v-54c0-2.216-1.784-4-4-4h-4v-4c0-.277-.0552-.5418-.1564-.78124-.1008-.23944-.2488-.45206-.42968-.63282-.1808-.1808-.3932-.32876-.63284-.4297C108.5418 112.05534 108.2768 112 108 112Z"/><path fill="#ffc003" d="M140 112c-.2768 0-.54196.0554-.78124.1562-.2396.101-.45204.24892-.63284.42968-.1808.1808-.3288.39336-.42968.63282-.1012.23948-.15624.5043-.15624.7813v4h-4c-2.216 0-4 1.784-4 4v54c0 2.216 1.784 4 4 4h20c2.216 0 4-1.784 4-4v-54c0-2.216-1.784-4-4-4h-4v-4c0-.277-.0552-.5418-.1564-.78124-.1008-.23944-.2488-.45206-.42968-.63282-.1808-.1808-.3932-.32876-.63284-.4297C148.5418 112.05534 148.2768 112 148 112Z"/><path fill="#363a32" d="M458 100v4H278v4h180v4l5.19531-3 5.19727-3-5.19727-3z"/><g fill="#363a32" stroke-width="2" aria-label="Incremental capacity testing using" font-family="Roboto" font-size="16px" font-weight="400" style="line-height:1.25;-inkscape-font-specification:&quot;Roboto Bold&quot;;text-align:center" text-anchor="middle"><path d="M301.5 22H300V10.625h1.5zm3.88281-8.453125.0469 1.0625q.96875-1.21875 2.53125-1.21875 2.67968 0 2.70312 3.023437V22h-1.44531v-5.59375q-.008-.914062-.42188-1.351562-.40625-.4375-1.27343-.4375-.70313 0-1.23438.375t-.82812.984375V22h-1.44532v-8.453125zm10.85156 7.429687q.77344 0 1.35157-.46875.57812-.46875.64062-1.171875h1.36719q-.0391.726563-.5 1.382813-.46094.65625-1.23438 1.046875-.76562.390625-1.625.390625-1.72656 0-2.75-1.148438-1.01562-1.15625-1.01562-3.15625v-.242187q0-1.234375.45312-2.195312.45313-.960938 1.29688-1.492188.85156-.53125 2.00781-.53125 1.42188 0 2.35938.851563.94531.851562 1.00781 2.210937h-1.36719q-.0625-.820312-.625-1.34375-.55469-.53125-1.375-.53125-1.10156 0-1.71094.796875-.60156.789062-.60156 2.289062v.273438q0 1.460937.60156 2.25.60157.789062 1.71875.789062zm9.07032-6.132812q-.32813-.05469-.71094-.05469-1.42188 0-1.92969 1.210937v6h-1.44531v-8.453125h1.40625l.0234.976563q.71093-1.132813 2.01562-1.132813.42188 0 .64063.109375zm4.6875 7.3125q-1.71875 0-2.79688-1.125-1.07812-1.132813-1.07812-3.023438v-.265625q0-1.257812.47656-2.242187.48437-.992187 1.34375-1.546875.86719-.5625 1.875-.5625 1.64844 0 2.5625 1.085938.91406 1.085937.91406 3.109374v.601563h-5.72656q.0312 1.25.72656 2.023437.70313.765625 1.78125.765625.76563 0 1.29688-.3125t.92968-.828125l.88282.6875q-1.0625 1.632813-3.1875 1.632813zm-.17969-7.578125q-.875 0-1.46875.640625-.59375.632813-.73438 1.78125h4.23438v-.109375q-.0625-1.101562-.59375-1.703125-.53125-.609375-1.4375-.609375zm6.50781-1.03125.0391.9375q.92969-1.09375 2.50782-1.09375 1.77343 0 2.41406 1.359375.42187-.609375 1.09375-.984375.67969-.375 1.60156-.375 2.78125 0 2.82813 2.945312V22h-1.44532v-5.578125q0-.90625-.41406-1.351562-.41406-.453125-1.39062-.453125-.80469 0-1.33594.484375-.53125.476562-.61719 1.289062V22h-1.45312v-5.539063q0-1.843749-1.80469-1.843749-1.42188 0-1.94531 1.210937V22h-1.44532v-8.453125zm16.17188 8.609375q-1.71875 0-2.79688-1.125-1.07812-1.132813-1.07812-3.023438v-.265625q0-1.257812.47656-2.242187.48437-.992187 1.34375-1.546875.86719-.5625 1.875-.5625 1.64844 0 2.5625 1.085938.91406 1.085937.91406 3.109374v.601563h-5.72656q.0312 1.25.72656 2.023437.70313.765625 1.78125.765625.76563 0 1.29688-.3125t.92968-.828125l.88282.6875q-1.0625 1.632813-3.1875 1.632813zm-.17969-7.578125q-.875 0-1.46875.640625-.59375.632813-.73438 1.78125h4.23438v-.109375q-.0625-1.101562-.59375-1.703125-.53125-.609375-1.4375-.609375zm6.51562-1.03125.0469 1.0625q.96875-1.21875 2.53125-1.21875 2.67969 0 2.70312 3.023437V22h-1.44531v-5.59375q-.008-.914062-.42187-1.351562-.40625-.4375-1.27344-.4375-.70313 0-1.23438.375t-.82812.984375V22h-1.44531v-8.453125ZM368.25 11.5v2.046875h1.57812v1.117188H368.25v5.242187q0 .507812.21094.765625.21093.25.71875.25.25 0 .6875-.09375V22q-.57032.15625-1.10938.15625-.96875 0-1.46094-.585938-.49218-.585937-.49218-1.664062v-5.242187h-1.53907v-1.117188h1.53907V11.5Zm8.48437 10.5q-.125-.25-.20312-.890625-1.00781 1.046875-2.40625 1.046875-1.25 0-2.05469-.703125-.79687-.710938-.79687-1.796875 0-1.320313 1-2.046875 1.00781-.734375 2.82812-.734375h1.40625v-.664063q0-.757812-.45312-1.203124-.45313-.453125-1.33594-.453125-.77344 0-1.29688.390625-.52343.390625-.52343.945312h-1.45313q0-.632812.44531-1.21875.45313-.59375 1.21875-.9375.77344-.34375 1.69532-.34375 1.46093 0 2.28906.734375.82812.726563.85937 2.007812v3.890625q0 1.164063.29688 1.851563V22Zm-2.39843-1.101563q.67968 0 1.28906-.351562.60937-.351563.88281-.914063v-1.734375H375.375q-2.65625 0-2.65625 1.554688 0 .679687.45312 1.0625.45313.382812 1.16407.382812zM381.78906 22h-1.44531V10h1.44531zm9.66406-1.023438q.77344 0 1.35157-.46875.57812-.46875.64062-1.171875h1.36719q-.0391.726563-.5 1.382813-.46094.65625-1.23438 1.046875-.76562.390625-1.625.390625-1.72656 0-2.75-1.148438-1.01562-1.15625-1.01562-3.15625v-.242187q0-1.234375.45312-2.195312.45313-.960938 1.29688-1.492188.85156-.53125 2.00781-.53125 1.42188 0 2.35938.851563.94531.851562 1.00781 2.210937h-1.36719q-.0625-.820312-.625-1.34375-.55469-.53125-1.375-.53125-1.10156 0-1.71094.796875-.60156.789062-.60156 2.289062v.273438q0 1.460937.60156 2.25.60157.789062 1.71875.789062zM401.65625 22q-.125-.25-.20313-.890625-1.00781 1.046875-2.40625 1.046875-1.25 0-2.05468-.703125-.79688-.710938-.79688-1.796875 0-1.320313 1-2.046875 1.00781-.734375 2.82813-.734375h1.40625v-.664063q0-.757812-.45313-1.203124-.45312-.453125-1.33594-.453125-.77343 0-1.29687.390625t-.52344.945312h-1.45312q0-.632812.44531-1.21875.45312-.59375 1.21875-.9375.77344-.34375 1.69531-.34375 1.46094 0 2.28906.734375.82813.726563.85938 2.007812v3.890625q0 1.164063.29687 1.851563V22Zm-2.39844-1.101563q.67969 0 1.28906-.351562.60938-.351563.88282-.914063v-1.734375h-1.13282q-2.65625 0-2.65625 1.554688 0 .679687.45313 1.0625.45312.382812 1.16406.382812zm13.02344-3.03125q0 1.929688-.88281 3.109375-.88282 1.179688-2.39063 1.179688-1.53906 0-2.42187-.976563V25.25h-1.44532V13.546875h1.32032l.0703.9375q.88281-1.09375 2.45312-1.09375 1.52344 0 2.40625 1.148438.89063 1.148437.89063 3.195312zm-1.44531-.164062q0-1.429688-.60938-2.257812-.60937-.828125-1.67187-.828125-1.3125 0-1.96875 1.164062v4.039062q.64843 1.15625 1.98437 1.15625 1.03906 0 1.64844-.820312.61719-.828125.61719-2.453125zm8.5 4.296875q-.125-.25-.20313-.890625-1.00781 1.046875-2.40625 1.046875-1.25 0-2.05469-.703125-.79687-.710938-.79687-1.796875 0-1.320313 1-2.046875 1.00781-.734375 2.82812-.734375h1.40625v-.664063q0-.757812-.45312-1.203124-.45313-.453125-1.33594-.453125-.77344 0-1.29687.390625-.52344.390625-.52344.945312h-1.45313q0-.632812.44532-1.21875.45312-.59375 1.21875-.9375.77343-.34375 1.69531-.34375 1.46094 0 2.28906.734375.82813.726563.85938 2.007812v3.890625q0 1.164063.29687 1.851563V22Zm-2.39844-1.101563q.67969 0 1.28906-.351562.60938-.351563.88281-.914063v-1.734375h-1.13281q-2.65625 0-2.65625 1.554688 0 .679687.45313 1.0625.45312.382812 1.16406.382812zm9.27344.07813q.77343 0 1.35156-.46875.57812-.46875.64062-1.171875h1.36719q-.0391.726563-.5 1.382813-.46094.65625-1.23437 1.046875-.76563.390625-1.625.390625-1.72657 0-2.75-1.148438-1.01563-1.15625-1.01563-3.15625v-.242187q0-1.234375.45313-2.195312.45312-.960938 1.29687-1.492188.85156-.53125 2.00781-.53125 1.42188 0 2.35938.851563.94531.851562 1.00781 2.210937h-1.36719q-.0625-.820312-.625-1.34375-.55468-.53125-1.375-.53125-1.10156 0-1.71093.796875-.60157.789062-.60157 2.289062v.273433q0 1.460937.60157 2.25.60156.789062 1.71875.789062zM432.76562 22h-1.44531v-8.453125h1.44531zm-1.5625-10.695312q0-.351563.21094-.59375.21875-.242188.64063-.242188.42187 0 .64062.242188.21875.242187.21875.59375 0 .351562-.21875.585937-.21875.234375-.64062.234375-.42188 0-.64063-.234375-.21094-.234375-.21094-.585937zm5.83594.195312v2.046875h1.57813v1.117188h-1.57813v5.242187q0 .507812.21094.765625.21094.25.71875.25.25 0 .6875-.09375V22q-.57031.15625-1.10938.15625-.96875 0-1.46093-.585938-.49219-.585937-.49219-1.664062v-5.242187h-1.53906v-1.117188h1.53906V11.5Zm6.03125 8.382812 1.96875-6.335937h1.54688l-3.39844 9.757812q-.78906 2.109375-2.50781 2.109375l-.27344-.02344-.53906-.101563v-1.171875l.39062.03125q.73438 0 1.14063-.296875.41406-.296875.67968-1.085937l.32032-.859375-3.01563-8.359375h1.57813zM329.9375 31.5v2.046875h1.57812v1.117187h-1.57812v5.242188q0 .507812.21094.765625.21093.25.71875.25.25 0 .6875-.09375V42q-.57032.15625-1.10938.15625-.96875 0-1.46094-.585938-.49218-.585937-.49218-1.664062v-5.242188h-1.53907v-1.117187h1.53907V31.5Zm6.77344 10.65625q-1.71875 0-2.79688-1.125-1.07812-1.132813-1.07812-3.023438v-.265625q0-1.257812.47656-2.242187.48437-.992188 1.34375-1.546875.86719-.5625 1.875-.5625 1.64844 0 2.5625 1.085937.91406 1.085938.91406 3.109375v.601563h-5.72656q.0312 1.25.72656 2.023437.70313.765625 1.78125.765625.76563 0 1.29688-.3125t.92968-.828125l.88282.6875q-1.0625 1.632813-3.1875 1.632813zm-.17969-7.578125q-.875 0-1.46875.640625-.59375.632812-.73438 1.78125h4.23438v-.109375q-.0625-1.101563-.59375-1.703125-.53125-.609375-1.4375-.609375zm10.07031 5.179687q0-.585937-.44531-.90625-.4375-.328125-1.53906-.5625-1.09375-.234375-1.74219-.5625-.64063-.328125-.95313-.78125-.30468-.453125-.30468-1.078125 0-1.039062.875-1.757812.88281-.71875 2.25-.71875 1.4375 0 2.32812.742187.89844.742188.89844 1.898438h-1.45313q0-.59375-.50781-1.023438-.5-.429687-1.26562-.429687-.78907 0-1.23438.34375t-.44531.898437q0 .523438.41406.789063t1.49219.507812q1.08594.242188 1.75781.578125.67188.335938.99219.8125.32812.46875.32812 1.148438 0 1.132812-.90625 1.820312-.90625.679688-2.35156.679688-1.01562 0-1.79687-.359375t-1.22657-1q-.4375-.648438-.4375-1.398438h1.44532q.0391.726563.57812 1.15625.54688.421875 1.4375.421875.82031 0 1.3125-.328125.5-.335937.5-.890625zM351.89062 31.5v2.046875h1.57813v1.117187h-1.57813v5.242188q0 .507812.21094.765625.21094.25.71875.25.25 0 .6875-.09375V42q-.57031.15625-1.10937.15625-.96875 0-1.46094-.585938-.49219-.585937-.49219-1.664062v-5.242188h-1.53906v-1.117187h1.53906V31.5Zm4.83594 10.5h-1.44531v-8.453125h1.44531zm-1.5625-10.695313q0-.351562.21094-.59375.21875-.242187.64062-.242187.42188 0 .64063.242187.21875.242188.21875.59375 0 .351563-.21875.585938-.21875.234375-.64063.234375-.42187 0-.64062-.234375-.21094-.234375-.21094-.585938zm5.24219 2.242188.0469 1.0625q.96875-1.21875 2.53125-1.21875 2.67969 0 2.70313 3.023437V42h-1.44531v-5.59375q-.008-.914063-.42188-1.351563-.40625-.4375-1.27344-.4375-.70312 0-1.23437.375t-.82813.984375V42h-1.44531v-8.453125zm7.11719 4.15625q0-1.976563.91406-3.140625.91406-1.171875 2.42187-1.171875 1.54688 0 2.41407 1.09375l.0703-.9375h1.32031v8.25q0 1.640625-.97656 2.585937-.96875.945313-2.60938.945313-.91406 0-1.78906-.390625-.875-.390625-1.33594-1.070313L368.70312 43q.92969 1.148437 2.27344 1.148437 1.05469 0 1.64063-.59375.59375-.59375.59375-1.671875v-.726562q-.86719 1-2.36719 1-1.48438 0-2.40625-1.195313-.91406-1.195312-.91406-3.257812zm1.45312.164062q0 1.429688.58594 2.25.58594.8125 1.64062.8125 1.36719 0 2.00782-1.242187v-3.859375q-.66407-1.210938-1.99219-1.210938-1.05469 0-1.64844.820313-.59375.820312-.59375 2.429687zm17.04688 3.296875q-.84375.992188-2.47657.992188-1.35156 0-2.0625-.78125-.70312-.789063-.71093-2.328125v-5.5h1.44531v5.460937q0 1.921875 1.5625 1.921875 1.65625 0 2.20312-1.234375v-6.148437h1.44532V42h-1.375zm8.52343-1.40625q0-.585937-.44531-.90625-.4375-.328125-1.53906-.5625-1.09375-.234375-1.74219-.5625-.64062-.328125-.95312-.78125-.30469-.453125-.30469-1.078125 0-1.039062.875-1.757812.88281-.71875 2.25-.71875 1.4375 0 2.32812.742187.89844.742188.89844 1.898438h-1.45312q0-.59375-.50782-1.023438-.5-.429687-1.26562-.429687-.78906 0-1.23438.34375-.44531.34375-.44531.898437 0 .523438.41406.789063.41407.265625 1.49219.507812 1.08594.242188 1.75781.578125.67188.335938.99219.8125.32813.46875.32813 1.148438 0 1.132812-.90625 1.820312-.90625.679688-2.35157.679688-1.01562 0-1.79687-.359375t-1.22656-1q-.4375-.648438-.4375-1.398438h1.44531q.0391.726563.57812 1.15625.54688.421875 1.4375.421875.82032 0 1.3125-.328125.5-.335937.5-.890625zM399.44531 42H398v-8.453125h1.44531zm-1.5625-10.695313q0-.351562.21094-.59375.21875-.242187.64062-.242187.42188 0 .64063.242187.21875.242188.21875.59375 0 .351563-.21875.585938-.21875.234375-.64063.234375-.42187 0-.64062-.234375-.21094-.234375-.21094-.585938zm5.24219 2.242188.0469 1.0625q.96875-1.21875 2.53125-1.21875 2.67969 0 2.70313 3.023437V42h-1.44531v-5.59375q-.008-.914063-.42188-1.351563-.40625-.4375-1.27344-.4375-.70312 0-1.23437.375t-.82813.984375V42h-1.44531v-8.453125zm7.11719 4.15625q0-1.976563.91406-3.140625.91406-1.171875 2.42187-1.171875 1.54688 0 2.41407 1.09375l.0703-.9375h1.32031v8.25q0 1.640625-.97656 2.585937-.96875.945313-2.60938.945313-.91406 0-1.78906-.390625-.875-.390625-1.33594-1.070313L411.42187 43q.92969 1.148437 2.27344 1.148437 1.05469 0 1.64063-.59375.59375-.59375.59375-1.671875v-.726562q-.86719 1-2.36719 1-1.48438 0-2.40625-1.195313-.91406-1.195312-.91406-3.257812zm1.45312.164062q0 1.429688.58594 2.25.58594.8125 1.64062.8125 1.36719 0 2.00782-1.242187v-3.859375q-.66407-1.210938-1.99219-1.210938-1.05469 0-1.64844.820313-.59375.820312-.59375 2.429687z" style="-inkscape-font-specification:Roboto"/></g><path fill="#363a32" d="M430 48v4h-4v3h4v4h3v-4h4v-3h-4v-4Zm-121 4v32h124V62h-3v19H312V55h111v-3zm7 7v18h11.58398v-2.97852h-7.875V59Zm16.5 0c-.277 0-.5.223-.5.5V61h3v-1.5c0-.277-.223-.5-.5-.5zm7.85352 0v18h3.70703v-7.35547h7.12109v-2.99219h-7.12109v-4.64843h8.01172V59Zm13.86914 0v18h12.0664v-2.97852h-8.35742v-4.82226h7.12109v-2.90625h-7.12109v-4.28906h8.33203V59Zm13.37695 0v3.00391h5.43945V77h3.70899V62.00391h5.51367V59Zm17.01172 0v18h3.70898V59Zm7.14453 0v18h3.70898v-4.91992l-.37109-8.48047L399.94141 77h2.54492l4.85937-13.41406-.37109 8.49414V77h3.7207V59h-4.87109l-4.59766 13.05469L396.60352 59Zm22.17969 0v18H426v-2.97852h-8.35547v-4.82226h7.12109v-2.90625h-7.12109v-4.28906h8.33203V59ZM331 61.5c-.554 0-1 .446-1 1V65h7v-2.5c0-.554-.446-1-1-1zm-1 4V69h7v-3.5zm0 4V73h7v-3.5zm0 4V76c0 .554.446 1 1 1h5c.554 0 1-.446 1-1v-2.5z"/><path fill="#fc5d02" d="M180 32c-.2768 0-.54196.0554-.78124.1562-.2396.101-.45204.24892-.63284.42968-.1808.1808-.3288.39336-.42968.63282-.1012.23948-.15624.5043-.15624.7813v4h-4c-2.216 0-4 1.784-4 4v54c0 2.216 1.784 4 4 4h20c2.216 0 4-1.784 4-4V42c0-2.216-1.784-4-4-4h-4v-4c0-.277-.0552-.5418-.1564-.78124-.1008-.23944-.2488-.45206-.42968-.63282-.1808-.1808-.3932-.32876-.63284-.4297C188.5418 32.05534 188.2768 32 188 32Z"/><path fill="#30af59" d="M220 32c-.2768 0-.54196.0554-.78124.1562-.2396.101-.45204.24892-.63284.42968-.1808.1808-.3288.39336-.42968.63282-.1012.23948-.15624.5043-.15624.7813v4h-4c-2.216 0-4 1.784-4 4v54c0 2.216 1.784 4 4 4h20c2.216 0 4-1.784 4-4V42c0-2.216-1.784-4-4-4h-4v-4c0-.277-.0552-.5418-.1564-.78124-.1008-.23944-.2488-.45206-.42968-.63282-.1808-.1808-.3932-.32876-.63284-.4297C228.5418 32.05534 228.2768 32 228 32Z"/><path fill="red" d="M180 112c-.2768 0-.54196.0554-.78124.1562-.2396.101-.45204.24892-.63284.42968-.1808.1808-.3288.39336-.42968.63282-.1012.23948-.15624.5043-.15624.7813v4h-4c-2.216 0-4 1.784-4 4v54c0 2.216 1.784 4 4 4h20c2.216 0 4-1.784 4-4v-54c0-2.216-1.784-4-4-4h-4v-4c0-.277-.0552-.5418-.1564-.78124-.1008-.23944-.2488-.45206-.42968-.63282-.1808-.1808-.3932-.32876-.63284-.4297C188.5418 112.05534 188.2768 112 188 112Z"/><path fill="#ffc003" d="M220 112c-.2768 0-.54196.0554-.78124.1562-.2396.101-.45204.24892-.63284.42968-.1808.1808-.3288.39336-.42968.63282-.1012.23948-.15624.5043-.15624.7813v4h-4c-2.216 0-4 1.784-4 4v54c0 2.216 1.784 4 4 4h20c2.216 0 4-1.784 4-4v-54c0-2.216-1.784-4-4-4h-4v-4c0-.277-.0552-.5418-.1564-.78124-.1008-.23944-.2488-.45206-.42968-.63282-.1808-.1808-.3932-.32876-.63284-.4297C228.5418 112.05534 228.2768 112 228 112Z"/><g fill="#363a32" stroke-width="2" aria-label="Suitable for recycling" font-family="Roboto" font-size="16px" font-weight="400" style="line-height:1.25;-inkscape-font-specification:&quot;Roboto Bold&quot;;text-align:center" text-anchor="middle"><path d="M518.25 273.92969q-1.92969-.55469-2.8125-1.35938-.875-.8125-.875-2 0-1.34375 1.07031-2.21875 1.07813-.88281 2.79688-.88281 1.17187 0 2.08593.45312.92188.45313 1.42188 1.25.50781.79688.50781 1.74219h-1.50781q0-1.03125-.65625-1.61719-.65625-.59375-1.85156-.59375-1.10938 0-1.73438.49219-.61719.48438-.61719 1.35156 0 .69532.58594 1.17969.59375.47656 2.00781.875 1.42188.39844 2.21875.88281.80469.47657 1.1875 1.11719.39063.64063.39063 1.50781 0 1.38282-1.07813 2.21875-1.07812.82813-2.88281.82813-1.17187 0-2.1875-.44531-1.01562-.45313-1.57031-1.23438-.54688-.78125-.54688-1.77344h1.50782q0 1.03125.75781 1.63282.76562.59375 2.03906.59375 1.1875 0 1.82031-.48438.63282-.48437.63282-1.32031 0-.83594-.58594-1.28906-.58594-.46094-2.125-.90625zm11.13281 4.23437q-.84375.99219-2.47656.99219-1.35156 0-2.0625-.78125-.70313-.78906-.71094-2.32813v-5.5h1.44531v5.46094q0 1.92188 1.5625 1.92188 1.65625 0 2.20313-1.23438v-6.14844h1.44531V279h-1.375zm5.17188.83594h-1.44532v-8.45313h1.44532zm-1.5625-10.69531q0-.35157.21093-.59375.21875-.24219.64063-.24219.42187 0 .64062.24219.21875.24218.21875.59375 0 .35156-.21875.58593-.21875.23438-.64062.23438-.42188 0-.64063-.23438-.21093-.23437-.21093-.58593zm5.83593.19531v2.04687h1.57813v1.11719h-1.57813v5.24219q0 .50781.21094.76562.21094.25.71875.25.25 0 .6875-.0937V279q-.57031.15625-1.10937.15625-.96875 0-1.46094-.58594-.49219-.58594-.49219-1.66406v-5.24219h-1.53906v-1.11719h1.53906V268.5Zm8.48438 10.5q-.125-.25-.20313-.89063-1.00781 1.04688-2.40625 1.04688-1.25 0-2.05468-.70313-.79688-.71093-.79688-1.79687 0-1.32031 1-2.04688 1.00781-.73437 2.82813-.73437h1.40625v-.66406q0-.75782-.45313-1.20313-.45312-.45312-1.33594-.45312-.77343 0-1.29687.39062-.52344.39063-.52344.94531h-1.45312q0-.63281.44531-1.21875.45312-.59375 1.21875-.9375.77344-.34375 1.69531-.34375 1.46094 0 2.28906.73438.82813.72656.85938 2.00781v3.89063q0 1.16406.29687 1.85156V279Zm-2.39844-1.10156q.67969 0 1.28906-.35157.60938-.35156.88282-.91406v-1.73437h-1.13282q-2.65625 0-2.65625 1.55468 0 .67969.45313 1.0625.45312.38282 1.16406.38282zm13.03906-3.03125q0 1.9375-.89062 3.11718-.89063 1.17188-2.39063 1.17188-1.60156 0-2.47656-1.13281L552.125 279h-1.32813v-12h1.44532v4.47656q.875-1.08594 2.41406-1.08594t2.41406 1.16407q.88281 1.16406.88281 3.1875zm-1.44531-.16407q0-1.47656-.57031-2.28125-.57031-.80468-1.64063-.80468-1.42968 0-2.05468 1.32812v3.65625q.66406 1.32813 2.07031 1.32813 1.03906 0 1.61719-.80469.57812-.80469.57812-2.42188zM561.34375 279h-1.44531v-12h1.44531zm5.82031.15625q-1.71875 0-2.79687-1.125-1.07813-1.13281-1.07813-3.02344v-.26562q0-1.25782.47656-2.24219.48438-.99219 1.34375-1.54688.86719-.5625 1.875-.5625 1.64844 0 2.5625 1.08594.91407 1.08594.91407 3.10938v.60156h-5.72657q.0312 1.25.72657 2.02344.70312.76562 1.78125.76562.76562 0 1.29687-.3125t.92969-.82812l.88281.6875q-1.0625 1.63281-3.1875 1.63281zm-.17969-7.57813q-.875 0-1.46875.64063-.59375.63281-.73437 1.78125h4.23437v-.10938q-.0625-1.10156-.59375-1.70312-.53125-.60938-1.4375-.60938zM500.32031 299v-7.33594h-1.33594v-1.11719h1.33594v-.86718q0-1.35938.72656-2.10157.72657-.74218 2.05469-.74218.5 0 .99219.13281l-.0781 1.17187q-.36718-.0703-.78125-.0703-.70312 0-1.08593.41406-.38282.40625-.38282 1.17188v.89062h1.80469v1.11719h-1.80469V299Zm4.46094-4.30469q0-1.24219.48437-2.23437.49219-.99219 1.35938-1.53125.875-.53907 1.99219-.53907 1.72656 0 2.78906 1.19532 1.07031 1.19531 1.07031 3.17968v.10157q0 1.23437-.47656 2.21875-.46875.97656-1.35156 1.52343-.875.54688-2.01563.54688-1.71875 0-2.78906-1.19531-1.0625-1.19532-1.0625-3.16407zm1.45312.17188q0 1.40625.64844 2.25781.65625.85156 1.75.85156 1.10156 0 1.75-.85937.64844-.86719.64844-2.42188 0-1.39062-.66406-2.25-.65625-.86719-1.75-.86719-1.07032 0-1.72657.85157-.65625.85156-.65625 2.4375zm12.14063-3.02344q-.32813-.0547-.71094-.0547-1.42187 0-1.92969 1.21094v6h-1.44531v-8.45313h1.40625l.0234.97657q.71094-1.13282 2.01562-1.13282.42188 0 .64063.10938zm9.375 0q-.32813-.0547-.71094-.0547-1.42187 0-1.92969 1.21094v6h-1.44531v-8.45313h1.40625l.0234.97657q.71094-1.13282 2.01562-1.13282.42188 0 .64063.10938zm4.6875 7.3125q-1.71875 0-2.79688-1.125-1.07812-1.13281-1.07812-3.02344v-.26562q0-1.25782.47656-2.24219.48438-.99219 1.34375-1.54688.86719-.5625 1.875-.5625 1.64844 0 2.5625 1.08594.91406 1.08594.91406 3.10938v.60156h-5.72656q.0312 1.25.72656 2.02344.70313.76562 1.78125.76562.76563 0 1.29688-.3125t.92969-.82812l.88281.6875q-1.0625 1.63281-3.1875 1.63281zm-.17969-7.57813q-.875 0-1.46875.64063-.59375.63281-.73437 1.78125h4.23437v-.10938q-.0625-1.10156-.59375-1.70312-.53125-.60938-1.4375-.60938zm8.53906 6.39844q.77344 0 1.35157-.46875.57812-.46875.64062-1.17187h1.36719q-.0391.72656-.5 1.38281-.46094.65625-1.23438 1.04687-.76562.39063-1.625.39063-1.72656 0-2.75-1.14844-1.01562-1.15625-1.01562-3.15625v-.24219q0-1.23437.45312-2.19531.45313-.96094 1.29688-1.49219.85156-.53125 2.00781-.53125 1.42188 0 2.35938.85157.94531.85156 1.00781 2.21093h-1.36719q-.0625-.82031-.625-1.34375-.55469-.53125-1.375-.53125-1.10156 0-1.71094.79688-.60156.78906-.60156 2.28906v.27344q0 1.46094.60156 2.25.60157.78906 1.71875.78906zm7.75-1.09375 1.96875-6.33594h1.54688l-3.39844 9.75782q-.78906 2.10937-2.50781 2.10937l-.27344-.0234-.53906-.10156v-1.17187l.39062.0312q.73438 0 1.14063-.29688.41406-.29687.67969-1.08594l.32031-.85937-3.01563-8.35938h1.57813zm8.09375 1.09375q.77344 0 1.35157-.46875.57812-.46875.64062-1.17187H560q-.0391.72656-.5 1.38281-.46094.65625-1.23438 1.04687-.76562.39063-1.625.39063-1.72656 0-2.75-1.14844-1.01562-1.15625-1.01562-3.15625v-.24219q0-1.23437.45312-2.19531.45313-.96094 1.29688-1.49219.85156-.53125 2.00781-.53125 1.42188 0 2.35938.85157.94531.85156 1.00781 2.21093h-1.36719q-.0625-.82031-.625-1.34375-.55469-.53125-1.375-.53125-1.10156 0-1.71094.79688-.60156.78906-.60156 2.28906v.27344q0 1.46094.60156 2.25.60157.78906 1.71875.78906zM563.19531 299H561.75v-12h1.44531zm3.88281 0h-1.44531v-8.45313h1.44531zm-1.5625-10.69531q0-.35157.21094-.59375.21875-.24219.64063-.24219.42187 0 .64062.24219.21875.24218.21875.59375 0 .35156-.21875.58593-.21875.23438-.64062.23438-.42188 0-.64063-.23438-.21094-.23437-.21094-.58593zm5.24219 2.24218.0469 1.0625q.96875-1.21875 2.53125-1.21875 2.67968 0 2.70312 3.02344V299h-1.44531v-5.59375q-.008-.91406-.42188-1.35156-.40625-.4375-1.27343-.4375-.70313 0-1.23438.375t-.82812.98437V299h-1.44532v-8.45313zm7.11719 4.15625q0-1.97656.91406-3.14062.91406-1.17188 2.42188-1.17188 1.54687 0 2.41406 1.09375l.0703-.9375h1.32031v8.25q0 1.64063-.97656 2.58594-.96875.94531-2.60937.94531-.91407 0-1.78907-.39062-.875-.39063-1.33593-1.07031l.75-.86719q.92968 1.14844 2.27343 1.14844 1.05469 0 1.64063-.59375.59375-.59375.59375-1.67188v-.72656q-.86719 1-2.36719 1-1.48437 0-2.40625-1.19531-.91406-1.19532-.91406-3.25782zm1.45312.16407q0 1.42968.58594 2.25.58594.8125 1.64063.8125 1.36718 0 2.00781-1.24219v-3.85938q-.66406-1.21093-1.99219-1.21093-1.05469 0-1.64844.82031t-.59375 2.42969z" style="-inkscape-font-specification:Roboto"/></g><path fill="red" d="M518 72c-.2768 0-.54196.0554-.78124.1562-.2396.101-.45204.24892-.63284.42968-.1808.1808-.3288.39336-.42968.63282-.1012.23948-.15624.5043-.15624.7813v4h-4c-2.216 0-4 1.784-4 4v54c0 2.216 1.784 4 4 4h20c2.216 0 4-1.784 4-4V82c0-2.216-1.784-4-4-4h-4v-4c0-.277-.0552-.5418-.1564-.78124-.1008-.23944-.2488-.45206-.42968-.63282-.1808-.1808-.3932-.32876-.63284-.4297C526.5418 72.05534 526.2768 72 526 72ZM558 72c-.2768 0-.54196.0554-.78124.1562-.2396.101-.45204.24892-.63284.42968-.1808.1808-.3288.39336-.42968.63282-.1012.23948-.15624.5043-.15624.7813v4h-4c-2.216 0-4 1.784-4 4v54c0 2.216 1.784 4 4 4h20c2.216 0 4-1.784 4-4V82c0-2.216-1.784-4-4-4h-4v-4c0-.277-.0552-.5418-.1564-.78124-.1008-.23944-.2488-.45206-.42968-.63282-.1808-.1808-.3932-.32876-.63284-.4297C566.5418 72.05534 566.2768 72 566 72Z"/><path fill="#363a32" d="M516.34668 155.09668h-6.52148v-.90918l3.44531-3.82813q.76562-.86816 1.05273-1.4082.29395-.54687.29395-1.12793 0-.77929-.47168-1.27832-.47168-.49902-1.25781-.49902-.94336 0-1.46973.54004-.51953.5332-.51953 1.49023h-1.26465q0-1.37402.88183-2.22168.88868-.84765 2.37208-.84765 1.38769 0 2.19433.73144.80664.72461.80664 1.93457 0 1.46973-1.87305 3.5l-2.66601 2.8916h4.99707zm7.58105-4.24512q0 2.22168-.75878 3.30176-.75879 1.08008-2.37208 1.08008-1.59277 0-2.35839-1.05274-.76563-1.05957-.79297-3.1582v-1.68848q0-2.19433.75879-3.26074.75879-1.0664 2.3789-1.0664 1.60645 0 2.36524 1.03222.75879 1.02539.77929 3.17188zm-1.26464-1.72949q0-1.60645-.45118-2.33789-.45117-.73828-1.42871-.73828-.9707 0-1.41504.73144-.44433.73145-.458 2.24903v2.02343q0 1.61329.46484 2.38575.47168.76562 1.42187.76562.93653 0 1.3877-.72461.45801-.72461.47852-2.2832zm2.77539-2.06445q0-.89551.56738-1.47657.57422-.58105 1.46973-.58105.90918 0 1.46972.58789.56739.58106.56739 1.51074v.48535q0 .90235-.57422 1.47657-.56739.56738-1.44922.56738-.88867 0-1.46973-.56738-.58105-.57422-.58105-1.52442zm.94336.52636q0 .53321.30078.88184.30078.3418.80664.3418.48535 0 .77929-.33496.30079-.33496.30079-.91602v-.49902q0-.53321-.29395-.88184-.29394-.34863-.7998-.34863t-.79981.34863q-.29394.34863-.29394.90918zm3.90332 5.07227q0-.89551.56738-1.46973.57422-.58105 1.46973-.58105.8955 0 1.46972.57422t.57422 1.52441v.48535q0 .89551-.57422 1.47657-.56738.57421-1.45605.57421-.88867 0-1.46973-.56738-.58105-.57422-.58105-1.52441zm.94336.5332q0 .54004.30078.88867.30078.3418.80664.3418.49218 0 .78613-.33496.29395-.3418.29395-.92285v-.50586q0-.54004-.30079-.88184-.29394-.34179-.79296-.34179-.48536 0-.79297.34179-.30078.33496-.30078.90918zm-3.45215 1.15528-.71778-.45118 4.86036-7.77929.71777.45117z" aria-label="20%" font-family="Roboto" font-size="14px" style="line-height:1;-inkscape-font-specification:Roboto;text-align:center" text-anchor="middle"/><path fill="#363a32" d="M551.66064 149.50488h.9502q.89551-.0137 1.4082-.47168.5127-.458.5127-1.2373 0-1.75-1.74317-1.75-.82031 0-1.3125.47168-.48535.46484-.48535 1.2373h-1.26465q0-1.18261.86133-1.96191.86817-.78613 2.20117-.78613 1.40821 0 2.20801.74511.79981.74512.79981 2.07129 0 .64942-.42383 1.25781-.41699.6084-1.1416.90918.82031.25977 1.26465.86133.45117.60156.45117 1.46973 0 1.33984-.875 2.12598-.875.78613-2.27637.78613t-2.2832-.75879q-.875-.75879-.875-2.00293h1.27148q0 .78613.5127 1.25781.51269.47168 1.37402.47168.91602 0 1.40137-.47851.48535-.47852.48535-1.37403 0-.86816-.5332-1.33301-.53321-.46484-1.53809-.47851h-.9502zm12.26368 1.34668q0 2.22168-.75879 3.30176-.75879 1.08008-2.37207 1.08008-1.59278 0-2.3584-1.05274-.76563-1.05957-.79297-3.1582v-1.68848q0-2.19433.75879-3.26074.75879-1.0664 2.37891-1.0664 1.60644 0 2.36523 1.03222.75879 1.02539.7793 3.17188zm-1.26465-1.72949q0-1.60645-.45117-2.33789-.45118-.73828-1.42871-.73828-.97071 0-1.41504.73144-.44434.73145-.45801 2.24903v2.02343q0 1.61329.46484 2.38575.47168.76562 1.42188.76562.93652 0 1.38769-.72461.45801-.72461.47852-2.2832zm2.77539-2.06445q0-.89551.56738-1.47657.57422-.58105 1.46973-.58105.90918 0 1.46972.58789.56739.58106.56739 1.51074v.48535q0 .90235-.57422 1.47657-.56738.56738-1.44922.56738-.88867 0-1.46973-.56738-.58105-.57422-.58105-1.52442zm.94336.52636q0 .53321.30078.88184.30078.3418.80664.3418.48535 0 .7793-.33496.30078-.33496.30078-.91602v-.49902q0-.53321-.29395-.88184-.29394-.34863-.7998-.34863t-.79981.34863q-.29394.34863-.29394.90918zm3.90332 5.07227q0-.89551.56738-1.46973.57422-.58105 1.46973-.58105t1.46972.57422q.57422.57422.57422 1.52441v.48535q0 .89551-.57422 1.47657-.56738.57421-1.45605.57421-.88867 0-1.46973-.56738-.58105-.57422-.58105-1.52441zm.94336.5332q0 .54004.30078.88867.30078.3418.80664.3418.49219 0 .78613-.33496.29395-.3418.29395-.92285v-.50586q0-.54004-.30078-.88184-.29395-.34179-.79297-.34179-.48535 0-.79297.34179-.30078.33496-.30078.90918zm-3.45215 1.15528-.71777-.45118 4.86035-7.77929.71777.45117z" aria-label="30%" font-family="Roboto" font-size="14px" style="line-height:1;-inkscape-font-specification:Roboto;text-align:center" text-anchor="middle"/><path fill="#fc5d02" d="M609 10.879883c-.2768 0-.54196.0554-.78124.1562-.2396.101-.45204.24892-.63284.42968-.1808.1808-.3288.39336-.42968.63282-.1012.23948-.15624.5043-.15624.7813v4h-4c-2.216 0-4 1.784-4 4v54c0 2.216 1.784 4 4 4h20c2.216 0 4-1.784 4-4v-54c0-2.216-1.784-4-4-4h-4v-4c0-.277-.0552-.5418-.1564-.78124-.1008-.23944-.2488-.45206-.42968-.63282-.1808-.1808-.3932-.32876-.63284-.4297-.23928-.1009-.50428-.15624-.78108-.15624z"/><path fill="#fe8c17" d="M649 10.879883c-.2768 0-.54196.0554-.78124.1562-.2396.101-.45204.24892-.63284.42968-.1808.1808-.3288.39336-.42968.63282-.1012.23948-.15624.5043-.15624.7813v4h-4c-2.216 0-4 1.784-4 4v54c0 2.216 1.784 4 4 4h20c2.216 0 4-1.784 4-4v-54c0-2.216-1.784-4-4-4h-4v-4c0-.277-.0552-.5418-.1564-.78124-.1008-.23944-.2488-.45206-.42968-.63282-.1808-.1808-.3932-.32876-.63284-.4297-.23928-.1009-.50428-.15624-.78108-.15624z"/><path fill="#363a32" d="M605.65479 84.016602v1.073242h-.23243q-1.47656.02734-2.35156.875-.875.847656-1.01172 2.385742.78613-.902344 2.14649-.902344 1.29882 0 2.07129.916016.77929.916015.77929 2.365234 0 1.538086-.84082 2.460938-.83398.922851-2.24219.922851-1.42871 0-2.31738-1.09375-.88867-1.100586-.88867-2.830078v-.485351q0-2.748047 1.16895-4.197266 1.17578-1.456055 3.49316-1.490234zm-1.66114 4.484375q-.64941 0-1.19629.389648-.54687.389648-.75879.977539v.464844q0 1.230469.55372 1.982422.55371.751953 1.38085.751953.8545 0 1.33985-.628906.49219-.628907.49219-1.647461 0-1.025391-.49903-1.654297-.49219-.635742-1.3125-.635742zm10.80078 1.230468q0 2.22168-.75879 3.301758-.75878 1.080078-2.37207 1.080078-1.59277 0-2.35839-1.052734-.76563-1.05957-.79297-3.158203v-1.688477q0-2.194336.75879-3.260742.75879-1.066406 2.3789-1.066406 1.60645 0 2.36524 1.032226.75879 1.025391.77929 3.171875zm-1.26464-1.729492q0-1.606445-.45118-2.337891-.45117-.738281-1.42871-.738281-.9707 0-1.41504.731446-.44433.731445-.458 2.249023v2.023437q0 1.613282.46484 2.385743.47168.765625 1.42187.765625.93653 0 1.3877-.72461.45801-.724609.47852-2.283203zm2.77539-2.064453q0-.895508.56738-1.476563.57422-.581054 1.46973-.581054.90917 0 1.46972.58789.56738.581055.56738 1.510743v.485351q0 .902344-.57421 1.476563-.56739.567382-1.44922.567382-.88867 0-1.46973-.567382-.58105-.574219-.58105-1.524414zm.94336.526367q0 .533203.30078.881836.30078.341797.80664.341797.48535 0 .77929-.334961.30079-.334961.30079-.916016V85.9375q0-.533203-.29395-.881836-.29395-.348633-.7998-.348633-.50586 0-.79981.348633-.29394.348633-.29394.90918zm3.90332 5.072266q0-.895508.56738-1.469727.57422-.581054 1.46972-.581054.89551 0 1.46973.574218.57422.574219.57422 1.524414v.485352q0 .895508-.57422 1.476562-.56738.574219-1.45605.574219-.88868 0-1.46973-.567383-.58105-.574218-.58105-1.524414zm.94335.533203q0 .540039.30079.888672.30078.341797.80664.341797.49218 0 .78613-.334961.29394-.341797.29394-.922852v-.505859q0-.540039-.30078-.881836-.29394-.341797-.79297-.341797-.48535 0-.79296.341797-.30079.334961-.30079.90918zm-3.45214 1.155273-.71778-.451172 4.86035-7.779296.71778.451171z" aria-label="60%" font-family="Roboto" font-size="14px" style="line-height:1;-inkscape-font-specification:Roboto;text-align:center" text-anchor="middle"/><path fill="#363a32" d="M645.65479 84.016602v1.073242h-.23243q-1.47656.02734-2.35156.875-.875.847656-1.01172 2.385742.78613-.902344 2.14649-.902344 1.29882 0 2.07129.916016.77929.916015.77929 2.365234 0 1.538086-.84082 2.460938-.83398.922851-2.24219.922851-1.42871 0-2.31738-1.09375-.88867-1.100586-.88867-2.830078v-.485351q0-2.748047 1.16895-4.197266 1.17578-1.456055 3.49316-1.490234zm-1.66114 4.484375q-.64941 0-1.19629.389648-.54687.389648-.75879.977539v.464844q0 1.230469.55372 1.982422.55371.751953 1.38085.751953.8545 0 1.33985-.628906.49219-.628907.49219-1.647461 0-1.025391-.49903-1.654297-.49219-.635742-1.3125-.635742zm5.14063.485351.50586-4.962891h5.09961v1.168946h-4.02637l-.30078 2.713867q.73144-.430664 1.66113-.430664 1.36035 0 2.16016.902344.7998.895507.7998 2.426757 0 1.538086-.83398 2.426758-.82715.881836-2.31739.881836-1.31933 0-2.15332-.731445-.83398-.731445-.95019-2.023438h1.19629q.11621.854493.6084 1.291993.49218.430664 1.29882.430664.88184 0 1.38086-.601563.50586-.601562.50586-1.661133 0-.998047-.54687-1.599609-.54004-.608398-1.44238-.608398-.82715 0-1.29883.362304l-.33496.273438zm7.1709-3.048828q0-.895508.56738-1.476563.57422-.581054 1.46973-.581054.90917 0 1.46972.58789.56738.581055.56738 1.510743v.485351q0 .902344-.57421 1.476563-.56739.567382-1.44922.567382-.88867 0-1.46973-.567382-.58105-.574219-.58105-1.524414zm.94336.526367q0 .533203.30078.881836.30078.341797.80664.341797.48535 0 .77929-.334961.30079-.334961.30079-.916016V85.9375q0-.533203-.29395-.881836-.29395-.348633-.7998-.348633-.50586 0-.79981.348633-.29394.348633-.29394.90918zm3.90332 5.072266q0-.895508.56738-1.469727.57422-.581054 1.46972-.581054.89551 0 1.46973.574218.57422.574219.57422 1.524414v.485352q0 .895508-.57422 1.476562-.56738.574219-1.45605.574219-.88868 0-1.46973-.567383-.58105-.574218-.58105-1.524414zm.94335.533203q0 .540039.30079.888672.30078.341797.80664.341797.49218 0 .78613-.334961.29394-.341797.29394-.922852v-.505859q0-.540039-.30078-.881836-.29394-.341797-.79297-.341797-.48535 0-.79296.341797-.30079.334961-.30079.90918zm-3.45214 1.155273-.71778-.451172 4.86035-7.779296.71778.451171z" aria-label="65%" font-family="Roboto" font-size="14px" style="line-height:1;-inkscape-font-specification:Roboto;text-align:center" text-anchor="middle"/><path fill="#fc5d02" d="M609 117.87988c-.2768 0-.54196.0554-.78124.1562-.2396.101-.45204.24892-.63284.42968-.1808.1808-.3288.39336-.42968.63282-.1012.23948-.15624.5043-.15624.7813v4h-4c-2.216 0-4 1.784-4 4v54c0 2.216 1.784 4 4 4h20c2.216 0 4-1.784 4-4v-54c0-2.216-1.784-4-4-4h-4v-4c0-.277-.0552-.5418-.1564-.78124-.1008-.23944-.2488-.45206-.42968-.63282-.1808-.1808-.3932-.32876-.63284-.4297-.23928-.1009-.50428-.15624-.78108-.15624z"/><path fill="#fe8c17" d="M649 117.87988c-.2768 0-.54196.0554-.78124.1562-.2396.101-.45204.24892-.63284.42968-.1808.1808-.3288.39336-.42968.63282-.1012.23948-.15624.5043-.15624.7813v4h-4c-2.216 0-4 1.784-4 4v54c0 2.216 1.784 4 4 4h20c2.216 0 4-1.784 4-4v-54c0-2.216-1.784-4-4-4h-4v-4c0-.277-.0552-.5418-.1564-.78124-.1008-.23944-.2488-.45206-.42968-.63282-.1808-.1808-.3932-.32876-.63284-.4297-.23928-.1009-.50428-.15624-.78108-.15624z"/><path fill="#363a32" d="M605.65479 191.0166v1.07324h-.23243q-1.47656.0273-2.35156.875-.875.84766-1.01172 2.38575.78613-.90235 2.14649-.90235 1.29882 0 2.07129.91602.77929.91601.77929 2.36523 0 1.53809-.84082 2.46094-.83398.92285-2.24219.92285-1.42871 0-2.31738-1.09375-.88867-1.10058-.88867-2.83008v-.48535q0-2.74805 1.16895-4.19726 1.17578-1.45606 3.49316-1.49024zm-1.66114 4.48438q-.64941 0-1.19629.38964-.54687.38965-.75879.97754v.46485q0 1.23047.55372 1.98242.55371.75195 1.38085.75195.8545 0 1.33985-.6289.49219-.62891.49219-1.64746 0-1.0254-.49903-1.6543-.49219-.63574-1.3125-.63574zm10.80078 1.23047q0 2.22167-.75879 3.30175-.75878 1.08008-2.37207 1.08008-1.59277 0-2.35839-1.05273-.76563-1.05957-.79297-3.15821v-1.68847q0-2.19434.75879-3.26075.75879-1.0664 2.3789-1.0664 1.60645 0 2.36524 1.03223.75879 1.02539.77929 3.17187zm-1.26464-1.7295q0-1.60644-.45118-2.33789-.45117-.73828-1.42871-.73828-.9707 0-1.41504.73145-.44433.73144-.458 2.24902v2.02344q0 1.61328.46484 2.38574.47168.76562 1.42187.76562.93653 0 1.3877-.7246.45801-.72461.47852-2.28321zm2.77539-2.06445q0-.89551.56738-1.47656.57422-.58106 1.46973-.58106.90917 0 1.46972.58789.56738.58106.56738 1.51075v.48535q0 .90234-.57421 1.47656-.56739.56738-1.44922.56738-.88867 0-1.46973-.56738-.58105-.57422-.58105-1.52441zm.94336.52637q0 .5332.30078.88183.30078.3418.80664.3418.48535 0 .77929-.33496.30079-.33496.30079-.91602v-.49902q0-.5332-.29395-.88184-.29395-.34863-.7998-.34863-.50586 0-.79981.34863-.29394.34864-.29394.90918zm3.90332 5.07226q0-.89551.56738-1.46972.57422-.58106 1.46972-.58106.89551 0 1.46973.57422t.57422 1.52441v.48536q0 .8955-.57422 1.47656-.56738.57422-1.45605.57422-.88868 0-1.46973-.56739-.58105-.57421-.58105-1.52441zm.94335.53321q0 .54003.30079.88867.30078.34179.80664.34179.49218 0 .78613-.33496.29394-.34179.29394-.92285v-.50586q0-.54004-.30078-.88183-.29394-.3418-.79297-.3418-.48535 0-.79296.3418-.30079.33496-.30079.90918zm-3.45214 1.15527-.71778-.45117 4.86035-7.7793.71778.45117z" aria-label="60%" font-family="Roboto" font-size="14px" style="line-height:1;-inkscape-font-specification:Roboto;text-align:center" text-anchor="middle"/><path fill="#363a32" d="M645.65479 191.0166v1.07324h-.23243q-1.47656.0273-2.35156.875-.875.84766-1.01172 2.38575.78613-.90235 2.14649-.90235 1.29882 0 2.07129.91602.77929.91601.77929 2.36523 0 1.53809-.84082 2.46094-.83398.92285-2.24219.92285-1.42871 0-2.31738-1.09375-.88867-1.10058-.88867-2.83008v-.48535q0-2.74805 1.16895-4.19726 1.17578-1.45606 3.49316-1.49024zm-1.66114 4.48438q-.64941 0-1.19629.38964-.54687.38965-.75879.97754v.46485q0 1.23047.55372 1.98242.55371.75195 1.38085.75195.8545 0 1.33985-.6289.49219-.62891.49219-1.64746 0-1.0254-.49903-1.6543-.49219-.63574-1.3125-.63574zm5.14063.48535.50586-4.96289h5.09961v1.16894h-4.02637l-.30078 2.71387q.73144-.43066 1.66113-.43066 1.36035 0 2.16016.90234.7998.89551.7998 2.42676 0 1.53808-.83398 2.42676-.82715.88183-2.31739.88183-1.31933 0-2.15332-.73144-.83398-.73145-.95019-2.02344h1.19629q.11621.85449.6084 1.29199.49218.43066 1.29882.43066.88184 0 1.38086-.60156.50586-.60156.50586-1.66113 0-.99805-.54687-1.59961-.54004-.6084-1.44238-.6084-.82715 0-1.29883.36231l-.33496.27343zm7.1709-3.04883q0-.89551.56738-1.47656.57422-.58106 1.46973-.58106.90917 0 1.46972.58789.56738.58106.56738 1.51075v.48535q0 .90234-.57421 1.47656-.56739.56738-1.44922.56738-.88867 0-1.46973-.56738-.58105-.57422-.58105-1.52441zm.94336.52637q0 .5332.30078.88183.30078.3418.80664.3418.48535 0 .77929-.33496.30079-.33496.30079-.91602v-.49902q0-.5332-.29395-.88184-.29395-.34863-.7998-.34863-.50586 0-.79981.34863-.29394.34864-.29394.90918zm3.90332 5.07226q0-.89551.56738-1.46972.57422-.58106 1.46972-.58106.89551 0 1.46973.57422t.57422 1.52441v.48536q0 .8955-.57422 1.47656-.56738.57422-1.45605.57422-.88868 0-1.46973-.56739-.58105-.57421-.58105-1.52441zm.94335.53321q0 .54003.30079.88867.30078.34179.80664.34179.49218 0 .78613-.33496.29394-.34179.29394-.92285v-.50586q0-.54004-.30078-.88183-.29394-.3418-.79297-.3418-.48535 0-.79296.3418-.30079.33496-.30079.90918zm-3.45214 1.15527-.71778-.45117 4.86035-7.7793.71778.45117z" aria-label="65%" font-family="Roboto" font-size="14px" style="line-height:1;-inkscape-font-specification:Roboto;text-align:center" text-anchor="middle"/><path fill="#ffc003" d="M701 72c-.2768 0-.54196.0554-.78124.1562-.2396.101-.45204.24892-.63284.42968-.1808.1808-.3288.39336-.42968.63282-.1012.23948-.15624.5043-.15624.7813v4h-4c-2.216 0-4 1.784-4 4v54c0 2.216 1.784 4 4 4h20c2.216 0 4-1.784 4-4V82c0-2.216-1.784-4-4-4h-4v-4c0-.277-.0552-.5418-.1564-.78124-.1008-.23944-.2488-.45206-.42968-.63282-.1808-.1808-.3932-.32876-.63284-.4297C709.5418 72.05534 709.2768 72 709 72ZM741 72c-.2768 0-.54196.0554-.78124.1562-.2396.101-.45204.24892-.63284.42968-.1808.1808-.3288.39336-.42968.63282-.1012.23948-.15624.5043-.15624.7813v4h-4c-2.216 0-4 1.784-4 4v54c0 2.216 1.784 4 4 4h20c2.216 0 4-1.784 4-4V82c0-2.216-1.784-4-4-4h-4v-4c0-.277-.0552-.5418-.1564-.78124-.1008-.23944-.2488-.45206-.42968-.63282-.1808-.1808-.3932-.32876-.63284-.4297C749.5418 72.05534 749.2768 72 749 72Z"/><path fill="#363a32" d="m699.30566 145.85449-4.12207 9.24219h-1.32617l4.1084-8.91406h-5.38672v-1.03907h6.72656zm7.67676 4.99707q0 2.22168-.75879 3.30176-.75879 1.08008-2.37207 1.08008-1.59277 0-2.3584-1.05274-.76562-1.05957-.79296-3.1582v-1.68848q0-2.19433.75878-3.26074.75879-1.0664 2.37891-1.0664 1.60645 0 2.36523 1.03222.75879 1.02539.7793 3.17188zm-1.26465-1.72949q0-1.60645-.45117-2.33789-.45117-.73828-1.42871-.73828-.9707 0-1.41504.73144-.44433.73145-.45801 2.24903v2.02343q0 1.61329.46485 2.38575.47168.76562 1.42187.76562.93653 0 1.3877-.72461.45801-.72461.47851-2.2832zm2.77539-2.06445q0-.89551.56739-1.47657.57422-.58105 1.46972-.58105.90918 0 1.46973.58789.56738.58106.56738 1.51074v.48535q0 .90235-.57422 1.47657-.56738.56738-1.44921.56738-.88868 0-1.46973-.56738-.58106-.57422-.58106-1.52442zm.94336.52636q0 .53321.30078.88184.30079.3418.80665.3418.48535 0 .77929-.33496.30078-.33496.30078-.91602v-.49902q0-.53321-.29394-.88184-.29395-.34863-.79981-.34863t-.7998.34863q-.29395.34863-.29395.90918zm3.90332 5.07227q0-.89551.56739-1.46973.57422-.58105 1.46972-.58105.89551 0 1.46973.57422t.57422 1.52441v.48535q0 .89551-.57422 1.47657-.56738.57421-1.45606.57421-.88867 0-1.46972-.56738-.58106-.57422-.58106-1.52441zm.94336.5332q0 .54004.30078.88867.30079.3418.80664.3418.49219 0 .78614-.33496.29394-.3418.29394-.92285v-.50586q0-.54004-.30078-.88184-.29394-.34179-.79297-.34179-.48535 0-.79297.34179-.30078.33496-.30078.90918zm-3.45215 1.15528-.71777-.45118 4.86035-7.77929.71778.45117z" aria-label="70%" font-family="Roboto" font-size="14px" style="line-height:1;-inkscape-font-specification:Roboto;text-align:center" text-anchor="middle"/><path fill="#363a32" d="m739.30566 145.85449-4.12207 9.24219h-1.32617l4.1084-8.91406h-5.38672v-1.03907h6.72656zm2.01661 4.25196.50585-4.9629h5.09961v1.16895h-4.02636l-.30078 2.71387q.73144-.43067 1.66113-.43067 1.36035 0 2.16015.90235.79981.8955.79981 2.42675 0 1.53809-.83398 2.42676-.82715.88184-2.31739.88184-1.31933 0-2.15332-.73145-.83398-.73144-.95019-2.02343h1.19629q.11621.85449.60839 1.29199.49219.43066 1.29883.43066.88184 0 1.38086-.60156.50586-.60156.50586-1.66113 0-.99805-.54687-1.59961-.54004-.6084-1.44239-.6084-.82715 0-1.29882.3623l-.33497.27344zm7.17089-3.04883q0-.89551.56739-1.47657.57422-.58105 1.46972-.58105.90918 0 1.46973.58789.56738.58106.56738 1.51074v.48535q0 .90235-.57422 1.47657-.56738.56738-1.44921.56738-.88868 0-1.46973-.56738-.58106-.57422-.58106-1.52442zm.94336.52636q0 .53321.30078.88184.30079.3418.80665.3418.48535 0 .77929-.33496.30078-.33496.30078-.91602v-.49902q0-.53321-.29394-.88184-.29395-.34863-.79981-.34863t-.7998.34863q-.29395.34863-.29395.90918zm3.90332 5.07227q0-.89551.56739-1.46973.57422-.58105 1.46972-.58105.89551 0 1.46973.57422t.57422 1.52441v.48535q0 .89551-.57422 1.47657-.56738.57421-1.45606.57421-.88867 0-1.46972-.56738-.58106-.57422-.58106-1.52441zm.94336.5332q0 .54004.30078.88867.30079.3418.80664.3418.49219 0 .78614-.33496.29394-.3418.29394-.92285v-.50586q0-.54004-.30078-.88184-.29394-.34179-.79297-.34179-.48535 0-.79297.34179-.30078.33496-.30078.90918zm-3.45215 1.15528-.71777-.45118 4.86035-7.77929.71778.45117z" aria-label="75%" font-family="Roboto" font-size="14px" style="line-height:1;-inkscape-font-specification:Roboto;text-align:center" text-anchor="middle"/><path fill="#30af59" d="M792 10.879883c-.2768 0-.54196.0554-.78124.1562-.2396.101-.45204.24892-.63284.42968-.1808.1808-.3288.39336-.42968.63282-.1012.23948-.15624.5043-.15624.7813v4h-4c-2.216 0-4 1.784-4 4v54c0 2.216 1.784 4 4 4h20c2.216 0 4-1.784 4-4v-54c0-2.216-1.784-4-4-4h-4v-4c0-.277-.0552-.5418-.1564-.78124-.1008-.23944-.2488-.45206-.42968-.63282-.1808-.1808-.3932-.32876-.63284-.4297-.23928-.1009-.50428-.15624-.78108-.15624zM832 10.879883c-.2768 0-.54196.0554-.78124.1562-.2396.101-.45204.24892-.63284.42968-.1808.1808-.3288.39336-.42968.63282-.1012.23948-.15624.5043-.15624.7813v4h-4c-2.216 0-4 1.784-4 4v54c0 2.216 1.784 4 4 4h20c2.216 0 4-1.784 4-4v-54c0-2.216-1.784-4-4-4h-4v-4c0-.277-.0552-.5418-.1564-.78124-.1008-.23944-.2488-.45206-.42968-.63282-.1808-.1808-.3932-.32876-.63284-.4297-.23928-.1009-.50428-.15624-.78108-.15624z"/><path fill="#363a32" d="M789.79639 86.621094q0 .745117-.39649 1.326172-.38965.581054-1.05957.909179.7793.334961 1.23047.977539.45801.642578.45801 1.456055 0 1.291992-.875 2.057617-.86817.765625-2.29004.765625-1.43555 0-2.30371-.765625-.86133-.772461-.86133-2.057617 0-.806641.4375-1.456055.44434-.649414 1.22363-.984375-.66308-.328125-1.0459-.909179-.38281-.581055-.38281-1.319336 0-1.257813.80664-1.996094t2.12598-.738281q1.3125 0 2.11914.738281.81348.738281.81348 1.996094zm-1.03223 4.641601q0-.833984-.5332-1.360351-.52637-.526367-1.38086-.526367t-1.37403.519531q-.51269.519531-.51269 1.367187 0 .847657.49902 1.333008.50586.485352 1.40137.485352.88867 0 1.39453-.485352.50586-.492187.50586-1.333008zm-1.90039-6.336914q-.74512 0-1.20996.464844-.45801.458008-.45801 1.250977 0 .758789.45117 1.230468.45801.464844 1.2168.464844.75879 0 1.20996-.464844.45801-.471679.45801-1.230468 0-.75879-.47168-1.237305-.47168-.478516-1.19629-.478516zm10.99902 4.805664q0 2.22168-.75879 3.301758-.75879 1.080078-2.37207 1.080078-1.59277 0-2.35839-1.052734-.76563-1.05957-.79297-3.158203v-1.688477q0-2.194336.75879-3.260742.75878-1.066406 2.3789-1.066406 1.60645 0 2.36524 1.032226.75879 1.025391.77929 3.171875zm-1.26465-1.729492q0-1.606445-.45117-2.337891-.45117-.738281-1.42871-.738281-.9707 0-1.41504.731446-.44433.731445-.45801 2.249023v2.023437q0 1.613282.46485 2.385743.47168.765625 1.42187.765625.93653 0 1.3877-.72461.45801-.724609.47851-2.283203zm2.7754-2.064453q0-.895508.56738-1.476563.57422-.581054 1.46972-.581054.90918 0 1.46973.58789.56738.581055.56738 1.510743v.485351q0 .902344-.57421 1.476563-.56739.567382-1.44922.567382-.88868 0-1.46973-.567382-.58105-.574219-.58105-1.524414zm.94335.526367q0 .533203.30079.881836.30078.341797.80664.341797.48535 0 .77929-.334961.30078-.334961.30078-.916016V85.9375q0-.533203-.29394-.881836-.29395-.348633-.79981-.348633-.50585 0-.7998.348633-.29395.348633-.29395.90918zm3.90332 5.072266q0-.895508.56739-1.469727.57422-.581054 1.46972-.581054.89551 0 1.46973.574218.57422.574219.57422 1.524414v.485352q0 .895508-.57422 1.476562-.56738.574219-1.45605.574219-.88868 0-1.46973-.567383-.58106-.574218-.58106-1.524414zm.94336.533203q0 .540039.30079.888672.30078.341797.80664.341797.49218 0 .78613-.334961.29394-.341797.29394-.922852v-.505859q0-.540039-.30078-.881836-.29394-.341797-.79297-.341797-.48535 0-.79296.341797-.30079.334961-.30079.90918zm-3.45214 1.155273-.71778-.451172 4.86035-7.779296.71778.451171z" aria-label="80%" font-family="Roboto" font-size="14px" style="line-height:1;-inkscape-font-specification:Roboto;text-align:center" text-anchor="middle"/><path fill="#363a32" d="M828.64795 89.601562q-.39649.47168-.9502.75879-.54687.287109-1.20312.287109-.86133 0-1.50391-.423828-.63574-.423828-.98437-1.189453-.34864-.772461-.34864-1.702149 0-.998047.37598-1.797851.38281-.799805 1.08008-1.223633t1.62695-.423828q1.47657 0 2.32422 1.107422.85449 1.100586.85449 3.007812v.369141q0 2.905273-1.14843 4.245117-1.14844 1.333008-3.46582 1.367187h-.2461v-1.066406h.2666q1.56543-.02734 2.40625-.813476.84082-.792969.91602-2.501954zm-1.94824 0q.63574 0 1.16894-.389648.54004-.389648.78614-.963867v-.50586q0-1.24414-.54004-2.023437-.54004-.779297-1.36719-.779297-.83399 0-1.33985.642578-.50585.635742-.50585 1.681641 0 1.018555.48535 1.68164.49218.65625 1.3125.65625zm11.2041.129883q0 2.22168-.75879 3.301758-.75879 1.080078-2.37207 1.080078-1.59277 0-2.3584-1.052734-.76562-1.05957-.79297-3.158203v-1.688477q0-2.194336.75879-3.260742.75879-1.066406 2.37891-1.066406 1.60644 0 2.36523 1.032226.75879 1.025391.7793 3.171875zm-1.26465-1.729492q0-1.606445-.45117-2.337891-.45117-.738281-1.42871-.738281-.97071 0-1.41504.731446-.44434.731445-.45801 2.249023v2.023437q0 1.613282.46484 2.385743.47168.765625 1.42188.765625.93652 0 1.38769-.72461.45801-.724609.47852-2.283203zm2.77539-2.064453q0-.895508.56738-1.476563.57422-.581054 1.46973-.581054.90918 0 1.46973.58789.56738.581055.56738 1.510743v.485351q0 .902344-.57422 1.476563-.56738.567382-1.44922.567382-.88867 0-1.46972-.567382-.58106-.574219-.58106-1.524414zm.94336.526367q0 .533203.30078.881836.30078.341797.80664.341797.48535 0 .7793-.334961.30078-.334961.30078-.916016V85.9375q0-.533203-.29395-.881836-.29394-.348633-.7998-.348633t-.7998.348633q-.29395.348633-.29395.90918zm3.90332 5.072266q0-.895508.56738-1.469727.57422-.581054 1.46973-.581054t1.46973.574218q.57422.574219.57422 1.524414v.485352q0 .895508-.57422 1.476562-.56739.574219-1.45606.574219t-1.46972-.567383q-.58106-.574218-.58106-1.524414zm.94336.533203q0 .540039.30078.888672.30078.341797.80664.341797.49219 0 .78613-.334961.29395-.341797.29395-.922852v-.505859q0-.540039-.30078-.881836-.29395-.341797-.79297-.341797-.48535 0-.79297.341797-.30078.334961-.30078.90918zm-3.45215 1.155273-.71777-.451172 4.86035-7.779296.71777.451171z" aria-label="90%" font-family="Roboto" font-size="14px" style="line-height:1;-inkscape-font-specification:Roboto;text-align:center" text-anchor="middle"/><path fill="#30af59" d="M792 117.87988c-.2768 0-.54196.0554-.78124.1562-.2396.101-.45204.24892-.63284.42968-.1808.1808-.3288.39336-.42968.63282-.1012.23948-.15624.5043-.15624.7813v4h-4c-2.216 0-4 1.784-4 4v54c0 2.216 1.784 4 4 4h20c2.216 0 4-1.784 4-4v-54c0-2.216-1.784-4-4-4h-4v-4c0-.277-.0552-.5418-.1564-.78124-.1008-.23944-.2488-.45206-.42968-.63282-.1808-.1808-.3932-.32876-.63284-.4297-.23928-.1009-.50428-.15624-.78108-.15624zM832 117.87988c-.2768 0-.54196.0554-.78124.1562-.2396.101-.45204.24892-.63284.42968-.1808.1808-.3288.39336-.42968.63282-.1012.23948-.15624.5043-.15624.7813v4h-4c-2.216 0-4 1.784-4 4v54c0 2.216 1.784 4 4 4h20c2.216 0 4-1.784 4-4v-54c0-2.216-1.784-4-4-4h-4v-4c0-.277-.0552-.5418-.1564-.78124-.1008-.23944-.2488-.45206-.42968-.63282-.1808-.1808-.3932-.32876-.63284-.4297-.23928-.1009-.50428-.15624-.78108-.15624z"/><path fill="#363a32" d="M789.79639 193.62109q0 .74512-.39649 1.32618-.38965.58105-1.05957.90918.7793.33496 1.23047.97753.45801.64258.45801 1.45606 0 1.29199-.875 2.05762-.86817.76562-2.29004.76562-1.43555 0-2.30371-.76562-.86133-.77246-.86133-2.05762 0-.80664.4375-1.45606.44434-.64941 1.22363-.98437-.66308-.32813-1.0459-.90918-.38281-.58106-.38281-1.31934 0-1.25781.80664-1.99609.80664-.73828 2.12598-.73828 1.3125 0 2.11914.73828.81348.73828.81348 1.99609zm-1.03223 4.64161q0-.83399-.5332-1.36036-.52637-.52636-1.38086-.52636t-1.37403.51953q-.51269.51953-.51269 1.36719 0 .84765.49902 1.333.50586.48535 1.40137.48535.88867 0 1.39453-.48535.50586-.49218.50586-1.333zm-1.90039-6.33692q-.74512 0-1.20996.46484-.45801.45801-.45801 1.25098 0 .75879.45117 1.23047.45801.46484 1.2168.46484.75879 0 1.20996-.46484.45801-.47168.45801-1.23047t-.47168-1.2373q-.47168-.47852-1.19629-.47852zm10.99902 4.80567q0 2.22167-.75879 3.30175-.75879 1.08008-2.37207 1.08008-1.59277 0-2.35839-1.05273-.76563-1.05957-.79297-3.15821v-1.68847q0-2.19434.75879-3.26075.75878-1.0664 2.3789-1.0664 1.60645 0 2.36524 1.03223.75879 1.02539.77929 3.17187zm-1.26465-1.7295q0-1.60644-.45117-2.33789-.45117-.73828-1.42871-.73828-.9707 0-1.41504.73145-.44433.73144-.45801 2.24902v2.02344q0 1.61328.46485 2.38574.47168.76562 1.42187.76562.93653 0 1.3877-.7246.45801-.72461.47851-2.28321zm2.7754-2.06445q0-.89551.56738-1.47656.57422-.58106 1.46972-.58106.90918 0 1.46973.58789.56738.58106.56738 1.51075v.48535q0 .90234-.57421 1.47656-.56739.56738-1.44922.56738-.88868 0-1.46973-.56738-.58105-.57422-.58105-1.52441zm.94335.52637q0 .5332.30079.88183.30078.3418.80664.3418.48535 0 .77929-.33496.30078-.33496.30078-.91602v-.49902q0-.5332-.29394-.88184-.29395-.34863-.79981-.34863-.50585 0-.7998.34863-.29395.34864-.29395.90918zm3.90332 5.07226q0-.89551.56739-1.46972.57422-.58106 1.46972-.58106.89551 0 1.46973.57422t.57422 1.52441v.48536q0 .8955-.57422 1.47656-.56738.57422-1.45605.57422-.88868 0-1.46973-.56739-.58106-.57421-.58106-1.52441zm.94336.53321q0 .54003.30079.88867.30078.34179.80664.34179.49218 0 .78613-.33496.29394-.34179.29394-.92285v-.50586q0-.54004-.30078-.88183-.29394-.3418-.79297-.3418-.48535 0-.79296.3418-.30079.33496-.30079.90918zm-3.45214 1.15527-.71778-.45117 4.86035-7.7793.71778.45117z" aria-label="80%" font-family="Roboto" font-size="14px" style="line-height:1;-inkscape-font-specification:Roboto;text-align:center" text-anchor="middle"/><path fill="#363a32" d="M828.64795 196.60156q-.39649.47168-.9502.75879-.54687.28711-1.20312.28711-.86133 0-1.50391-.42383-.63574-.42383-.98437-1.18945-.34864-.77246-.34864-1.70215 0-.99805.37598-1.79785.38281-.79981 1.08008-1.22363.69727-.42383 1.62695-.42383 1.47657 0 2.32422 1.10742.85449 1.10059.85449 3.00781v.36914q0 2.90528-1.14843 4.24512-1.14844 1.33301-3.46582 1.36719h-.2461v-1.06641h.2666q1.56543-.0273 2.40625-.81347.84082-.79297.91602-2.50196zm-1.94824 0q.63574 0 1.16894-.38965.54004-.38964.78614-.96386v-.50586q0-1.24414-.54004-2.02344-.54004-.7793-1.36719-.7793-.83399 0-1.33985.64258-.50585.63574-.50585 1.68164 0 1.01856.48535 1.68164.49218.65625 1.3125.65625zm11.2041.12989q0 2.22167-.75879 3.30175-.75879 1.08008-2.37207 1.08008-1.59277 0-2.3584-1.05273-.76562-1.05957-.79297-3.15821v-1.68847q0-2.19434.75879-3.26075.75879-1.0664 2.37891-1.0664 1.60644 0 2.36523 1.03223.75879 1.02539.7793 3.17187zm-1.26465-1.7295q0-1.60644-.45117-2.33789-.45117-.73828-1.42871-.73828-.97071 0-1.41504.73145-.44434.73144-.45801 2.24902v2.02344q0 1.61328.46484 2.38574.47168.76562 1.42188.76562.93652 0 1.38769-.7246.45801-.72461.47852-2.28321zm2.77539-2.06445q0-.89551.56738-1.47656.57422-.58106 1.46973-.58106.90918 0 1.46973.58789.56738.58106.56738 1.51075v.48535q0 .90234-.57422 1.47656-.56738.56738-1.44922.56738-.88867 0-1.46972-.56738-.58106-.57422-.58106-1.52441zm.94336.52637q0 .5332.30078.88183.30078.3418.80664.3418.48535 0 .7793-.33496.30078-.33496.30078-.91602v-.49902q0-.5332-.29395-.88184-.29394-.34863-.7998-.34863t-.7998.34863q-.29395.34864-.29395.90918zm3.90332 5.07226q0-.89551.56738-1.46972.57422-.58106 1.46973-.58106t1.46973.57422q.57422.57422.57422 1.52441v.48536q0 .8955-.57422 1.47656-.56739.57422-1.45606.57422t-1.46972-.56739q-.58106-.57421-.58106-1.52441zm.94336.53321q0 .54003.30078.88867.30078.34179.80664.34179.49219 0 .78613-.33496.29395-.34179.29395-.92285v-.50586q0-.54004-.30078-.88183-.29395-.3418-.79297-.3418-.48535 0-.79297.3418-.30078.33496-.30078.90918zm-3.45215 1.15527-.71777-.45117 4.86035-7.7793.71777.45117z" aria-label="90%" font-family="Roboto" font-size="14px" style="line-height:1;-inkscape-font-specification:Roboto;text-align:center" text-anchor="middle"/><path fill="#bdbdbd" d="M508 225v4h25.69141c1.61474 2.7972 3.22885 5.59489 4.84375 8.39258L542 243.39453l3.46484-6.00195c1.61434-2.79735 3.23027-5.59497 4.84571-8.39258H576v-4h-28c-.76982 1.33316-1.53881 2.66681-2.30859 4-1.23039 2.1309-2.46151 4.26139-3.69141 6.39258-1.23011-2.13107-2.46111-4.26163-3.69141-6.39258-.76973-1.33322-1.53863-2.66692-2.30859-4h-4.61914zM782 225v4h25.69141c1.61474 2.7972 3.22885 5.59489 4.84375 8.39258L816 243.39453l3.46484-6.00195c1.61434-2.79735 3.23027-5.59497 4.84571-8.39258H850v-4h-28c-.76982 1.33316-1.53881 2.66681-2.30859 4-1.23039 2.1309-2.46151 4.26139-3.69141 6.39258-1.23011-2.13107-2.46111-4.26163-3.69141-6.39258-.76973-1.33322-1.53863-2.66692-2.30859-4h-4.61914zM599 225v4h71.69141c1.61473 2.7972 3.22885 5.59489 4.84375 8.39258L679 243.39453l3.46484-6.00195c1.61434-2.79735 3.23027-5.59497 4.84571-8.39258H759v-4h-74c-.76982 1.33316-1.53881 2.66681-2.30859 4-1.23039 2.1309-2.46151 4.26139-3.69141 6.39258-1.23011-2.13107-2.46111-4.26163-3.69141-6.39258-.76973-1.33322-1.53863-2.66692-2.30859-4h-4.61914z"/><g fill="#363a32" stroke-width="2" aria-label="Suitable for energy storage if grouped 5%" font-family="Roboto" font-size="16px" font-weight="400" style="line-height:1.25;-inkscape-font-specification:&quot;Roboto Bold&quot;;text-align:center" text-anchor="middle"><path d="M654.99609 273.92969q-1.92968-.55469-2.8125-1.35938-.875-.8125-.875-2 0-1.34375 1.07032-2.21875 1.07812-.88281 2.79687-.88281 1.17188 0 2.08594.45312.92187.45313 1.42187 1.25.50782.79688.50782 1.74219h-1.50782q0-1.03125-.65625-1.61719-.65625-.59375-1.85156-.59375-1.10937 0-1.73437.49219-.61719.48438-.61719 1.35156 0 .69532.58594 1.17969.59375.47656 2.00781.875 1.42187.39844 2.21875.88281.80469.47657 1.1875 1.11719.39062.64063.39062 1.50781 0 1.38282-1.07812 2.21875-1.07813.82813-2.88281.82813-1.17188 0-2.1875-.44531-1.01563-.45313-1.57032-1.23438-.54687-.78125-.54687-1.77344h1.50781q0 1.03125.75781 1.63282.76563.59375 2.03907.59375 1.1875 0 1.82031-.48438.63281-.48437.63281-1.32031 0-.83594-.58594-1.28906-.58593-.46094-2.125-.90625zm11.13282 4.23437q-.84375.99219-2.47657.99219-1.35156 0-2.0625-.78125-.70312-.78906-.71093-2.32813v-5.5h1.44531v5.46094q0 1.92188 1.5625 1.92188 1.65625 0 2.20312-1.23438v-6.14844h1.44532V279h-1.375zm5.17187.83594h-1.44531v-8.45313h1.44531zm-1.5625-10.69531q0-.35157.21094-.59375.21875-.24219.64062-.24219.42188 0 .64063.24219.21875.24218.21875.59375 0 .35156-.21875.58593-.21875.23438-.64063.23438-.42187 0-.64062-.23438-.21094-.23437-.21094-.58593zm5.83594.19531v2.04687h1.57812v1.11719h-1.57812v5.24219q0 .50781.21094.76562.21093.25.71875.25.25 0 .6875-.0937V279q-.57032.15625-1.10938.15625-.96875 0-1.46094-.58594-.49218-.58594-.49218-1.66406v-5.24219h-1.53907v-1.11719h1.53907V268.5Zm8.48437 10.5q-.125-.25-.20312-.89063-1.00781 1.04688-2.40625 1.04688-1.25 0-2.05469-.70313-.79687-.71093-.79687-1.79687 0-1.32031 1-2.04688 1.00781-.73437 2.82812-.73437h1.40625v-.66406q0-.75782-.45312-1.20313-.45313-.45312-1.33594-.45312-.77344 0-1.29688.39062-.52343.39063-.52343.94531h-1.45313q0-.63281.44531-1.21875.45313-.59375 1.21875-.9375.77344-.34375 1.69532-.34375 1.46093 0 2.28906.73438.82812.72656.85937 2.00781v3.89063q0 1.16406.29688 1.85156V279Zm-2.39843-1.10156q.67968 0 1.28906-.35157.60937-.35156.88281-.91406v-1.73437h-1.13281q-2.65625 0-2.65625 1.55468 0 .67969.45312 1.0625.45313.38282 1.16407.38282zm13.03906-3.03125q0 1.9375-.89063 3.11718-.89062 1.17188-2.39062 1.17188-1.60156 0-2.47656-1.13281l-.07032.97656h-1.32812v-12h1.44531v4.47656q.875-1.08594 2.41406-1.08594 1.53907 0 2.41407 1.16407.88281 1.16406.88281 3.1875zm-1.44531-.16407q0-1.47656-.57032-2.28125-.57031-.80468-1.64062-.80468-1.42969 0-2.05469 1.32812v3.65625q.66406 1.32813 2.07031 1.32813 1.03907 0 1.61719-.80469.57813-.80469.57813-2.42188zM698.08984 279h-1.44531v-12h1.44531zm5.82032.15625q-1.71875 0-2.79688-1.125-1.07812-1.13281-1.07812-3.02344v-.26562q0-1.25782.47656-2.24219.48437-.99219 1.34375-1.54688.86719-.5625 1.875-.5625 1.64844 0 2.5625 1.08594.91406 1.08594.91406 3.10938v.60156h-5.72656q.0312 1.25.72656 2.02344.70313.76562 1.78125.76562.76563 0 1.29688-.3125t.92968-.82812l.88282.6875q-1.0625 1.63281-3.1875 1.63281zm-.17969-7.57813q-.875 0-1.46875.64063-.59375.63281-.73438 1.78125h4.23438v-.10938q-.0625-1.10156-.59375-1.70312-.53125-.60938-1.4375-.60938zM616.20312 299v-7.33594h-1.33593v-1.11719h1.33593v-.86718q0-1.35938.72657-2.10157.72656-.74218 2.05468-.74218.5 0 .99219.13281l-.0781 1.17187q-.36719-.0703-.78125-.0703-.70313 0-1.08594.41406-.38281.40625-.38281 1.17188v.89062h1.80468v1.11719h-1.80468V299Zm4.46094-4.30469q0-1.24219.48438-2.23437.49218-.99219 1.35937-1.53125.875-.53907 1.99219-.53907 1.72656 0 2.78906 1.19532 1.07031 1.19531 1.07031 3.17968v.10157q0 1.23437-.47656 2.21875-.46875.97656-1.35156 1.52343-.875.54688-2.01563.54688-1.71875 0-2.78906-1.19531-1.0625-1.19532-1.0625-3.16407zm1.45313.17188q0 1.40625.64843 2.25781.65625.85156 1.75.85156 1.10157 0 1.75-.85937.64844-.86719.64844-2.42188 0-1.39062-.66406-2.25-.65625-.86719-1.75-.86719-1.07031 0-1.72656.85157-.65625.85156-.65625 2.4375zm12.14062-3.02344q-.32812-.0547-.71094-.0547-1.42187 0-1.92968 1.21094v6h-1.44532v-8.45313h1.40625l.0234.97657q.71094-1.13282 2.01563-1.13282.42187 0 .64062.10938zm8.79688 7.3125q-1.71875 0-2.79688-1.125-1.07812-1.13281-1.07812-3.02344v-.26562q0-1.25782.47656-2.24219.48437-.99219 1.34375-1.54688.86719-.5625 1.875-.5625 1.64844 0 2.5625 1.08594.91406 1.08594.91406 3.10938v.60156H640.625q.0312 1.25.72656 2.02344.70313.76562 1.78125.76562.76563 0 1.29688-.3125t.92968-.82812l.88282.6875q-1.0625 1.63281-3.1875 1.63281zm-.17969-7.57813q-.875 0-1.46875.64063-.59375.63281-.73438 1.78125h4.23438v-.10938q-.0625-1.10156-.59375-1.70312-.53125-.60938-1.4375-.60938zm6.51562-1.03125.0469 1.0625q.96875-1.21875 2.53125-1.21875 2.67969 0 2.70312 3.02344V299h-1.44531v-5.59375q-.008-.91406-.42187-1.35156-.40625-.4375-1.27344-.4375-.70313 0-1.23438.375t-.82812.98437V299h-1.44531v-8.45313zm10.96875 8.60938q-1.71875 0-2.79687-1.125-1.07813-1.13281-1.07813-3.02344v-.26562q0-1.25782.47657-2.24219.48437-.99219 1.34375-1.54688.86718-.5625 1.875-.5625 1.64843 0 2.5625 1.08594.91406 1.08594.91406 3.10938v.60156h-5.72656q.0312 1.25.72656 2.02344.70312.76562 1.78125.76562.76562 0 1.29687-.3125t.92969-.82812l.88281.6875q-1.0625 1.63281-3.1875 1.63281zm-.17968-7.57813q-.875 0-1.46875.64063-.59375.63281-.73438 1.78125h4.23438v-.10938q-.0625-1.10156-.59375-1.70312-.53125-.60938-1.4375-.60938zm9.23437.26563q-.32812-.0547-.71094-.0547-1.42187 0-1.92968 1.21094v6h-1.44532v-8.45313h1.40625l.0234.97657q.71094-1.13282 2.01563-1.13282.42187 0 .64062.10938zm.83594 2.85937q0-1.97656.91406-3.14062.91406-1.17188 2.42188-1.17188 1.54687 0 2.41406 1.09375l.0703-.9375h1.32031v8.25q0 1.64063-.97656 2.58594-.96875.94531-2.60937.94531-.91407 0-1.78907-.39062-.875-.39063-1.33593-1.07031l.75-.86719q.92968 1.14844 2.27343 1.14844 1.05469 0 1.64063-.59375.59375-.59375.59375-1.67188v-.72656q-.86719 1-2.36719 1-1.48437 0-2.40625-1.19531-.91406-1.19532-.91406-3.25782zm1.45312.16407q0 1.42968.58594 2.25.58594.8125 1.64063.8125 1.36718 0 2.00781-1.24219v-3.85938q-.66406-1.21093-1.99219-1.21093-1.05469 0-1.64844.82031t-.59375 2.42969zm10.63282 2.01562 1.96875-6.33594h1.54687l-3.39844 9.75782q-.78906 2.10937-2.50781 2.10937l-.27344-.0234-.53906-.10156v-1.17187l.39063.0312q.73437 0 1.14062-.29688.41406-.29687.67969-1.08594l.32031-.85937-3.01562-8.35938h1.57812zm13.6875-.125q0-.58594-.44532-.90625-.4375-.32812-1.53906-.5625-1.09375-.23437-1.74219-.5625-.64062-.32812-.95312-.78125-.30469-.45312-.30469-1.07812 0-1.03907.875-1.75782.88281-.71875 2.25-.71875 1.4375 0 2.32813.74219.89843.74219.89843 1.89844h-1.45312q0-.59375-.50781-1.02344-.5-.42969-1.26563-.42969-.78906 0-1.23437.34375-.44532.34375-.44532.89844 0 .52344.41407.78906.41406.26563 1.49218.50782 1.08594.24218 1.75782.57812.67187.33594.99218.8125.32813.46875.32813 1.14844 0 1.13281-.90625 1.82031-.90625.67969-2.35156.67969-1.01563 0-1.79688-.35938-.78125-.35937-1.22656-1-.4375-.64843-.4375-1.39843h1.44531q.0391.72656.57813 1.15625.54687.42187 1.4375.42187.82031 0 1.3125-.32812.5-.33594.5-.89063zM701.3125 288.5v2.04687h1.57812v1.11719h-1.57812v5.24219q0 .50781.21094.76562.21093.25.71875.25.25 0 .6875-.0937V299q-.57032.15625-1.10938.15625-.96875 0-1.46094-.58594-.49218-.58594-.49218-1.66406v-5.24219h-1.53907v-1.11719h1.53907V288.5Zm2.72656 6.19531q0-1.24219.48438-2.23437.49218-.99219 1.35937-1.53125.875-.53907 1.99219-.53907 1.72656 0 2.78906 1.19532 1.07031 1.19531 1.07031 3.17968v.10157q0 1.23437-.47656 2.21875-.46875.97656-1.35156 1.52343-.875.54688-2.01563.54688-1.71875 0-2.78906-1.19531-1.0625-1.19532-1.0625-3.16407zm1.45313.17188q0 1.40625.64843 2.25781.65625.85156 1.75.85156 1.10157 0 1.75-.85937.64844-.86719.64844-2.42188 0-1.39062-.66406-2.25-.65625-.86719-1.75-.86719-1.07031 0-1.72656.85157-.65625.85156-.65625 2.4375zm12.14062-3.02344q-.32812-.0547-.71094-.0547-1.42187 0-1.92968 1.21094v6h-1.44532v-8.45313h1.40625l.0234.97657q.71094-1.13282 2.01563-1.13282.42187 0 .64062.10938zM723.86719 299q-.125-.25-.20313-.89063-1.00781 1.04688-2.40625 1.04688-1.25 0-2.05469-.70313-.79687-.71093-.79687-1.79687 0-1.32031 1-2.04688 1.00781-.73437 2.82812-.73437h1.40625v-.66406q0-.75782-.45312-1.20313-.45313-.45312-1.33594-.45312-.77344 0-1.29687.39062-.52344.39063-.52344.94531h-1.45313q0-.63281.44532-1.21875.45312-.59375 1.21875-.9375.77343-.34375 1.69531-.34375 1.46094 0 2.28906.73438.82813.72656.85938 2.00781v3.89063q0 1.16406.29687 1.85156V299Zm-2.39844-1.10156q.67969 0 1.28906-.35157.60938-.35156.88281-.91406v-1.73437h-1.13281q-2.65625 0-2.65625 1.55468 0 .67969.45313 1.0625.45312.38282 1.16406.38282zm5.53906-3.19532q0-1.97656.91406-3.14062.91407-1.17188 2.42188-1.17188 1.54687 0 2.41406 1.09375l.0703-.9375h1.32032v8.25q0 1.64063-.97657 2.58594-.96875.94531-2.60937.94531-.91406 0-1.78906-.39062-.875-.39063-1.33594-1.07031L728.1875 300q.92969 1.14844 2.27344 1.14844 1.05468 0 1.64062-.59375.59375-.59375.59375-1.67188v-.72656q-.86719 1-2.36719 1-1.48437 0-2.40625-1.19531-.91406-1.19532-.91406-3.25782zm1.45313.16407q0 1.42968.58593 2.25.58594.8125 1.64063.8125 1.36719 0 2.00781-1.24219v-3.85938q-.66406-1.21093-1.99219-1.21093-1.05468 0-1.64843.82031t-.59375 2.42969zm11.375 4.28906q-1.71875 0-2.79688-1.125-1.07812-1.13281-1.07812-3.02344v-.26562q0-1.25782.47656-2.24219.48437-.99219 1.34375-1.54688.86719-.5625 1.875-.5625 1.64844 0 2.5625 1.08594.91406 1.08594.91406 3.10938v.60156h-5.72656q.0312 1.25.72656 2.02344.70313.76562 1.78125.76562.76563 0 1.29688-.3125t.92968-.82812l.88282.6875q-1.0625 1.63281-3.1875 1.63281zm-.17969-7.57813q-.875 0-1.46875.64063-.59375.63281-.73438 1.78125h4.23438v-.10938q-.0625-1.10156-.59375-1.70312-.53125-.60938-1.4375-.60938zM629.08594 319h-1.44532v-8.45313h1.44532zm-1.5625-10.69531q0-.35157.21093-.59375.21875-.24219.64063-.24219.42187 0 .64062.24219.21875.24218.21875.59375 0 .35156-.21875.58593-.21875.23438-.64062.23438-.42188 0-.64063-.23438-.21093-.23437-.21093-.58593zM632.10937 319v-7.33594h-1.33593v-1.11719h1.33593v-.86718q0-1.35938.72657-2.10157.72656-.74218 2.05468-.74218.5 0 .99219.13281l-.0781 1.17187q-.36719-.0703-.78125-.0703-.70313 0-1.08594.41406-.38281.40625-.38281 1.17188v.89062h1.80468v1.11719h-1.80468V319Zm8.46094-4.29688q0-1.97656.91406-3.14062.91407-1.17188 2.42188-1.17188 1.54687 0 2.41406 1.09375l.0703-.9375h1.32032v8.25q0 1.64063-.97657 2.58594-.96875.94531-2.60937.94531-.91406 0-1.78906-.39062-.875-.39063-1.33594-1.07031L641.75 320q.92969 1.14844 2.27344 1.14844 1.05468 0 1.64062-.59375.59375-.59375.59375-1.67188v-.72656q-.86719 1-2.36719 1-1.48437 0-2.40625-1.19531-.91406-1.19532-.91406-3.25782zm1.45313.16407q0 1.42968.58593 2.25.58594.8125 1.64063.8125 1.36719 0 2.00781-1.24219v-3.85938q-.66406-1.21093-1.99219-1.21093-1.05468 0-1.64843.82031t-.59375 2.42969zm11.95312-3.02344q-.32812-.0547-.71094-.0547-1.42187 0-1.92968 1.21094v6h-1.44532v-8.45313h1.40625l.0234.97657q.71094-1.13282 2.01563-1.13282.42187 0 .64062.10938zm.78906 2.85156q0-1.24219.48438-2.23437.49219-.99219 1.35937-1.53125.875-.53907 1.99219-.53907 1.72656 0 2.78906 1.19532 1.07032 1.19531 1.07032 3.17968v.10157q0 1.23437-.47657 2.21875-.46875.97656-1.35156 1.52343-.875.54688-2.01562.54688-1.71875 0-2.78907-1.19531-1.0625-1.19532-1.0625-3.16407zm1.45313.17188q0 1.40625.64844 2.25781.65625.85156 1.75.85156 1.10156 0 1.75-.85937.64843-.86719.64843-2.42188 0-1.39062-.66406-2.25-.65625-.86719-1.75-.86719-1.07031 0-1.72656.85157-.65625.85156-.65625 2.4375zm13.27344 3.29687q-.84375.99219-2.47657.99219-1.35156 0-2.0625-.78125-.70312-.78906-.71093-2.32813v-5.5h1.44531v5.46094q0 1.92188 1.5625 1.92188 1.65625 0 2.20312-1.23438v-6.14844h1.44532V319h-1.375zm10.74218-3.29687q0 1.92968-.88281 3.10937-.88281 1.17969-2.39062 1.17969-1.53907 0-2.42188-.97656V322.25h-1.44531v-11.70313h1.32031l.0703.9375q.88282-1.09375 2.45313-1.09375 1.52344 0 2.40625 1.14844.89062 1.14844.89062 3.19531zm-1.44531-.16407q0-1.42968-.60937-2.25781-.60938-.82812-1.67188-.82812-1.3125 0-1.96875 1.16406v4.03906q.64844 1.15625 1.98438 1.15625 1.03906 0 1.64843-.82031.61719-.82813.61719-2.45313zm6.78906 4.45313q-1.71875 0-2.79687-1.125-1.07813-1.13281-1.07813-3.02344v-.26562q0-1.25782.47657-2.24219.48437-.99219 1.34375-1.54688.86718-.5625 1.875-.5625 1.64843 0 2.5625 1.08594.91406 1.08594.91406 3.10938v.60156h-5.72656q.0312 1.25.72656 2.02344.70312.76562 1.78125.76562.76562 0 1.29687-.3125t.92969-.82812l.88281.6875q-1.0625 1.63281-3.1875 1.63281zm-.17968-7.57813q-.875 0-1.46875.64063-.59375.63281-.73438 1.78125h4.23438v-.10938q-.0625-1.10156-.59375-1.70312-.53125-.60938-1.4375-.60938zm4.79687 3.125q0-1.94531.92188-3.125.92187-1.1875 2.41406-1.1875 1.48437 0 2.35156 1.01563V307h1.44531v12H696l-.0703-.90625q-.86719 1.0625-2.41407 1.0625-1.46875 0-2.39843-1.20313-.92188-1.20312-.92188-3.14062zm1.44531.16407q0 1.4375.59375 2.25t1.64063.8125q1.375 0 2.00781-1.23438v-3.88281q-.64844-1.19531-1.99219-1.19531-1.0625 0-1.65625.82031t-.59375 2.42969zm15.86719-2.53907h2.84375v1.17969h-2.84375v3.23438h-1.30469v-3.23438h-3.00781v-1.17969h3.00781v-3.22656h1.30469zM710.01562 319h-6.52343v-1.1875h6.52343zm2.57813-5.70313.57812-5.67187H719v1.33594h-4.60156l-.34375 3.10156q.83593-.49219 1.89843-.49219 1.55469 0 2.46875 1.03125.91407 1.02344.91407 2.77344 0 1.75781-.95313 2.77344-.94531 1.00781-2.64844 1.00781-1.50781 0-2.46093-.83594-.95313-.83594-1.08594-2.3125h1.36719q.13281.97656.69531 1.47656.5625.49219 1.48437.49219 1.00782 0 1.57813-.6875.57812-.6875.57812-1.89844 0-1.14062-.625-1.82812-.61718-.69531-1.64843-.69531-.94532 0-1.48438.41406l-.38281.3125zm8.19531-3.48437q0-1.02344.64844-1.6875.65625-.66406 1.67969-.66406 1.03906 0 1.67968.67187.64844.66406.64844 1.72656v.55469q0 1.03125-.65625 1.6875-.64844.64844-1.65625.64844-1.01562 0-1.67969-.64844-.66406-.65625-.66406-1.74219zm1.07813.60156q0 .60938.34375 1.00781.34375.39063.92187.39063.55469 0 .89063-.38281.34375-.38282.34375-1.04688v-.57031q0-.60938-.33594-1.00781-.33594-.39844-.91406-.39844-.57813 0-.91407.39844-.33593.39843-.33593 1.03906zm4.46093 5.79688q0-1.02344.64844-1.67969.65625-.66406 1.67969-.66406t1.67969.65625q.65625.65625.65625 1.74218v.55469q0 1.02344-.65625 1.6875-.64844.65625-1.66407.65625-1.01562 0-1.67968-.64844-.66407-.65625-.66407-1.74218zm1.07813.60937q0 .61719.34375 1.01563.34375.39062.92187.39062.5625 0 .89844-.38281.33594-.39063.33594-1.05469v-.57812q0-.61719-.34375-1.00782-.33594-.39062-.90625-.39062-.55469 0-.90625.39062-.34375.38282-.34375 1.03907zm-3.94531 1.32031-.82032-.51562 5.55469-8.89063.82031.51563z" style="-inkscape-font-specification:Roboto"/></g><g fill="#363a32" stroke-width="2" aria-label="Suitable for EVs" font-family="Roboto" font-size="16px" font-weight="400" style="line-height:1.25;-inkscape-font-specification:&quot;Roboto Bold&quot;;text-align:center" text-anchor="middle"><path d="M791.91797 273.92969q-1.92969-.55469-2.8125-1.35938-.875-.8125-.875-2 0-1.34375 1.07031-2.21875 1.07813-.88281 2.79688-.88281 1.17187 0 2.08593.45312.92188.45313 1.42188 1.25.50781.79688.50781 1.74219h-1.50781q0-1.03125-.65625-1.61719-.65625-.59375-1.85156-.59375-1.10938 0-1.73438.49219-.61719.48438-.61719 1.35156 0 .69532.58594 1.17969.59375.47656 2.00781.875 1.42188.39844 2.21875.88281.80469.47657 1.1875 1.11719.39063.64063.39063 1.50781 0 1.38282-1.07813 2.21875-1.07812.82813-2.88281.82813-1.17187 0-2.1875-.44531-1.01562-.45313-1.57031-1.23438-.54688-.78125-.54688-1.77344h1.50782q0 1.03125.75781 1.63282.76562.59375 2.03906.59375 1.1875 0 1.82031-.48438.63282-.48437.63282-1.32031 0-.83594-.58594-1.28906-.58594-.46094-2.125-.90625zm11.13281 4.23437q-.84375.99219-2.47656.99219-1.35156 0-2.0625-.78125-.70313-.78906-.71094-2.32813v-5.5h1.44531v5.46094q0 1.92188 1.5625 1.92188 1.65625 0 2.20313-1.23438v-6.14844h1.44531V279h-1.375zm5.17188.83594h-1.44532v-8.45313h1.44532zm-1.5625-10.69531q0-.35157.21093-.59375.21875-.24219.64063-.24219.42187 0 .64062.24219.21875.24218.21875.59375 0 .35156-.21875.58593-.21875.23438-.64062.23438-.42188 0-.64063-.23438-.21093-.23437-.21093-.58593zm5.83593.19531v2.04687h1.57813v1.11719h-1.57813v5.24219q0 .50781.21094.76562.21094.25.71875.25.25 0 .6875-.0937V279q-.57031.15625-1.10937.15625-.96875 0-1.46094-.58594-.49219-.58594-.49219-1.66406v-5.24219h-1.53906v-1.11719h1.53906V268.5Zm8.48438 10.5q-.125-.25-.20313-.89063-1.00781 1.04688-2.40625 1.04688-1.25 0-2.05468-.70313-.79688-.71093-.79688-1.79687 0-1.32031 1-2.04688 1.00781-.73437 2.82813-.73437h1.40625v-.66406q0-.75782-.45313-1.20313-.45312-.45312-1.33594-.45312-.77343 0-1.29687.39062-.52344.39063-.52344.94531h-1.45312q0-.63281.44531-1.21875.45312-.59375 1.21875-.9375.77344-.34375 1.69531-.34375 1.46094 0 2.28906.73438.82813.72656.85938 2.00781v3.89063q0 1.16406.29687 1.85156V279Zm-2.39844-1.10156q.67969 0 1.28906-.35157.60938-.35156.88282-.91406v-1.73437h-1.13282q-2.65625 0-2.65625 1.55468 0 .67969.45313 1.0625.45312.38282 1.16406.38282zm13.03906-3.03125q0 1.9375-.89062 3.11718-.89063 1.17188-2.39063 1.17188-1.60156 0-2.47656-1.13281l-.07031.97656h-1.32813v-12h1.44532v4.47656q.875-1.08594 2.41406-1.08594t2.41406 1.16407q.88281 1.16406.88281 3.1875zm-1.44531-.16407q0-1.47656-.57031-2.28125-.57031-.80468-1.64063-.80468-1.42968 0-2.05468 1.32812v3.65625q.66406 1.32813 2.07031 1.32813 1.03906 0 1.61719-.80469.57812-.80469.57812-2.42188zM835.01172 279h-1.44531v-12h1.44531zm5.82031.15625q-1.71875 0-2.79687-1.125-1.07813-1.13281-1.07813-3.02344v-.26562q0-1.25782.47656-2.24219.48438-.99219 1.34375-1.54688.86719-.5625 1.875-.5625 1.64844 0 2.5625 1.08594.91407 1.08594.91407 3.10938v.60156h-5.72657q.0312 1.25.72657 2.02344.70312.76562 1.78125.76562.76562 0 1.29687-.3125t.92969-.82812l.88281.6875q-1.0625 1.63281-3.1875 1.63281zm-.17969-7.57813q-.875 0-1.46875.64063-.59375.63281-.73437 1.78125h4.23437v-.10938q-.0625-1.10156-.59375-1.70312-.53125-.60938-1.4375-.60938zM791.99219 299v-7.33594h-1.33594v-1.11719h1.33594v-.86718q0-1.35938.72656-2.10157.72656-.74218 2.05469-.74218.5 0 .99218.13281l-.0781 1.17187q-.36719-.0703-.78125-.0703-.70313 0-1.08594.41406-.38281.40625-.38281 1.17188v.89062h1.80469v1.11719h-1.80471V299Zm4.46093-4.30469q0-1.24219.48438-2.23437.49219-.99219 1.35937-1.53125.875-.53907 1.99219-.53907 1.72656 0 2.78906 1.19532 1.07032 1.19531 1.07032 3.17968v.10157q0 1.23437-.47657 2.21875-.46875.97656-1.35156 1.52343-.875.54688-2.01562.54688-1.71875 0-2.78907-1.19531-1.0625-1.19532-1.0625-3.16407zm1.45313.17188q0 1.40625.64844 2.25781.65625.85156 1.75.85156 1.10156 0 1.75-.85937.64843-.86719.64843-2.42188 0-1.39062-.66406-2.25-.65625-.86719-1.75-.86719-1.07031 0-1.72656.85157-.65625.85156-.65625 2.4375zm12.14062-3.02344q-.32812-.0547-.71093-.0547-1.42188 0-1.92969 1.21094v6h-1.44531v-8.45313h1.40625l.0234.97657q.71094-1.13282 2.01563-1.13282.42187 0 .64062.10938zm11.94532 1.89844h-4.92969v4.03125h5.72656V299h-7.22656v-11.375h7.14844v1.23437h-5.64844v3.65625h4.92969zm6.42968 3.26562 3.25-9.38281h1.64063L829.09375 299h-1.32813l-4.21093-11.375h1.63281zm11.10938-.25q0-.58594-.44531-.90625-.4375-.32812-1.53907-.5625-1.09375-.23437-1.74218-.5625-.64063-.32812-.95313-.78125-.30469-.45312-.30469-1.07812 0-1.03907.875-1.75782.88282-.71875 2.25-.71875 1.4375 0 2.32813.74219.89844.74219.89844 1.89844h-1.45313q0-.59375-.50781-1.02344-.5-.42969-1.26563-.42969-.78906 0-1.23437.34375t-.44531.89844q0 .52344.41406.78906.41406.26563 1.49219.50782 1.08593.24218 1.75781.57812.67187.33594.99219.8125.32812.46875.32812 1.14844 0 1.13281-.90625 1.82031-.90625.67969-2.35156.67969-1.01563 0-1.79688-.35938-.78125-.35937-1.22656-1-.4375-.64843-.4375-1.39843h1.44531q.0391.72656.57813 1.15625.54687.42187 1.4375.42187.82031 0 1.3125-.32812.5-.33594.5-.89063z" style="-inkscape-font-specification:Roboto"/></g><path fill="#bdbdbd" d="M10 225v4h105.69141c1.61473 2.7972 3.22885 5.59489 4.84375 8.39258L124 243.39453l3.46484-6.00195c1.61434-2.79735 3.23027-5.59497 4.84571-8.39258H238v-4H130c-.76982 1.33316-1.53881 2.66681-2.30859 4-1.23039 2.1309-2.46151 4.26139-3.69141 6.39258-1.23011-2.13107-2.46111-4.26163-3.69141-6.39258-.76973-1.33322-1.53863-2.66692-2.30859-4H90Z"/><path fill="#363a32" d="M65.113281 276.03125h-4.765625L59.277344 279h-1.546875l4.34375-11.375h1.3125L67.738281 279h-1.539062zm-4.3125-1.23438h3.867188l-1.9375-5.32031zm7.898438-.0937q0-1.97656.914062-3.14062.914063-1.17188 2.421875-1.17188 1.546875 0 2.414063 1.09375l.07031-.9375h1.320313v8.25q0 1.64063-.976563 2.58594-.96875.94531-2.609375.94531-.914062 0-1.789062-.39062-.875-.39063-1.335938-1.07031l.75-.86719q.929688 1.14844 2.273438 1.14844 1.054687 0 1.640625-.59375.59375-.59375.59375-1.67188v-.72656q-.867188 1-2.367188 1-1.484375 0-2.40625-1.19531-.914062-1.19532-.914062-3.25782zm1.453125.16407q0 1.42968.585937 2.25.585938.8125 1.640625.8125 1.367188 0 2.007813-1.24219v-3.85938q-.664063-1.21093-1.992188-1.21093-1.054687 0-1.648437.82031t-.59375 2.42969zm11.375 4.28906q-1.71875 0-2.796875-1.125-1.078125-1.13281-1.078125-3.02344v-.26562q0-1.25782.476562-2.24219.484375-.99219 1.34375-1.54688.867188-.5625 1.875-.5625 1.648438 0 2.5625 1.08594.914063 1.08594.914063 3.10938v.60156h-5.726563q.03125 1.25.726563 2.02344.703125.76562 1.78125.76562.765625 0 1.296875-.3125t.929687-.82812l.882813.6875q-1.0625 1.63281-3.1875 1.63281zm-.179688-7.57813q-.875 0-1.46875.64063-.59375.63281-.734375 1.78125h4.234375v-.10938q-.0625-1.10156-.59375-1.70312-.53125-.60938-1.4375-.60938zm4.796875 3.125q0-1.94531.921875-3.125.921875-1.1875 2.414063-1.1875 1.484375 0 2.351562 1.01563V267h1.445313v12h-1.328125l-.07031-.90625q-.867187 1.0625-2.414062 1.0625-1.46875 0-2.398438-1.20313-.921875-1.20312-.921875-3.14062zm1.445313.16407q0 1.4375.59375 2.25t1.640625.8125q1.375 0 2.007812-1.23438v-3.88281q-.648437-1.19531-1.992187-1.19531-1.0625 0-1.65625.82031t-.59375 2.42969zM99.964844 279v-7.33594h-1.335938v-1.11719h1.335938v-.71875q0-1.41406.804686-2.20312.8125-.78906 2.28906-.78906.875 0 2.21094.47656l-.24219 1.21875q-.97656-.39063-1.85937-.39063-.92969 0-1.34375.42188-.40625.41406-.40625 1.25v.73437h1.72656v1.11719h-1.72656V279Zm6.023436 0h-1.45312v-8.45313h1.45312zm6.4375-7.15625q-.32812-.0547-.71094-.0547-1.42187 0-1.92968 1.21094v6h-1.44532v-8.45313h1.40625l.0234.97657q.71094-1.13282 2.01563-1.13282.42187 0 .64062.10938zm6.25 4.91406q0-.58594-.44531-.90625-.4375-.32812-1.53906-.5625-1.09375-.23437-1.74219-.5625-.64063-.32812-.95313-.78125-.30468-.45312-.30468-1.07812 0-1.03907.875-1.75782.88281-.71875 2.25-.71875 1.4375 0 2.32812.74219.89844.74219.89844 1.89844h-1.45313q0-.59375-.50781-1.02344-.5-.42969-1.26562-.42969-.78907 0-1.23438.34375t-.44531.89844q0 .52344.41406.78906.41406.26563 1.49219.50782 1.08594.24218 1.75781.57812.67188.33594.99219.8125.32812.46875.32812 1.14844 0 1.13281-.90625 1.82031-.90625.67969-2.35156.67969-1.01562 0-1.79687-.35938-.78125-.35937-1.22657-1-.4375-.64843-.4375-1.39843h1.44532q.0391.72656.57812 1.15625.54688.42187 1.4375.42187.82031 0 1.3125-.32812.5-.33594.5-.89063zm5.28906-8.25781v2.04687h1.57813v1.11719h-1.57813v5.24219q0 .50781.21094.76562.21094.25.71875.25.25 0 .6875-.0937V279q-.57031.15625-1.10937.15625-.96875 0-1.46094-.58594-.49219-.58594-.49219-1.66406v-5.24219h-1.53906v-1.11719h1.53906V268.5Zm6.27344 6.25781h-3.8125v-1.17969h3.8125zM133.21484 279h-1.44531v-12h1.44531zm3.88282 0h-1.44532v-8.45313h1.44532zm-1.5625-10.69531q0-.35157.21093-.59375.21875-.24219.64063-.24219.42187 0 .64062.24219.21875.24218.21875.59375 0 .35156-.21875.58593-.21875.23438-.64062.23438-.42188 0-.64063-.23438-.21093-.23437-.21093-.58593zM140.12109 279v-7.33594h-1.33593v-1.11719h1.33593v-.86718q0-1.35938.72657-2.10157.72656-.74218 2.05468-.74218.5 0 .99219.13281l-.0781 1.17187q-.36719-.0703-.78125-.0703-.70313 0-1.08594.41406-.38281.40625-.38281 1.17188v.89062h1.80468v1.11719h-1.80468V279Zm8.16407.15625q-1.71875 0-2.79688-1.125-1.07812-1.13281-1.07812-3.02344v-.26562q0-1.25782.47656-2.24219.48437-.99219 1.34375-1.54688.86719-.5625 1.875-.5625 1.64844 0 2.5625 1.08594.91406 1.08594.91406 3.10938v.60156h-5.72656q.0312 1.25.72656 2.02344.70313.76562 1.78125.76562.76563 0 1.29688-.3125t.92968-.82812l.88282.6875q-1.0625 1.63281-3.1875 1.63281zm-.17969-7.57813q-.875 0-1.46875.64063-.59375.63281-.73438 1.78125h4.23438v-.10938q-.0625-1.10156-.59375-1.70312-.53125-.60938-1.4375-.60938zm16.25 3.28907q0 1.92968-.88281 3.10937-.88282 1.17969-2.39063 1.17969-1.53906 0-2.42187-.97656V282.25h-1.44532v-11.70313h1.32032l.0703.9375q.88281-1.09375 2.45312-1.09375 1.52344 0 2.40625 1.14844.89063 1.14844.89063 3.19531zm-1.44531-.16407q0-1.42968-.60938-2.25781-.60937-.82812-1.67187-.82812-1.3125 0-1.96875 1.16406v4.03906q.64843 1.15625 1.98437 1.15625 1.03906 0 1.64844-.82031.61719-.82813.61719-2.45313zm8.5 4.29688q-.125-.25-.20313-.89063-1.00781 1.04688-2.40625 1.04688-1.25 0-2.05469-.70313-.79687-.71093-.79687-1.79687 0-1.32031 1-2.04688 1.00781-.73437 2.82812-.73437h1.40625v-.66406q0-.75782-.45312-1.20313-.45313-.45312-1.33594-.45312-.77344 0-1.29687.39062-.52344.39063-.52344.94531h-1.45313q0-.63281.44532-1.21875.45312-.59375 1.21875-.9375.77343-.34375 1.69531-.34375 1.46094 0 2.28906.73438.82813.72656.85938 2.00781v3.89063q0 1.16406.29687 1.85156V279Zm-2.39844-1.10156q.67969 0 1.28906-.35157.60938-.35156.88281-.91406v-1.73437h-1.13281q-2.65625 0-2.65625 1.55468 0 .67969.45313 1.0625.45312.38282 1.16406.38282zm9.27344.0781q.77343 0 1.35156-.46875.57812-.46875.64062-1.17187h1.36719q-.0391.72656-.5 1.38281-.46094.65625-1.23437 1.04687-.76563.39063-1.625.39063-1.72657 0-2.75-1.14844-1.01563-1.15625-1.01563-3.15625v-.24219q0-1.23437.45313-2.19531.45312-.96094 1.29687-1.49219.85156-.53125 2.00781-.53125 1.42188 0 2.35938.85157.94531.85156 1.00781 2.21093h-1.36719q-.0625-.82031-.625-1.34375-.55468-.53125-1.375-.53125-1.10156 0-1.71093.79688-.60157.78906-.60157 2.28906v.27344q0 1.46094.60157 2.25.60156.78906 1.71875.78906zm7.34375-2.89062-.90625.94531V279h-1.44532v-12h1.44532v7.25781l.77343-.92969 2.63282-2.78125h1.75781l-3.28906 3.53125L190.26953 279h-1.69531z" aria-label="Aged first-life pack" font-family="Roboto" font-size="16px" style="line-height:1.25;-inkscape-font-specification:Roboto;text-align:center" text-anchor="middle"/></svg>