<svg xmlns="http://www.w3.org/2000/svg" width="64px" height="64px"><path fill="#30af59" d="M32 2c-8.822 0-16 7.178-16 16 0 6.944 4.018297 12.701531 7.904297 18.269531.404888.579981.805713 1.156354 1.201172 1.730469H13c-.42 0-.795453.263203-.939453.658203l-8.0000001 22c-.111.307-.0669063.649016.1210937.916016C4.3686406 61.841219 4.674 62 5 62h54c.326 0 .631359-.158781.818359-.425781.187-.268.232094-.609016.121094-.916016l-8-22C51.795453 38.263203 51.42 38 51 38H38.486328c.686028-1.067742 1.386046-2.132464 2.089844-3.1875C44.393172 29.0885 48 23.683 48 18c0-8.822-7.178-16-16-16zm0 2c7.72 0 14 6.28 14 14 0 5.078-3.442891 10.239125-7.087891 15.703125-2.721 4.081-5.506546 8.256563-6.935547 12.601563-.930993-2.665596-2.418975-5.201576-4.050781-7.677735-.03576-.088397-.094147-.162578-.152343-.236328-.729013-1.097955-1.476159-2.187647-2.228516-3.265625C21.834922 29.811 18 24.315 18 18c0-7.72 6.28-14 14-14zm0 7c-3.86 0-7 3.14-7 7s3.14 7 7 7 7-3.14 7-7c0-.552-.448-1-1-1s-1 .448-1 1c0 2.757-2.243 5-5 5s-5-2.243-5-5 2.243-5 5-5c.552 0 1-.448 1-1s-.448-1-1-1zm3.283203.892578c-.384703-.057844-.786406.114297-1.003906.466797-.288.47-.140922 1.086.330078 1.375.668.41 1.239391.977531 1.650391 1.644531.189.307.516562.47461.851562.47461.179 0 .360438-.048391.523438-.150391.47-.29.616171-.905.326172-1.375-.575-.932-1.373641-1.726828-2.306641-2.298828-.11725-.072-.24286-.117438-.371094-.136719zM32 16a2 2 0 0 0-2 2 2 2 0 0 0 2 2 2 2 0 0 0 2-2 2 2 0 0 0-2-2zM13.699219 40h12.751953C29.007199 43.905903 31 47.771967 31 52c0 .552.448 1 1 1s1-.448 1-1c0-4.041532 1.866249-8.055465 4.244141-12h13.05664l7.271485 20H6.4277344l7.2714846-20zM12 54c-.552 0-1 .448-1 1v2c0 .552.448 1 1 1s1-.448 1-1v-2c0-.552-.448-1-1-1zm5 0c-.552 0-1 .448-1 1v2c0 .552.448 1 1 1s1-.448 1-1v-2c0-.552-.448-1-1-1zm5 0c-.552 0-1 .448-1 1v2c0 .552.448 1 1 1s1-.448 1-1v-2c0-.552-.448-1-1-1zm5 0c-.552 0-1 .448-1 1v2c0 .552.448 1 1 1s1-.448 1-1v-2c0-.552-.448-1-1-1zm5 0c-.552 0-1 .448-1 1v2c0 .552.448 1 1 1s1-.448 1-1v-2c0-.552-.448-1-1-1zm5 0c-.552 0-1 .448-1 1v2c0 .552.448 1 1 1s1-.448 1-1v-2c0-.552-.448-1-1-1zm5 0c-.552 0-1 .448-1 1v2c0 .552.448 1 1 1s1-.448 1-1v-2c0-.552-.448-1-1-1zm5 0c-.552 0-1 .448-1 1v2c0 .552.448 1 1 1s1-.448 1-1v-2c0-.552-.448-1-1-1zm5 0c-.552 0-1 .448-1 1v2c0 .552.448 1 1 1s1-.448 1-1v-2c0-.552-.448-1-1-1z"/></svg>