<svg viewBox="0 0 32 32" xmlns="http://www.w3.org/2000/svg"><path d="m25.857 25.858h-4.1487v-6.4971c0-1.5493-0.02765-3.5437-2.1578-3.5437-2.1608 0-2.4914 1.688-2.4914 3.4309v6.6094h-4.1487v-13.361h3.9828v1.8259h0.05574a4.3648 4.3648 0 0 1 3.9296-2.1582c4.2049 0 4.9802 2.7658 4.9802 6.364zm-17.628-15.187a2.4076 2.4076 0 1 1 2.4071-2.408 2.4076 2.4076 0 0 1-2.4071 2.408m2.0744 15.187h-4.153v-13.361h4.153zm17.622-23.855h-23.859a2.0432 2.0432 0 0 0-2.0661 2.0182v23.958a2.0445 2.0445 0 0 0 2.0661 2.0203h23.859a2.0489 2.0489 0 0 0 2.0744-2.0203v-23.96a2.0476 2.0476 0 0 0-2.0744-2.0182" fill="#30af59"/></svg>
