<svg xmlns="http://www.w3.org/2000/svg" viewBox="0 0 48 48"><path fill="#30af59" d="m46.56 19.594-16.167-7.549c-1.517-.708-3.269-.708-4.786 0L9.44 19.594c-.769.359-.769 1.453 0 1.812L14 23.535v16.256c0 2.426 6.268 4.392 14 4.392s14-1.966 14-4.392V23.535l4.56-2.129c.769-.359.769-1.453 0-1.812z"/><path fill="#fdfdfe" d="M24 6.0137329c-1.034168 0-2.06825.224223-3.027283.671814l-7.812561 3.6483761a1.5 1.5 0 0 0-.724548 1.994202 1.5 1.5 0 0 0 1.992187.724548l7.814393-3.6483761c1.115924-.520814 2.399701-.520814 3.515624 0L40.955017 16.5l-1.966736.917908a1.5 1.5 0 0 0-.724548 1.994201 1.5 1.5 0 0 0 1.992187.724549l2.939392-1.371094c1.827403-.853104 1.827403-3.678024 0-4.531128L27.027283 6.6855469c-.959033-.447591-1.993115-.671814-3.027283-.671814zM9.1876831 12.31366a1.5 1.5 0 0 0-.5685425.139526l-3.8144531 1.78125c-1.8274007.853104-1.8274007 3.678024 0 4.531128l16.1680295 7.548889c1.918066.895182 4.1365.895182 6.054566 0l6.972656-3.255981v12.449524A2.5 2.5 0 0 0 33 37.5a2.5 2.5 0 0 0 2.499939 2.499939A2.5 2.5 0 0 0 38.000061 37.5a2.5 2.5 0 0 0-1.000122-1.999695V21.59967a1.50015 1.50015 0 0 0-.022339-.255615 1.5 1.5 0 0 0-.002746-.014099 1.50015 1.50015 0 0 0-.063355-.23584 1.5 1.5 0 0 0-.006775-.017761 1.50015 1.50015 0 0 0-.101807-.218079 1.5 1.5 0 0 0-.01007-.017212 1.50015 1.50015 0 0 0-.138428-.197753 1.5 1.5 0 0 0-.011169-.01355 1.50015 1.50015 0 0 0-.173951-.17395 1.5 1.5 0 0 0-.008789-.007691 1.50015 1.50015 0 0 0-.210571-.1474 1.50015 1.50015 0 0 0-.119019-.062439l-11.000061-5.09967a1.5 1.5 0 0 0-1.146423-.046875 1.5 1.5 0 0 0-.845764.777466 1.5 1.5 0 0 0 .730408 1.992187l7.110351 3.296631-5.221619 2.439697c-1.115923.520815-2.3997.520815-3.515624 0L7.0449829 16.5l2.8436279-1.328064a1.5 1.5 0 0 0 .7247312-1.994202 1.5 1.5 0 0 0-1.4256589-.864074zm.8122559 10.760559a1.5 1.5 0 0 0-1.5 1.5v11.216858c0 1.252414.7886271 2.232688 1.707092 2.91394.918466.681252 2.0746 1.193059 3.445313 1.623047 2.741423.859975 6.354534 1.35553 10.347656 1.35553 1.848653 0 3.617418-.108672 5.255859-.308533a1.5 1.5 0 0 0 1.308655-1.669922 1.5 1.5 0 0 0-1.671936-1.308655c-1.509548.184139-3.161243.28711-4.892578.28711-3.738854 0-7.12561-.48923-9.451172-1.21875-1.162781-.364761-2.056283-.798348-2.554687-1.16803-.498406-.369682-.494202-.545157-.494202-.505737V24.574219a1.5 1.5 0 0 0-1.5-1.5z" color="#000" style="-inkscape-stroke:none"/></svg>