<svg xmlns="http://www.w3.org/2000/svg" viewBox="0 0 32 32"><path fill="#fff" d="M5 4.9999995h22v21.999998H5z"/><path fill="#0a66c2" d="M25.857 25.858h-4.1487v-6.4971c0-1.5493-.02765-3.5437-2.1578-3.5437-2.1608 0-2.4914 1.688-2.4914 3.4309v6.6094h-4.1487v-13.361h3.9828v1.8259h.05574a4.3648 4.3648 0 0 1 3.9296-2.1582c4.2049 0 4.9802 2.7658 4.9802 6.364zM8.229 10.671a2.4076 2.4076 0 1 1 2.4071-2.408 2.4076 2.4076 0 0 1-2.4071 2.408m2.0744 15.187h-4.153V12.497h4.153zm17.622-23.855H4.0664a2.0432 2.0432 0 0 0-2.0661 2.0182v23.958a2.0445 2.0445 0 0 0 2.0661 2.0203h23.859a2.0489 2.0489 0 0 0 2.0744-2.0203v-23.96a2.0476 2.0476 0 0 0-2.0744-2.0182"/></svg>