<svg xmlns="http://www.w3.org/2000/svg" viewBox="0 0 48 48"><circle cx="28" cy="28" r="18" fill="#30af59"/><path fill="#f2f2fa" d="M24 4.0995483C12.9961 4.0995483 4.0995483 12.9961 4.0995483 24 4.0995483 35.0039 12.9961 43.900452 24 43.900452a1.5 1.5 0 0 0 .673096-.180359 1.5 1.5 0 0 0 .169738-.113526 1.5 1.5 0 0 0 .363465-.363464 1.5 1.5 0 0 0 .113342-.169556A1.5 1.5 0 0 0 25.5 42.400452a1.5 1.5 0 0 0-.021606-.247559 1.5 1.5 0 0 0-.019959-.08313 1.5 1.5 0 0 0-.04248-.158752 1.5 1.5 0 0 0-.037354-.089905 1.5 1.5 0 0 0-.064453-.137878 1.5 1.5 0 0 0-.053833-.087891 1.5 1.5 0 0 0-.084045-.120117 1.5 1.5 0 0 0-.068116-.079834 1.5 1.5 0 0 0-.102722-.102906 1.5 1.5 0 0 0-.080566-.068664 1.5 1.5 0 0 0-.119019-.083313 1.5 1.5 0 0 0-.089355-.054749 1.5 1.5 0 0 0-.135498-.063171 1.5 1.5 0 0 0-.092102-.038086 1.5 1.5 0 0 0-.157654-.042297 1.5 1.5 0 0 0-.083679-.020142A1.5 1.5 0 0 0 24 40.900452c-1.477657 0-3.235238-1.445581-4.65033-4.50586-.579583-1.253408-1.072372-2.744332-1.459533-4.394531h8.609802a1.5 1.5 0 0 0 1.5-1.5 1.5 1.5 0 0 0-1.5-1.5h-9.162415c-.214984-1.580425-.337463-3.25676-.337463-5.000061 0-1.743301.122479-3.419636.337463-5.000061h13.324402c.097957.691981.184052 1.395513.242432 2.121094a1.5 1.5 0 0 0 1.615173 1.375122 1.5 1.5 0 0 0 1.374939-1.617188c-.051315-.637774-.120253-1.262578-.199402-1.879028h6.425171c.266866.871915.469152 1.772639.592713 2.699341a1.5 1.5 0 0 0 1.685486 1.287048 1.5 1.5 0 0 0 1.289062-1.685486C42.389678 11.56718 34.041915 4.0995483 24 4.0995483zm0 3c1.302379 0 2.840086 1.1388495 4.191467 3.6485597.761966 1.415079 1.413845 3.212013 1.903382 5.251831H17.890137c.387161-1.650199.87995-3.141123 1.459533-4.394531C20.764762 8.5451287 22.522343 7.0995483 24 7.0995483zm-6.250854 1.1810303c-.407514.6406401-.78322 1.331869-1.122254 2.0650634-.764741 1.653831-1.380113 3.562446-1.823913 5.654297H9.0844116c1.8677894-3.503149 4.9332074-6.2506527 8.6647344-7.7193604zm12.471862.0010986c3.718152 1.4709927 6.784201 4.2218618 8.65448 7.7182618h-5.688904c-.545745-2.531994-1.342257-4.797592-2.352539-6.6738282-.194272-.3607921-.399209-.7090743-.613037-1.0444336zM7.8403931 18.999939h6.4623409c-.197423 1.596925-.302673 3.270557-.302673 5.000061 0 1.729504.10525 3.403136.302673 5.000061H7.8403931C7.3592316 27.422312 7.0995483 25.743979 7.0995483 24c0-1.743979.2596833-3.422312.7408448-5.000061zm30.1644289 4.000305a1.50015 1.50015 0 0 0-.432495.062256 1.50015 1.50015 0 0 0-.951233.845764c-.417206.973479-2.130152 1.850307-4.187439 3.044861-1.028644.597277-2.109703 1.305154-2.976563 2.361328-.866859 1.056174-1.457153 2.49243-1.457153 4.185608 0 1.249998.318822 2.240916.658264 2.9198.339443.678884.781311 1.140747.781311 1.140747a1.5 1.5 0 0 0 2.121094 0 1.5 1.5 0 0 0 0-2.121094s-.058251-.038321-.218811-.359436c-.160557-.321114-.341858-.830019-.341858-1.580017 0-1.056816.284953-1.683253.777466-2.283325.492512-.600073 1.255088-1.142202 2.16394-1.669922 1.328241-.771236 3.030873-1.458756 4.279358-2.751892 1.107346 1.010005 2.779358 2.896352 2.779358 6.705139 0 3.147369-2.210747 5.356761-4.750671 5.493164.793845-1.252043 1.372437-2.667088 1.713501-4.159241a1.5 1.5 0 0 0-1.128846-1.796814 1.5 1.5 0 0 0-1.796997 1.128846c-.706996 3.093109-2.59114 5.510781-5.224548 6.416015a1.5 1.5 0 0 0-.931641 1.906311 1.5 1.5 0 0 0 1.906311.929627c1.15206-.396021 2.186495-.988089 3.093934-1.729981C34.408349 41.892588 35.06715 42 36 42c4.357134 0 8.000061-3.749949 8.000061-8.499939 0-6.749986-5.167969-10.248047-5.167969-10.248047a1.50015 1.50015 0 0 0-.82727-.25177zM9.0844116 32.000061h5.7185674c.4438 2.091851 1.059172 4.000466 1.823913 5.654297.339034.733194.71474 1.424423 1.122254 2.065063-3.731527-1.468707-6.796945-4.216211-8.6647344-7.71936z" color="#000"/></svg>