<svg xmlns="http://www.w3.org/2000/svg" viewBox="0 0 48 48"><circle cx="23.5" cy="24.5" r="14.5" fill="#30af59"/><path fill="#fff" d="M19.5 5.000061c-8.518164 0-15.500061 6.981713-15.500061 15.499878 0 2.338091.5564168 4.544907 1.4296875 6.509766a1.5 1.5 0 0 0 1.9804687.761718 1.5 1.5 0 0 0 .7598877-1.980468c-.5292906-1.190905-.9054596-2.466721-1.0722656-3.791016h4.6444707l3.437438 4.771545c1.128363 1.57971 3.663892 1.233757 4.39856-.480468a1.50015 1.50015 0 0 0 .036987-.091736l3.238404-9.17395 2.040893 3.613403a1.50015 1.50015 0 0 0 .056763.09375c.413345.620018 1.248378 1.167847 2.148376 1.167847h4.819519C31.21845 28.127563 25.908338 33 19.5 33c-2.887494 0-5.444132-.891508-7.474548-2.48053a1.5 1.5 0 0 0-2.1075443.255982 1.5 1.5 0 0 0 .2578123 2.105346C12.745295 34.89177 15.987508 36 19.5 36c3.975781 0 7.616182-1.521752 10.368896-4.01001l11.570618 11.570618a1.5 1.5 0 0 0 2.121094 0 1.5 1.5 0 0 0 0-2.121094L31.894409 29.773315c1.682468-2.238658 2.77227-4.942409 3.038635-7.872985h7.567017a1.5 1.5 0 0 0 1.5-1.5 1.5 1.5 0 0 0-1.5-1.5H27.357422l-2.451233-4.337769a1.50015 1.50015 0 0 0-.003845-.006042c-.509132-.890982-1.458378-1.260707-2.369202-1.169861-.910824.09084-1.784251.640938-2.138672 1.586059A1.50015 1.50015 0 0 0 20.384766 15l-3.283265 9.306702-3.083862-4.283203a1.50015 1.50015 0 0 0-.156372-.183655c-.376776-.376777-.894602-.839905-1.861267-.839905H7.093689C7.8397152 12.820668 13.126033 8.000061 19.5 8.000061c4.479992 0 8.295441 2.311372 10.53717 5.808472a1.5 1.5 0 0 0 2.072205.4552 1.5 1.5 0 0 0 .453186-2.072388C29.804302 7.8884604 25.019988 5.000061 19.5 5.000061zm2.794922 11.037048.005859.009888c-.000874-.0015-.002945-.000456-.003845-.002014l-.002014-.007874z" color="#000"/></svg>