<svg xmlns="http://www.w3.org/2000/svg" viewBox="0 0 32 32"><path fill="#30af59" d="M16.003906 2c-5.84486 0-7.5544439.0056332-7.8867185.0332031-1.1994607.0997311-1.9446615.2884136-2.7578125.6933594-.6266421.311268-1.1216199.6719676-1.609375 1.1777344-.8882879.9223536-1.4262033 2.0573937-1.6210938 3.40625-.0947466.6548236-.123308.7880335-.1289062 4.1328121-.00215 1.114927 0 2.58265 0 4.550782 0 5.841717.0071593 7.551087.0351562 7.882812.096906 1.16748.2803468 1.90162.6679688 2.705078.7407867 1.537969 2.1554956 2.692238 3.8222656 3.123047.5771258.148624 1.2148984.230767 2.0332032.269531C8.9053031 29.989689 12.438665 30 15.974609 30c3.535956 0 7.072073-.004244 7.410157-.021484.947519-.0446 1.497123-.118143 2.105468-.275391 1.677533-.432959 3.066421-1.571345 3.822266-3.130859.380088-.784071.572933-1.54582.660156-2.652344C29.991599 23.678687 30 19.8315 30 15.990234c0-3.841931-.008391-7.6806216-.027344-7.9218746-.088292-1.1243978-.281475-1.8805374-.673828-2.6796875-.321936-.6541783-.678291-1.1430762-1.197266-1.6425781-.926195-.8848804-2.060379-1.4224665-3.410156-1.6171876-.654008-.0945667-.784407-.1230963-4.130859-.1289062h-4.556641zm-.001953 3.5957031h.003906c2.822769.0000173 3.179369.0120344 4.289063.0625 1.108292.0507122 1.865615.2251679 2.529297.4824219.685355.2654874 1.264655.6225117 1.84375 1.2011719.579083.5782264.934404 1.1575851 1.201172 1.8417969.25592.6614485.430365 1.4179132.482421 2.5253902.04987 1.109646.064454 1.463809.064454 4.289063 0 2.825244-.014574 3.179427-.064454 4.289062-.052056 1.107042-.226501 1.863721-.482421 2.525391-.266768.68399-.622089 1.26357-1.201172 1.841797-.578438.57866-1.159253.935483-1.84375 1.201172-.66237.257264-1.419042.431712-2.527344.482422-1.110461.0505-1.465407.0625-4.292969.0625-2.827127 0-3.180544-.01202-4.291015-.0625-1.108069-.050723-1.8649749-.225169-2.5273441-.482422-.6842752-.2657-1.2653014-.622512-1.84375-1.201172-.5788719-.578227-.9350496-1.159538-1.2011719-1.84375-.2572223-.661448-.4333981-1.415962-.484375-2.523438-.0503099-1.109635-.0625-1.463807-.0625-4.289062 0-2.825244.012836-3.179428.0625-4.289063.0498762-1.107043.2262743-1.8637195.484375-2.5253902.2667678-.6839896.6220884-1.2635599 1.2011719-1.8417969.5786497-.578438 1.1590409-.9354729 1.84375-1.2011719.6619458-.2572646 1.4190531-.4317092 2.5273441-.4824219 1.109693-.0504646 1.467158-.0624827 4.289062-.0625zm-.929687 1.8710938c-1.940279.00218-2.313061.0152468-3.273438.0585937-1.015026.0466062-1.566618.2163292-1.9335936.359375-.4858291.1889853-.8329044.4132365-1.1972656.7773438-.3643719.3640966-.590608.7117963-.7792969 1.1972656-.1424957.3667-.3110061.917356-.3574219 1.931641-.049886 1.096629-.0605469 1.423178-.0605469 4.201172 0 2.778003.0106602 3.108438.0605469 4.205078.0461934 1.014274.2149262 1.565374.3574219 1.93164.1891334.485692.414925.831216.7792969 1.195313.3643612.364096.7114365.588792 1.1972656.777343.3671976.14239.9185676.312569 1.9335936.359376 1.097455.049839 1.427187.060546 4.207031.060546 2.779634 0 3.109588-.010697 4.207032-.060546 1.015037-.046384 1.5651-.21633 1.93164-.359376.486041-.18855.832904-.413236 1.197266-.777343.364372-.363875.590608-.709843.779297-1.195313.142496-.366265.311012-.917366.357422-1.93164.04988-1.096629.060546-1.424915.060546-4.201172 0-2.776267-.010656-3.106496-.060546-4.203125-.046193-1.014286-.214926-1.563421-.357422-1.9296878-.189134-.4854587-.414925-.8331582-.779297-1.1972656-.36415-.3640966-.711436-.5887924-1.197266-.7773437-.366974-.1423899-.916603-.3129911-1.93164-.359375-1.097666-.049843-1.427398-.0585938-4.207032-.0585938-.347449 0-.656402-.0004339-.933593 0v-.0039062zM21.5625 9.1972656c.689704 0 1.25.5588609 1.25 1.2480464 0 .689197-.560307 1.248047-1.25 1.248047-.689704 0-1.248047-.55885-1.248047-1.248047 0-.6893971.558343-1.2480464 1.248047-1.2480464zM16.005859 10.65625c2.95249 0 5.345703 2.391498 5.345703 5.341797 0 2.9503-2.393213 5.341797-5.345703 5.341797-2.95249 0-5.345703-2.391497-5.345703-5.341797 0-2.950299 2.393213-5.341797 5.345703-5.341797zm0 1.875c-1.916627 0-3.470703 1.551588-3.470703 3.466797 0 1.914997 1.554076 3.466797 3.470703 3.466797 1.916415 0 3.470703-1.5518 3.470703-3.466797 0-1.915209-1.554288-3.466797-3.470703-3.466797z"/></svg>