<svg xmlns="http://www.w3.org/2000/svg" xml:space="preserve" fill-rule="evenodd" clip-rule="evenodd" viewBox="0 0 134 42"><defs><linearGradient id="a"><stop offset="0" stop-color="#b4edad"/><stop offset="1" stop-color="#30af59"/></linearGradient></defs><path fill="#fff" d="M126 1v4h-4v3h4v4h3V8h4V5h-4V1h-3zM5 5v32h124V15h-3v19H8V8h111V5H5zm7 7v18h11.583984v-2.978516h-7.875V12H12zm16.5 0c-.277 0-.5.223-.5.5V14h3v-1.5c0-.277-.223-.5-.5-.5h-2zm7.853516 0v18h3.707031v-7.355469h7.121094v-2.992187h-7.121094v-4.648438h8.011719V12h-11.71875zm13.86914 0v18h12.066406v-2.978516h-8.357421v-4.822265h7.121093v-2.90625h-7.121093v-4.289063h8.332031V12H50.222656zm13.376953 0v3.003906h5.439453V30h3.708985V15.003906h5.513672V12h-14.66211zm17.011719 0v18h3.708984V12h-3.708984zm7.144531 0v18h3.708985v-4.919922l-.371094-8.480469L95.941406 30h2.544922l4.859372-13.414062-.37109 8.49414V30h3.7207V12h-4.87109l-4.597658 13.054688L92.603516 12h-4.847657zm22.179691 0v18H122v-2.978516h-8.35547v-4.822265h7.12109v-2.90625h-7.12109v-4.289063h8.33203V12h-12.04101zM27 14.5c-.553997 0-1 .446003-1 1V18h7v-2.5c0-.553997-.446003-1-1-1h-5zm-1 4V22h7v-3.5h-7zm0 4V26h7v-3.5h-7zm0 4V29c0 .553997.446003 1 1 1h5c.553997 0 1-.446003 1-1v-2.5h-7z"/></svg>