<svg xmlns="http://www.w3.org/2000/svg" viewBox="0 0 64 64"><path fill="#fff" d="M9 8c-1.648437 0-3 1.351563-3 3v7H5c-2.761719 0-5 2.238281-5 5v30c0 2.761719 2.238281 5 5 5h12c2.761719 0 5-2.238281 5-5v-5h7.65625l-2.402344 8H25c-.554687 0-1 .449219-1 1s.445313 1 1 1h22c.554688 0 1-.449219 1-1s-.445312-1-1-1h-2.253906l-2.402344-8H61c1.648438 0 3-1.351562 3-3V11c0-1.648437-1.351562-3-3-3Zm0 2h52c.550781 0 1 .449219 1 1v1H8v-1c0-.550781.449219-1 1-1Zm-1 4h54v12c-.554687 0-1 .449219-1 1v2c0 .550781.445313 1 1 1v10H41.082031c-.554687 0-1 .449219-1 1s.445313 1 1 1H62v3c0 .550781-.449219 1-1 1H22v-4h9.078125c.5625 0 1-.449219 1-1s-.4375-1-1-1H22V30c.554688 0 1-.449219 1-1v-2c0-.550781-.445312-1-1-1v-3c0-2.761719-2.238281-5-5-5H8Zm-3 6h12c1.648438 0 3 1.351563 3 3v1H2v-1c0-1.648437 1.351563-3 3-3Zm5 1c-.554687 0-1 .449219-1 1s.445313 1 1 1h1c.554688 0 1-.449219 1-1s-.445312-1-1-1Zm-8 5h18v22H2Zm25 0c-.554687 0-1 .449219-1 1v2c0 .550781.445313 1 1 1 .554688 0 1-.449219 1-1v-2c0-.550781-.445312-1-1-1Zm5 0c-.554687 0-1 .449219-1 1v2c0 .550781.445313 1 1 1 .554688 0 1-.449219 1-1v-2c0-.550781-.445312-1-1-1Zm5 0c-.554687 0-1 .449219-1 1v2c0 .550781.445313 1 1 1 .554688 0 1-.449219 1-1v-2c0-.550781-.445312-1-1-1Zm5 0c-.554687 0-1 .449219-1 1v2c0 .550781.445313 1 1 1 .554688 0 1-.449219 1-1v-2c0-.550781-.445312-1-1-1Zm5 0c-.554687 0-1 .449219-1 1v2c0 .550781.445313 1 1 1 .554688 0 1-.449219 1-1v-2c0-.550781-.445312-1-1-1Zm5 0c-.554687 0-1 .449219-1 1v2c0 .550781.445313 1 1 1 .554688 0 1-.449219 1-1v-2c0-.550781-.445312-1-1-1Zm5 0c-.554687 0-1 .449219-1 1v2c0 .550781.445313 1 1 1 .554688 0 1-.449219 1-1v-2c0-.550781-.445312-1-1-1ZM35.082031 40c-.554687 0-1 .449219-1 1s.445313 1 1 1H37c.554688 0 1-.449219 1-1s-.445312-1-1-1Zm-3.335937 8h8.507812l2.402344 8h-13.3125ZM2 50h18v3c0 1.648438-1.351562 3-3 3H5c-1.648437 0-3-1.351562-3-3Zm9 1c-1.105469 0-2 .894531-2 2s.894531 2 2 2 2-.894531 2-2-.894531-2-2-2Z"/></svg>