<svg xmlns="http://www.w3.org/2000/svg" viewBox="0 0 64 64"><path fill="#fff" d="M31 2C15.011719 2 2 15.007813 2 31c0 15.992188 13.011719 29 29 29s29-13.007812 29-29C60 15.007813 46.988281 2 31 2Zm0 2c14.886719 0 27 12.113281 27 27S45.886719 58 31 58 4 45.886719 4 31 16.113281 4 31 4Zm0 4C18.316406 8 8 18.316406 8 31s10.316406 23 23 23 23-10.316406 23-23c0-7.105469-3.207031-13.699219-8.796875-18.09375-.4375-.34375-1.066406-.265625-1.40625.167969-.34375.433594-.265625 1.0625.167969 1.40625C49.070313 18.492188 52 24.515625 52 31c0 11.578125-9.421875 21-21 21s-21-9.421875-21-21 9.421875-21 21-21c1.027344 0 2.058594.074219 3.066406.222656.546875.082032 1.054688-.296875 1.132813-.847656.078125-.546875-.296875-1.054687-.84375-1.132812C33.253906 8.082031 32.125 8 31 8Zm7.53125 1.34375c-.386719.019531-.746094.265625-.886719.65625-.191406.515625.074219 1.089844.589844 1.28125.785156.289063 1.5625.628906 2.3125 1.011719.148438.074219.304688.109375.457031.109375.363282 0 .714844-.199219.890625-.546875.25-.492188.058594-1.09375-.4375-1.34375-.816406-.421875-1.667968-.792969-2.53125-1.109375-.128906-.046875-.261718-.066406-.394531-.058594ZM29 18c-2.757812 0-5 2.242188-5 5 0 .550781.445313 1 1 1 .554688 0 1-.449219 1-1 0-1.652344 1.347656-3 3-3h4c1.652344 0 3 1.347656 3 3v2.839844c0 1.457031-.929687 2.75-2.316406 3.210937C31.480469 29.785156 30 31.839844 30 34.160156V37c0 .550781.445313 1 1 1 .554688 0 1-.449219 1-1v-2.839844c0-1.457031.929688-2.75 2.316406-3.210937C36.519531 30.214844 38 28.160156 38 25.839844V23c0-2.757812-2.242187-5-5-5ZM13 30c-.554687 0-1 .449219-1 1v2c0 .550781.445313 1 1 1 .554688 0 1-.449219 1-1v-2c0-.550781-.445312-1-1-1Zm5 0c-.554687 0-1 .449219-1 1v2c0 .550781.445313 1 1 1 .554688 0 1-.449219 1-1v-2c0-.550781-.445312-1-1-1Zm5 0c-.554687 0-1 .449219-1 1v2c0 .550781.445313 1 1 1 .554688 0 1-.449219 1-1v-2c0-.550781-.445312-1-1-1Zm16 0c-.554687 0-1 .449219-1 1v2c0 .550781.445313 1 1 1 .554688 0 1-.449219 1-1v-2c0-.550781-.445312-1-1-1Zm5 0c-.554687 0-1 .449219-1 1v2c0 .550781.445313 1 1 1 .554688 0 1-.449219 1-1v-2c0-.550781-.445312-1-1-1Zm5 0c-.554687 0-1 .449219-1 1v2c0 .550781.445313 1 1 1 .554688 0 1-.449219 1-1v-2c0-.550781-.445312-1-1-1ZM31 40c-1.105469 0-2 .894531-2 2s.894531 2 2 2 2-.894531 2-2-.894531-2-2-2Z"/></svg>