<svg xmlns="http://www.w3.org/2000/svg" viewBox="0 0 64 64"><path fill="#fff" d="M7 8c-1.652344 0-3 1.347656-3 3v42c0 1.652344 1.347656 3 3 3h50c1.652344 0 3-1.347656 3-3V11c0-1.652344-1.347656-3-3-3Zm0 2h50c.550781 0 1 .449219 1 1v42c0 .550781-.449219 1-1 1H7c-.550781 0-1-.449219-1-1v-3.585937l5.714844-5.714844C12.105469 43.886719 12.539063 44 13 44c.917969 0 1.730469-.425781 2.28125-1.078125l2.722656 1.023438C18.003906 43.964844 18 43.980469 18 44c0 1.652344 1.347656 3 3 3s3-1.347656 3-3c0-.355469-.074219-.691406-.1875-1.011719l6.640625-5.429687C30.90625 37.832031 31.433594 38 32 38c.613281 0 1.183594-.1875 1.660156-.503906l3.492188 2.613281C37.0625 40.394531 37 40.6875 37 41c0 1.652344 1.347656 3 3 3s3-1.347656 3-3c0-.613281-.1875-1.183594-.503906-1.660156l5.613281-7.492188C48.394531 31.9375 48.6875 32 49 32c1.652344 0 3-1.347656 3-3s-1.347656-3-3-3-3 1.347656-3 3c0 .613281.1875 1.183594.503906 1.660156l-5.613281 7.492188C40.605469 38.0625 40.3125 38 40 38c-.613281 0-1.183594.1875-1.660156.503906l-3.492188-2.613281C34.9375 35.605469 35 35.3125 35 35c0-1.652344-1.347656-3-3-3s-3 1.347656-3 3c0 .355469.074219.691406.1875 1.011719l-6.640625 5.429687C22.09375 41.167969 21.566406 41 21 41c-.917969 0-1.730469.425781-2.28125 1.078125l-2.722656-1.023437C15.996094 41.035156 16 41.019531 16 41c0-1.652344-1.347656-3-3-3s-3 1.347656-3 3c0 .460938.113281.894531.300781 1.285156L6 46.585938V20h41c.554688 0 1-.449219 1-1s-.445312-1-1-1H6v-7c0-.550781.449219-1 1-1Zm3 2c-.554687 0-1 .449219-1 1v2c0 .550781.445313 1 1 1 .554688 0 1-.449219 1-1v-2c0-.550781-.445312-1-1-1Zm5 0c-.554687 0-1 .449219-1 1v2c0 .550781.445313 1 1 1 .554688 0 1-.449219 1-1v-2c0-.550781-.445312-1-1-1Zm5 0c-.554687 0-1 .449219-1 1v2c0 .550781.445313 1 1 1 .554688 0 1-.449219 1-1v-2c0-.550781-.445312-1-1-1Zm5 0c-.554687 0-1 .449219-1 1v2c0 .550781.445313 1 1 1 .554688 0 1-.449219 1-1v-2c0-.550781-.445312-1-1-1Zm5 0c-.554687 0-1 .449219-1 1v2c0 .550781.445313 1 1 1 .554688 0 1-.449219 1-1v-2c0-.550781-.445312-1-1-1Zm5 0c-.554687 0-1 .449219-1 1v2c0 .550781.445313 1 1 1 .554688 0 1-.449219 1-1v-2c0-.550781-.445312-1-1-1Zm5 0c-.554687 0-1 .449219-1 1v2c0 .550781.445313 1 1 1 .554688 0 1-.449219 1-1v-2c0-.550781-.445312-1-1-1Zm5 0c-.554687 0-1 .449219-1 1v2c0 .550781.445313 1 1 1 .554688 0 1-.449219 1-1v-2c0-.550781-.445312-1-1-1Zm5 0c-.554687 0-1 .449219-1 1v2c0 .550781.445313 1 1 1 .554688 0 1-.449219 1-1v-2c0-.550781-.445312-1-1-1Zm5 0c-.554687 0-1 .449219-1 1v2c0 .550781.445313 1 1 1 .554688 0 1-.449219 1-1v-2c0-.550781-.445312-1-1-1Zm-4 6c-.554687 0-1 .449219-1 1s.445313 1 1 1h4c.554688 0 1-.449219 1-1s-.445312-1-1-1Zm-2 9.832031c.644531 0 1.167969.523438 1.167969 1.167969 0 .644531-.523438 1.167969-1.167969 1.167969-.644531 0-1.167969-.523438-1.167969-1.167969 0-.644531.523438-1.167969 1.167969-1.167969Zm-17 6.023438c.632813 0 1.144531.511719 1.144531 1.144531 0 .632813-.511718 1.144531-1.144531 1.144531-.632812 0-1.144531-.511718-1.144531-1.144531 0-.632812.511719-1.144531 1.144531-1.144531Zm-19 5.976562c.644531 0 1.167969.523438 1.167969 1.167969 0 .644531-.523438 1.167969-1.167969 1.167969-.644531 0-1.167969-.523438-1.167969-1.167969 0-.644531.523438-1.167969 1.167969-1.167969Zm27 0c.644531 0 1.167969.523438 1.167969 1.167969 0 .644531-.523438 1.167969-1.167969 1.167969-.644531 0-1.167969-.523438-1.167969-1.167969 0-.644531.523438-1.167969 1.167969-1.167969Zm-19 3c.644531 0 1.167969.523438 1.167969 1.167969 0 .644531-.523438 1.167969-1.167969 1.167969-.644531 0-1.167969-.523438-1.167969-1.167969 0-.644531.523438-1.167969 1.167969-1.167969Z"/></svg>