<svg xmlns="http://www.w3.org/2000/svg" viewBox="0 0 64 64"><path fill="#fff" d="M26.691406 2c-1.472656 0-2.714843 1.054688-2.957031 2.507813l-.441406 2.65625C23.210938 7.648438 22.796875 8 22.308594 8H15c-1.652344 0-3 1.347656-3 3v48c0 1.652344 1.347656 3 3 3h34c1.652344 0 3-1.347656 3-3V11c0-1.652344-1.347656-3-3-3h-7.308594c-.488281 0-.90625-.351562-.984375-.835937l-.441406-2.65625C40.023438 3.054688 38.777344 2 37.308594 2Zm0 2h10.613282c.492187 0 .90625.351563.988281.835938l.441406 2.65625C38.976563 8.945313 40.222656 10 41.691406 10H49c.550781 0 1 .449219 1 1v48c0 .550781-.449219 1-1 1H15c-.550781 0-1-.449219-1-1V11c0-.550781.449219-1 1-1h21c.550781 0 1-.449219 1-1s-.449219-1-1-1H25.132813c.058593-.164062.101562-.332031.132812-.507812l.441406-2.65625C25.789063 4.351563 26.203125 4 26.691406 4ZM40.9375 15.003906c-.21875.015625-.4375.101563-.609375.257813l-21.917969 20c-.304687.277344-.40625.714844-.257812 1.097656.148437.386719.519531.640625.929687.640625h8.308594l-6.214844 12.558594c-.210937.425781-.09375.941406.285157 1.234375.179687.136719.394531.207031.609375.207031.234375 0 .46875-.082031.65625-.246094l23.070312-19.988281c.316406-.273437.429688-.710937.285156-1.105469-.144531-.390625-.519531-.648437-.9375-.648437L36.625 29l5.296875-12.609375c.183594-.433594.039063-.9375-.34375-1.207031-.191406-.136719-.417969-.195313-.640625-.179688Zm-2.621094 4.796875-4.121093 9.8125c-.128907.308594-.097657.660157.085937.9375.1875.28125.5.449219.835938.449219l7.351562.007813-17.296875 14.984375 4.722656-9.550782c.15625-.308593.136719-.675781-.046875-.96875C29.667969 35.179688 29.347656 35 29 35h-7.339844ZM17 54c-.554687 0-1 .449219-1 1v2c0 .550781.445313 1 1 1 .554688 0 1-.449219 1-1v-2c0-.550781-.445312-1-1-1Zm5 0c-.554687 0-1 .449219-1 1v2c0 .550781.445313 1 1 1 .554688 0 1-.449219 1-1v-2c0-.550781-.445312-1-1-1Zm5 0c-.554687 0-1 .449219-1 1v2c0 .550781.445313 1 1 1 .554688 0 1-.449219 1-1v-2c0-.550781-.445312-1-1-1Zm5 0c-.554687 0-1 .449219-1 1v2c0 .550781.445313 1 1 1 .554688 0 1-.449219 1-1v-2c0-.550781-.445312-1-1-1Zm5 0c-.554687 0-1 .449219-1 1v2c0 .550781.445313 1 1 1 .554688 0 1-.449219 1-1v-2c0-.550781-.445312-1-1-1Zm5 0c-.554687 0-1 .449219-1 1v2c0 .550781.445313 1 1 1 .554688 0 1-.449219 1-1v-2c0-.550781-.445312-1-1-1Zm5 0c-.554687 0-1 .449219-1 1v2c0 .550781.445313 1 1 1 .554688 0 1-.449219 1-1v-2c0-.550781-.445312-1-1-1Z"/></svg>