<svg xmlns="http://www.w3.org/2000/svg" version="1.0" viewBox="0 0 200 100"><g fill="#363a32"><path d="M141.17969 84.515625c-.66301 0-1.30838.03879-1.93555.117187-.62717.0784-1.23679.196724-1.82812.353516-.59133.156792-1.16522.352703-1.72071.587891-.55549.235188-1.09363.508682-1.61328.822265-.51517.309105-1.00009.651044-1.45703 1.027344-.45694.376301-.8845.786971-1.2832 1.230469-.3987.443496-.76891.920947-1.10938 1.431641-.34046.510694-.65137 1.054922-.93359 1.632812-.28223.57341-.52857 1.166688-.74024 1.779297-.21166.612608-.38818 1.244678-.52929 1.896484-.14112.651807-.24776 1.322668-.31836 2.013672-.0706.691004-.10547 1.40261-.10547 2.132813v.751954c0 .54429.0208 1.07466.0625 1.5918.0417.51713.1041 1.02174.1875 1.51171.0834.48998.18735.96492.3125 1.42774s.27063.912.4375 1.34766c.16687.43564.35586.85907.56445 1.26757.20859.4085.43719.80226.6875 1.1836s.52244.74933.81446 1.10351c.29202.35418.60376.69446.9375 1.02149.33598.32702.6843.63377 1.04492.91992.36062.28614.73388.55161 1.11914.79687.38526.24527.78346.4714 1.19336.67578.4099.20438.83108.38727 1.26562.55079.43454.16351.88262.30705 1.3418.42968.45918.12264.93025.22494 1.41406.30664.48382.0818.97983.1427 1.48828.1836.50846.0409 1.02941.0625 1.5625.0625.60477 0 1.19555-.0288 1.77344-.0859.57789-.0571 1.14235-.14358 1.69336-.25781.55101-.11424 1.08915-.25639 1.61328-.42774s1.034-.37114 1.53125-.59961c.49726-.23294.97028-.48983 1.41602-.76757.44573-.27775.86554-.57785 1.25976-.90039.39422-.32255.76277-.66587 1.10547-1.03321s.65803-.75778.94922-1.16992l-3.81641-4.27344c-.21055.27103-.43112.52457-.66211.76172-.23098.23715-.47123.45689-.72265.66016-.25143.20327-.51329.39115-.78516.56054-.27186.16939-.5534.32152-.8457.45704-.29231.13551-.59546.25383-.90821.35546-.31273.10163-.63556.18611-.96874.25391-.33318.0678-.67763.11845-1.03126.15235-.35361.0339-.71773.0508-1.09179.0508-.48382 0-.9463-.0357-1.38867-.10743-.44238-.0717-.86469-.17891-1.26563-.32226-.40094-.14335-.78112-.32208-1.14062-.53711-.35951-.21503-.69756-.4672-1.01563-.75391-.31358-.2867-.59484-.59594-.8457-.92968-.25087-.33375-.47201-.69149-.66016-1.07227-.18815-.38078-.34331-.78507-.46875-1.21289-.12543-.42782-.2205-.87866-.2832-1.35352H154v-3.171871c0-.575651-.0189-1.134842-.0547-1.677735-.0358-.542891-.0884-1.069944-.16015-1.580078-.0717-.510133-.16202-1.003093-.26954-1.480468-.1075-.477375-.23164-.938196-.375-1.382813-.14334-.444617-.30518-.873298-.48437-1.285156-.17919-.411859-.37677-.8084-.5918-1.1875-.21503-.379101-.44835-.741548-.69922-1.087891-.25086-.346342-.51993-.676651-.80664-.990234-.28446-.313584-.58151-.606474-.89257-.88086-.31107-.274385-.635-.530437-.97266-.765625-.33766-.235187-.68847-.450494-1.05274-.646484-.36425-.19599-.74195-.372505-1.13281-.529297-.39086-.156792-.79543-.292562-1.21289-.410156-.41746-.117594-.84891-.216522-1.29297-.294922-.44405-.07839-.90043-.136581-1.37109-.175781-.47066-.03919-.95392-.05859-1.45117-.05859zm-.0273 6.289063c.20607 0 .40722.0084.60157.02344.19435.01504.3819.03673.56445.06641.18255.02968.35883.06718.5293.111328.17046.04415.3351.09494.49414.154297.15903.05936.31338.126942.46093.201172.14756.07423.28832.155105.42383.244141.13552.08903.265.185238.38867.289062.12367.103825.24153.215271.35352.333985.11199.116474.21773.240178.31641.36914.0987.128963.19027.263184.27539.404297.0851.141113.16279.288143.23437.441406.0716.153265.13708.312765.19531.478516.0582.165751.10932.337571.1543.515625.045.178054.0839.362346.11524.552734.0314.190391.0563.387.0742.589844.0179.202844.0287.411924.0332.626953v.619141h-10.80664c.0336-.241908.0729-.477236.11718-.705078.0443-.227843.0936-.4482.14844-.66211.0549-.213907.11577-.420757.18164-.621093.0659-.200338.13674-.394168.21289-.580079.0762-.185909.15766-.365252.24414-.537109.0865-.171857.17796-.336229.27539-.494141.0974-.15791.20053-.309262.3086-.453124.10807-.143864.22113-.280243.33984-.410157.12096-.129913.2471-.251661.37695-.365234.12987-.113573.26347-.218971.40235-.316406.13887-.09744.28192-.186594.42969-.267579.14776-.08098.30023-.153793.45703-.21875.15679-.06495.31823-.121038.48437-.169921.16615-.04888.33701-.09057.51172-.123047.17471-.03248.35356-.05597.53711-.07227.18356-.01629.37182-.02539.56445-.02539z" transform="matrix(.5 0 0 .5 58 1.5)"/><path d="M64.0000005 25h11.5v1h-11.5z"/><path d="M75.5 25h11.499998v1H75.5z" opacity=".5"/><path d="M12 75v6.53125h11.826172v32.60352h8.064453V81.53125h11.988281V75Zm48.248047 9.515625c-.344943 0-.681629.02078-1.007813.0625-.326179.04172-.641798.10406-.949218.1875-.307425.08344-.605866.187346-.894532.3125-.288661.125154-.567988.270628-.83789.4375-.269907.166872-.530107.355864-.78125.564453-.251148.20859-.494175.437193-.726563.6875-.232388.250307-.454339.522432-.667969.814453-.213625.292025-.418411.603761-.613281.9375l-.214843-3.466797h-7.337891v29.082036h7.767578V95.105469c.114234-.248628.244752-.48167.390625-.699219.145873-.217549.306864-.418998.484375-.605469.177511-.18647.370929-.35828.580078-.513672.209149-.155388.434998-.29561.675781-.419921.240788-.124312.497105-.232932.769532-.326172.272422-.09324.561169-.170262.865234-.232422.304065-.06216.623285-.109545.958984-.140625.335703-.03107.687346-.04687 1.054688-.04687.403175 0 .836842.01885 1.302734.05469.465897.03584.963575.08848 1.492188.160157l.107422-7.470704c-.188151-.05824-.379174-.110218-.574219-.154296-.195046-.04408-.394115-.08026-.595703-.109376-.40318-.05824-.817993-.08594-1.248047-.08594zm3.626953.537109L74.0625 114.2168l-.914062 2.39062c-.103034.25983-.214697.50174-.337891.72461s-.257038.42737-.400391.61328c-.143353.18591-.297426.353-.460937.50196-.163512.14895-.335861.28058-.519531.39257-.17919.112-.383147.20898-.609376.29297-.226227.084-.474781.15494-.748046.21094-.273267.056-.570323.097-.890625.125-.320304.028-.66391.043-1.03125.043l-1.183594-.0273v5.88671c.582369.17023 1.160964.2977 1.734375.38282.57341.0851 1.142581.12695 1.707031.12695.499495 0 .981096-.0285 1.445313-.0879.464215-.0594.910906-.14887 1.339843-.26758.428939-.11871.838763-.26724 1.232422-.44531.39366-.17807.770526-.38562 1.128907-.62305.358381-.23743.69838-.504 1.021484-.80078.323103-.29678.630143-.62433.917969-.98047.287824-.35614.558-.74075.810547-1.15625.252547-.4155.485857-.86108.703124-1.33594l.646485-1.5332 11.691406-33.597656h-8.332031l-5.376953 18.089786-5.402344-18.089846Z" opacity=".5" transform="matrix(.5 0 0 .5 58 1.5)"/><path d="M94.919922 75v39.13477h8.064458v-11.18164l4.19335-4.51563 10.05274 15.69727h9.5957l-14.30078-21.744145L126.42188 75h-9.91797l-9.97071 12.875-3.54882 4.865234V75Z" transform="matrix(.5 0 0 .5 58 1.5)"/></g></svg>