<svg xmlns="http://www.w3.org/2000/svg" version="1.0" viewBox="0 0 200 100"><path fill="#363a32" d="M95.177734 37.285156v3.369141c0 .02308.02221.023437.06836.023437h3.576172c.04615 0 .070312-.000357.070312-.023437V37.285156h-3.714844zm-12.970703.253906c-.02308 0-.045279.021842-.068359.044922v14.054688c0 1.661536.691558 3.253187 2.076172 4.707031 1.453844 1.292307 2.977645 1.939453 4.546875 1.939453h4.269531c.04615 0 .068359-.024162.068359-.070312v-3.529297c0-.04615-.022209-.070313-.068359-.070313h-3.693359c-1.315384 0-2.283535-.46205-2.929688-1.408203-.392306-.461538-.599609-1.26803-.599609-2.421875V37.607422c0-.04615-.024163-.06836-.070313-.06836h-3.53125zm-7.730469 4.107422c-1.523074 0-2.815416.299671-3.876953.853516-1.061538.576923-1.891467 1.384136-2.445312 2.46875-.576924 1.084615-.853516 2.377315-.853516 3.900391V51.0625c0 1.523075.276592 2.83726.853516 3.921875.553845 1.107691 1.383774 1.915265 2.445312 2.492187 1.061537.553846 2.353879.853516 3.876953.853516.853847 0 1.66229-.091135 2.423829-.298828.761537-.207692 1.452735-.507723 2.052734-.876953.623076-.392308 1.131491-.853997 1.546875-1.384766l-2.539062-2.539062c-.415385.484615-.899641.853576-1.476563 1.107422-.553845.253845-1.175753.392578-1.798828.392578-1.176923 0-2.078097-.322597-2.701172-.96875-.623076-.646154-.945313-1.569172-.945313-2.746094v-2.193359c0-1.153845.29916-2.052705.945313-2.675782.623075-.623075 1.523889-.947265 2.677734-.947265.623077 0 1.221906.138372 1.798829.36914.576922.253847 1.084615.600601 1.5 1.039063L80.5 44.230469c-.415384-.553845-.923438-1.015897-1.523438-1.408203-.599999-.369231-1.291196-.669261-2.052734-.876954-.761537-.207689-1.593419-.298828-2.447266-.298828zm50.999998.023438c-1.5 0-2.79233.276592-3.87695.853516-1.06153.553845-1.89146 1.384136-2.44531 2.46875-.55385 1.084613-.85352 2.377315-.85352 3.90039v2.191406c0 1.546152.2766 2.862652.85352 3.947266.55385 1.084615 1.38378 1.915265 2.44531 2.492188 1.06154.576923 2.35387.853515 3.87695.853515.85384 0 1.6623-.09309 2.42383-.300781.36923-.09231.73784-.207603 1.08399-.369141v.324219c0 1.061539-.2988 1.86839-.92188 2.445312-.62307.576923-1.45409.876954-2.51562.876954-.6 0-1.15514-.138733-1.70899-.392578-.55385-.253846-1.01395-.646245-1.40625-1.13086l-2.51562 2.285156c.55384.83077 1.31434 1.454477 2.30664 1.916016.99231.461539 2.09955.667969 3.3457.667969 1.5 0 2.77086-.276232 3.85547-.830078 1.06154-.553846 1.8684-1.362292 2.44531-2.423829.55385-1.061537.83008-2.330079.83008-3.830078V41.900391h-3.71484v.4375c-.34615-.138462-.69132-.253756-1.06055-.369141-.76154-.207692-1.57035-.298828-2.44727-.298828zm-16.33789.068359c-1.01539 0-2.03114.277826-3.02344.808594v-.623047h-3.6914v7.246094H106.11523c.0231-.946152.13874-1.615144.39258-1.984375.71539-1.153846 1.63804-1.732422 2.72266-1.732422h.11523l.07032-.021484c0 .02308-.00162.021484.02148.021484h.13867c.39231 0 .80835.116527 1.29297.324219 1.17692.715384 1.77734 1.660969 1.77734 2.83789v9.623047c0 .04615.02226.070313.06836.070313h3.59961c.0461 0 .07032-.024163.07032-.070313v-9.646484c-.0231-1.661537-.62422-3.207182-1.82422-4.591797-1.49973-1.522394-3.1379-2.261719-4.9375-2.261719h-.48438zm-13.892576.091797c-.02308 0-.04528.024163-.06836.070313v16.314453c0 .04615.02221.070312.06836.070312h3.576172c.04615 0 .070312-.024162.070312-.070312V41.900391c0-.04615-.024162-.070313-.070312-.070313h-3.576172zm30.439456 3.392578c.62307 0 1.2219.115295 1.79883.369141.57691.23077 1.06154.577525 1.5 1.039062v6.623047c-.41539.484615-.89964.853576-1.47657 1.107422-.57692.253846-1.17771.392578-1.80078.392578-1.17693 0-2.05306-.322597-2.69922-.96875-.62307-.646153-.94531-1.546095-.94531-2.746094v-2.193359c0-1.153845.32224-2.052705.94531-2.675781.62309-.623077 1.52389-.947266 2.67774-.947266z"/><path fill="#363a32" d="M108.76923 51.86923h-2.65384v-2.723077h-3.69231v2.723077h-2.723075v3.692308h2.723075v2.653846c0 .04615.0231.06923.0692.06923h3.57691c.0461 0 .0692-.02308.0692-.06923v-2.653846h2.65385c.0461 0 .0692-.02308.0692-.06923v-3.553846c-.0231-.04615-.0461-.06923-.0923-.06923z" class="st0" opacity=".5"/></svg>