<svg xmlns="http://www.w3.org/2000/svg" version="1.0" viewBox="0 0 200 100"><path fill="#363a32" d="M78.209941 25.004004c-.39104-.01878-.77798.02862-1.20081.13578-.68741.177664-.71838.177664-2.47133.0772-4.84233-.269964-8.94317.641061-11.88532 2.641243-.50942.347598-.84919.509811-1.34359.65656-.81107.23134-1.39769.524921-2.27822 1.127406-.87253.594389-1.44414 1.111907-1.44414 1.29728 0 .200836.0774.185337.77246-.162248.3399-.169933.63344-.308974.6643-.308974.0305 0-.3244.262678-.78784.587092-1.0578.741138-1.1892.864704-1.1892 1.088712 0 .301242.27771.216276 1.1506-.386221.92651-.641107 1.01146-.695206 1.01146-.648862 0 .02311-.43223.378547-.96523.795659-.94188.741138-1.16585 1.019186-.98048 1.20457.13903.139041.41662-.000011 1.32811-.672023.48666-.363037.89601-.656559.90375-.656559.0692 0-.0469.115916-.78784.764733-.44805.393928-.81106.764662-.81106.818736 0 .1158.20849.347586.30892.347586.0305 0 .47082-.316659.97297-.702868.86503-.663904 2.43272-1.53675 2.48669-1.38999.0118.0386-.11615.386186-.29343.780115-.17.40166-.30903.803367-.30903.896065 0 .200825.23172.363014.42483.293499.0692-.03086.46343-.733407.88827-1.567631l.75697-1.521311 1.18146-.486603c3.51375-1.459493 4.45575-1.691221 7.14342-1.760735 2.12381-.05409 2.39412-.02323 2.83444.370745l.34751.301278.0305.865056c.0234.795202.0469.911095.25495 1.289584.29355.524863.85706.988341 1.78392 1.444065 1.65263.810665 2.57175.702503 3.77644-.440296l.40934-.386208.48655.0772.4944.0772.71838.756966c1.52123 1.606629 2.57915 3.104745 3.20483 4.525614.37837.865116 1.29726 3.35927 1.45166 3.923143.0927.339865.0774.378535-.50203 1.822588-.66429 1.644866-.71064 1.915217-.31666 1.915217.21623 0 .25483-.05409.63332-.795659.21623-.440284.41709-.818726.44032-.841898.0153-.02311.13902.301231.27031.718343.17763.579313.26269 1.057856.33989 1.984754.0622.671624.14677 1.258634.19312 1.304977.0469.04634.16988.06183.27806.03098l.20086-.04634.0153-1.18141c0-.641108.0234-1.050512.0387-.903751.18548 1.683489.26268 2.193346.34 2.286044l-.001-.000387c.11615.139029.25483.138982.37849-.0082.0927-.115799.0845-.494358-.0469-2.201019-.0774-.941974.0305-.578937.20075.65656.0845.633.18537 1.181445.21634 1.212337.10794.108173.3244-.02311.37075-.216265.0305-.108172-.0117-.679355-.0774-1.27412-.0774-.602097-.11615-1.104187-.1009-1.119638.0153-.02323.11615.28579.21623.679719.10089.386208.23171.718401.27805.741572.27806.08494.30129-.741526.0622-2.378671-.12366-.857384-.2472-1.258716-.65654-2.131551-.20087-.432176-.30892-.787505-.33989-1.158262-.14678-1.421257-.64072-3.027487-1.42092-4.626021-1.11998-2.278254-2.44047-4.069904-4.65685-6.317266-1.05791-1.065565-1.2278-1.274097-1.37457-1.668037-.30891-.841932-.79557-1.33588-1.84563-1.86113-.85917-.429654-1.52229-.645097-2.17402-.676469zm67.492179 3.489558c-.76226.0035-1.33551.299459-1.67446.870559-.20085.339865-.21622.44764-.24708 1.312744l-.0235.95007h-.67978v.849664H143.77245v6.023391h1.2359v-6.023391h1.50621l.13903-.378442c.0692-.208557.1314-.393929.1314-.424832 0-.02311-.40172-.04634-.88826-.04634h-.88838v-.772417c0-.548034.0387-.849301.11615-1.003782.22397-.432551.83382-.587044 1.40543-.347585.15451.06183.2858.108173.29355.10043.0118-.01549.0997-.185432.21622-.393987l.20086-.363049-.22397-.115917c-.11615-.06183-.46343-.146761-.75698-.193104-.19557-.03039-.38154-.04494-.55752-.04411zm-39.80761.3915c-1.81031.01173-3.33412 1.332372-3.82407 3.383039-.21623.88018-.21623 2.347393 0 3.173885.23136.903727.579 1.552132 1.15823 2.139177.50214.509411 1.07328.849265 1.67574.988306v.000813c.47118.108172 1.57544.09269 2.06984-.03097.25483-.06957.67966-.223985.94224-.355294l.47892-.247191-.24721-.347586c-.13903-.193104-.27031-.386209-.29343-.424832-.0235-.03086-.26269.04634-.52526.185338-.38588.200824-.58662.254911-1.08877.285814-1.37492.0772-2.29369-.579313-2.72627-1.953839-.14678-.463456-.16989-.710646-.16989-1.814822 0-1.69894.20849-2.470947.84967-3.220193.66382-.780149 1.97703-.980961 2.99623-.447991.20849.108172.38623.193104.4016.193104.0153 0 .15452-.1777.31678-.393976l.2858-.393905-.18549-.146796c-.2858-.216276-.94962-.447957-1.54446-.532923-.19253-.02746-.38295-.04036-.5702-.03919zm19.74559.733195c-.0305 0-.30116.05409-.61008.123637-.64118.154482-.64118.154411-.64118 1.235415v.648875h-.84966V32.475847h.84966V35.009c0 1.506223.0305 2.641349.0845 2.811282.0927.339866.46344.671999.89601.81104l.00035-.000812c.41709.12359 1.01157.123601 1.48275-.02311l.40934-.115799-.0539-.36306c-.0305-.200825-.0622-.370746-.0622-.370746-.0118-.0082-.193.02323-.40935.06957-.33215.06957-.43257.06171-.69515-.06957-.46343-.22362-.48666-.362638-.48666-2.980768l-.0118-2.301425h1.39816l.14666-.355294c.0845-.193104.15451-.386209.15451-.424832 0-.0386-.37063-.06957-.82643-.06957h-.81881l.0469-1.003781c.0234-.555754.0153-1.003769-.0118-1.003769zm-13.27995 1.844986c-.36641-.0059-.73387.04939-1.0612.171083-.76437.285803-1.45177 1.111873-1.69124 2.038771-.14676.540702-.16213 1.930703-.0387 2.525468.2472 1.158637.98094 2.046502 1.94606 2.347744v.000388c.17727.05409.62534.100429.98846.100429.81094.0082 1.49799-.177676 2.02326-.556165l.363-.254887-.23172-.370816-.23172-.362978-.25483.193104c-.85705.656559-2.3784.548422-2.92677-.193104-.2472-.339479-.35526-.656184-.41709-1.274121l-.054-.494381h4.29396l-.0539-.803356c-.0845-1.282216-.38588-2.046467-1.0192-2.548546-.41521-.328274-1.0233-.508707-1.63421-.518668zm19.64926.0082c-.24895-.0047-.61454.03989-.79311.117089-.35537.146761-.63343.370816-.93472.741573l-.23935.301195-.0539-.324355c-.0234-.185372-.0845-.44805-.1314-.58708-.0622-.216287-.10794-.254887-.24709-.216264-.0845.02323-.34763.08494-.5716.139018-.40935.08494-.41709.09269-.36312.324437.16225.78787.19311 1.359052.19311 3.81497v2.71856H130.01144l.0305-2.370975c.0234-2.640915.0234-2.625451.55612-3.096627.29319-.254899.71802-.409345 1.08103-.378442.2086.01549.23171-.01549.4016-.517541.1009-.301242.18537-.571582.18537-.602473 0-.04059-.10794-.06054-.25694-.06312zm26.22038.0012c-.57114 0-.99597.208568-1.48251.749269-.36312.393929-.38623.409369-.38623.216253 0-.308962-.16226-.895972-.26269-.934595-.0457-.01549-.30892.03097-.58698.108173-.33989.09269-.49441.169862-.48666.247109.0118.06183.0469.301277.0927.533005.0539.254899.0845 1.521241.0845 3.258804v2.85028h1.2359v-2.355523c0-2.193286.0118-2.386355.15451-2.656707.27806-.556141.94963-.934677 1.4594-.818818.20086.0386.2086.02323.40947-.579313l.20085-.617937zm-22.61006.0035c-.33438 0-.46907.04341-.78197.182464-.72566.339865-1.27415.965111-1.58306 1.807054-.2472.663892-.2472 2.30877-.0118 3.073468.30903.972865.83382 1.567642 1.69122 1.930691l-.00035.000375c.409.169933.54803.185408 1.30501.169956.76436-.02323.90327-.04634 1.35134-.262584.27806-.131309.58697-.309009.68741-.393975l.19311-.154493-.22397-.347585-.21635-.347586-.35526.216264c-.45534.293511-.77974.378513-1.39768.378513-.62523 0-1.03469-.177689-1.40544-.61024-.30891-.363049-.44794-.802945-.44794-1.38999v-.393905h4.17018v-.602467c0-1.53674-.46296-2.509629-1.4208-3.011696-.32404-.162213-.52491-.208556-1.14274-.231727-.16988-.0082-.30351-.01256-.41498-.01256zm-17.7729.0082c-.13094-.0024-.97649.231727-1.04161.289662-.0305.02311-.00012.239424.0622.47114.0845.324426.10794 1.057879.10794 3.336133v2.911219l.60246.02323-.00063.00075.59472.02311.0234-2.594935.0153-2.602714.27043-.208568c.65656-.494346 1.54435-.726039 1.96155-.509763.0845.05409.22398.200859.29343.339889.12366.215901.13915.540256.16226 2.895768l.0305 2.641325H122.07199v-2.834441c0-2.84174 0-2.841682-.18538-3.243342-.53253-1.135466-2.10057-1.243217-3.36697-.231727-.18537.154481-.37075.254864-.40172.239424-.0305-.02323-.0622-.162213-.0622-.308974 0-.223996-.0845-.50209-.19311-.6334 0-.0024-.0118-.0035-.0164-.0035zm32.41276.02698c-.72565.0082-.85706.02323-1.24329.216335-1.08865.524862-1.69112 1.729808-1.69112 3.374673 0 1.892057.77235 3.150702 2.15467 3.521471l-.00047.000387c.80332.216276 1.838.04646 2.49455-.401602 1.01146-.702902 1.52135-2.471369 1.1892-4.116246-.23945-1.189529-.79522-1.984755-1.66037-2.394135-.38576-.177664-.52479-.200871-1.24317-.200871zm-38.00844.838577c.34517-.01173.69797.116386.97849.39692.29355.301243.50203.872472.50203 1.405453h-.00035v.332123h-1.4208c-.78748 0-1.44415-.02323-1.45963-.05409-.0774-.13131.11615-1.073225.27805-1.366748.24768-.451863.67861-.698503 1.12221-.71366zm23.62938.01513c.34881.0035.68565.143312.94201.412689.29354.301243.44031.694772.51751 1.32044h-.00047l.0469.386209h-2.98075l.0539-.478919c.0539-.555754.35526-1.227742.61795-1.397674.25342-.165592.53195-.245419.8032-.242745zm14.38164.03837c.19053.0024.38599.03836.57712.111693.6948.262618.97285.91147 1.02694 2.394134.054 1.575738-.23946 2.432723-.93461 2.749417h.00047c-.8343.370382-1.72995-.0082-2.02349-.849664-.33215-.965134-.31666-2.810789.0234-3.590938.23171-.521378.75874-.821177 1.33034-.814666zm-95.493189 1.257225c-.0446-.007-.0903-.0059-.13116.0059-.0997.02323-.57114.339842-1.0578.702879-.48666.363037-.88826.648852-.90375.6334-.0153-.01549.20085-.247191.47117-.517542.27806-.278071.50215-.540713.50215-.594776 0-.316694-.77247.08459-1.96929 1.019233-.76437.602496-1.06554.911071-1.61403 1.683488-.27032.386209-.60247.733842-.90375.957837-1.08866.802934-2.38603 2.201031-3.31289 3.575557-1.28189 1.907497-2.47098 4.64111-3.05032 6.99661-.31666 1.297291-.50203 1.822506-.75698 2.116017-.56386.648452-.79558 1.652644-.67204 2.949924.13915 1.421257.36265 1.977011 1.15061 2.803503.45533.471175.62522.749246 1.32037 2.108321 2.22423 4.378478 5.11265 7.52959 8.2479 8.989071.50943.23946.81846.455736 1.27415.888287.71063.663904 1.32084 1.034661 2.53315 1.567631v.0012c.88791.386205 1.45952.502086 1.45952.285798 0-.06181-.28581-.29353-.63332-.517526-.77211-.486626-.62534-.463431.59472.108174.96523.455734 1.29725.509771 1.33597.239421.0153-.131307-.16191-.247176-1.05791-.69518-.59437-.293522-1.07329-.540631-1.06554-.556083.0152-.0082.55576.193093 1.19682.447992 1.2664.502078 1.52135.540701 1.52135.231728 0-.231728-.17763-.339913-1.35135-.857431-.47117-.200836-.88063-.393941-.91148-.424832-.0305-.03086 0-.0386.0622-.01537s.55577.193092 1.0964.370745c.82608.278071.99608.316694 1.09651.231728.18537-.154481.14677-.378489-.0845-.502078-.12366-.05409-.6176-.270386-1.10414-.471223-.94235-.386208-2.35552-1.258656-2.23972-1.374514.0234-.02311.40172-.08494.84966-.131251.83382-.10043 1.08103-.208603 1.08103-.471222 0-.285802-.24721-.316694-1.69124-.231728-.74888.04634-1.48263.108173-1.6294.131322-.2472.03086-.35538-.03086-1.39006-.826504-3.21246-2.47137-4.23201-3.622264-5.7611-6.518078-.41709-.787482-.43258-.841568-.38623-1.235497.0234-.224008.0622-.455747.0845-.517542.0234-.05409.2858-.239471.57935-.401672.64846-.370382 1.16609-.841556 1.3978-1.29728.49394-.950082.0622-3.297462-.7802-4.255276-.25495-.29351-.95749-.672023-1.52898-.826504-.30129-.0772-.34763-.123566-.52526-.525226l-.20086-.440307.24721-.888287c.57922-2.054246 1.44403-3.961708 2.37089-5.212644.48666-.663904 2.008-2.501874 2.62596-3.173873l.29342-.316741 1.52135-.208568c1.76069-.231728 1.9152-.278082 1.9152-.540701 0-.316694-.16225-.378431-.90375-.324355-.37849.03086-.77246.06945-.88826.09257-.12366.02323-.21623.01549-.21623-.02311 0-.200824 1.28952-1.37455 2.14692-1.946143.92686-.633001 1.05815-.787447.84966-.996003-.14642-.146761-.26996-.115799-.97285.301278-.37074.216276-.79558.46342-.94235.548387l-.27043.146796.19312-.154493c.10793-.08494.54801-.417147.98833-.741561.44032-.316694.81869-.641085.84193-.702879.0622-.169933-.15452-.363037-.34764-.308974-.0927.03086-.6021.347562-1.14274.702879-.54039.363037-.99608.641154-1.01145.625703-.0152-.01549.39386-.339866.90375-.733794.50977-.393941.92686-.741526.92686-.772429 0-.09843-.13469-.192635-.27055-.214zm7.86074 1.078306c-.13128-.05409-2.2782.996014-3.336 1.629402-1.44415.872448-2.97359 2.085161-4.06998 3.22796-4.51747 4.726451-5.77659 10.904734-3.3129 16.264186.20086.424832.29343.556164.41709.556164.20849 0 .20849-.07732-.0774-.896065-2.00015-5.830627.0774-12.147881 5.59133-17.036157l.5174-.463444.2472.239412c.32441.316694 1.03468.672023 1.5908.787893.26258.05409.79523.07732 1.32824.05409l.896-.0386.0927 1.165947c.16989 2.162009.61747 4.818762 1.17371 6.942535.20849.818772.69515 2.471357.81107 2.76488.0387.100429-.12367.162224-.94247.36306-2.9344.726075-5.5139.818808-7.45221.278118l-.4713-.131333.0469-1.050089c.16214-3.305195 1.25901-7.073868 2.70304-9.274886.38623-.587045.42483-.672012.31665-.772417-.10793-.10043-.16214-.06957-.50977.308962-.96511 1.065564-2.25475 3.374721-2.91129 5.220422-.4862 1.374914-.85694 2.950229-1.05005 4.494688l-.054.401684-.21623-.123566c-.11616-.06946-.37849-.27807-.57935-.463455-.38623-.355305-.46343-.393964-.54075-.262654-.0927.146761.40125.725722 1.02694 1.212349l.24721.193104v1.13502c0 3.058414.74923 5.946544 2.201 8.495148l.27806.486615-.52526-.285814c-.67966-.370757-1.32812-.841486-1.93058-1.389908-.47129-.424832-.64118-.478942-.64118-.200871 0 .332134 1.63762 1.613986 2.84219 2.239642.52527.262631.83418.478942.94998.648875.90374 1.289548 2.54864 2.942485 4.03901 4.054393.56386.424832.71837.478941.79557.278117.0305-.08494-.13128-.28579-.54062-.679719-.31631-.300855-.80297-.78754-1.06555-1.088783-.533-.594764-1.69897-2.139224-1.66037-2.185567.0234-.01549.35538.04634.75698.131322 3.0739.663904 6.3713.556141 9.89279-.308963.71029-.177664 1.30501-.308962 1.31275-.29351.0152.01549.32452.378442.68752.803273.76425.88018 2.50957 2.617744 3.41332 3.382441.33977.285803.67192.50981.73374.502079.27032-.05409.14666-.285732-.40945-.749188-.86469-.725687-1.97692-2.031109-2.97301-3.47515l-.54849-.803356 1.11975-.447992c3.27429-1.304999 6.2318-3.173849 8.64915-5.459835 2.09284-1.992462 3.63002-4.046755 4.77276-6.409986.52527-1.088725.57935-1.328207.30904-1.328207-.1009.0082-.25495.247167-.54075.834201-1.45213 3.019403-4.59513 6.208798-8.55683 8.687876-1.27414.795601-3.94632 2.146967-5.25907 2.664485-.5635.224008-1.05017.401672-1.09651.401672-.16953 0-1.96155-3.444306-2.94989-5.683936-.48666-1.081016-1.54434-3.706842-1.54434-3.814981 0-.03086.40934-.223995.91138-.424831.4944-.200438 1.47488-.656196 2.17777-1.019233 2.66456-1.366807 4.56427-2.857132 6.14733-4.810972.64118-.795601 1.65264-2.239701 1.65264-2.36329 0-.2549-.24709-.06946-.66418.478918-1.21231 1.606254-3.35935 3.390208-5.82304 4.841981-1.76069 1.027316-4.69509 2.370916-4.80327 2.193252-.1009-.154481-1.02694-3.012083-1.41317-4.324815-.58662-2.054257-1.57532-6.20136-1.49037-6.270887.0153-.0082.2858-.146761.60257-.308962.88052-.432564 1.86112-1.243194 2.52541-2.092857.2086-.270351.23172-.339936.14666-.409451-.0845-.06957-.20074.0082-.56374.370828-.2546.247167-.70254.610169-.99609.803273-.54063.347198-1.80715 1.01149-1.84575.965147-.0234-.03086-.3244-2.177824-.39386-2.826664-.0305-.308962-.0927-.509822-.16225-.532993zm-.31548.595152c.0305 0 .0622.687064.0622 1.529007v1.536775l-.49429.08494v.000376c-1.15823.216288-2.27786.06957-2.9344-.378441-.33215-.223996-.33989-.285791-.0622-.502067.91876-.726086 3.2588-2.270581 3.42881-2.270581zm52.221919 7.371214c-.0281 0-.0598.0035-.0939.01173-.11615.02323-.67157.115799-1.23555.216265-.56339.100429-1.03457.193116-1.04231.208568-.0118.01549 0 2.216071.0234 4.895984l.0387 4.865141.18549.370745c.20039.417112.38576.563897.96511.764733v.000387c.6102.208556 2.44821.146714 2.69529-.08506.0539-.05409.0117-.293499-.25482-1.32044-.0692-.254899-.1009-.278048-.34763-.278048-.17763 0-.33215-.06183-.44795-.169944l-.17-.177641-.0457-4.533382c-.0234-2.494541-.0692-4.595119-.1009-4.664645-.0293-.06957-.0845-.104301-.16836-.104301zm13.31234.0035c-.0153-.01549-.59436.07732-1.29726.200871-.70253.12359-1.29725.223961-1.3281.223961-.0235 0-.0118.131321.0387.285802.1009.332146.13903 9.831039.0387 10.279043l-.054.247191h1.11963c.92651 0 1.11963-.02311 1.15048-.115917.12355-.393929.11615-.378465.21624-.254875.1314.162201.50988.409344.78795.509763v-.000388c.13128.05409.50977.0772.8574.06183.53254-.02323.70254-.06946 1.10414-.278048 1.25866-.672011 2.01563-2.18559 2.01563-4.054463 0-1.753015-.62557-3.088942-1.70659-3.629644-.75699-.386208-1.82264-.409344-2.51779-.04634l-.29354.146715.0234-1.22773c.0153-1.035049-.0622-2.255129-.15451-2.347815zm16.58452.01396c-.30681.01256-2.50793.368715-2.53679.419399-.0118.01549-.00012 2.200621.0235 4.857363.0387 4.432553.0469 4.849688.17774 5.135491.239.532583.57888.810665 1.18909.965146l.00035.00075c.36311.09269 1.96929.03872 2.35552-.06946l.27806-.08506-.20086-.787892c-.20848-.787869-.20848-.787833-.45569-.803274-.13902-.0082-.30129-.03086-.37074-.06183-.2858-.108173-.30904-.354941-.34764-5.004158-.0234-2.486809-.054-4.541055-.0774-4.564227 0-.0024-.0141-.0035-.0352-.0024zm-37.9134.410354c-.37978.0059-.73457.03379-.98951.08588-.22362.04634-.70254.223973-1.06554.393905-1.22041.586647-2.11607 1.729891-2.56413 3.27435-.1544.54069-.17763.780114-.17763 2.000148 0 1.351355.0118 1.405488.23946 2.054316.2858.803321.81845 1.629355 1.36683 2.123713.50977.463068 1.35134.864764 2.07734.996074l-.00035.000387c1.45212.26263 3.05067.03872 4.44836-.625633l.55623-.270351V47.921901H106.1091l.13903.950069c.0774.517131.14677.98833.14677 1.042393 0 .06183.18538.09269.65655.09269h.65655v.880591c0 .594764-.0305.90375-.0927.942373-.0469.03086-.33989.06946-.65655.09257-1.05017.06957-1.645-.355305-1.97715-1.41315-.14677-.471174-.16988-.710634-.16988-1.892056 0-1.196862.0234-1.413138.17774-1.915216.21623-.694795.65608-1.189142 1.18909-1.335903.74923-.200825 1.89197.03872 2.61035.548468.11615.08494.23172.154493.2472.154493.0234 0 .35526-.370816.75698-.818819l.71838-.818737-.22397-.18542c-.40172-.324414-1.40544-.803274-2.00801-.957755-.42484-.110989-1.12702-.164747-1.75999-.155466zm13.93416 2.733648c-.20251.0012-.41005.01689-.62147.04681-1.48263.200824-2.60226 1.204992-3.05794 2.74172-.17775.579325-.20087 2.116064-.0387 2.741732.34763 1.413525 1.22815 2.347803 2.51778 2.679937l-.00047-.000388c.57935.146762 1.82252.0772 2.37089-.13132.99644-.370769 1.73758-1.158697 2.12381-2.247421.17-.471175.2086-.748812.23958-1.559864.0387-1.158626-.0539-1.73754-.38623-2.440443-.55425-1.168915-1.72913-1.841372-3.14723-1.830813zm16.70137.0082c-.62463-.0082-1.28857.08224-1.89327.27827-.47117.154481-1.45177.594706-1.67586.749188-.0845.06183-.0234.224054.33989.85743.25494.432564.48666.780126.51764.780126.0387 0 .20074-.08494.36288-.193104.44806-.301255 1.06566-.509822 1.63726-.556165.48655-.0386.53289-.03086.71826.154481.17.169932.20086.270362.20086.672022v.463456h-.67978c-1.39768 0-2.60225.578949-3.06568 1.467236-.3244.617936-.30117 1.729879.0387 2.386438.37086.725687 1.12784 1.158204 2.1238 1.22773.75698.04634 1.305-.06957 1.87661-.378512l.40934-.231728.39398.355353h-.00063c.21635.200824.45581.347574.53301.332122.0692-.01549.44806-.332157.84191-.710634l.71064-.67972-.20074-.208567c-.11615-.115917-.23946-.332158-.27818-.478919-.0469-.139041-.0774-1.20491-.0774-2.355441 0-2.617744-.0622-2.864958-.82644-3.413368-.46496-.330221-1.2034-.50643-2.0066-.517694zm-16.82011 1.807947c.32535.0012.62745.254594.71768.679426.30129 1.366794.0845 3.645059-.37849 3.884519h.00035c-.20849.115799-.63332.09269-.81869-.0386-.30129-.208557-.37074-.594777-.37074-2.085161 0-1.54446.0845-2.031098.40934-2.278277.13985-.110989.29261-.162483.44055-.161885zm8.4327.316365c.67192 0 .89589.486638.89589 1.969303 0 1.01921-.0927 1.474921-.35526 1.783895h-.00035c-.21588.254899-.75663.324449-1.07328.146785l-.21635-.123555V48.316012l.20086-.154481c.13914-.108173.31665-.16226.54849-.16226zm-39.146469 1.333862c-.24087.01173-.26281.508754-.10676 1.792565.0622.471187.10089.865069.0845.88052-.0387.03086-.0622-.06946-.27806-1.212266-.20086-1.034662-.3244-1.227813-.64106-.996085-.1314.09269-.1314.154528.0235 1.343682.13902 1.081004.15451 1.351284.0774 2.007844-.0457.4171-.0927.772464-.10794.780196-.0153.01549-.26269-.285815-.54849-.672023-.2858-.378489-.57149-.718331-.63332-.741502-.16214-.06183-.37849.02311-.43257.162177-.0622.162213.0774.409392 1.01157 1.814822l.81094 1.220034-.0457.447991c-.26996 2.340049-.65619 4.386586-1.01919 5.45215-.44032 1.259044-2.07746 4.301666-2.45596 4.548846-.0469.0386-.25482.115799-.47117.185337l-.38612.123636-.61032-.355364c-1.05814-.594764-1.79166-.656547-2.68767-.216264-.62557.308975-1.5908 1.127313-2.031 1.729809-.54075.726074-.6102 1.181879-.35526 2.26288l.14666.617939-.27806.347594c-.14677.193107-.2858.362995-.29343.378445-.0622.0772-2.28572.571626-3.19721.702945-1.9152.278075-3.62955.169863-6.75707-.44807l-1.08102-.208488-.54838-.726108c-1.21232-1.590812-1.52135-1.930654-1.74532-1.938374-.17 0-.22397.04634-.26257.200789-.0387.162213.0387.339889.45569.942371.2858.409395.50203.749208.49428.764664-.0118.0082-.34751-.05406-.74923-.139019-.53301-.115919-1.05005-.30895-1.88423-.702876-1.21231-.579325-1.3978-.602508-1.3978-.208568 0 .15448.15451.270374.94235.726094.51751.293526.92698.548364.91923.556095-.0118.0155-.44759-.177619-.98059-.417064-.52491-.239463-1.08103-.432575-1.2278-.440294-.23935-.0082-.27032.0155-.27032.185406 0 .169932.13128.26262 1.135.772427 1.62952.834214 1.63726.872802.0305.200788-.9034-.378476-1.10414-.424795-1.18145-.239407-.0774.216276.20085.409357 1.25865.857358.57126.239445 1.01931.455701 1.00383.471151-.0153.0155-.34764-.06169-.74161-.169888-.38623-.115794-.726-.185419-.74912-.162244-.0305.02313-.0117.131357.0387.239495.0622.131306.32428.301238.90364.579313 1.19694.571589 2.05434.83419 3.0272.934602.63297.06181.9806.146801 1.45177.339901 1.24318.509414 2.44047.826121 3.87676 1.003771l.00062-.0012c1.20457.154482 3.90773.100431 5.31316-.115794 1.23542-.185388 2.50183-.455738 3.40557-.733808 1.08877-.332144 1.59844-.409407 2.03875-.324438 1.0578.208557 2.80359-.55607 3.87687-1.698872.44795-.486626.64106-.864752.82643-1.637179.0774-.332144.20849-.702914.28581-.826502.0774-.123588.45568-.710211.84966-1.304976 2.64133-4.023548 3.93858-8.13211 3.66053-11.568626-.0622-.76431-.054-.934266.0845-1.444064.0845-.316694.17774-.9265.20086-1.359052.0458-.772429-.0692-2.278276-.21635-2.818978-.0774-.293523-.26257-.517518-.363-.424832-.0305.03086-.0692.393964-.0927.803356-.0539.872448-.1009.717943-.23171-.710646-.0457-.509411-.12354-.972867-.16989-1.026929-.0845-.108174-.33988-.139042-.39397-.0386-.0153.03086.0118.602074.054 1.266353.0457.663892.0692 1.189166.0457 1.173726-.0153-.02323-.10794-.571183-.20086-1.227742-.20086-1.382246-.22397-1.47498-.39398-1.536774-.0434-.01736-.0821-.02569-.11615-.02405zm47.386629 1.368871h.35538v.718331c0 .610216-.0234.72611-.14677.803356h.00035c-.20086.131309-.63332.185337-.81881.108056-.27805-.1158-.44794-.378489-.45569-.695183-.0152-.594765.3704-.934595 1.06554-.934595zm-72.207209.30935c.0469 0 .13903.131286.19312.293499.40935 1.17369 1.46714 3.444282 2.29358 4.919227.56386 1.019209 1.78403 2.911218 2.32466 3.606401.18537.247168.3244.478919.30117.51753-.10793.169557-2.61035.764299-4.25524 1.011466h-.00035c-.74923.115917-1.58353.169933-2.70315.193104-1.64489.03086-2.34004-.01549-3.46729-.231715-1.25866-.231728-1.11963-.12359-1.77629-1.451773-.70243-1.42859-1.10415-2.517666-1.46715-3.99261-.33989-1.389979-.50214-2.448187-.56386-3.753186l-.0469-1.019245.68752.185408c2.10832.571593 4.95777.532934 7.58361-.08506.44032-.108174.84204-.193105.89613-.193105zm77.294529 6.89334c-.39879.0012-.80931.162471-1.13324.520792-.30904.339478-.46356.826093-.39398 1.18141.13129.586657.53265 1.034684 1.10426 1.212337h.00035c.2391.0772.82608.02311 1.0578-.09269.50977-.262619.83429-.779762.83429-1.335904.0118-.907105-.70817-1.488213-1.46948-1.485937zm-3.84039.263182c-.30681.01256-2.50781.368716-2.53679.4194-.0117.01549 0 2.20062.0235 4.857374.0387 4.432542.0457 4.849689.17762 5.135479.23911.53297.58663.818796 1.18909.957837l.00047.000387c.69527.162202 2.45595.0386 2.5409-.18542.0234-.04634-.0469-.417076-.14678-.818736-.16226-.66428-.19311-.726074-.37074-.733794-.76472-.02323-.71838.293487-.76472-5.019622-.0234-2.517713-.0539-4.587457-.0774-4.610629 0-.0024-.0141-.0035-.0352-.0024zm-35.79816.566197v10.655513h6.40956V67.15039H105.15936v-2.239267h2.70269V62.826367h-2.70269v-1.930316H108.45676l.0927-.980539c.0457-.548023.0845-1.034661.0845-1.081016 0-.0772-.67168-.10043-3.08891-.10043zm45.55463.400768c-.0129-.000023-.0282.0035-.0457.0082-.0774.02311-.66394.123578-1.30512.216264l-1.1736.169944-.0539.988306-.0539.996015h-.60246V63.212897h.6102l.0234 2.571776c.0305 2.741321.0457 2.834043.43246 3.243423.2472.262631.51752.417124.91924.517542h-.00035c.52525.131304 2.08508.0386 2.63346-.154481.26269-.09269.47892-.208544.47892-.254888 0-.0772-.0539-.339525-.27032-1.266435-.0387-.146761-.0692-.16219-.23946-.10043-.26268.10043-.67191.10043-.90375-.0082-.35526-.162201-.39386-.355375-.42483-2.517771l-.0305-2.031074h.58697c.32441 0 .58709-.01537.58709-.03086 0-.01549.0692-.370804.15452-.780184.0845-.409393.15452-.780126.15452-.81875 0-.0386-.33227-.06957-.74161-.06957h-.74923l.0622-1.204582c.0399-1.006703.0457-1.17396-.0469-1.174171zm-22.31746 2.15396-.2086.0386c-.11615.02311-.6948.115916-1.28952.208567l-1.08103.177641-.0387 2.811282-.0387 2.818967-.34763.177641c-.25484.13131-.43258.169909-.64881.139018-.5716-.06957-.54849.06957-.5716-3.328367l-.0234-3.042539-.20848.0386c-.11615.02323-.6948.115799-1.28952.216252l-1.08102.169957-.0234 2.587238c-.0235 2.87303.0457 3.791787.30903 4.301585.21623.417112.65619.749269 1.22006.90375l-.00048-.0011c.67204.185374 1.78393.115799 2.35553-.146796.25483-.115799.51752-.262607.59472-.332122.16226-.146761.14677-.162213.33214.270339.0774.177664.14678.324441.16226.324441.0234 0 2.22412-.787908 2.24735-.803348.0118-.0082-.0622-.216252-.15452-.471151-.16213-.440284-.16988-.602532-.19311-3.760965zm5.30412.02851c-.96628-.01056-2.07312.241829-3.13397.775597-.30129.146761-.54075.301277-.54075.339889 0 .03086.20086.409381.44794.834212l.44032.764721.34764-.216335c.82643-.52525 2.03112-.756942 2.38638-.471151.16226.131309.20086.239471.22397.672023l.0305.509774h-.68752c-1.48263 0-2.60988.556142-3.0888 1.529008-.18537.378102-.21634.532606-.21634 1.096479.0118 1.06594.40124 1.752992 1.23542 2.170104.91889.448002 2.20077.393952 3.11989-.13903l.33215-.193104.17.193104c.0845.108174.30117.285815.46344.401688h-.00047l.30891.200801.7571-.75697.75697-.749269-.19312-.200789c-.34763-.370381-.37085-.524886-.3786-2.895837-.0117-1.984743-.0235-2.278278-.14665-2.548616-.38237-.851389-1.39253-1.302044-2.63488-1.316299zm-17.84036.0012c-.39773-.0059-.83089.08893-1.25654.288372-.47892.224008-1.25866.996061-1.52123 1.521311-.67203 1.312731-.68752 3.583276-.0388 4.926912.32441.671624.92639 1.204594 1.59068 1.413149.6257.193104 1.45952.200835 1.99253.01549l.38623-.131321-.0234 1.830284v.000387c-.0152 1.01149 0 1.837966.0387 1.837966.0305 0 .62522-.146769 1.31263-.324425l1.24329-.324432.0387-5.220424c.0235-2.864911.0622-5.305353.0927-5.421223l.054-.216264h-2.31645l-.0469.270351-.0539.278047-.22409-.239424c-.3041-.325869-.75733-.497784-1.26886-.504707zm30.22901.07943-1.31275.108173-1.31274.115916v7.769038h2.62549V65.39068Zm9.18603.02862c-.51083-.0012-2.4739.141376-2.52119.195451-.0234.02323.47845 1.598534 1.11963 3.49831.64071 1.899765 1.20457 3.645048 1.25091 3.869056l.0927.401672h.37849c.2086 0 .37849.03086.37849.06183 0 .03086-.14678.285805-.3244.556156-.43258.65617-.84932.957427-1.65264 1.196883-.35525.115801-.6488.224007-.6488.247188 0 .02325.19311.401614.43258.84189v-.000625c.23171.440269.45569.803339.4944.803339.0305 0 .33977-.05406.67192-.115794 1.35181-.254901 2.07746-.865189 2.76499-2.301511.33976-.710246 3.51363-8.9504 3.51363-9.120333 0-.03086-.59437-.0386-1.32812-.03098l-1.32823.02311-.63343 1.969303c-.34752 1.081391-.69503 2.301448-.76461 2.703108-.18537 1.011865-.20085 1.035048-.3244.463443-.0927-.463056-1.39769-5.158651-1.45177-5.251337 0-.007-.0469-.0094-.12014-.01056zm-38.98387 2.035767c.1239.000375.25917.03004.40524.09034l.27806.115799v1.768432c0 1.644877-.0118 1.776245-.14689 1.899823h.00047c-.20075.185384-.69515.231704-.94235.08494-.30117-.162213-.46344-.648417-.50978-1.536704-.0915-1.56383.24615-2.424064.91525-2.422715zm17.24095 2.684923h.35525v.695171c0 .633388-.0153.702915-.17762.811053l.00035-.000388c-.20848.13131-.58698.208533-.74924.139018-.23171-.08494-.46343-.363025-.50977-.602473-.10794-.586657.36265-1.042392 1.08103-1.042392z"/></svg>