<svg xmlns="http://www.w3.org/2000/svg" version="1.0" viewBox="0 0 200 100"><defs><clipPath id="a" clipPathUnits="userSpaceOnUse"><path d="M-73.472002 139.21329h283.46v-283.46h-283.46Z"/></clipPath><clipPath id="b" clipPathUnits="userSpaceOnUse"><path d="M-111.7378 123.6677h283.46v-283.46h-283.46Z"/></clipPath><clipPath id="c" clipPathUnits="userSpaceOnUse"><path d="M-174.64341 139.817h283.46v-283.46h-283.46Z"/></clipPath><clipPath id="d" clipPathUnits="userSpaceOnUse"><path d="M-221.15661 135.03759h283.46v-283.46h-283.46Z"/></clipPath><linearGradient id="e" x1="2.6837711" x2="2.9500246" y1="-1.183108" y2="-1.183108" gradientTransform="rotate(-90 230.233095 41.362025) scale(75.116363)" gradientUnits="userSpaceOnUse" spreadMethod="pad"><stop offset="0" stop-color="#fff"/><stop offset="1" stop-color="#363a32"/></linearGradient><linearGradient id="f" x1="1.6610659" x2="1.9968774" y1="-1.492197" y2="-1.492197" gradientTransform="rotate(-90 168.899765 -19.971305) scale(59.557215)" gradientUnits="userSpaceOnUse" spreadMethod="pad"><stop offset="0" stop-color="#fff"/><stop offset="1" stop-color="#363a32"/></linearGradient></defs><path fill="#363a32" fill-rule="evenodd" d="m0 0 22.949 24.652H7.12L-13.114 2.113v22.539h-12.038v-50.41h12.038v23.544L7.12-25.758h15.829z" clip-path="url(#a)" transform="matrix(.30393289 0 0 -.30393289 79.277553 49.084339)"/><path fill="#363a32" fill-rule="evenodd" d="M0 0h19.671v9.106H-2.766c-14.702-.553-21.31-10.766-21.31-26.865 0-14.992 7.171-23.545 23.513-23.545h20.234v9.156H0c-7.12 0-10.348 4.277-10.348 11.219h30.019l-9.784 9.106h-20.235C-10.962-4.83-7.12-1.056 0 0" clip-path="url(#b)" transform="matrix(.30393289 0 0 -.30393289 90.907787 44.359521)"/><path fill="#363a32" fill-rule="evenodd" d="M0 0c9.887 5.936 11.526 23.595-7.684 25.255h-33.399l11.526-9.106h19.67c6.096-.553 7.121-10.716 0-11.822h-19.056l10.911-9.106h8.145c5.021-.503 6.557-10.213 0-11.823h-19.67v31.091h-11.526v-39.644h35.602C9.323-25.155 12.038-5.282 0 0" clip-path="url(#c)" transform="matrix(.30393289 0 0 -.30393289 110.02687 49.267825)"/><path fill="#363a32" fill-rule="evenodd" d="M0 0h-20.849c-5.942-.956-7.633 10.816-.563 10.816H10.86v9.66h-35.551c-16.341-.553-17.929-29.481.615-29.481H-3.33c5.943 0 6.506-11.773 0-11.773h-33.86v-9.156H-.563C18.544-30.538 17.468.654 0 0" clip-path="url(#d)" transform="matrix(.30393289 0 0 -.30393289 124.16376 47.815206)"/><path fill="url(#e)" d="M135.35104 49.999999c-.27384 9.445627-15.99477 17.061881-35.35074 17.061881-19.356569 0-35.077194-7.616254-35.351342-17.061881h-3.653577c0 11.045833 17.463072 20 39.004919 20 21.54155 0 39.00432-8.954167 39.00432-20z"/><path fill="url(#f)" d="M60.995381 49.999999h3.653577c-.0024-.08358-.0064-.166555-.0064-.25044 0-9.561425 15.83004-17.312626 35.357722-17.312626 19.52708 0 35.35743 7.751201 35.35743 17.312626 0 .08389-.004.166859-.007.25044h3.65358c0-11.045529-17.46277-20-39.004318-20-21.541847 0-39.004919 8.954471-39.004919 20"/></svg>