<svg xmlns="http://www.w3.org/2000/svg" version="1.0" viewBox="0 0 200 100"><g fill="#363a32"><path d="M19.99949663 49.21757367V31.43514654h17.78246963c15.74899192 0 17.78246962-.0167364 17.78246962-.12552302 0-.0669456.05857755-.12552301.12552332-.12552301.10878687 0 .12552331 2.04184104.12552331 17.90795014v17.90795014H19.99949663Zm7.86612774 11.04602532v-2.55230131H30.12504404l1.90795439 2.5523013 1.89958616 2.55230131h17.53979122l-.02510466-1.14644354-.02510467-1.15481174-2.40167942-.0251046-2.41004765-.0167364v-8.70292904l2.41004765-.0167364 2.40167942-.0251046.02510467-1.54811719.01673644-1.55648539-2.97071846-3.04602516c-2.7113036-2.78661093-2.97071845-3.07949797-2.97071845-3.3389122 0-.25941423.25104663-.53556486 2.97908668-3.3221758 2.02510948-2.07531384 2.96235023-3.08786616 2.94561379-3.18828458-.02510466-.13389121-.18410086-.15062761-1.86611328-.16736402l-1.84100862-.0167364-2.71967183 2.92050215c-2.6276214 2.82008374-2.72804005 2.92050215-3.029296 2.92050215l-.3179924.0083682v-5.8577407h-7.52303068l-.02510466 4.29288711-.02510467 4.28451892-.2008373.43514645c-.22594197.51046026-.77824455 1.05439332-1.33054714 1.30543935-.34309706.15899582-.53556614.18410043-1.60669843.18410043-1.17991916 0-1.23012849-.0083682-1.69874886-.24267783-.26778308-.14225942-.61924836-.39330545-.78661278-.57740587-.58577547-.65271968-.5606708-.46861926-.61088013-5.28870303l-.0418411-4.35146452-1.81590396-.0251046-1.82427218-.01673641v4.1589959c0 3.4393306.02510466 4.2594143.13389154 4.71129716.49372503 2.10878665 2.45188875 3.86610886 4.87030462 4.35983272.51046148.10878661.5188297.11715481.5188297.38493725v.27615063h-5.52302586v13.3891216h3.68201724z"/><path d="M35.79869788 60.14644417c-1.97490016-2.5857741-1.96653194-2.5690377-1.06276407-2.80334733 1.38075647-.35146445 2.5104663-1.17991635 2.96235023-2.16736406.3179924-.67782428.4351475-1.53138079.30962418-2.23430967-.05857754-.32635984-.10041865-.71966529-.10041865-.8786611v-.29288704h4.93725039v8.70292904l-2.40167943.0167364-2.41004764.0251046-.02510467.90376571-.02510466.89539751h-.26778307c-.25104663 0-.3598335-.12552301-1.91632261-2.16736406zM27.86562437 53.56903818v-1.80753141l2.61925317.0251046c2.53557097.0251046 2.61925318.0334728 3.00419134.21757323.23431019.11715481.46862038.31799164.57740725.48535566.36820172.60251047.28451951 1.89958162-.1589962 2.31799167-.51046148.48535566-.66945768.51046026-3.4644435.54393307l-2.57741206.0334728ZM37.02045814 50.98326408c-.76987633-.7949791-2.09205525-1.29707116-3.94143209-1.48953978l-.94560897-.10041841v-.27615064c0-.24267783.02510466-.27615063.21757375-.27615063.38493816 0 1.97490015-.57740587 2.58578028-.93723851.86192677-.50209206 1.86611329-1.54811719 2.2259468-2.30125528.26778306-.56066946.30125595-.60251047.5606708-.60251047l.26778307-.0083682v6.44351477l-.26778307-.0083682c-.21757375 0-.36820173-.10041841-.70293057-.44351465zM41.67318902 46.24686231v-3.17991638h.28451951c.26778308 0 .46025216.18410042 2.99582312 2.88702934 2.35983832 2.5188285 2.70293538 2.92887035 2.72804005 3.17991638l.02510466.29288704H41.67318902zM98.99550287 59.5439337v-3.52301262l1.61506665.0334728 1.62343488.0251046.41004283.25104603c.794981.49372386 1.17155094 1.40585777.96234541 2.33472808-.1171551.52719667-.49372504 1.08786613-.91213609 1.34728036-.14225976.09205022-.25941485.19246863-.26778307.22594143 0 .0334728.37656995.68619248.8368221 1.44769878l.8368221 1.38912136-.72803523-.0251046-.73640344-.0251046-.73640345-1.27196656-.74477167-1.28033475h-.90376787v2.59414231h-1.25523315zm3.06276889-.61087867c.25104663-.25104603.28451951-.33472804.28451951-.71129709 0-.35146444-.0418411-.46861926-.2426784-.69456068-.2343102-.25941423-.25941486-.26778243-1.04602763-.30125524l-.80334922-.0334728v2.02510464h.76150811c.7531399 0 .76150811 0 1.04602763-.28451883zM105.96623096 62.9246869c-.51046148-.17573222-1.13807805-.76987449-1.37238824-1.29707115-.29288774-.66108788-.28451951-1.6987448.02510466-2.29288708.44351572-.8451883 1.23012849-1.32217575 2.20084213-1.32217575 1.37238824 0 2.309629.8953975 2.44352053 2.33472808l.05020932.54393306h-1.85774506c-1.76569463 0-1.84937684.0083682-1.84937684.15899582 0 .20920502.36820172.64435148.6778259.8033473.37656995.20083682 1.00418652.15899581 1.36402002-.08368201.25941486-.17573223.41004283-.20920503.88703143-.20920503.32636062 0 .58577547.0334728.58577547.0669456 0 .14225943-.49372504.7531381-.77824455.97071132-.60251191.46025106-1.61506666.60251048-2.37657477.32635984zm1.98326838-3.07949796c0-.0334728-.05857755-.15899582-.12552331-.29288704-.24267841-.46025105-.90376787-.63598328-1.49791156-.38493725-.25941485.10878662-.6359848.49372386-.6359848.64435148 0 .041841.51046148.07531381 1.12970984.07531381.61924835 0 1.12970983-.0167364 1.12970983-.041841zM111.27168308 62.9497915c-.6359848-.23430962-1.23012849-.8953975-1.23012849-1.38912136 0-.15062762.05020933-.16736402.56903903-.16736402.53556614 0 .56903903.0083682.70293056.25104603.34309706.59414227 1.40586113.53556486 1.40586113-.0753138 0-.33472805-.2008373-.46861927-.98745008-.67782429-1.1129734-.30125524-1.5564891-.70292888-1.5564891-1.40585777 0-.59414227.22594196-.9288703.82008565-1.23012554.82008566-.40167365 1.88284973-.30125524 2.46025698.23430962.2008373.18410042.5188297.7364017.5188297.89539751 0 .0502092-.2426784.08368201-.5941437.08368201-.53556613 0-.61088012-.0251046-.7615081-.20920503-.13389154-.17573222-.23431019-.20920502-.56903903-.20920502-.34309706 0-.4351475.0334728-.54393436.20083682-.10041866.15899582-.1171551.25104603-.05020933.36820085.10041865.19246862.18410086.23430963 1.01255474.44351465 1.0376594.26778243 1.50627978.71966529 1.50627978 1.44769877 0 .64435148-.50209326 1.28870296-1.14644628 1.46443518-.43514749.12552301-1.17155094.10878661-1.5564891-.0251046zM116.10851482 62.8326367c-.56067081-.26778244-.97908186-.6945607-1.24686493-1.26359836-.25104663-.56066947-.24267841-1.56485359.02510466-2.15899586.66945768-1.50627618 2.76151293-1.88284522 3.95816853-.71966528.39330639.38493724.64435302.97071131.71129879 1.6569038l.05020932.54393306h-1.85774506c-1.76569463 0-1.84937684.0083682-1.84937684.15899582 0 .20920502.36820172.64435148.6778259.8033473.37656995.20083682 1.00418652.15899581 1.36402002-.08368202.25941486-.17573222.41004283-.20920502.88703143-.20920502.32636062 0 .58577547.0334728.58577547.0669456 0 .14225942-.49372504.7531381-.77824455.97071132-.69456235.52719667-1.69874887.61924688-2.52720274.23430963zm2.13389635-2.98744777c0-.0334728-.05857755-.15899581-.12552331-.29288703-.24267841-.46025106-.90376787-.63598328-1.49791156-.38493725-.25941485.10878662-.6359848.49372386-.6359848.64435148 0 .041841.51046148.07531381 1.12970984.07531381.61924835 0 1.12970983-.0167364 1.12970983-.041841zM121.29681183 62.9665279c-.71129878-.25104602-1.10460517-.8702929-1.00418651-1.55648538.11715509-.8117155 1.00418651-1.33891216 2.46025697-1.48953978.55230258-.0502092.59414369-.0669456.59414369-.25941423 0-.10878661-.09205043-.29288703-.20920553-.40167364-.29288773-.30125524-.96234541-.30125524-1.26360137 0-.18410086.18410042-.28451951.20920502-.78661277.20920502-.35146528 0-.58577547-.0334728-.58577547-.08368201 0-.19246862.34309706-.74476989.57740725-.94560671.74477167-.61924688 2.32636544-.56903767 2.96235023.0920502.39330639.41004186.49372504.7949791.55230259 2.15062767l.05020932 1.25523015.2761513.1171548c.25104663.11715482.26778307.14225943.26778307.56903768s-.00836822.44351465-.22594197.44351465c-.41841105 0-.84519032-.16736402-1.04602762-.41004185l-.2008373-.23430963-.28451952.24267783c-.1589962.12552302-.41841105.27615064-.58577547.31799164-.37656995.10878661-1.22176027.09205021-1.54812089-.0167364zm1.52301623-1.07112972c.30125595-.18410042.52719792-.55230127.52719792-.8786611 0-.24267783.02510466-.23430963-1.05439585-.0334728-.68619412.1338912-.98745007.55230126-.64435301.9288703.18410086.20920503.82008565.20083683 1.17155094-.0167364zM125.94117449 60.55648602v-2.5104603h.49372504c.49372504 0 .50209326 0 .59414369.29288703.1171551.35146445.19246908.35983265.5188297.08368201.25941485-.21757322.9539772-.46025105 1.33891536-.46025105h.23431019v1.25523015h-.41841105c-.51046148 0-.88703143.15062762-1.17155094.45188285-.20920553.22594143-.20920553.25941423-.23431019 1.81589962l-.02510466 1.58158999H125.94117449zM131.18804906 62.9497915c-1.39749291-.50209205-2.06695059-2.06694564-1.4728069-3.4476988.5941437-1.40585777 2.47699342-1.94979084 3.73222657-1.08786614.37656994.25941423.94560897 1.02928873.94560897 1.28033476 0 .083682-.16736442.10878661-.6359848.10878661-.59414369 0-.64435301-.0167364-.8368221-.25104603-.27615129-.32635984-.75313989-.46025106-1.22176026-.33472804-1.1548145.31799164-1.29707426 2.00000004-.21757375 2.5606695.4769886.24267784 1.37238825.04184101 1.52301622-.34309623.03347289-.10041842.2008373-.12552302.71966701-.12552302.36820172 0 .66945768.0167364.66945768.041841 0 .0251046-.05020933.16736403-.1171551.32635984-.33472883.7949791-1.28870603 1.38912137-2.22594678 1.38912137-.30125596-.0083682-.68619412-.0585774-.86192676-.11715481zM135.31358201 59.5104609v-3.55648543h1.25523315v1.29707116c0 .76987449.03347288 1.29707115.08368221 1.29707115.0418411 0 .20920553-.09205021.36820172-.20083682.794981-.53556487 1.81590396-.46861926 2.44352054.15899581.54393436.54393307.61924835.90376571.61924835 2.90376575v1.6569038H138.84497127l-.03347288-1.6485356c-.03347289-1.6903766-.075314-1.93305443-.39330639-2.17573226-.22594197-.17573222-.87029498-.13389121-1.18828738.08368201-.5188297.34309624-.57740725.58577407-.57740725 2.25941427v1.48117158h-1.33891536zM145.4307612 62.8744777c-1.14644628-.48535566-1.79916752-1.37238497-2.00837304-2.75313813-.25941485-1.6485356.5188297-3.2635984 1.8744815-3.88284527.44351572-.20083682.62761658-.23430962 1.23012849-.23430962s.78661277.0334728 1.23012849.23430962c.32636062.15062762.66945768.39330545.89539964.63598328.35146529.36820084.71966701.97907952.71966701 1.17154814 0 .0502092-.26778307.08368201-.69456234.08368201-.6778259 0-.70293057-.0083682-.88703143-.25941423-.30125595-.41004185-.65272124-.57740587-1.21339204-.57740587-1.20502383 0-1.84937684.8117155-1.84100862 2.30125527.00836822 1.38075317.719667 2.21757327 1.8744815 2.21757327.42677927-.0083682.98745008-.28451883 1.1548145-.58577407.14225976-.25104603.14225976-.25104603.8786632-.25104603.72803523 0 .73640345 0 .68619413.19246862-.09205044.30125524-.54393437.96234312-.81171744 1.19665275-.5606708.46025105-1.06276407.64435147-1.86611328.67782428-.64435302.0251046-.82008566 0-1.22176027-.16736402zM151.6901905 62.9497915c-.52719792-.19246862-.97071363-.53556486-1.2384967-.9539749-.35146528-.55230127-.4351475-.90376572-.4016746-1.6150628.06694576-1.20502095.719667-1.99163184 1.93305904-2.30125528.60251191-.15899582 1.08786873-.1087866 1.69874886.16736402.90376787.41004185 1.42259757 1.24686195 1.41422935 2.31799168-.00836822 1.03765692-.46862037 1.78242681-1.3974929 2.26778247-.44351572.22594143-1.53138445.29288704-2.00837304.11715482zm1.60669844-1.19665274c.33472884-.24267783.51046148-.66945608.51046148-1.22175734 0-.8619247-.39330639-1.33054396-1.1548145-1.37238497-.60251191-.041841-.96234541.15899582-1.18828738.66945608-.49372504 1.07949793.17573264 2.21757327 1.24686493 2.11715486.2008373-.0167364.46025215-.10041842.58577547-.19246863zM157.23832103 62.9330551c-.37656995-.16736402-.719667-.49372385-.94560897-.9121339-.16736442-.30962344-.18410086-.47698746-.20920553-2.15062766l-.02510466-1.82426782h1.33891536l.02510466 1.7154812.02510467 1.71548121.21757374.21757323c.45188394.45188285 1.2719696.30125523 1.62343488-.30125524.15062797-.25941423.16736442-.46861926.19246908-1.81589962l.03347288-1.53138078h1.32217892v5.0209206h-.50209326c-.50209326 0-.51046148 0-.5606708-.25941423-.05857755-.31799164-.22594197-.39330545-.41841106-.20083683-.42677927.42677826-1.49791156.59414228-2.11715991.32635984zM162.008207 60.55648602v-2.5188285l.5188297.0251046c.51046148.0251046.52719793.0334728.60251191.30125524.08368221.29288703.29288774.35983264.4769886.13389121.23431019-.28451883.76987633-.48535565 1.33891536-.48535565.77824455 0 1.26360137.30125523 1.62343488.99581591l.25104662.49372386.02510467 1.78242682.03347288 1.78242681h-1.3556518v-1.58158999c0-1.6569038-.03347288-1.89121343-.34309706-2.17573226-.25104663-.23430963-.85355854-.23430963-1.23012849-.0083682-.50209326.30962344-.60251191.67782428-.60251191 2.32635988v1.43933057H162.008207zM169.37224148 62.9246869c-.54393437-.19246862-1.2719696-.94560671-1.45607045-1.51464438-.2008373-.59414227-.1589962-1.42259417.10041865-1.94979083.74477167-1.53138078 2.8284587-1.94979083 4.01674608-.8033473.23431019.22594143.68619412.94560672.68619412 1.10460254 0 .0251046-.29288774.041841-.65272124.041841-.61924835 0-.66945768-.0167364-.89539965-.25104603-.4769886-.49372386-1.27196959-.50209206-1.73222174-.0251046-.82845388.8702929-.30125596 2.36820088.82845388 2.36820088.41004283 0 .62761657-.09205021.9539772-.39330545.2008373-.18410042.27615128-.20083682.84519031-.17573222l.6359848.0251046-.16736442.35146445c-.5188297 1.10460253-1.93305905 1.6485356-3.16318754 1.22175734zM173.80739861 60.55648602v-2.5104603h1.25523315v5.0209206h-1.25523315zM176.15050049 59.5104609v-3.55648543h1.33891536v7.11297085h-1.33891536zM174.14212745 57.36820144c-.48535682-.19246862-.68619412-.63598328-.50209326-1.08786613.20920553-.49372386.93724075-.65271968 1.29707426-.29288704.41841104.41841005.36820172.95397492-.1171551 1.28033476-.30962418.20920502-.36820172.21757322-.6778259.1004184zM111.0039 54.70711352c-.29288773-.0753138-.7615081-.30962344-.82845387-.41004185-.02510467-.0334728.09205043-.25941423.25104663-.49372386l.30125595-.41841005.30125596.15062762c.66108946.34309624 1.23012849.09205021 1.3974929-.61087867.05857755-.22594143.05020933-.23430963-.2845195-.23430963-.1924691 0-.34309707-.0083682-.34309707-.0251046 0-.0167364-.37656994-1.11297074-.8368221-2.4435147-.46025215-1.33891215-.8368221-2.45188289-.8368221-2.4853557 0-.041841.29288774-.0669456.65272124-.0669456h.65272124l.6359848 1.82426782c.42677926 1.23012555.66945767 1.82426782.75313988 1.84100422.10878688.0167364.26778307-.38493725.74477167-1.81589962l.61924836-1.84937242h.65272123c.49372504 0 .65272124.0251046.62761658.10878661-.02510466.0502092-.46862038 1.37238497-.98745008 2.93723855-1.02929118 3.07112977-1.21339204 3.46443522-1.82427218 3.80753146-.39330638.20920502-1.1966556.30125524-1.64853953.18410042zM117.46416662 52.65690428c-.6778259-.18410043-1.28033782-.7698745-1.37238825-1.33054396l-.05020932-.30962344h.6025119c.4769886 0 .5941437.0251046.5941437.12552302 0 .0753138.09205043.22594142.20920553.33472804.25941485.26778243.93724075.30125523 1.1548145.0585774.32636061-.35983264.10041865-.76987449-.48535682-.8953975-.13389154-.0334728-.48535682-.13389122-.76987634-.21757323-1.20502382-.38493725-1.5564891-1.53974898-.69456234-2.27615067 1.08786873-.92887031 3.00419134-.46861926 3.3054473.8033473l.05857754.22594142h-.5606708c-.5188297 0-.57740725-.0167364-.794981-.25104603-.29288773-.30962344-.82008566-.35146444-1.08786873-.08368201-.36820172.36820084-.12552331.60251047.8786632.8702929.78661278.20920503 1.0711323.37656905 1.36402003.8033473.36820172.54393307.14225976 1.48117158-.46025216 1.87447702-.32636062.20920503-.90376787.38493725-1.28033781.37656905-.1171551 0-.39330639-.0502092-.61088013-.10878661zM125.02067018 52.66527248c-1.1548145-.32635984-1.88284973-1.31380756-1.85774506-2.5355649.00836822-.7196653.26778307-1.27196656.82008566-1.78242682.58577547-.53556486 1.09623695-.71129708 1.90795438-.66108788.94560898.06694561 1.6736442.56066947 2.05021415 1.40585777l.16736442.37656904-.64435302.0251046c-.61924835.02510461-.65272124.01673641-.85355854-.22594142-.2761513-.32635984-.50209326-.42677825-.93724075-.42677825-.4351475 0-.84519032.23430963-1.07113229.60251047-.3179924.52719666-.16736442 1.55648539.28451951 1.87447703.52719793.36820084 1.29707426.30962343 1.6736442-.13389122.19246909-.23430963.24267841-.25104603.8368221-.25104603.45188394 0 .6359848.0334728.6359848.10878661 0 .20083683-.50209326.97071132-.74477167 1.13807534-.6778259.48535566-1.58996199.67782428-2.26778789.48535566zM130.0918121 52.68200888c-.75313988-.18410042-1.22176026-.72803349-1.22176026-1.41422597 0-.9037657.81171744-1.47280338 2.35983832-1.6736402.37656995-.041841.70293057-.08368201.71129879-.08368201.10041865 0-.01673644-.36820084-.17573264-.56066947-.17573264-.20083682-.25941485-.23430963-.66108946-.23430963-.36820173 0-.50209326.04184101-.66108946.19246863-.16736442.15062762-.30125596.18410042-.76150811.18410042-.5941437 0-.61088014-.0167364-.46862038-.39330545.22594197-.61087867.97908186-1.02928872 1.8326404-1.02928872.77824455 0 1.1548145.13389122 1.5564891.53556486.45188394.44351466.53556615.7698745.53556615 2.03347285 0 1.14644353.06694577 1.42259417.37656994 1.49790798.19246909.0502092.20920553.0920502.20920553.50209206v.45188285h-.29288774c-.39330638 0-.82008565-.18410042-.98745007-.42677825l-.14225976-.19246862-.18410086.17573222c-.46862038.42677825-1.33054714.61087867-2.02510948.43514645zm1.33054714-1.11297073c.26778308-.17573223.44351572-.45188286.51046149-.8033473l.05857754-.27615063-.49372504.0502092c-.64435301.07531381-1.0795005.20083683-1.24686493.36820085-.2008373.19246862-.13389153.62761507.12552332.76150629.25104663.13389121.76987633.083682 1.04602763-.10041841zM141.28012358 52.69037708c-.41841105-.09205021-.9205043-.33472804-1.26360137-.62761507-.3179924-.26778244-.68619412-.98744772-.68619412-1.35564857v-.27615063H140.5688248l.05857755.25104603c.07531398.34309624.48535681.73640169.84519032.8033473.84519032.15899581 1.45607045-.16736402 1.45607045-.7782427 0-.41841005-.38493817-.75313809-1.2719696-1.09623433-.4016746-.15899582-.9205043-.40167365-1.16318271-.54393306-1.1129734-.66945608-1.32217892-1.91631803-.46025216-2.77824274 1.06276407-1.06276152 3.24686975-.77824269 3.824277.50209206.26778307.58577407.24267841.62761508-.42677927.62761508-.55230259 0-.60251191-.0167364-.82008566-.25941423-.37656994-.41841005-1.2384967-.45188286-1.60669843-.0585774-.09205043.1004184-.16736442.28451883-.16736442.41841004 0 .39330545.26778307.58577407 1.49791156 1.10460253.87029498.36820085 1.38075646.7364017 1.6318031 1.16317994.61088013 1.05439333.11715509 2.38493729-1.02092297 2.77824273-.49372504.16736402-1.21339204.22594143-1.66527598.12552302zM146.9035681 52.69874528c-.73640345-.19246862-1.32217892-.64435148-1.6736442-1.27196655-.22594197-.41004185-.25104664-.52719666-.25104664-1.20502095 0-.65271967.03347289-.8117155.22594197-1.17991634.25104663-.47698745.64435302-.8535565 1.17991916-1.13807533.29288774-.15899582.48535682-.19246863 1.10460517-.19246863.6778259 0 .794981.0251046 1.1966556.24267783.4769886.26778244.86192677.68619249 1.06276408 1.17154814.06694576.15899582.12552331.31799164.12552331.34309624 0 .0251046-.28451951.04184101-.6359848.04184101-.57740725 0-.65272123-.0167364-.80334921-.20920503-.37656995-.48535565-1.1548145-.61087867-1.65690776-.26778243-.92887253.63598328-.70293056 2.20083687.3598335 2.4937239.44351572.11715481.76987634.0251046 1.14644628-.30962344.3179924-.28451883.33472884-.29288703.9539772-.26778243l.64435301.0251046-.21757374.43514646c-.25104664.50209206-.66945769.9037657-1.17991917 1.12133893-.4016746.18410042-1.21339204.26778243-1.58159376.16736402zM155.06258357 52.65690428c-1.14644628-.30962344-1.86611328-1.25523015-1.8744815-2.4769875 0-.8200837.23431018-1.37238496.794981-1.87447702.4853568-.43514646 1.01255473-.63598328 1.6736442-.63598328 1.3974929 0 2.41841586 1.05439333 2.41841586 2.4769875v.45188285h-1.84100862c-1.01255474 0-1.84100862.0167364-1.84100862.041841 0 .11715482.25104663.51882847.4351475.68619249.41004282.37656904 1.34728357.41841005 1.73222174.0753138.10878687-.1004184.3179924-.13389121.74477167-.13389121.33472884 0 .60251191.0334728.60251191.0669456 0 .17573223-.54393436.8033473-.88703143 1.02092053-.36820172.23430963-1.02092296.42677825-1.3974929.41004185-.10041865 0-.35146528-.0502092-.56067081-.10878661zm1.65690776-3.3138076c-.25941485-.75313809-1.3974929-.8702929-1.98326838-.20920502-.14225976.16736401-.25941485.33472803-.25941485.37656904 0 .0502092.4769886.08368201 1.16318272.08368201h1.17155094zM166.6693061 52.69037708c-1.40586113-.35146444-2.25105145-1.79079501-1.85774506-3.14644358.33472884-1.16317993 1.27196959-1.87447702 2.46025697-1.87447702.64435302 0 1.17991916.19246862 1.6318031.59414227.34309706.30125524.719667.9037657.719667 1.14644354 0 .0669456-.19246908.10041841-.60251191.10041841-.58577547 0-.61924836-.0083682-.92050431-.30962344-.25941485-.25104603-.38493817-.30962343-.7531399-.34309624-.36820172-.0251046-.49372503 0-.72803522.16736402-.4769886.32635984-.6359848.60251047-.6359848 1.13807534 0 .63598327.21757375 1.00418412.72803523 1.25523015.5188297.25941423.9539772.20083682 1.38075647-.20083683.28451951-.26778243.32636062-.28451883.9205043-.28451883.60251192 0 .61924836.0083682.56067081.19246862-.17573264.56903767-.69456234 1.12133894-1.29707425 1.38912137-.46025216.20083682-1.17155094.28451883-1.60669843.17573222zM172.35969638 52.69037708c-.76987633-.19246862-1.41422935-.73640169-1.7489582-1.46443517-.2426784-.52719667-.25941484-1.5732218-.03347288-2.08368205.38493817-.8702929 1.32217892-1.47280338 2.30126078-1.47280338 1.37238824 0 2.309629.92050211 2.41841587 2.36820088l.0418411.56066947H173.481038c-1.32217892 0-1.84937684.0251046-1.84937684.09205021 0 .19246862.32636062.61924688.5941437.7782427.38493816.22594142 1.04602762.21757322 1.44770222-.0167364.24267841-.14225942.44351572-.18410043.89539965-.18410043h.58577547l-.12552331.24267783c-.46862038.9037657-1.65690776 1.43096237-2.6694625 1.17991634zm1.61506665-3.17991638c0-.16736402-.2008373-.50209206-.36820172-.61924687-.51046148-.32635984-1.22176027-.21757323-1.6318031.24267783-.14225976.16736402-.25941485.33472804-.25941485.37656904 0 .0502092.46025216.08368201 1.12970984.08368201.66108945 0 1.12970983-.0334728 1.12970983-.08368201zM177.46431119 52.65690428c-.5188297-.14225942-.97071364-.51046026-1.20502383-.97071132-.3179924-.61087867-.28451951-.66945608.38493817-.66945608.51046148 0 .58577547.0167364.6359848.16736402.10041865.32635984.38493816.50209206.80334921.50209206.46862038 0 .66108946-.15062762.66108946-.50209206 0-.30962344-.2008373-.44351465-.91213609-.61924687-.719667-.18410043-1.04602762-.35146445-1.34728358-.68619249-.20920552-.24267782-.25104663-.35983264-.25104663-.73640168 0-.58577407.23431019-.93723852.82845388-1.23849375.57740725-.29288704 1.36402002-.31799164 1.93305905-.0585774.46862038.20920502.64435302.36820083.84519032.76150628.26778307.51882846.23431019.56903767-.37656994.56903767-.48535682 0-.56067081-.0251046-.78661278-.25104603-.42677927-.41841005-1.18828738-.31799164-1.18828738.15899582 0 .32635984.13389154.41004185.88703143.60251047 1.17155094.29288704 1.62343487.71129709 1.62343487 1.48953978 0 .37656904-.21757375.8786611-.4769886 1.11297073-.42677927.38493725-1.38912468.56066947-2.05858236.36820085zM98.99550287 49.17573266v-3.51464442h1.42259757c.77824455 0 1.60669843.041841 1.84100862.09205021.57740725.12552302 1.0795005.51882846 1.36402002 1.07949793.21757375.41004185.2343102.52719666.2008373 1.08786613-.03347288.74476989-.22594196 1.17154814-.719667 1.6150628-.45188393.40167364-1.01255474.56066946-2.0334777.56066946h-.82008566v2.59414231h-1.25523315zm3.20502864-.50209206c.45188394-.35983264.49372504-1.17154814.08368221-1.55648539-.2008373-.18410042-.28451951-.20083682-1.12134161-.20083682h-.91213609V48.84100462h.87029498c.73640345 0 .89539965-.0251046 1.07950051-.16736402zM104.85325757 49.13389165v-3.55648542h1.25523315v1.33891216c0 1.07949793.02510466 1.33891216.1171551 1.33891216.05857754 0 .16736441-.0585774.22594196-.14225942.34309706-.41004185 1.43933401-.57740587 2.06695059-.31799163.93724075.39330544 1.18828738 1.13807533 1.18828738 3.53974902v1.35564856H108.37627861l-.02510466-1.6903766c-.02510466-1.84100422-.05857755-1.98326364-.50209326-2.16736406-.29288774-.11715481-.8368221-.0251046-1.12134162.20083682-.4435157.34309624-.53556614.71129709-.53556614 2.25941427v1.39748957h-1.33891536zM120.92024189 50.17991678v-2.5104603h1.25523315v5.0209206h-1.25523315zM134.47675991 49.13389165v-3.55648542h1.25523315v7.11297085h-1.25523315zM150.96215528 50.17991678v-2.5104603h1.25523315v5.0209206h-1.25523315zM158.99564744 50.17991678v-2.5104603h.9958183l.05857755.29288704c.02510466.15899581.0836822.30962343.11715509.33472804.03347288.0251046.25941485-.09205022.49372504-.25104603.49372504-.32635984.8368221-.41004185 1.4728069-.35983265.61088013.0502092 1.06276406.35983265 1.3556518.92887031.23431019.42677825.23431019.45188286.25941485 2.25941427l.02510466 1.81589962h-1.24686493l-.03347288-1.6066946c-.02510466-1.7991632-.09205043-2.04184104-.56903903-2.24267786-.53556614-.22594143-1.17155094.0502092-1.46443867.63598328-.14225976.27615063-.16736442.53556486-.19246909 1.7740586l-.03347288 1.43933058H158.99564744zM120.94534655 46.79079538c-.25941485-.25941424-.29288773-.33472804-.25104663-.60251048.06694577-.39330544.3598335-.68619248.7531399-.75313809.26778307-.041841.34309705-.0083682.6025119.25104603.42677928.42677825.3598335 1.02092053-.13389153 1.28033476-.38493817.19246862-.65272124.14225941-.97071364-.17573223zM150.99562816 46.79916358c-.36820172-.36820085-.37656994-.69456069-.0418411-1.07112973.2008373-.22594143.30125596-.27615064.59414369-.27615064.8368221 0 1.13807806 1.12970714.41004283 1.51464439-.37656995.19246862-.65272124.14225941-.96234542-.16736402zM111.64825302 44.25523047c-.73640345-.26778243-1.18828738-.8033473-1.18828738-1.43096237 0-.28451883.0418411-.36820084.29288774-.56066947l.29288773-.21757322-.25104663-.29288704c-.36820172-.41004185-.35146528-.8368201.0418411-1.27196655.2008373-.21757322.26778308-.35146444.2008373-.38493724-.05020932-.0334728-.16736441-.21757323-.25104662-.41004185-.37656995-.8284519-.0418411-1.73221761.794981-2.15899586.55230258-.28451884 1.24686492-.29288704 2.10879169-.0251046.12552331.041841.28451951-.0334728.56903902-.25104603.22594197-.16736402.41004283-.29288704.41841105-.27615064.00836823.0167364.14225976.18410042.29288774.38493725l.2761513.35146444-.38493817.17573222c-.20920553.09205021-.38493817.17573222-.38493817.19246862 0 .0167364.05857755.16736402.12552332.32635984.16736441.40167365.1589962.7782427-.03347289 1.18828455-.33472884.71966528-1.02092296 1.07949792-2.10042347 1.07949792-.66945768.0083682-.71129879.0167364-.73640345.19246863-.0418411.27615063.25941485.35983264 1.23012849.35983264.89539965 0 1.3974929.17573222 1.70711708.59414227.2343102.32635984.32636062.8619247.21757375 1.27196655-.13389154.50209206-.33472884.7447699-.84519032 1.02092053-.37656995.20920502-.55230259.25104603-1.1966556.26778243-.57740725.0251046-.85355855-.0083682-1.1966556-.12552302zm1.8744815-1.14644353c.16736443-.10878662.20920553-.19246863.18410087-.40167365-.03347289-.35983265-.29288774-.47698746-1.10460517-.47698746-.7531399 0-.97071364.11715481-.97071364.51882846 0 .20083683.05857755.26778243.3598335.41004185.41841105.20083683 1.1966556.17573222 1.53138445-.0502092zm-.17573263-3.68200845c.58577547-.57740586-.2008373-1.33891215-1.07950051-1.04602512-.50209326.16736402-.62761658.68619248-.25941485 1.04602513.16736442.17573222.2845195.20920502.66945768.20920502.38493816 0 .50209326-.0334728.66945768-.20920502zM149.44750728 44.28870328c-.7531399-.26778244-1.17155094-.69456069-1.28033781-1.32217576-.05020933-.27615064-.02510467-.35146444.25104663-.65271968l.30962417-.34309624-.17573264-.18410042c-.43514749-.46025106-.4016746-1.06276153.075314-1.40585777l.25104662-.17573222-.16736442-.18410042c-.22594197-.24267783-.34309706-.57740587-.34309706-1.02092053 0-1.26359835 1.30544248-2.00836824 2.7531447-1.57322178l.4351475.12552301.41841105-.29288703.41004283-.30125524.25104663.35146444c.28451951.39330545.25104663.50209206-.21757375.65271968-.27615129.09205021-.27615129.10041841-.16736442.31799164.19246909.38493724.22594197.67782428.12552332 1.04602512-.13389154.51046026-.42677927.8535565-.97071364 1.11297074-.41841105.20920502-.56903903.23430962-1.21339204.22594142-.719667-.0083682-.73640345 0-.73640345.19246863 0 .29288703.23431019.36820084 1.17991916.36820084.70293056 0 .92887253.0334728 1.22176027.17573222.66945768.32635984.97071363 1.21338915.66108946 1.94142263-.1589962.38493725-.65272124.7866109-1.1548145.93723852-.5188297.15062761-1.49791156.15899581-1.91632261.0083682zm1.53138444-1.05439333c.35146528-.10041841.52719793-.33472804.45188394-.61924687-.06694577-.27615064-.3933064-.38493725-1.12970984-.38493725-.58577547 0-.66945768.0167364-.85355854.21757323-.18410086.19246862-.19246908.22594142-.06694577.43514645.20920553.37656904.92887253.53556486 1.59833021.35146444zm.05857755-3.74058585c.28451951-.24267783.30962418-.62761507.06694577-.9037657-.17573264-.20920503-.26778307-.24267783-.66108946-.24267783-.62761658-.0083682-.90376787.17573222-.90376787.61924687 0 .25104603.05020933.35983264.21757375.49372386.29288773.22594143 1.02092296.24267783 1.2803378.0334728zM98.99550287 38.88284543v-3.51464442h4.60252155v1.17154814h-3.26360619v1.6736402h3.01255956v1.17154814h-3.01255956V41.1422597h3.43097061v1.25523015h-4.76988597ZM104.76957536 39.88702955v-2.5104603h.49372504c.48535682 0 .50209326.0083682.55230258.25941423.075314.32635984.25104664.39330545.48535682.17573222.74477167-.67782428 1.93305905-.67782428 2.61925318.0167364.53556614.52719667.61924835.92050211.61924835 2.91213395v1.6569038h-1.25523315v-1.48117158c0-1.6401674-.06694577-2.02510464-.39330639-2.28451887-.28451951-.22594143-.87029498-.22594143-1.2384967 0-.49372504.30962344-.57740725.61087867-.61088014 2.28451887l-.03347288 1.48117158H104.76957536zM116.06667371 39.88702955v-2.5104603h1.25523315v5.0209206h-1.25523315zM118.66082222 39.88702955v-2.5104603h.98745008l.05020932.29288704c.06694577.35146444.1589962.35983264.58577547.041841.44351572-.34309624 1.09623696-.47698746 1.65690776-.34309624.58577547.13389122.96234542.44351465 1.23012849 1.00418412.20920552.45188285.21757374.52719666.2426784 2.25104607l.0334729 1.77405861h-1.35565181v-1.6317992c0-2.08368204-.08368221-2.30125527-.93724075-2.30125527-.48535682 0-.87029499.25104603-1.07113229.69456068-.14225976.30125524-.16736442.55230127-.16736442 1.79916322v1.43933057h-1.25523315zM126.19222112 42.32217604c-1.09623695-.35983264-1.74895819-1.18828454-1.82427218-2.31799168-.05020932-.77824269.12552332-1.32217575.61088013-1.85774062.5188297-.57740587 1.0711323-.8117155 1.88284973-.8033473.39330639.0083682.74477167.05857741.94560897.15062762.41841105.18410043.9539772.67782429 1.13807806 1.04602513.17573264.33472804.34309706 1.05439332.34309706 1.43096237v.25104603h-1.84100862c-1.77406285 0-1.84100862.0083682-1.84100862.16736402 0 .24267783.46862038.72803349.81171744.8451883.39330638.12552302.98745008.0502092 1.28870603-.16736402.18410086-.14225942.3598335-.17573222.82845388-.17573222h.5941437l-.1924691.34309624c-.38493816.69456068-1.0795005 1.09623433-1.94979548 1.12970714-.3179924.0167364-.6778259 0-.794981-.041841zm1.75732641-3.14644358c0-.16736402-.29288774-.56066946-.50209326-.66945608-.30962418-.15899581-.86192676-.15899581-1.17155094 0-.23431019.12552302-.58577547.50209206-.58577547.63598328 0 .041841.51046148.07531381 1.12970984.07531381.61924835 0 1.12970983-.0167364 1.12970983-.041841zM131.70687876 42.26359863c-.46862038-.14225941-1.18828738-.76150629-1.41422935-1.20502094-.37656995-.73640169-.35146528-1.76569041.05020933-2.5188285.43514749-.7866109 1.13807805-1.18828454 2.12552813-1.19665274 1.3974929-.0083682 2.31799722.8535565 2.41004765 2.27615067l.0418411.60251047h-3.71549012l.05857755.19246862c.25104663.8033473 1.3974929 1.16317994 2.10879169.65271968.19246908-.13389121.37656994-.17573222.80334921-.17573222.6359848 0 .66945768.0502092.30962418.52719666-.64435302.8535565-1.70711708 1.17991634-2.77824937.8451883zm1.8744815-3.18828458c-.10878687-.41004185-.53556614-.69456068-1.02929118-.69456068-.46862038 0-.87029498.20920503-1.09623695.56903767l-.17573264.26778243h1.17155094c1.0795005 0 1.17155094-.0083682 1.12970983-.14225942zM135.81567527 39.88702955v-2.5104603h.49372504c.4769886 0 .49372504.0083682.58577547.25104603.0418411.14225942.12552331.25104603.17573264.25104603.05020933 0 .29288774-.11715481.54393437-.25941423.2845195-.15899582.61924835-.26778243.91213608-.30125524l.46862038-.0502092V38.54811739h-.46025216c-.53556614 0-.85355854.13389122-1.16318271.50209206-.21757375.26778243-.21757375.26778243-.21757375 1.80753142v1.53974898h-1.33891536zM139.91610356 39.88702955v-2.5104603h1.25523315v5.0209206h-1.25523315zM142.51025207 39.88702955v-2.5104603h.98745008l.05020932.29288704c.06694577.35146444.21757375.37656904.53556615.083682.23431019-.22594142.89539964-.46025105 1.26360137-.46025105.73640345 0 1.3556518.40167365 1.6736442 1.07949793.20920552.45188285.21757374.52719666.2426784 2.25104607l.02510467 1.77405861h-1.34728358v-1.6317992c0-1.7322176-.05020933-2.02510464-.41004283-2.21757326-.26778307-.14225942-.86192676-.10041841-1.1548145.08368201-.50209326.30125524-.56903902.53556486-.59414369 2.24267787l-.03347288 1.52301258H142.51025207zM157.47263122 42.31380784c-.82845388-.25104603-1.28033782-.97907952-1.07950051-1.7322176.10041865-.35146445.4769886-.7615063.91213609-.97907952.32636062-.16736402 1.38912468-.38493725 1.86611328-.38493725.3179924 0 .32636062-.0083682.2761513-.22594143-.08368222-.39330544-.40167461-.61087867-.87866321-.61087867-.33472884 0-.46025216.041841-.62761658.20920502-.18410086.18410043-.28451951.20920503-.794981.20920503-.65272123 0-.66108945-.0167364-.3598335-.59414227.50209327-.98744772 2.47699342-1.22175735 3.27197442-.39330545.48535681.51882846.55230258.7447699.59414369 2.07531385.01673644.66945608.06694577 1.28033475.1171551 1.36401676.0418411.07531381.16736441.14225942.27615128.14225942.2008373 0 .20920553.0251046.20920553.51046026v.51046026l-.39330639-.0585774c-.48535682-.06694561-.82845388-.24267783-.94560897-.46025106-.09205043-.16736402-.10041865-.16736402-.4016746.0753138-.16736443.13389122-.4351475.28451884-.5941437.33472805-.32636062.10878661-1.1129734.10878661-1.44770223.0083682zm1.36402002-1.04602513c.30125596-.15899581.57740725-.58577406.57740725-.9037657 0-.23430963-.00836822-.24267783-.35146528-.18410042-1.09623695.15899581-1.48954334.35983264-1.48954334.75313809 0 .41841005.72803523.61087867 1.26360137.33472804zM162.008207 39.88702955v-2.5188285l.5188297.0251046c.50209326.0251046.5188297.0334728.58577547.30125524.0418411.14225942.10041865.26778243.14225976.26778243.0418411 0 .26778307-.12552302.50209326-.28451883.87029498-.58577407 2.05021414-.45188286 2.60251673.30125523.38493817.51882846.44351571.8535565.48535682 2.68619252l.03347288 1.73221761h-1.3556518v-1.5983264c0-1.7322176-.05857755-2.04184103-.46025216-2.25104606-.30125595-.16736402-1.00418651-.0669456-1.27196959.17573222-.39330638.36820085-.44351571.61924688-.44351571 2.20920507v1.46443517H162.008207zM169.45592369 42.32217604c-.6778259-.21757323-1.32217892-.8368201-1.53975266-1.48953978-.20920553-.60251047-.17573264-1.56485358.06694576-2.07531385.4351475-.9372385 1.12970984-1.41422596 2.05858237-1.42259417.45188393 0 .61088013.04184101.94560897.23430963l.39330639.23430963V35.200837h1.25523315v7.19665286h-.49372504c-.4769886 0-.49372504-.0083682-.53556614-.25104603-.06694577-.30962344-.13389154-.30962344-.56903903-.0251046-.26778307.17573222-.46862038.23430962-.86192676.25104603-.2761513.0083682-.60251192-.0083682-.71966701-.0502092zm1.30544248-1.23012555c.77824455-.36820084.8368221-1.86610882.10041865-2.40167368-.15062798-.11715482-.35146528-.16736402-.61088014-.15899582-.7615081.0083682-1.21339204.51882846-1.21339204 1.36401676 0 .99581592.87029498 1.5983264 1.72385353 1.19665274zM116.11688304 36.46443534c-.33472884-.35146444-.32636062-.8033473.02510466-1.11297073.55230258-.49372386 1.34728358-.16736402 1.34728358.56066946 0 .7364017-.86192676 1.07949793-1.37238824.55230127zM140.008154 36.48953994c-.21757375-.17573222-.25941486-.27615063-.25941486-.57740586 0-.30125524.0418411-.40167365.25941485-.57740587.3598335-.30125524.80334922-.30125524 1.09623695.0167364.33472884.35146444.34309706.8033473.01673644 1.13807533-.30125595.29288704-.7615081.30125524-1.11297339 0z"/></g><path fill="#bcbebb" d="M55.56443588 47.0000004V27.00000001h15.8996199v2.21757326c0 1.91631803.01673644 2.21757327.12552332 2.21757327.10878687 0 .12552331 1.52301258.14225975 13.03765716l.02510466 13.02928895 9.69039992.0251046 9.6820317.01673641V67.00000079H55.56443588Z"/><path fill="#7a7d78" d="M71.52263333 57.73640228c-.03347289-.0251046-.05857755-5.9581591-.05857755-13.17991657V31.43514654h19.66531935v26.35983315H81.355293c-5.3807661 0-9.80755501-.0251046-9.83265967-.0585774z"/><path fill="#fff" d="M23.9325605 56.12133949v-6.94560683h2.7866176l2.77824936-.0083682-.75313989-.19246862c-2.44352053-.63598328-4.19247872-2.24267787-4.67783553-4.31799172-.10878688-.45188285-.13389154-1.29707116-.13389154-4.9623432V35.284519l2.0753188.0167364 2.0669506.0251046.0418411 4.35146453c.05020933 4.82008377.02510466 4.63598335.61088013 5.28870303.16736442.18410042.5188297.43514645.78661278.57740587.45188393.22594142.55230258.24267783 1.44770223.24267783.81171744 0 1.02092296-.0251046 1.3556518-.18410043.55230259-.25104603 1.10460517-.7949791 1.33054714-1.30543935l.2008373-.43514645.02510467-4.29288712.02510466-4.28451891h8.02512394v2.92887035c0 1.6150628.02510466 2.92887035.06694577 2.92050215.03347288 0 1.28033781-1.31380756 2.77824937-2.92050215l2.71967182-2.92050215 2.09205525.0167364 2.09205525.0167364.02510467.40167365.02510466.40167365-2.9874549 3.05439337-2.9874549 3.05439336.66945769.68619248c.36820172.37656905 1.70711708 1.75732221 2.9874549 3.06276157l2.30962899 2.37656908-.01673644 1.80753142L51.6732131 51.97908l-2.40167942.0251046-2.41004765.0167364v8.20083698l2.41004765.0167364 2.40167942.0251046.02510467 1.40585777.01673644 1.39748957H33.68153797l-1.89958617-2.5523013-1.90795439-2.55230131H28.116671v5.10460261h-4.1841105Zm16.2594534 4.1171549 2.40167943-.01673641V52.020921h-4.45189357l.05020932.23430963c.03347289.12552301.075314.58577407.10041866 1.02092052.13389153 2.22594147-.9121361 3.62343103-3.21339687 4.29288711l-.66108946.19246863 1.64017132 2.15062765 1.64017131 2.15062766.04184111-.9037657.0418411-.89539752zm-7.0544103-5.33891225c.48535682-.22594142.71129879-.48535565.8368221-.9456067.19246908-.7196653-.09205043-1.38075317-.73640345-1.69874481-.37656994-.18410042-.48535682-.19246862-2.7531447-.21757323l-2.36820655-.0251046v3.12133898l2.32636544-.03347281c2.1506328-.0251046 2.34310188-.041841 2.69456716-.20083683zm4.60252155-6.6945608V45.2175736l-.30125596.61087867c-.76987633 1.52301258-2.57741206 2.79497913-4.57741688 3.21338918l-.49372504.10041842.9539772.1004184c1.85774505.19246863 3.17155575.68619249 3.9498003 1.48953979.2343102.24267783.4351475.44351465.45188394.44351465.00836822.0083682.01673644-1.33054396.01673644-2.97071136zm9.3221982.53556487c-1.50627979-1.6317992-5.07951015-5.42259425-5.10461482-5.42259425-.01673644 0-.03347288 1.32217576-.03347288 2.92887035v2.92887035h5.54813052z"/></svg>