<svg xmlns="http://www.w3.org/2000/svg" version="1.0" viewBox="0 0 200 100"><path fill="#363a32" d="m87.764804 88.976627-.119996-.02024-.0727-.03748-.0727-.03748-.251236-.192774-.602456-.623818.01274-.149227.01274-.149302.01499-2.372874.01499-2.372799 1.238715-1.089188.02099-.147504.05921-7.251584.05921-7.251509v-.74951l.322364-.395666.322364-.395742.181831-.190001.181906-.19.158597-.101109.387122-.36014.271022.03972.270948.03972.556661.03223.02174.03448-1.78893 1.828055-.01124.09061-.01124.09069-.02548 2.47001-.05621 5.72191-.05621 5.721984-.000225.491903-.000225.491979 1.206111 1.10088-.01349 1.087764-.01349 1.087689-.02848 2.888386-.685877.669463-.143081.07585-.143157.07578-.348147.06221h-.747786l-.120072-.02024zm-5.749116-2.878643-.158597-.02024-.231373-.112726-.178908-.155448-.178908-.155449-.215709-.235421-.215709-.235346.01874-2.49272.01799-2.492721.01124-.04497.01124-.04572 1.219902-1.063555.01124-.114075.01124-.114001.04872-6.129868.04872-6.129792.02923-1.774315 3.233986-3.267714h.05696l.06146.141657.06146.141658.291709.510791v.03373l-.977511.974063-1.901656 1.933061-.111602 12.343306-.000225.737143-.0003.737143 1.202364 1.086415-.02398 2.062127-.01424 1.51356-.01424 1.513561-.643529.614148-.193898.13019-.237745.08897-.43584.04872-.44371-.0075-.158596-.02024zm16.565221-1.898434-.18131-.01349.0142-2.062127.0322-3.909069.0322-3.908995.00023-.272447.00022-.272521-2.944147-2.854135.01274-1.144426.01349-1.144352.01424-1.846868.01424-1.846867h.861112l.02249 5.644409 2.651395 2.530571.10163.09706-.045 5.20025-.045 5.20025-.0112.6119-.36261.0075-.18123-.01349zm-5.059043-.410207-.05097-.02099.0075-9.637274.0075-9.637275.197496-.104632.197496-.104631.149377-.09369.149378-.09369h.06521l-.0075 9.851935-.0075 9.851934-.328585.0075-.328586.0075zm12.775174-.451654-.26061-.01274-.007-.249212-.008-.249287.0382-4.447742.039-4.447668-.0991-.08702-.099-.08702-1.97151-1.728445-.83847-.0075-3.01393-.03223-.0337-.01874-.0337-.01874-2.578844-2.62411.01649-2.191192.01649-2.191118.01049-.01724.01049-.01724h.81456l.012.03223.012.03223-.0927 3.818604.32507.343875 1.994444 2.028174h1.611l2.28608.02998 2.47885 2.231741.0127.02024.0127.02024-.0442 4.916111-.0442 4.916036-.0105.02848-.0105.02848-.28466-.009-.2606-.01274zm5.06946-1.581766-.009-.01724.06-6.662319.0195-2.096155.0195-2.096155-1.57832-1.613095-3.68331-.03073-4.9401-.04572-1.940181-1.959069.0135-1.144352.0135-1.144352.0157-.01499.0157-.01499.793131-.01574v.385248l-.0187.716831-.0187.716832 1.60103 1.625537 1.29215.02848 7.33966.05846 1.52098 1.544515.41987.434266-.0495 4.981769-.027 3.161208-.027 3.161283-.018.02848-.018.02848h-.78773zm-35.217527-.210538-.133413-.02099-.109503-.06296-.109429-.06296-.299654-.249288-.477587-.511315.02848-3.340941.01349-.862087.01349-.862086 1.235193-1.085815.01574-1.586263.01574-1.586338.02099-3.013855.02099-3.013929.000375-.580046.000299-.579971 4.995859-4.913113 1.338475-1.314341 1.699814-1.654243 1.20019-1.152222.512515-.468069h.06521v.04647l-.122845.163543-.122845.163618-.126892.202367-.126817.202443-.147428.289836-.147354.28991-.199295.511016-.06221.209038-.06221.209039-7.426296 7.286661-.408707.385248-.04422 4.82677-.04422 4.826844-.000674.271922 1.203263 1.087764-.01574 2.300096-.01574 2.300097-.01424.252435-.01424.25251-.682579.650724-.239694.129965-.233397.06671-.861112.01574-.133413-.02099zm50.466157-1.211358-.2696-.03073-.1014-.105531-3.13858-3.648464-.033-.03822-.033-.03822.10628-.820114.10628-.820039-.11003-.115874-.10995-.115875-1.42767-1.452175-6.02037-6.192602-.68737-.02623-6.59434-.04872-4.6229-.04272-1.16212-.0006-1.37588-1.18445-.018-.419276-.018-.419201.01-.02623.0105-.02623.3109-.06146.50854-.144205.0202.01274.0195.01274.0285.339978.0704.271922.0831.121571.0831.121645.19203.21346.26862.143232.38.08852.4306.04797.74779.04422 1.83554.04647 4.46424.04497 5.48401.05022.36779.369733 6.56653 6.747164.9982 1.022407 1.33585.05771H125.5348l3.24913 3.773109.0315.03673.0315.03673-.0712.88622-.0345.131989-.0345.131989-.0727.122095-.0727.12217-.40849.412905-.38465.290285-.20394.09316-.67988.0097-.2696-.03073zm3.11639-3.873692-.2352-.02623-.0397-.04947-.0397-.04947-3.18864-3.699432-.007-.0712-.007-.0712.10028-.759103.10021-.759179-.40166-.407884-.40167-.407883-5.94901-6.050569-.80152-.02773-7.36484-.05397-.18131-.0082v-.834729l1.33706.0082 5.66524.04497 1.82101.02848 7.01084 7.121694.29756.01424.29756.01424.46776.01649.4677.01649.0217.01424.0217.01424 3.29042 3.817929-.0195.147654-.024.328585-.024.328585-.0307.150202-.0307.150127-.057.111902-.057.111826-.27769.3064-.16317.147429-.16317.147428-.32963.221181-.0845.02323-.0845.02323h-.70244zm-59.369739-2.393186-.119396-.02099-.146455-.06146-.350021-.281666-.502846-.529828.01574-2.418594.01574-2.418594.01424-.124718.01424-.124644 1.223725-1.078995.01274-1.335776.01274-1.335702 11.735228-11.708096 2.402105.01799 3.64839-.03448.940485-.03073v.04347l-.192624.05696-.430594.159946-.440112.197346-.210463.116324-.210537.116399-.226577.148103-.226652.148103-4.192309-.121496h-.332632l-2.43201 2.366054-8.172882 8.160065-.823562.856015-.01499 2.204534 1.204387 1.099606-.000299.32199-.0003.321989-.02174 2.209481-.02174 2.20948-.692322.679806-.242092.12989-.233397.06671-.883823.01649zm62.505989-5.234727-1.4503-.01499-.4557-.0075-1.07083-1.216829-.30902-.02923-.82019-.00045-6.85389-6.951705-1.39035-.02848-6.43574-.04947-2.76464-.02923-.0127-.812394.0352-.03523 3.14989.04122 5.8012.04572 2.09893.02848 6.85225 6.950656.65717-.00045 1.08776-1.199441h1.51828l3.5562.03598.68146.699592.0615.114076.0615.114075.036.134312.036.134237.0262.725151-.0255.178384-.0255.178383-.0412.09354-.0412.09361-.32259.385248-.47879.441836-1.71015-.009-1.45031-.01499zm-42.421519-4.82662-.294557-.01724-.570227-.09646-.20709-.05546-.207165-.05546-.221555-.08245-.22163-.08245-.477887-.243366-.40586-.269224-.362613-.292609-.386447-.402112-.281891-.371008-.257532-.422124-.236995-.498499-.104706-.308948-.104632-.308948-.06596-.302952-.06596-.302877-.07525-.65717.01124-.543845.01124-.543919.09661-.543844.1134-.441462.0793-.22118.07937-.221106.312396-.634535.158371-.237894.158371-.23797.18498-.220805.184979-.220731.202068-.181157.202067-.181231.181307-.134387.181381-.134462.386747-.233623.554638-.265101.309697-.103433.309698-.103357.672235-.133563.252286-.02698.252285-.02698 1.081767.02249.430519.07832.595785.149302.537324.212936.212411.112351.212411.112352.3456.231523.226651.181981.237895.228376v.05846l-.853542 1.144427-.194648.134837-.309847.01724-.284889-.133337-.490779-.308124-.154025-.06446-.154024-.06446-.209038-.05621-.209039-.05621-.459974-.05396-.283315.01349-.283239.01349-.376779.0727-.393718.13821-.360889.186852-.341552.256408-.128091.133038-.128091.133038-.114675.154998-.1146.154999-.123145.241567-.123069.241567-.06971.21526-.0697.215259-.04947.226652-.06371.475864v.747786l.03223.241042.03223.241043.04497.189551.04497.189476.06146.169989.06146.169914.180482.362612.120746.181307.120746.181231.213835.241942.410132.317043.228151.111377.228225.111452.226053.06146.226052.06146 1.065129.00045.394617-.09969.362613-.139859.35152-.2295.247638-.201693.09226-.04797.09226-.04872h.271922l.142557.07608.931716.974737.04797.08904-.109654.131614-.109578.131614-.447832.423473-.250112.166541-.250036.166467-.521209.248387-.407959.134762-.521209.116474-.56648.06596-.634535.01949-.294557-.01724zm14.763919-.03823-1.07607-.0075-.32918-.327011v-.0727l.28324-.230699.34942-.343725h.0525l.15485.135961 1.66399.0075.3399.02848v.815767h-.36254l-1.07615-.0075zm-9.581282-.07862-.02698-.02698V53.792229l.03298-.02773.03298-.02698 4.409672.01874.56647.07855.52121.113626.60658.200944.59451.286462.20732.128541.20739.128616.20461.158147.20462.158146.42505.420251.25371.32079.1406.213535.14061.213461.30978.634535.20229.611825.0955.444385.0675.575099v.77102l-.0345.292984-.0345.292983-.11603.517312-.18115.525257-.20619.449781-.072.127716-.072.127792-.17404.271922-.26098.342901-.35557.378727-.40788.340653-.47586.312545-.63454.310447-.23617.0814-.23617.0814-.22155.05621-.22163.05621-.53478.08957-.725151.04572h-3.967981l-.02698-.02698zm4.357721-1.833376.203951-.02473.42047-.10643.21346-.101109.21346-.101109.13147-.08672.13154-.08672.20079-.192924.20087-.192849.29441-.442285.19764-.466346.11325-.428344.0367-.203942.0367-.203942.0127-.421374.0127-.42145-.027-.258431-.027-.258431-.0577-.259705-.0577-.25963-.0577-.159571-.057-.159496-.21795-.43524-.27485-.364787-.34335-.32064-.33001-.205666-.18633-.08072-.1864-.0808-.42715-.108379-.486951-.04872-1.65425.01349-.012 6.435742.0217.05696h1.75768l.20394-.02473zm-.67808-1.286384-.0157-.02548-.0502-2.396409.0142-.03748.0142-.03748.896121.01199.008 1.192471.007 1.192395-.0285.02249-.0285.02249-.158671.05696-.63971.02249zm1.719831-1.036872-.0165-.286163.0165-.557935.0165-.558011.0172-.01799.0172-.01799.13364.0075.13356.0075.007.339903.008.339903-.0495.385248-.0909.358416-.0652.143681-.0652.143756h-.0435zm6.68503 4.155808-.0105-.02848-.0112-8.203238-2.83262-.02249V53.7531h8.04471v1.88082l-2.83262.02249-.0225 8.248583-2.32408.01199zm27.20691-.879775-1.68692-.01649-.0956-.110028-.0956-.110028-.90061-1.019784-1.76608-.02773-2.24343-.0075-4.14696-4.176644-12.66755-.02698v-.883748l3.3312.0075 3.3991.05022 6.45846.05097.81576.821913 3.29425 3.313509 3.54938.03148 1.08776-1.202064h1.35969l3.71502.03748.68123.697045.12314.22965.036.134312.036.134237.0127.351295.0127.351221-.027.203941-.027.203942-.12195.213835-.12464.149827-.12457.149827-.5057.472267-1.69246-.0075zm-66.33126-.365611-.03073-.07495-.382026-.563107-.109653-.247863.414704-.414329.414704-.414254 12.165147-11.94584 9.623483-.01049h.487257v1.065054l-9.506111.01124-8.464141 8.235016-4.501857 4.420985-.08065.01349-.03073-.07495zm23.334121-2.029298-.01049-.01724-.01574-2.379394 1.006967.0075.03448.01349.03448.01349-.0075 1.553734-.01499.119697-.01499.119697-.339978.148403-.101933.06446-.102008.06446-.135962.10718-.135961.10718-.158596.09616h-.03148l-.01049-.01724zm13.931139-.104407-.0127-.03298.11468-.468594.0255-.169989.0255-.169914.0217-.05396.0217-.05396.55733.02173.0262.01649.0262.01649v.882548l-.057.01799-.73691.02848zm-38.317647-.405485-.009-.02848-.07915-.260605-.07915-.260605-.210463-.747861-.2669-1.065053-.179808-.815767-.16032-.817116-.134987-.791857-.136111-.929093-.115124-1.019708-.06821-.747861-.07195-1.042419-.01274-1.087689L66 49.401674l.02623-.543844.02623-.543845.0682-.906457.08912-.883822.115274-.906383.07802-.498574 1.19367.01724 1.037397-1.036647.000375-1.325883.000299-1.325884.04422-.65717.02473-.169914.02473-.169989.09062-.1909.144056-.08844.271922-.05022 1.065054-.02398 1.652669.03598.04047.158671.134762.453229.241642.498499.278743.42055.413354.432392.365536.273497.175236.102458.175235.102383-.01049.01649-.01049.01649-.262029.02773-.271922.0697-.4213.20664-.19802.196822-.197946.196746-1.233543 1.953748v.06746l.804449.790508.362613.289311.467769.305575.665265.339078.192624.07907.192624.079.567454.181231.610926.139409.528404.06895.31367.01424.313595.01424.657171-.05172.430593-.07195.58919-.150426.557561-.226727.476238-.264427.461848-.343126.368909-.347997h.02698l.0075.662791.0075.662867 12.214315.01274.28294-.07495.101183-.06671.101259-.06671.126443-.257532v-1.427666l-.03897-1.22365.03673-.04572.03673-.04497.03972.04572.03972.04647 2.173279 2.531919.296731.245465.217733.109278.217733.109279.425721.107255h2.719295l.007-.368234.008-.36831h.0645l.33556.167816.33555.16774.45316.168115.407961.125543.61182.139634.56656.07735h.95172l.45323-.05696.55381-.110477.26825-.08807.26833-.08814.23662-.111752.23662-.111827.43007-.262403.26562-.201993.0105.01049.0105.01049-.009 4.388981-.0285 1.450301-1.38232.02249-.008.651549-.007.651474h-.042l-.55808-.373931-.52106-.281216-.52121-.222904-.29268-.09504-.29269-.09504-.49662-.112126-.28609-.04347-.28616-.04347-.40789-.02473-.407961-.02473-5.098687.01349-.0075.350771-.0075.350695-.03822.03823-.357292-.196296-.407958-.187003-.226577-.08447-.226577-.0844-.770496-.193523-.01574-1.685124-.01574-1.685123-.04347-1.119843-.01499-.02398-.01424-.02323H80.202998l-2.447375 2.340495-2.062127 1.975558-1.359686 1.312542-1.518283 1.473762-2.92174 2.856457-2.286904 2.254751h-.06146l-.009-.02848zm26.148681-.157997-.01124-.02923.0075-.838401.0075-.838327h.543845v1.722224l-.533352.01274zm-3.985895-1.555533-.01274-.02024.02249-.178309.02248-.178233.03073-.124644.03073-.124643.114301-.305276.169913-.306624.34425-.340503.339903-.165192.144431-.03748.14443-.03748.03148.01199.03148.01199-.0075.402711-.0075.402712h-.929093l-.179582.07885-.04347.03898-.04347.03897-.06371.150877-.02473.460948-.03373.107405-.03373.10733-.01949.01199-.01949.01199-.01274-.02024zm46.423451-1.339299-1.32213-.01199-.17359-.203942-.9222-1.042419-4.25931-.03073-7.09292-.04797-8.13533-.04947-.057-.01799v-.882473l.0472-.02923 4.4287.04947 3.96566.04497 6.32242.06821 3.80706.04497h1.00577l1.10043-1.206336 2.60739.02773 2.45787.02773.67389.689474.16017.320266.0277.197795.0277.197721-.0217.798753-.0352.09759-.0352.09751-.0637.09511-.0637.09504-.6909.691198-2.4383-.0097-1.32221-.01199zm-14.12122-3.236234-.69119-.0075-7.13819-.05471-.008-.425422-.007-.425422.0727-.02773 3.47466.05322 5.73322.08837h.81585l.45323-.41358 1.13221-1.046765 1.72304-1.634607.79314-.759778 1.22372.02623 4.30811.02923 1.1059-1.211808 2.44925.02773 2.61639.02773.67388.689549.16025.320266.0277.19772.0277.197721-.0217.798828-.0352.09751-.0352.09759-.12636.190151-.69045.691123-2.2582-.0075-2.82243-.02773-1.09916-1.24636-2.76352-.02773-2.26059-.0082-.0962.08522-.99662.902934-.35107.328586-.351.328585-.68025.647352-.68026.647351-.90645.868383-2.08484-.0097-.69112-.0075zm-15.28101-1.810367-.015-.01499.0003-.545793.00038-.545719.0412-.06521.51341.09759 1.17838.04647 1.60897.04497 2.15275.04497 2.99129.05247 4.10162.0075.44619-.05771.0487-.02548.0487-.02548.29456-.254309.41928-.384498.4192-.384424 1.13303-1.066028 1.42767-1.356913.0682-.06296.0682-.06296.36239.06446h.83045l-.007.02848-.008.02923-1.83532 1.766595-1.72245 1.680627-.52481.482984-.49497.412605-.0682.03748-.0682.03748-1.81284.02923-11.58368.0075-.015-.01499zm-17.916135-.11505-1.029827-.0075-.01274-.02024-.01274-.02024.01124-.517762.01124-.517836h3.399178v1.087764l-1.337051.000749-1.029827-.0075zm19.306105-1.67403-.10193-.009-1.20102-.09346-.0142-.01574-.0142-.01574-.0397-.266376-.0397-.266375-.007-.350996.0367-.05696 1.57225.00045 2.17545.04572 2.5607.06746 2.65139.0712.10561-.0075.10568-.0075 1.83495-1.801522h1.27095l.0112.01799.0112.01799-2.6373 2.590832-4.12425-.02698-2.24351.05322-.28324.02249-.28324.02248-1.24636.01499-.10201-.009zm-1.36081-1.937858v-.03073l.007-1.019784.0195-.01949.0195-.01949 2.62141.100434.56655.155374.58919.108079.52121.05846h1.04242l.61183-.07495.37505-.0742.0157.01574.0157.01574-.7232.718255-2.22072.07847-3.45584.02249v-.03073zm-31.111413-1.666911-.101933-.0075-.477738-.06746-.564681-.137685-.237969-.08042-.237895-.08042-.725301-.352644-.475864-.318167-.147203-.130789-.147279-.130715-.01499-.03823.694571-1.098707.07495-.08282.0742-.08282.213985-.103058h.317193l.249287.115125.498574.308948.385248.193898.3441.135886.358341.0781h.67988l.354144-.09556.27492-.146529.195023-.195022.12142-.256632.06596-.366061-.02548-.324388-.04797-.129066-.04797-.12914-.13911-.141133-.139109-.141133-.156123-.08679-.156122-.08679-.217733-.08552-.217808-.08544-1.096383-.32004-.421899-.15275-.499174-.22283-.394167-.256857-.179957-.171937-.179958-.171938-.234297-.338928-.203042-.42857-.106355-.420475-.05022-.407884v-.543844l.03523-.21466.03448-.21466.132138-.394317.135137-.298155.244565-.373855.254159-.296582.176959-.149002.17696-.149003.158671-.102083.158596-.102083.362538-.180182.317268-.118948.430593-.111077.339903-.05996 1.087764.00045.490704.08222.529004.129366.376404.139034.346274.159945.365086.209488.414105.309923.02323.06071-.309098.575024-.309097.575024-.105232.105231-.105231.105306-.210312.05921-.256483-.02623-.25221-.130565-.30595-.158221-.30595-.158222-.430518-.140983-.453229-.05397-.362613.02998-.301678.06146-.250861.118722-.225377.202593-.112277.191874-.0727.246214v.346274l.03748.111677.03748.111677.164593.162868.164517.162869.256033.125993.256033.125917.998647.322215.521209.181156.383674.157847.453679.226727.158296.105681.158297.105606.391544.385248.181981.271997.187227.372431.108304.375355.02848.210238.02848.210162-.01349.379027-.01349.378953-.09144.420175-.06746.202143-.06746.202068-.223729.444609-.283764.39784-.440038.422424-.191949.127716-.191875.127642-.236021.112651-.235945.112577-.208514.0682-.208514.0682-.240218.04647-.240218.04647-.507568.04497-.430518-.0075-.102009-.0075zm25.935593 0-.0906-.0097-.24928-.03523-.24929-.03523-.2379-.05546-.23797-.05546-.49857-.165042-.246291-.108829-.24629-.108754-.22013-.124643-.22005-.124569-.36741-.262628-.126-.108829-.12607-.108754V45.230695l.73452-1.155669.21489-.144131.25566-.05696.29913.07787.702511.424448.12307.06146.12307.06146.19975.07713.19974.07713.32881.0727h.65717l.32042-.0712.29141-.133638.21106-.187902.1113-.192474.0427-.124644.0427-.124643.00045-.58919-.12689-.258506-.31577-.292309-.37311-.181906-.24928-.09534-1.15575-.341027-.45323-.162719-.29456-.141207-.29463-.141283-.317271-.226277-.23722-.213835-.13093-.173886-.13087-.173812-.0952-.183105-.0952-.18303-.0682-.203118-.0682-.203117-.0375-.225677-.0375-.225603v-.702516l.0607-.339902.13491-.430594.22388-.454728.14556-.193973.14555-.193898.19375-.183405.19367-.18333.412011-.275595.4156-.198171.3875-.136785.42797-.09189.47519-.05471.86186.02548.56513.09579.34942.08919.39979.141058.20394.09174.20387.09182.1927.113401.19262.113476.24929.179882.14728.138509v.04122l-.29921.558459-.2992.55846-.19892.213161-.19825.07563-.26502-.01874-.33706-.166541-.52113-.273122-.48921-.159496-.47774-.05022-.44086.05022-.1493.04647-.1493.04572-.13716.09159-.13709.09159-.0819.111602-.0819.111603-.0472.130864-.048.130864v.433667l.0682.133563.0682.133562.15523.130415.15529.13034.20702.100284.20701.10021.38525.138509.81225.254759.30774.114525.30768.11445.55643.263902.32732.216909.20101.193073.20102.193149.19885.278218.22328.469568.0926.366136.027.278143.027.278143-.027.309323-.027.309248-.0435.192624-.0435.192624-.0607.181306-.0607.181307-.25004.491379-.25806.347023-.12127.132213-.12127.132214-.37273.29111-.40758.240817-.47354.188577-.21339.05696-.21338.05696-.22643.03448-.22635.03448-.38525.009-.38525.009-.0906-.0097zm9.4044-.0082-.20401-.01874-.49813-.0742-.23632-.05771-.23632-.05771-.4569-.157997-.63446-.3058-.21211-.131464-.21211-.131539-.21848-.174036-.21841-.174036-.36644-.366511-.28751-.355942-.15575-.23797-.15567-.237969-.26848-.543844-.18587-.52121-.13222-.541221-.039-.261879-.039-.261953-.00052-1.133035.0798-.521209.0697-.28324.0697-.283315.18258-.498499.14196-.283239.14203-.283315.28099-.426996.12599-.160395.126-.160395.50412-.498574.3387-.256558.45143-.283539.59099-.28324.23617-.08177.23617-.08177.21706-.05471.21706-.05471.40788-.06895.58409-.05396.91156.02698.22657.03373.22665.03373.33991.0712.40788.118273.44566.176585.48343.241417.31727.194348.21526.158971.21526.158971.28406.285413.28399.285414.15095.202742.15088.202743.14188.238194.14188.238194.21301.477813.083.237969.083.237895.0555.226651.0555.226577.0697.42917.0225.348222.0225.348297-.0457.687226-.0952.56648-.0754.262029-.0754.261953-.0842.21391-.0842.213911-.13034.260604-.13034.260605-.31412.475864-.34177.407883-.33489.319741-.31726.25281-.23108.150876-.23107.150877-.32446.156722-.32454.156723-.2738.09159-.27387.09152-.24704.05546-.24696.05546-.54385.07195-.86111.01724-.20394-.01874zm.94101-1.973385.19203-.02323.37798-.08882.34462-.13806.36119-.213085.38562-.362613.25574-.343801.20783-.403985.0704-.201619.0705-.201693.0562-.278293.0562-.278368.0382-.659943-.018-.314495-.018-.314494-.072-.41313-.11437-.394692-.0712-.171188-.0712-.171263-.1101-.193224-.11018-.193299-.14923-.177409-.1493-.177409-.18386-.145554-.18378-.14548-.43059-.220581-.3791-.118947-.20702-.03748-.20701-.03748h-.74779l-.22665.04047-.22658.04047-.20394.0682-.20401.06821-.22658.113176-.36576.241642-.3501.353843-.22755.339903-.0899.187078-.0899.187152-.13446.411481-.0442.219007-.0442.219007-.024.220056-.024.220056v.563482l.024.234671.024.234672.0435.216758.0435.216759.0585.179807.0585.179808.19967.422423.1068.16062.10673.16062.13754.147579.13753.147578.34155.254159.36097.186703.36831.115425.37947.06895.15868.01724.54504.0075.19202-.02398zm-1.80826-2.111295-.0435-.09804-.048-.146904-.048-.146829-.0352-.189476-.0352-.189476v-.195098l2.29852-2.269966h.048l.32843.157398.18513.148552.17629.221181v.04572l-2.73062 2.746954-.027.0075-.027.0075zm-29.296252 3.964833-.01049-.02848.0075-5.042104.0075-5.042104h6.526433v1.79028l-4.146964.02248v2.334049l3.172526.02249v1.744859l-3.172526.02248v2.356759l4.146964.02249v1.812914l-6.516465.01124zm7.840774.000225-.01049-.02848.0075-5.042104.0075-5.042104h1.586263l.217583.100434.224703.239469 4.747021 6.002076.04647.01499-.03523-.478037.0075-2.939429.0075-2.939353h2.062127v10.129478l-1.314341.01274-.147128-.02548-.147204-.02548-.255883-.136336-.06521-.06746-.06446-.06746-4.758864-6.010845-.02923-.0097-.02923-.0097.01799.31367.01799.313745v5.710592l-2.074719.01199zm29.232768 0-.0105-.02848.008-5.042104.007-5.042029h4.05634l.56656.0808.51431.11505.52773.181981.37063.176809.40616.271773.16804.164592.16804.164667.0968.13139.0968.131464.17561.326336.069.206191.069.20619.036.156347.0352.156423.0262.821763-.0772.469868-.15268.460499-.16751.332632-.2262.335256-.17269.181007-.17269.180932-.1813.140907-.18124.140833-.30332.181457-.34253.153949v.04572l.24562.148628.26727.223354.18468.239918 2.16264 3.535064.0105.03972.0105.03972-2.26007-.000674-.14233-.03373-.14233-.03373-.18753-.09564-.20762-.215559-1.73489-3.03574-.0697-.09451-.0697-.09459-.19375-.11355-.3797-.04647-.52114.01274-.0225 3.73908-2.3468.01199-.0105-.02848zm3.92923-5.430725.18933-.04872.15739-.07757.1574-.0775.11288-.08612.11295-.08612.20416-.25993.10936-.239468.0375-.135962.0375-.135961.012-.274545.012-.274621-.0765-.344025-.0705-.142557-.0705-.142631-.29771-.29853-.38524-.190151-.22666-.04797-.22657-.04797-1.33705-.0075-.012 2.923314.012.03073.012.03073 1.34784-.02173.1894-.04797zm15.86585 4.415064-1.46162-.01499-1.61931-.0075-1.09279-1.240664-3.06647-.02848-2.01686-.02398-1.30557 1.247859h-.0615l-.22972-.376554-.2298-.376479.007-.02173.007-.02174 1.3357-1.287059 4.12433.03298h1.4485l1.11182-1.217279 1.26937.02698 3.79687.02848.64481.669837.14555.242467.0397.147279.0397.147278v.929168l-.0307.118422-.0307.118498-.21571.306924-.64405.623143-.50697-.009-1.46162-.01499zm-71.042381-1.785976v-.04197l.05546-.269374.05471-.269374.230924-.997148.140533-.532527h.04272l-.01499 1.048115-.01499 1.04804-.01799.05696h-.477363zm59.786691-3.509955.0127-.08499.0753-.475864.007-.725226 1.43989-1.42227 3.83839.01724 1.11227-1.216754.56648.02623 4.49983.02923.33871.359689.3387.359765.066.13034.066.13034.0622.271922-.00045.906457-.039.124644-.039.124643-.22485.297706-.62059.602606-1.81794-.02773-3.24058-.02848-1.08769-1.239615h-1.20109l-2.13011-.02923-1.99414 1.954872-.0397.00045.0127-.08492zm-58.393052-1.543391-.0082-.0082.195397-.55044.284664-.747786.02473-.02548.02473-.02548 3.689913.03898.02473.02473-.02548.06146-.02548.06146-.16017.386223-.113926.429619-.02923.174786-.02923.174786-3.844012.01274zm38.745842-1.861783-.0734-.06671v-.05696l5.57194-5.461305-.009-1.416349-.009-1.416349-.0525-.271922-.11123-.16107v-.110852l.18363-.270348-.0142-.05771-.0142-.05771-.0562-.07345-.0562-.07345-.13619-.07045-.34867-.04122-1.13895.05022-.0405-.01574-.0405-.01574.0322-3.703779.018-.01799.018-.01799 4.49683.04722.024.01499.024.01499-.0165 1.849191-.0165 1.849191-.0187.01949-.0187.01949-1.20933-.07705-.2789.03073-.18618.0808-.06.07847-.06.07847v.135061l.1586.22313v.127791l-.10958.144281-.024.135961-.024.135961-.0495.566555-.0135 1.375875-.0135 1.375951-3.66525 3.598622-.41868.149527-.49602.220731-.34245.187752-.36262.224703-.2573.192624-.25739.192624-.4201.401663h-.0397l-.0735-.06671zm9.15624-.250411-.15402-.137385-.3498-.257682v-.05172l9.47194-9.397731.00022-.162944.00023-.163018.045-.02773v-1.216605l3.65798-3.324376.0974-.07765.81082.04497.27192.04572.28797.139184.47848.459375.2663.333682.045.08829.045.08829.0457.464172-.054.786011-3.69786 3.362677-.0292.01799-.0292.01799-1.63258-.170214-.68768.679956-8.54321 8.454173-.13312.141657h-.057l-.1541-.137385zm-17.149461-.432243-.0112-.03073-.008-.487257-.007-.487181-.16999-.01424v-.05397l2.221101-2.221398.0667-7.591262.0667-7.591262.007-.781813.008-.781739-1.118121-1.021283-.0352-.03523-.0352-.03523.024-2.524874.024-2.524874.346571-.341852.3465-.341926.1607-.08035.16062-.08035L101.23002 9l.79882.02174.1951.07045.19008.127416.6912.68835v2.349864l-.0135 1.366807-.0135 1.366731-1.24629 1.097358-.008.58859-.007.588665-.069 7.648074-.069 7.64815-.0547.405935-.0547.406009-.46769.471592-2.299651 2.267942zm25.931101-.221929-.17434-.107555-.47946-.22253.007-.02248.007-.02248 3.35383-3.300318 1.70626.02923 1.1185-1.226873.48373.00045 4.57756.04422.3399.345974.3399.346049.0652.121046.0652.121045.0674.233398.012.407883.012.407958-.0525.339903-.14548.249287-.35871.35969-.35864.35969-4.7441-.02923-.17299-.01274-.17299-.01274-1.0718-1.219453-.85968-.01049h-.37986l-2.95726 2.900604-.0255.01499-.0255.01499-.17433-.107555zm-54.336707-.04797-.691198-.01649-.215259-.02623-.215259-.02623-.02099-.02099-.02099-.02099.130565-.278368.130564-.278368.624342-1.223725.544444-.975562.586792-.973239.375879-.589189.598334-.883823.471741-.65717.563857-.747786.711884-.883822.43659-.509817h.05996l.312096.328585 1.678003 1.722224 5.144262 5.251667.0075.03073.0075.03073-1.827455.01199-.01199.759179h-.04947l-.255208-.153725-.498499-.248312-.498575-.184605-.192624-.05696-.192624-.05696-.283239-.05621-.28324-.05621-.6119-.07045h-.776942l-.234672.02398-.234746.02398-.28324.05621-.28324.05621-.543845.182431-.548866.263303-.220805.138809-.220806.138809-1.238341-.0075h-1.23834zm43.520527-.478487-.18123-.06671-.38525-.112576-.40788-.09137-.6119-.08522-.4985-.03148-.0195-.01124-.0195-.01124 1.58236-1.591735.76847-.793131.32582-.371307.0367-.120297.0367-.120221.033-.23797.033-.237894.045-1.631608.024-.340278.024-.340278.0202-.09032.0202-.09024.14997-.127866.31727-.184754.24929-.158671.35302-.296432.50292-.562207-.0127-1.941081-.0127-1.941006-.024-.23797-.024-.237969-.0442-.148178-.0442-.148253-.18842-.291635-.1502-.155748-.15013-.155748-.0908-.05322-.0908-.05321-5.32759-.05247-.24667.124494-.19217.13731-.1616.234596-.054.170814-.054.170738-.0352.257757-.0352.257831-.0442.883747-.0157 1.642926-.0157 1.642926.56229.539572.40788.351671.40571.309847.1155.225228.0135 1.40638-4.40937 4.428405-.22845.111078-.27012.05022-1.22365.02548-.65717-.04422-.44686-.09766-.4596-.06971-1.08776-.02248-.03-.0097-.03-.0097.26877-.288936.26877-.288936.40991-.478787.1478-.21481.0202-.0712.0202-.0712.033-.238869.033-.238868.0465-.566555.0225-.419201.0225-.419201.0232-.668563.0232-.668488.0225-.906457.0225-.906383.0232-1.110399.0232-1.110399.11183-6.322416.072-3.353907.0157-.203942.0157-.203942.272.01424 1.06018.133113.75266.115949 1.13303.203567.95181.204991.99707.244341.83848.230774.6798.202667.0787.04422h.0607l1.06191.356692.58919.21406 1.06505.42145.86111.372431.9291.431568.81584.407808.88375.475115.79313.455327.79313.483284.79313.512515.79314.547067.58918.428045.65718.499548.67988.544594.40788.340877.70251.613174.58919.540622.5778.560559v.03673l-.96304.922646-1.92557 1.860434-1.88149 1.834051-5.06932 4.96438h-.075zm-30.723842-.282864-.01574-.01574v-.417327l-7.772794-7.898337v-.0754l.459225-.495951.48126-.488231.04497.01199 3.216972 3.285852 1.927365 1.971511 2.33315 2.40203.549091.566554.05396.101784.04647.759329-.01424.294632-1.294778.01199zm4.732781-.0075-.01349-.02174.06746-7.808995.01049-.739841.01049-.739767-4.959583-5.067287v-.05546l.623142-.360289.597585-.326861.0697.01499 4.98634 5.095093-.02323 1.181977-.0697 8.792502-.01874.05621h-1.267796zm5.834485-.740217-.713758-.760977-.259555-.284964.123144-7.792281.123145-7.792205.0075-.402937.0075-.402936-1.211818-1.097653V14.38779l.03822-3.693735.698019-.679956.114075-.06146.114075-.06146.26855-.07195.702516-.02623.407883.05396.213835.121946.294558.245314.241342.257907.241342.257906-.01424 1.806244-.01424 1.806244-.02773 1.457797-1.173208 1.031026v.547742l-.02174 1.110399-.02249 1.110399-.04647 3.149891-.04497 2.923239-.02249 1.121717-.02248 1.121716-.02324.917775-.02248.917775-.06746 2.288779-.02548.228076-.02548.228076.03598.124269.03598.124193.188577.292459.185129.226652.318916.361189.653123.703865.649826.685277v.05097h-1.189698l-.713833-.760978zm-8.098156-1.603876-.147503-.0769-.143007-.108604-.143081-.108604-.220581-.189326-.220581-.189401-.782563-.729498-4.124329-4.132723-2.446925-2.483427.253109-.235571.630188-.54347.634461-.51956.6119-.478262.543844-.407284.702516-.501272.878351-.594136.05246.03298 4.751969 4.769506-.03148 3.819054-.04197 1.790204-.02398.23797-.02398.237969-.0697.249212-.166392.173737-.06146.03223-.06146.03223h-.202893z"/></svg>