<svg xmlns="http://www.w3.org/2000/svg" version="1.0" viewBox="0 0 200 100"><path fill="#363a32" d="M36.610578 40c-.994113 0-1.785861.141397-1.785861.315852v.553822c0 .174455.805818.31531 1.799918.31531.994115 0 1.799934-.140855 1.799934-.31531v-.551116c0-.177226-.819877-.318558-1.813991-.318558Zm-5.415999 1.988136v3.517097a26.029657 26.029657 0 0 0 5.430056.522995 26.029657 26.029657 0 0 0 5.430071-.522995v-3.517097a26.001967 26.001967 0 0 1-5.437105.526239 26.001967 26.001967 0 0 1-5.423022-.526239zm-1.625762.0053c-.0053 0-.03041.0086-.04971.0086l-2.470027 3.87676a19.106875 19.106875 0 0 0 2.519784-.387785zm137.257653 1.338586c-1.0941-.0043-2.99235.01299-3.32671.01299a4.8459468 4.8459468 0 0 0-2.07955.393194 3.0072561 3.0072561 0 0 0-1.30993 1.190935 5.662835 5.662835 0 0 0-.6755 1.993546 17.545097 17.545097 0 0 0-.18822 2.788581 19.165027 19.165027 0 0 0 .18822 2.874036 5.9120552 5.9120552 0 0 0 .62575 2.004902 2.8106491 2.8106491 0 0 0 1.23259 1.171466 4.502577 4.502577 0 0 0 1.98543.368312l4.79023.01405v-6.729159h-4.34458v1.107646h3.04603l.005 4.355941h-3.13201a3.8767575 3.8767575 0 0 1-1.49814-.249328 1.9383787 1.9383787 0 0 1-.93296-.830733 4.3918122 4.3918122 0 0 1-.4873-1.575474 17.69186 17.69186 0 0 1-.14655-2.492202 13.687723 13.687723 0 0 1 .27691-3.004919 2.7414213 2.7414213 0 0 1 .94107-1.644701 3.1567881 3.1567881 0 0 1 1.91079-.504065h3.85728v-1.232038c-.0983-.0076-.37355-.01153-.73825-.013zm-90.611629.112533a7.9778133 7.9778133 0 0 0-2.10496.249328 3.1235589 3.1235589 0 0 0-1.523018.924841 4.3447376 4.3447376 0 0 0-.92483 1.938379 14.676296 14.676296 0 0 0-.307201 3.322935 14.953208 14.953208 0 0 0 .299078 3.322933 4.1675143 4.1675143 0 0 0 .894545 1.916205 3.0709458 3.0709458 0 0 0 1.525724.883196 8.8445452 8.8445452 0 0 0 2.1293.229858 8.8445452 8.8445452 0 0 0 2.151477-.229858 3.0598693 3.0598693 0 0 0 1.514895-.883196 4.1702833 4.1702833 0 0 0 .90808-1.916205 14.953208 14.953208 0 0 0 .299082-3.322933 15.484875 15.484875 0 0 0-.290437-3.322935 4.2755097 4.2755097 0 0 0-.899961-1.938379 3.0764839 3.0764839 0 0 0-1.523004-.924841 8.2270331 8.2270331 0 0 0-2.14877-.249328zm-22.236196.08599-7.944428 12.599461h1.489488l7.127741-11.306307v11.306307h1.371039V44.762613l.0053-1.232039zm6.186159 0v12.599461l4.735061-.0081a5.0563993 5.0563993 0 0 0 1.883217-.315851 2.3814367 2.3814367 0 0 0 1.215818-1.080062 4.2976625 4.2976625 0 0 0 .426188-2.096305 3.5527715 3.5527715 0 0 0-.213086-1.301266 2.7137302 2.7137302 0 0 0-.553831-.905371 2.6472715 2.6472715 0 0 0-.728522-.553823 3.2509381 3.2509381 0 0 0-.725267-.276911 2.1765223 2.1765223 0 0 0 .897252-.506769 2.6057348 2.6057348 0 0 0 .642529-.949719 3.5610785 3.5610785 0 0 0 .240679-1.368331c0-1.085491-.271232-1.902186-.813979-2.431085-.542735-.5289-1.354233-.805854-2.439743-.805854zm24.221622 0v8.700529a5.0120933 5.0120933 0 0 0 .32666 1.93838 2.8521859 2.8521859 0 0 0 .93295 1.232038 3.7078416 3.7078416 0 0 0 1.462443.642521 8.8390071 8.8390071 0 0 0 1.918915.188213 8.8306997 8.8306997 0 0 0 1.91619-.190917 3.7078416 3.7078416 0 0 0 1.461897-.642522 2.8521859 2.8521859 0 0 0 .933507-1.232037 5.0120933 5.0120933 0 0 0 .326671-1.938379v-8.697829H92.29462v8.697826a3.0986368 3.0986368 0 0 1-.384532 1.678234 2.0823727 2.0823727 0 0 1-1.107665.846958 6.4271102 6.4271102 0 0 1-3.525197 0 2.0712962 2.0712962 0 0 1-1.121699-.846958 3.0986368 3.0986368 0 0 1-.384552-1.678234v-8.697826zm11.873658 0v1.2461h3.876746v11.353361h1.38457V44.762613h3.87673v-1.232039zm16.329636 0v1.232039h9.13807v-1.232009zm11.7049 0v12.599461l1.35698-.0081V45.876155l6.57125 10.253827h1.10764V43.530511h-1.35429v10.245717l-6.57392-10.245717zm11.56106 0v1.232039h9.13807v-1.232009zm12.26739 0v12.599461h1.37914v-5.239138c.20768 0 .47075.000139.76152.01676.29075.01661.57826.01623.8967.01623.31845 0 .59824.00014.87239.01676.27414.01661.5041.01676.68685.01676l2.44785 5.153148h1.38458l-2.58631-5.341361a3.621999 3.621999 0 0 0 .81395-.246622 2.386975 2.386975 0 0 0 .77828-.553824 2.8217255 2.8217255 0 0 0 .5787-1.033007 5.3333106 5.3333106 0 0 0 .22445-1.686348 5.5382251 5.5382251 0 0 0-.2769-1.910795 2.4922012 2.4922012 0 0 0-1.79723-1.661467 4.9539422 4.9539422 0 0 0-1.19904-.146568zm22.91982 0 4.00439 8.423618v4.175843h1.37049v-4.175843l3.98762-8.423574h-1.36832l-3.28671 7.053125-3.28669-7.053125zm-94.839411 1.135229a6.5434126 6.5434126 0 0 1 1.617119.171986 1.9771465 1.9771465 0 0 1 1.080066.700391 3.6247684 3.6247684 0 0 1 .614938 1.575474 15.429495 15.429495 0 0 1 .199027 2.769113 15.230118 15.230118 0 0 1-.188213 2.669597 3.61923 3.61923 0 0 1-.608988 1.550593 2.0491433 2.0491433 0 0 1-1.088188.725813 5.9702066 5.9702066 0 0 1-1.625761.188213 6.1391225 6.1391225 0 0 1-1.661476-.188213 2.0076064 2.0076064 0 0 1-1.08816-.725812 3.5998462 3.5998462 0 0 1-.590065-1.550594 15.916859 15.916859 0 0 1-.179572-2.669597 14.523994 14.523994 0 0 1 .2131-2.769113 3.6496902 3.6496902 0 0 1 .650638-1.575474 2.0602196 2.0602196 0 0 1 1.107645-.70039 6.2194267 6.2194267 0 0 1 1.54789-.171987zm-14.656825.09681h3.184466a2.0823727 2.0823727 0 0 1 1.414862.490543c.371055.324909.545681.892147.523529 1.702573a2.3232853 2.3232853 0 0 1-.53976 1.57331 1.7057733 1.7057733 0 0 1-1.326693.584109h-3.270472zm87.946906.0032h3.38946a3.3949319 3.3949319 0 0 1 .80315.0941 1.5867016 1.5867016 0 0 1 .67551.359659 1.7666939 1.7666939 0 0 1 .47108.753392 3.9570618 3.9570618 0 0 1 .17143 1.276388 4.3281227 4.3281227 0 0 1-.17143 1.334799 1.9383787 1.9383787 0 0 1-.43756.791793 1.4953208 1.4953208 0 0 1-.66738.385081 3.0460237 3.0460237 0 0 1-.83073.10546h-3.38947zM108.8168 46.98432a.2436819.2436819 0 0 0-.0568.0021h-.76692a.2436819.2436819 0 0 0-.27691.276911v1.365087a.2436819.2436819 0 0 0 .27691.27691h.76961a.27691124.27691124 0 0 0 .19686-.06653.27691124.27691124 0 0 0 .0773-.207684v-1.367788a.2436819.2436819 0 0 0-.22014-.279074zm-77.622221.987579v3.517097a26.001967 26.001967 0 0 0 5.430056.526239 26.001967 26.001967 0 0 0 5.430071-.526239v-3.517097a25.816436 25.816436 0 0 1-5.437105.526239 25.816436 25.816436 0 0 1-5.423022-.526239zm-1.631176.0059a23.578992 23.578992 0 0 1-4.153667.492707l-2.24287 3.530618c.310135 0 .631004.01676.960532.01676a25.849665 25.849665 0 0 0 5.436005-.528943zm83.026317 1.320736v1.223927h9.13807v-1.223927zm23.26596 0v1.223927h9.13807v-1.223927zm-74.32579.894554h3.322923a2.4645102 2.4645102 0 0 1 1.149295.276911 2.0076064 2.0076064 0 0 1 .811262.761506 2.2872869 2.2872869 0 0 1 .299092 1.199048 3.3644718 3.3644718 0 0 1-.276915 1.531124 1.575625 1.575625 0 0 1-.789078.753394 3.0100253 3.0100253 0 0 1-1.190949.213092h-3.322934zm-31.966487 3.760477a25.650289 25.650289 0 0 1-5.427349.531647c-.85843 0-1.689135-.03872-2.470028-.0941l-2.07142 3.253831a28.184027 28.184027 0 0 0 4.541448.354253 26.256725 26.256725 0 0 0 5.427349-.526241zm1.631176.0053v3.513851a26.001967 26.001967 0 0 0 5.415999.52624 26.001967 26.001967 0 0 0 5.430606-.52624v-3.513851a26.001967 26.001967 0 0 1-5.423583.526238 26.001967 26.001967 0 0 1-5.423022-.526238zm77.622221.266636a.2436819.2436819 0 0 0-.0568.0021h-.76692a.2436819.2436819 0 0 0-.27691.276911v1.365085a.2436819.2436819 0 0 0 .27691.276911h.76961a.27691124.27691124 0 0 0 .19686-.06652.27691124.27691124 0 0 0 .0773-.207683v-1.367791a.2436819.2436819 0 0 0-.22014-.279074zm3.77292.841009v1.232038h9.13807v-1.232038zm23.26596 0v1.232038h9.13807v-1.232038z"/></svg>