<svg xmlns="http://www.w3.org/2000/svg" version="1.0" viewBox="0 0 200 100"><g fill="#363a32" stroke-width="50.7907"><path d="M71.51055203 69.94377206c-.74816794-.14963358-1.3467023-.47252712-1.85466895-1.00412013-.12994495-.1378204-.44890076-.56309481-.70485295-.94111651-.25988992-.3780217-.574908-.83873564-.70091523-1.02380876-.12600723-.18507312-.39771032-.58278345-.60247208-.88598835-.20476175-.3032049-.63003616-.92142788-.94111651-1.3782041-.31108035-.45283849-.70091523-1.01987103-.862362-1.26007232-.16144676-.23626356-.5000912-.73241704-.75210566-1.10256328-.25201446-.36620852-.62609843-.91749016-.83086019-1.22069506-.20476175-.3032049-.50402892-.73635476-.65760024-.96474287-.15750904-.2283881-.49615347-.72454158-.75604339-1.10256328s-.63397389-.92930334-.83479791-1.22069506c-.1968863-.29139172-.49615348-.72454158-.65760024-.96474287-.16144677-.23626356-.5434062-.79542065-.8466111-1.24038369-.3032049-.44496304-.68516432-1.0001824-.84661108-1.24038369-.16144677-.23626356-.43314986-.63791161-.60247208-.88598835-.16932222-.24807674-.5158421-.7560434-.76785657-1.12618964-.5158421-.75210566-.58278345-.91749015-.50796666-1.22463278.03543954-.12600723.23626356-.45677622.64578707-1.06318602 1.56721495-2.30356971 2.1815002-3.18168261 2.27600563-3.25256168.14963358-.1063186.39771032-.12994496.6064098-.05119044.1653845.06300362.2126372.12600724 1.03168421 1.32701367.47252712.68910205 1.106501 1.61840538 1.40970591 2.06336842.3032049.44102531.82692246 1.20888188 1.16162917 1.70109763.33470671.49221575 1.09468783 1.60265448 1.68928445 2.47289193.5906589.86629972 1.31126276 1.92161029 1.59871676 2.34294697.287454.42133668.76785657 1.12618964 1.06712375 1.56327722.3032049.44102531.6812266.99624468.84267336 1.23644597.51977983.76391884.62609843.90173925.87023745 1.07893692.3937726.29139172.60247207.35439534 1.17738007.35439534h.49221575l.33470671-.1653845c.38195942-.18901084.58672117-.37802169.92142788-.86629971.12206951-.1811354.31501808-.46465167.42921214-.63003616.11813178-.16932222.5000912-.73241704.85448654-1.25219687.35439534-.51977983.73635476-1.07893692.84661109-1.24038369.11025633-.16144677.49221575-.72060386.84661109-1.24038369s.73635476-1.07893692.84661109-1.24038369c.11025633-.16144677.47646485-.69303978.80723383-1.1813178.66941342-.9844315 1.18525553-1.7404749 1.44908317-2.12637204.24020128-.35045761.30714263-.41739896.50402893-.50796665.16932221-.08269225.23232583-.08269225 3.075364-.08269225 2.78003456 0 2.90997952.00393773 3.02023584.0748168.17325995.11419405.25988992.27564081.25988992.4843403 0 .1968863-.03543953.2598899-.96474287 1.6065922-.11025633.16144677-.39771033.57884572-.63397389.92536561-1.13012736 1.65778265-1.681409 2.46501648-1.86648212 2.73671957-.11025633.16144677-.5906589.862362-1.06318602 1.55540177-1.13406509 1.65778265-1.31520048 1.92554801-1.85466895 2.71703094-.24807673.36620852-.61822298.9096147-.819047 1.20100643-.20082403.29139172-.51584211.75210567-.6969775 1.02380876-.18507313.2717031-.52765529.77573202-.76785658 1.12225191-.23626356.34651989-.59853435.8781129-.80723383 1.1813178-.20476175.3032049-.53946846.79148293-.73635476 1.08287465-.20082402.29139172-.574908.84267336-.83479791 1.22069506-1.0592483 1.56327722-1.24432142 1.77985215-1.76803897 2.12243431-.70485296.46071395-1.70109764.65366252-2.52408237.49221575zM92.71520654 55.43718948c-.07875452-.07875452-.07875452-.12994496-.07875452-5.24898876v-5.16629651l.09844315-.14963359c.05512816-.07875452.16932222-.1811354.25595219-.22445038.15357131-.07875452.2283881-.07875452 4.4378172-.07875452 3.62270792 0 4.32756088.01181318 4.55988671.05906589 1.0001824.2126372 1.83104259.87023745 2.26419245 1.79954078.22051266.47252712.27564082.79148293.27564082 1.60265448 0 .7875452-.04331499 1.08681238-.20869948 1.50027361-.16932222.41346123-.35045761.67728887-.73635476 1.06318602-.32289353.32289353-.42921213.40558578-.77966975.58278345-.22445038.11419405-.42921213.20476175-.46071394.20476175-.0315018 0-.07087907.0315018-.09450542.06694134-.02756409.05512817.00393772.11813178.14963358.30714263.10238088.12994496.72847931.92142788 1.39001728 1.7562258.66153797.83873563 1.21281961 1.55146404 1.22857051 1.5908413.03543954.09844315-.0472527.32683126-.13388268.37408397-.04725271.02362636-.74423021.03937726-1.83891804.03937726-1.60265448 0-1.77591443-.00787545-1.89798393-.07087907-.09844315-.04725271-.5434062-.58278345-1.55540177-1.85860667-1.73653717-2.18543793-1.53965087-2.02792889-2.55164645-2.02792889h-.66153797l-.1063186.11025633-.11025633.1063186-.01181318 1.77985215c-.01181318 1.7562258-.01181318 1.78378988-.09450542 1.87041985l-.08269225.0905677h-1.5908413c-1.53571314 0-1.5908413-.00393773-1.6656581-.07875452zm7.72188069-5.82783448c.29926717-.0905677.50796665-.25201446.65760024-.50402893.10238087-.1811354.1063186-.20476175.11813178-.88992607.01181318-.59459663.00393772-.73241704-.05512817-.88205063-.09450542-.24807674-.34651988-.51190438-.59853435-.62609843l-.20869948-.0905677h-3.93378827l-.12600723.11419405-.12994496.11419406-.01181318 1.1970687c-.01181318 1.3624532 0 1.46483407.22838811 1.5750904.12600723.06300362.3032049.07087907 1.97280073.07087907 1.71684853 0 1.85466894-.00393773 2.08699478-.07875452zM110.34834357 55.47262901c-1.21675734-.17719767-2.25237927-1.1222519-2.59496144-2.35869787l-.09450542-.33470671v-5.59157092l.09450542-.33470671c.25988992-.94505424.85448655-1.65778265 1.71684854-2.07124388.68516432-.33076898.41346123-.31108035 4.44963038-.31108035 4.06767096 0 3.78021696-.01968863 4.48900764.33470671.96080514.48040257 1.60265448 1.36639092 1.74835034 2.41382604.0590659.41739895.0590659 5.10723062 0 5.5285673-.19294857 1.39001728-1.28369867 2.50045601-2.67371595 2.7249064-.30714263.05119043-6.79257735.05119043-7.13515951 0zm5.80420812-2.2878188c.09844315-.06300362.24807674-.18507312.32683126-.27564082.25988992-.30714263.25988992-.29532945.24807674-2.9690454l-.01181318-2.39807514-.0905677-.17719767c-.12600723-.24020129-.26382764-.38195942-.5000912-.50402893l-.1968863-.1063186h-4.09523504l-.1968863.1063186c-.23626356.1220695-.37408397.26382764-.5000912.50402893l-.0905677.17719767-.01181318 2.3626356c-.00787545 1.64203174 0 2.42563922.03150181 2.56739735.05119044.23232584.20476175.46465167.4095235.62216071.28351628.21657493.2717031.21657493 2.46501648.20476175l2.02792889-.00787545zM122.18908565 55.41750085c-.05512816-.05119044-.09844315-.13782041-.09844315-.19294857 0-.05512817.33864444-.8938638.75210567-1.8625444.41346123-.97261832 1.07106147-2.50833146 1.46089634-3.41794617.38589715-.9096147.72847931-1.70503536.75998112-1.7719767.02756408-.06300362.12600723-.29532945.21657493-.51190438.0905677-.21657493.18901085-.44496304.21657493-.51190438.0315018-.06300362.26776537-.6221607.53159301-1.24038369.50796665-1.18919325.60247208-1.3467023.86629972-1.41758136.18507312-.05119044 4.4220663-.05119044 4.60713942 0 .20082403.05512816.36620852.24807674.51190438.5906589.06694134.16144677.13782041.33076898.15750904.37408397.01968863.04331499.14963359.34651989.287454.66941342 2.29175653 5.36712054 3.49670069 8.19047008 3.55182885 8.30860186.20082403.43708759.29926718.74029249.27564082.85054882-.05119044.23232583-.04725271.23232583-1.73259944.23232583h-1.5435886l-.07875451-.08662997c-.04331499-.05119044-.24807674-.48040257-.44890077-.9529297-.20476175-.47646484-.40558577-.91749015-.44890076-.9844315-.04331499-.06300361-.15750904-.15750903-.25201446-.20869947l-.17325995-.0905677h-2.40201286c-2.3626356 0-2.40595058 0-2.5752728.08269225-.1968863.09450542-.3189558.244139-.44102531.54734391-.05119044.11813178-.12206951.287454-.16144677.37408397-.03543953.08662997-.16144677.3780217-.27564082.64972479-.11419405.2717031-.24413901.53159301-.287454.58278345l-.07875452.08662997h-3.10292809zm8.33616594-4.42994175c.3032049-.08662997.33470671-.287454.13388269-.88205062-.0748168-.22051266-.32289354-.98049378-.55521937-1.69715991-.23232583-.7127284-.44890076-1.37426637-.48040257-1.4687718-.12600723-.34258216-.53946846-.38589715-.6969775-.07087907-.05512817.11419406-.6969775 1.87435758-1.12225191 3.09111491-.25988992.7402925-.25988992.8938638.00787545 1.00805786.15750904.07087907 2.48076738.08269225 2.71309321.01968863zM138.44008085 55.4253763l-.08662997-.0905677v-5.33955645c0-5.19779832.00393773-5.33955646.0748168-5.43012416l.07481679-.09450542 2.47682965-.00787545c1.91373484-.00787545 2.49258056 0 2.56739735.03937726.06694135.03543953.38589715.63397388 1.20100643 2.26419245.61034753 1.21675733 1.13012737 2.23269064 1.15375372 2.256317.02756408.02756408.08662997.03543953.13782041.02362635.0748168-.01968863.28351627-.41346123 1.19313098-2.23662837.6654757-1.32701366 1.13800281-2.24056609 1.1970687-2.28388108.0905677-.07087906.19294858-.07481679 2.55164645-.07481679h2.46107875l.11419406.11419405.11419405.11419406v10.64367338l-.09844315.09450542-.09450542.09844315h-3.15805626l-.09450542-.09844315-.09844315-.09450542v-3.54001568c0-3.06355083-.00787545-3.54789112-.05906589-3.59120611-.0315018-.02362636-.0748168-.03937726-.10238088-.0315018-.02362635.00787544-.64578706 1.20888187-1.3782041 2.66977822-.73635476 1.46089635-1.37426637 2.68946686-1.42151908 2.72884412-.07087907.05906589-.18901085.06694134-1.16950462.06694134-1.08287465 0-1.09468783 0-1.17344235-.08662997-.04331499-.05119044-.66941342-1.26007232-1.38607955-2.68946686-.72060386-1.42939454-1.3309514-2.62252552-1.3624532-2.65402732-.02756408-.02756409-.08269225-.04331499-.11419405-.03150181-.05512817.02362635-.06300362.3780217-.06300362 3.55182885 0 3.74477743 0 3.70540017-.17719767 3.77627923-.03543953.01181318-.76785657.02362636-1.63021856.02362636h-1.56721495z"/><path d="M71.86100964 53.19662339c-.14569586-.06694135-.32289353-.31108036-2.06336842-2.8627268-1.04743512-1.53571315-1.99642708-2.92573042-2.10668341-3.08717719-.11025633-.16144677-.48827802-.7127284-.83479791-1.22069506-.34651989-.50796665-.77573202-1.13800281-.95686742-1.39789273-.17719767-.25988992-.47252712-.69303978-.65366252-.96474287-.18507312-.2717031-.52765528-.77573202-.76785657-1.12225191-.23626356-.34651989-.59853435-.8781129-.80723383-1.1813178-.20476175-.3032049-.55521936-.81510928-.77966974-1.14194054-.33076899-.48827802-.44496304-.62609843-.6654757-.79148293-.77573202-.58278344-1.88617075-.5158421-2.53589554.15357132-.11025633.11025633-.6812266.91355243-1.2718855 1.77985215s-1.18525553 1.73653717-1.31913821 1.92948574c-.13388268.1968863-.53159301.77966975-.88598835 1.29944958-.35439534.51977983-.71666613 1.05137284-.80723383 1.1813178-.0905677.12994496-.37408397.54340619-.63003616.92142788-.25595219.3780217-.61034753.89780153-.78360747 1.15375372-.17719767.25201447-.4528385.66153797-.61428526.90173926-.4095235.61034753-.4843403.68910205-.73241704.78360747-.20869947.0748168-.29139172.07875452-3.03204902.07875452-2.74459502 0-2.81941181-.00393773-2.9690454-.07875452-.1811354-.0905677-.31501808-.3189558-.31501808-.52765528 0-.14175814 0-.14569587.94111651-1.51996224 1.06318602-1.55540177 1.71684854-2.51620691 2.49258056-3.65420973.46071394-.67728887.93717879-1.37032865 1.05531057-1.54358859.11813178-.16932222.49221575-.71666613.82692246-1.20888188.33470671-.49221575.82692246-1.21675734 1.09468783-1.60659221.26776537-.38983487.63791161-.92930334.819047-1.20100643.18507313-.2717031.48827803-.7127284.67335115-.9844315.18507312-.2717031.63397389-.92536561.99624468-1.45695862.35833307-.53159301.80723383-1.18525553.99230695-1.45695862.61822298-.90567698 1.08681238-1.58690358 1.59477903-2.34294697.73635476-1.0907501 1.149816-1.47270952 1.94129892-1.79560306.7127284-.287454 1.72472399-.31108035 2.44532785-.05119043.54734391.1968863 1.09468782.574908 1.46089634 1.00412013.15357132.18507312.91355243 1.28369867 2.78397228 4.03223142.25201447.37014624.69303978 1.01987103.98836923 1.44908317.29139172.4252744.91355243 1.33488911 1.3782041 2.01611571.46465167.68516432.98049377 1.43726999 1.14194054 1.67353355.16144677.23626356.54340619.79542065.84661109 1.24038369.3032049.44496304.68516432 1.00412013.84661109 1.24038369.16144677.23626356.42921213.62609843.5906589.86629972.16144677.24020129.54340619.79935838.84661109 1.24038369.3032049.44496304.68516432 1.0001824.84661109 1.24038369.16144677.24020129.53946846.79148293.84267336 1.23250824.29926718.43708758.57097027.85054881.59853436.92142788.06694134.15357132.07087906.43708759.01181317.5906589-.03937726.11025633-.19294857.33864444-1.27582322 1.92161029-.31108035.45677622-.74029249 1.08287465-.9529297 1.393955-.57490799.8466111-.59459662.87023745-.77179429.9529297-.20869948.0905677-.3189558.0905677-.52371756 0z"/></g></svg>