<svg xmlns="http://www.w3.org/2000/svg" viewBox="0 0 64 64"><path fill="#30af59" d="M31 2C15.007813 2 2 15.011719 2 31s13.007813 29 29 29c15.992188 0 29-13.011719 29-29S46.992188 2 31 2Zm0 2c14.886719 0 27 12.113281 27 27S45.886719 58 31 58 4 45.886719 4 31 16.113281 4 31 4Zm-.437496 4.0078128c-5.890625.121096-11.597656 2.5039062-15.824219 6.7265622-8.96875 8.96875-8.96875 23.5625 0 32.53125.195312.191408.449216.292968.707032.292968.257808 0 .51172-.10156.707032-.292968.390624-.394528.390624-1.023437 0-1.417969-8.1875002-8.1875-8.1914062-21.507812 0-29.695312 4.746089-4.75 11.54687-6.9492192 18.187495-5.886719.539062.08984 1.054687-.2812498 1.144531-.828125.085938-.5468752-.285156-1.0585944-.828125-1.1484368-1.367187-.214844-2.734375-.3085942-4.093746-.2812504Zm8.09375 1.3789064c-.38672.0156-.746096.26172-.890625.6484398-.195312.519528.0664 1.09375.582032 1.289063.710936.26172 1.417969.570312 2.101563.914062.144528.07424.296872.109376.449216.109376.367184 0 .718752-.199216.894531-.550784.25-.48828.0508-1.09375-.441408-1.34375-.75-.375-1.523438-.7148404-2.300782-1.003906-.128904-.04688-.26172-.0664-.394528-.06248zm5.777344 3.2890618c-.253904.03128-.496096.16016-.667968.375-.33984.437496-.265624 1.0625.171872 1.402344.664064.52344 1.308593 1.09375 1.910156 1.699219 8.191407 8.1875 8.191407 21.507812 0 29.695312-.390624.394528-.390624 1.023438 0 1.417969.195312.191408.453128.292968.710936.292968.253904 0 .51172-.10156.707032-.292968 8.964844-8.96875 8.964844-23.5625 0-32.53125-.660157-.65625-1.367188-1.285156-2.093751-1.855469-.21875-.167968-.484375-.234375-.738277-.203125zM31.09375 20.003906c-.292968-.02736-.585936.07424-.800781.289064l-4 4c-.390624.390624-.390624 1.023438 0 1.414063.390624.390624 1.023437.390624 1.414062 0L30 23.414063V40h-2c-.550781 0-1 .445313-1 1 0 .554688.449219 1 1 1h6c.550781 0 1-.445312 1-1 0-.554687-.449219-1-1-1h-2V21c0-.402344-.246096-.769528-.617184-.921875-.09375-.03904-.191408-.0664-.289064-.07424zM21.375 47.394531c-.38672-.04688-.78516.132816-.988281.492184l-1 1.730469c-.277344.480472-.117192 1.089843.36328 1.367187.156248.08984.328128.132816.5.132816.343752 0 .679688-.179688.863281-.5l1-1.730469c.277344-.47656.117192-1.089844-.36328-1.367188-.121096-.0664-.246096-.109376-.375-.124999zm19.25 0c-.125.0156-.253904.05856-.375.125-.480472.277344-.640624.890625-.36328 1.371094l1 1.730469c.183592.320312.519528.5.863281.5.171872 0 .343752-.04688.5-.13672.480472-.277344.640624-.88672.36328-1.363282l-1-1.730469c-.203125-.359373-.597656-.542967-.988281-.496092ZM25.8125 49.34375c-.382816.05472-.718752.332032-.828125.734376l-.515624 1.933594c-.144528.531248.171872 1.078125.707032 1.222656.08594.02344.175784.03128.26172.03128.437496 0 .843751-.292968.964844-.73828l.515624-1.933594c.144528-.531248-.171872-1.082031-.703128-1.222656-.13672-.03904-.27344-.04688-.402344-.02736zm10.375 0c-.128904-.01952-.265624-.01168-.402344.02736-.531248.140624-.847656.691408-.707032 1.222656l.519528 1.933594c.121096.445312.52344.73828.964844.73828.08594 0 .171872-.0078.26172-.03128.531248-.144528.847656-.691408.707032-1.222656l-.515623-1.933579c-.109375-.402344-.445312-.679687-.828125-.734375ZM31 50c-.550784 0-1 .445312-1 1v2c0 .554688.449219 1 1 1s1-.445312 1-1v-2c0-.554687-.449219-1-1-1z"/></svg>