<svg xmlns="http://www.w3.org/2000/svg" viewBox="0 0 64 64"><path fill="#30af59" d="M31 4C15.011719 4 2 17.011719 2 33s13.011719 29 29 29 29-13.011719 29-29S46.988281 4 31 4Zm0 2c14.886719 0 27 12.113281 27 27S45.886719 60 31 60 4 47.886719 4 33 16.113281 6 31 6Zm-.4375 4.007813c-5.890625.121093-11.601562 2.5-15.828125 6.726562-8.964844 8.96875-8.964844 23.558594 0 32.527344.195313.195312.453125.292969.707031.292969.257813 0 .515625-.097657.710938-.292969.390625-.390625.390625-1.023438 0-1.414063-8.191406-8.1875-8.1875-21.507812 0-29.695312 4.746094-4.75 11.546875-6.953125 18.1875-5.886719.542969.089844 1.054687-.285156 1.144531-.828125.089844-.546875-.285156-1.0625-.828125-1.148437-1.367187-.21875-2.734375-.308594-4.09375-.28125Zm8.09375 1.378906c-.386719.015625-.75.261719-.890625.648437-.195312.519532.066406 1.09375.585938 1.289063.710937.265625 1.414062.570312 2.101562.914062.140625.074219.292969.109375.445313.109375.363281 0 .71875-.199218.894531-.550781.25-.488281.050781-1.09375-.441406-1.34375-.746094-.375-1.523438-.714844-2.300782-1.003906-.128906-.046875-.261718-.066406-.394531-.0625Zm5.777344 3.289062c-.257813.03125-.496094.160157-.667969.375-.339844.4375-.265625 1.0625.171875 1.402344.667969.523438 1.3125 1.097656 1.910156 1.699219 8.191407 8.1875 8.191407 21.507812 0 29.695312-.390625.394532-.390625 1.023438 0 1.417969.195313.191406.453125.292969.710938.292969.253906 0 .511719-.101563.707031-.292969 8.964844-8.96875 8.964844-23.5625 0-32.53125-.660156-.65625-1.363281-1.28125-2.09375-1.855469-.21875-.167968-.484375-.234375-.738281-.203125ZM33 21c-.03125 0-.0625.015625-.09375.015625-.070312.007813-.136719.023438-.203125.046875-.058594.015625-.113281.039063-.167969.066406-.054687.03125-.105468.066407-.160156.105469-.050781.046875-.09375.089844-.140625.140625-.019531.027344-.046875.042969-.066406.070313l-10 15c-.203125.308593-.226563.699218-.050781 1.023437C22.292969 37.796875 22.632813 38 23 38h9v5c0 .550781.445313 1 1 1 .554688 0 1-.449219 1-1v-5h3c.554688 0 1-.449219 1-1s-.445312-1-1-1h-3V22c0-.03125-.015625-.058594-.019531-.09375-.007813-.066406-.019531-.132812-.042969-.199219-.015625-.058593-.039062-.117187-.066406-.171875-.03125-.054687-.066406-.105468-.105469-.15625-.042969-.050781-.089844-.097656-.144531-.144531-.023438-.019531-.039063-.046875-.066406-.0625-.027344-.019531-.058594-.023437-.085938-.035156-.058594-.035156-.117187-.058594-.1875-.078125-.0625-.019531-.128906-.03125-.195312-.039063C33.058594 21.015625 33.03125 21 33 21Zm-1 4.300781V36h-7.132812Zm-10.625 24.09375c-.390625-.046875-.785156.132813-.988281.492188l-1 1.730469c-.277344.480468-.113281 1.089843.363281 1.367187.15625.089844.328125.132813.5.132813.34375 0 .679688-.179688.863281-.5l1-1.730469c.277344-.476563.117188-1.089844-.363281-1.367188-.121094-.066406-.246094-.109375-.375-.125Zm19.25 0c-.128906.015625-.257812.058594-.375.125-.480469.277344-.640625.890625-.363281 1.371094l1 1.730469c.183594.320312.519531.5.863281.5.171875 0 .34375-.046875.5-.136719.480469-.277344.640625-.886719.363281-1.363281l-1-1.730469c-.207031-.359375-.601562-.542969-.988281-.496094ZM25.816406 51.34375c-.386718.054688-.722656.332031-.832031.734375l-.515625 1.933594c-.144531.53125.175781 1.078125.707031 1.222656.085938.023438.171875.03125.261719.03125.4375 0 .84375-.292969.964844-.738281l.519531-1.933594c.140625-.53125-.175781-1.082031-.707031-1.222656-.136719-.039063-.269531-.046875-.398438-.027344Zm10.371094 0c-.128906-.019531-.265625-.011719-.402344.027344-.53125.140625-.847656.691406-.707031 1.222656l.519531 1.933594c.121094.445312.523438.738281.964844.738281.089844 0 .175781-.007812.261719-.03125.53125-.144531.851562-.691406.707031-1.222656l-.515625-1.933594c-.109375-.402344-.445312-.679687-.828125-.734375ZM31 52c-.554687 0-1 .445313-1 1v2c0 .554688.445313 1 1 1 .554688 0 1-.445312 1-1v-2c0-.554687-.445312-1-1-1Z"/></svg>