<svg xmlns="http://www.w3.org/2000/svg" width="64px" height="64px"><path fill="#30af59" d="M32 3C16.01 3 3 16.01 3 32s13.01 29 29 29 29-13.01 29-29S47.99 3 32 3zm0 2c14.888 0 27 12.112 27 27S46.888 59 32 59 5 46.888 5 32 17.112 5 32 5zm-.4375 4.0078125c-5.892171.1206309-11.600359 2.5007505-15.826172 6.7265625-8.9669999 8.968-8.9669999 23.560344 0 32.527344.195.195.451031.292968.707031.292969.256 0 .512032-.097969.707032-.292969.391-.391.391-1.023063 0-1.414063-8.1880004-8.187-8.1870004-21.508265 0-29.697265 4.749-4.748 11.5495-6.949766 18.1875-5.884766.543.089 1.058484-.284078 1.146484-.830078.088-.5450001-.285078-1.0594845-.830078-1.1464845-1.3635-.2180625-2.732065-.3090879-4.091797-.28125zm8.095703 1.3789065c-.38925.016828-.750531.259937-.894531.648437-.193.518.06989 1.09511.58789 1.28711.710001.266 1.41561.572968 2.09961.917968.144.073.296266.109375.447266.109375.365 0 .718531-.201781.894531-.550781.249-.492.051594-1.09475-.441407-1.34375-.747999-.378-1.521781-.715859-2.300781-1.005859-.129-.04775-.262828-.06811-.392578-.0625zm5.773438 3.289062c-.253875.031-.496016.159453-.666016.376953-.341.435-.264125 1.061344.171875 1.402344.668.523 1.311109 1.094313 1.912109 1.695313 8.188 8.188 8.188 21.511218 0 29.699218-.391.391-.391 1.023063 0 1.414063.195.195.451032.292969.707032.292969s.512031-.097969.707031-.292969c8.966-8.967 8.966-23.559344 0-32.527344-.658-.658-1.36075-1.282469-2.09375-1.855469-.2175-.1705-.484406-.236078-.738281-.205078zM29 21c-2.197334 0-4 1.802666-4 4v14c0 2.197334 1.802666 4 4 4h6c2.197334 0 4-1.802666 4-4v-6c0-2.197334-1.802666-4-4-4h-8v-4c0-1.116666.883334-2 2-2h5c1.116666 0 2 .883334 2 2a1.0001 1.0001 0 1 0 2 0c0-2.197334-1.802666-4-4-4h-5zm-2 10h8c1.116666 0 2 .883334 2 2v6c0 1.116666-.883334 2-2 2h-6c-1.116666 0-2-.883334-2-2v-8zm-4.626953 17.394531c-.38686-.04814-.781281.132938-.988281.492188l-1 1.730469c-.276.478999-.112766 1.091187.365234 1.367187.157.091.328047.132813.498047.132813.346 0 .682187-.179001.867187-.5l1-1.730469c.277-.478.113766-1.088235-.365234-1.365235-.11975-.069-.248-.110906-.376953-.126953zm19.251953 0c-.128734.016094-.256.057703-.375.126953-.479.276-.642234.889188-.365234 1.367188l1 1.730469c.186.321.521187.5.867187.5.17 0 .341047-.043766.498047-.134766.479-.276.642234-.887234.365234-1.365234l-1-1.730469c-.20775-.35925-.604031-.542422-.990234-.494141zM26.816406 50.34375c-.385687.053438-.722828.331922-.830078.732422l-.517578 1.933594c-.143.533.174031 1.081609.707031 1.224609.087.023.173766.033203.259766.033203.441 0 .845844-.293234.964844-.740234l.519531-1.931641c.143-.533-.174031-1.083562-.707031-1.226562-.13275-.036-.267922-.043203-.396485-.025391zm10.369141 0c-.12875-.017766-.264688-.010859-.398438.025391-.533.143-.850031.692562-.707031 1.226562l.519531 1.931641c.119.447.522844.740234.964844.740234.086 0 .172766-.010203.259766-.033203.533-.143.850031-.690609.707031-1.224609l-.517578-1.933594c-.10725-.4005-.441875-.679125-.828125-.732422zM32 51c-.553 0-1 .447-1 1v2c0 .553.447 1 1 1 .553 0 1-.447 1-1v-2c0-.553-.447-1-1-1z"/></svg>