<svg xmlns="http://www.w3.org/2000/svg" viewBox="0 0 706 439"><defs><linearGradient id="a"><stop offset="0" stop-color="#b4edad"/><stop offset="1" stop-color="#4bd43a"/></linearGradient></defs><path fill="#363a32" d="m412 149.60742-3 5.19727L406 160h4v72.35938A6 5.9999986 0 0 0 406 238a6 5.9999986 0 0 0 6 6 6 5.9999986 0 0 0 6-6 6 5.9999986 0 0 0-4-5.65625V160h4l-3-5.19531z"/><path fill="#c1d0be" d="M40 180c-.2768 0-.54196.0554-.78124.1562-.2396.101-.45204.24892-.63284.42968-.1808.1808-.3288.39336-.42968.63282-.1012.23948-.15624.5043-.15624.7813v4h-4c-2.216 0-4 1.784-4 4v54c0 2.216 1.784 4 4 4h20c2.216 0 4-1.784 4-4v-54c0-2.216-1.784-4-4-4h-4v-4c0-.277-.0552-.5418-.1564-.78124-.1008-.23944-.2488-.45206-.42968-.63282-.1808-.1808-.3932-.32876-.63284-.4297C48.5418 180.05534 48.2768 180 48 180ZM80 180c-.2768 0-.54196.0554-.78124.1562-.2396.101-.45204.24892-.63284.42968-.1808.1808-.3288.39336-.42968.63282-.1012.23948-.15624.5043-.15624.7813v4h-4c-2.216 0-4 1.784-4 4v54c0 2.216 1.784 4 4 4h20c2.216 0 4-1.784 4-4v-54c0-2.216-1.784-4-4-4h-4v-4c0-.277-.0552-.5418-.1564-.78124-.1008-.23944-.2488-.45206-.42968-.63282-.1808-.1808-.3932-.32876-.63284-.4297C88.5418 180.05534 88.2768 180 88 180ZM120 180c-.2768 0-.54196.0554-.78124.1562-.2396.101-.45204.24892-.63284.42968-.1808.1808-.3288.39336-.42968.63282-.1012.23948-.15624.5043-.15624.7813v4h-4c-2.216 0-4 1.784-4 4v54c0 2.216 1.784 4 4 4h20c2.216 0 4-1.784 4-4v-54c0-2.216-1.784-4-4-4h-4v-4c0-.277-.0552-.5418-.1564-.78124-.1008-.23944-.2488-.45206-.42968-.63282-.1808-.1808-.3932-.32876-.63284-.4297C128.5418 180.05534 128.2768 180 128 180Z"/><path fill="#d97b3c" d="M160 180c-.2768 0-.54196.0554-.78124.1562-.2396.101-.45204.24892-.63284.42968-.1808.1808-.3288.39336-.42968.63282-.1012.23948-.15624.5043-.15624.7813v4h-4c-2.216 0-4 1.784-4 4v54c0 2.216 1.784 4 4 4h20c2.216 0 4-1.784 4-4v-54c0-2.216-1.784-4-4-4h-4v-4c0-.277-.0552-.5418-.1564-.78124-.1008-.23944-.2488-.45206-.42968-.63282-.1808-.1808-.3932-.32876-.63284-.4297C168.5418 180.05534 168.2768 180 168 180Z"/><path fill="#c1d0be" d="M40 260c-.2768 0-.54196.0554-.78124.1562-.2396.101-.45204.24892-.63284.42968-.1808.1808-.3288.39336-.42968.63282-.1012.23948-.15624.5043-.15624.7813v4h-4c-2.216 0-4 1.784-4 4v54c0 2.216 1.784 4 4 4h20c2.216 0 4-1.784 4-4v-54c0-2.216-1.784-4-4-4h-4v-4c0-.277-.0552-.5418-.1564-.78124-.1008-.23944-.2488-.45206-.42968-.63282-.1808-.1808-.3932-.32876-.63284-.4297C48.5418 260.05534 48.2768 260 48 260ZM80 260c-.2768 0-.54196.0554-.78124.1562-.2396.101-.45204.24892-.63284.42968-.1808.1808-.3288.39336-.42968.63282-.1012.23948-.15624.5043-.15624.7813v4h-4c-2.216 0-4 1.784-4 4v54c0 2.216 1.784 4 4 4h20c2.216 0 4-1.784 4-4v-54c0-2.216-1.784-4-4-4h-4v-4c0-.277-.0552-.5418-.1564-.78124-.1008-.23944-.2488-.45206-.42968-.63282-.1808-.1808-.3932-.32876-.63284-.4297C88.5418 260.05534 88.2768 260 88 260ZM120 260c-.2768 0-.54196.0554-.78124.1562-.2396.101-.45204.24892-.63284.42968-.1808.1808-.3288.39336-.42968.63282-.1012.23948-.15624.5043-.15624.7813v4h-4c-2.216 0-4 1.784-4 4v54c0 2.216 1.784 4 4 4h20c2.216 0 4-1.784 4-4v-54c0-2.216-1.784-4-4-4h-4v-4c0-.277-.0552-.5418-.1564-.78124-.1008-.23944-.2488-.45206-.42968-.63282-.1808-.1808-.3932-.32876-.63284-.4297C128.5418 260.05534 128.2768 260 128 260ZM160 260c-.2768 0-.54196.0554-.78124.1562-.2396.101-.45204.24892-.63284.42968-.1808.1808-.3288.39336-.42968.63282-.1012.23948-.15624.5043-.15624.7813v4h-4c-2.216 0-4 1.784-4 4v54c0 2.216 1.784 4 4 4h20c2.216 0 4-1.784 4-4v-54c0-2.216-1.784-4-4-4h-4v-4c0-.277-.0552-.5418-.1564-.78124-.1008-.23944-.2488-.45206-.42968-.63282-.1808-.1808-.3932-.32876-.63284-.4297C168.5418 260.05534 168.2768 260 168 260Z"/><g fill="#363a32" stroke-width="2" aria-label="Non-functioning first-life battery pack" font-family="Roboto" font-size="16px" font-weight="700" style="-inkscape-font-specification:&quot;Roboto Bold&quot;;text-align:center" text-anchor="middle"><path d="M56.894531 358.84863h-1.507812l-5.726563-8.76562v8.76562h-1.507812v-11.375h1.507812l5.742188 8.80469v-8.80469h1.492187zm2.054688-4.30468q0-1.24219.484375-2.23438.492187-.99219 1.359375-1.53125.875-.53906 1.992187-.53906 1.726563 0 2.789063 1.19531 1.070312 1.19531 1.070312 3.17969v.10156q0 1.23438-.476562 2.21875-.46875.97656-1.351563 1.52344-.875.54687-2.015625.54687-1.71875 0-2.789062-1.19531-1.0625-1.19531-1.0625-3.16406zm1.453125.17187q0 1.40625.648437 2.25781.65625.85157 1.75.85157 1.101563 0 1.75-.85938.648438-.86719.648438-2.42187 0-1.39063-.664063-2.25-.65625-.86719-1.75-.86719-1.070312 0-1.726562.85156t-.65625 2.4375zm9.421875-4.32031.04687 1.0625q.96875-1.21875 2.53125-1.21875 2.679687 0 2.703125 3.02344v5.58593h-1.445313v-5.59375q-.0078-.91406-.421875-1.35156-.40625-.4375-1.273437-.4375-.703125 0-1.234375.375t-.828125.98438v6.02343h-1.445313v-8.45312zm10.46875 4.21094h-3.8125v-1.17969h3.8125zm2.117187 4.24218v-7.33593h-1.335937v-1.11719h1.335937v-.86719q0-1.35937.726563-2.10156.726562-.74219 2.054687-.74219.5 0 .992188.13281l-.07813 1.17188q-.367188-.0703-.78125-.0703-.703125 0-1.085938.41406-.382812.40625-.382812 1.17187v.89063h1.804687v1.11719h-1.804687v7.33593zm10.0625-.83593q-.84375.99218-2.476562.99218-1.351563 0-2.0625-.78125-.703125-.78906-.710938-2.32812v-5.5h1.445313v5.46094q0 1.92187 1.5625 1.92187 1.65625 0 2.203125-1.23437v-6.14844h1.445312v8.45312h-1.375zm4.96875-7.61719.04687 1.0625q.96875-1.21875 2.531249-1.21875 2.67969 0 2.70313 3.02344v5.58593h-1.44532v-5.59375q-.008-.91406-.42187-1.35156-.40625-.4375-1.273439-.4375-.703125 0-1.234375.375t-.828125.98438v6.02343h-1.445312v-8.45312zm10.851564 7.42969q.77344 0 1.35156-.46875.57813-.46875.64063-1.17188h1.36718q-.0391.72656-.5 1.38281-.46093.65625-1.23437 1.04688-.76563.39062-1.625.39062-1.72656 0-2.75-1.14843-1.01563-1.15625-1.01563-3.15625v-.24219q0-1.23438.45313-2.19531.45312-.96094 1.29687-1.49219.85157-.53125 2.00782-.53125 1.42187 0 2.35937.85156.94531.85156 1.00781 2.21094h-1.36718q-.0625-.82031-.625-1.34375-.55469-.53125-1.375-.53125-1.10157 0-1.71094.79687-.60156.78907-.60156 2.28907v.27343q0 1.46094.60156 2.25.60156.78907 1.71875.78907zm6.94531-9.47657v2.04688h1.57813v1.11719h-1.57813v5.24218q0 .50782.21094.76563.21094.25.71875.25.25 0 .6875-.0937v1.17187q-.57031.15625-1.10938.15625-.96875 0-1.46093-.58593-.49219-.58594-.49219-1.66407v-5.24218h-1.53906v-1.11719h1.53906v-2.04688zm4.83594 10.5h-1.44531v-8.45312h1.44531zm-1.5625-10.69531q0-.35156.21094-.59375.21875-.24219.64062-.24219.42188 0 .64063.24219.21875.24219.21875.59375t-.21875.58594q-.21875.23437-.64063.23437-.42187 0-.64062-.23437-.21094-.23438-.21094-.58594zm3.49219 6.39063q0-1.24219.48437-2.23438.49219-.99219 1.35938-1.53125.875-.53906 1.99218-.53906 1.72657 0 2.78907 1.19531 1.07031 1.19531 1.07031 3.17969v.10156q0 1.23438-.47656 2.21875-.46875.97656-1.35157 1.52344-.875.54687-2.01562.54687-1.71875 0-2.78906-1.19531-1.0625-1.19531-1.0625-3.16406zm1.45312.17187q0 1.40625.64844 2.25781.65625.85157 1.75.85157 1.10156 0 1.75-.85938.64844-.86719.64844-2.42187 0-1.39063-.66407-2.25-.65625-.86719-1.75-.86719-1.07031 0-1.72656.85156t-.65625 2.4375zm9.42188-4.32031.0469 1.0625q.96875-1.21875 2.53125-1.21875 2.67969 0 2.70313 3.02344v5.58593h-1.44532v-5.59375q-.008-.91406-.42187-1.35156-.40625-.4375-1.27344-.4375-.70312 0-1.23437.375t-.82813.98438v6.02343h-1.44531v-8.45312zm9.03125 8.45312h-1.44532v-8.45312h1.44532zm-1.5625-10.69531q0-.35156.21093-.59375.21875-.24219.64063-.24219.42187 0 .64062.24219.21875.24219.21875.59375t-.21875.58594q-.21875.23437-.64062.23437-.42188 0-.64063-.23437-.21093-.23438-.21093-.58594zm5.24218 2.24219.0469 1.0625q.96875-1.21875 2.53125-1.21875 2.67969 0 2.70312 3.02344v5.58593h-1.44531v-5.59375q-.008-.91406-.42187-1.35156-.40625-.4375-1.27344-.4375-.70313 0-1.23438.375t-.82812.98438v6.02343h-1.44531v-8.45312zm7.11719 4.15625q0-1.97656.91406-3.14063.91407-1.17187 2.42188-1.17187 1.54687 0 2.41406 1.09375l.0703-.9375h1.32032v8.25q0 1.64062-.97657 2.58594-.96875.94531-2.60937.94531-.91406 0-1.78906-.39063-.875-.39062-1.33594-1.07031l.75-.86719q.92969 1.14844 2.27344 1.14844 1.05468 0 1.64062-.59375.59375-.59375.59375-1.67187v-.72657q-.86719 1-2.36719 1-1.48437 0-2.40625-1.19531-.91406-1.19531-.91406-3.25781zm1.45313.16406q0 1.42969.58593 2.25.58594.8125 1.64063.8125 1.36719 0 2.00781-1.24219v-3.85937q-.66406-1.21094-1.99219-1.21094-1.05468 0-1.64843.82031-.59375.82032-.59375 2.42969zM51.726562 378.84863v-7.33593h-1.335937v-1.11719h1.335937v-.71875q0-1.41406.804688-2.20313.8125-.78906 2.289062-.78906.875 0 2.210938.47656l-.242188 1.21875q-.976562-.39062-1.859375-.39062-.929687 0-1.34375.42187-.40625.41407-.40625 1.25v.73438h1.726563v1.11719h-1.726563v7.33593zm6.023438 0h-1.453125v-8.45312H57.75Zm6.4375-7.15625q-.328125-.0547-.710938-.0547-1.421875 0-1.929687 1.21093v6h-1.445313v-8.45312h1.40625l.02344.97656q.710937-1.13281 2.015625-1.13281.421875 0 .640625.10937zm6.25 4.91407q0-.58594-.445313-.90625-.4375-.32813-1.539062-.5625-1.09375-.23438-1.742188-.5625-.640625-.32813-.953125-.78125-.304687-.45313-.304687-1.07813 0-1.03906.875-1.75781.882812-.71875 2.25-.71875 1.4375 0 2.328125.74219.898437.74218.898437 1.89843h-1.453125q0-.59375-.507812-1.02343-.5-.42969-1.265625-.42969-.789063 0-1.234375.34375-.445313.34375-.445313.89844 0 .52343.414063.78906.414062.26562 1.492187.50781 1.085938.24219 1.757813.57813.671875.33593.992187.8125.328125.46875.328125 1.14843 0 1.13282-.90625 1.82032-.90625.67968-2.351562.67968-1.015625 0-1.796875-.35937-.78125-.35938-1.226563-1-.4375-.64844-.4375-1.39844h1.445313q.03906.72656.578125 1.15625.546875.42188 1.4375.42188.820312 0 1.3125-.32813.5-.33594.5-.89062zm5.289062-8.25782v2.04688h1.578125v1.11719h-1.578125v5.24218q0 .50782.210938.76563.210937.25.71875.25.25 0 .6875-.0937v1.17187q-.570313.15625-1.109375.15625-.96875 0-1.460938-.58593-.492187-.58594-.492187-1.66407v-5.24218h-1.539063v-1.11719h1.539063v-2.04688zM82 374.60645h-3.8125v-1.17969H82Zm2.976562 4.24218H83.53125v-12h1.445312zm3.882813 0h-1.445313v-8.45312h1.445313zm-1.5625-10.69531q0-.35156.210937-.59375.21875-.24219.640625-.24219t.640625.24219q.21875.24219.21875.59375t-.21875.58594q-.21875.23437-.640625.23437t-.640625-.23437q-.210937-.23438-.210937-.58594zm4.585937 10.69531v-7.33593h-1.335937v-1.11719h1.335937v-.86719q0-1.35937.726563-2.10156.726562-.74219 2.054687-.74219.5 0 .992188.13281l-.07813 1.17188q-.367188-.0703-.78125-.0703-.703125 0-1.085938.41406-.382812.40625-.382812 1.17187v.89063h1.804687v1.11719H93.32812v7.33593zm8.164068.15625q-1.718755 0-2.79688-1.125-1.078125-1.13281-1.078125-3.02343v-.26563q0-1.25781.476562-2.24219.484375-.99218 1.34375-1.54687.867188-.5625 1.875-.5625 1.648443 0 2.562503 1.08594.91406 1.08593.91406 3.10937v.60156h-5.726563q.03125 1.25.726563 2.02344.703125.76563 1.78125.76563.76563 0 1.29688-.3125t.92968-.82813l.88282.6875q-1.0625 1.63281-3.1875 1.63281zm-.179693-7.57812q-.875 0-1.46875.64062-.59375.63282-.734375 1.78125h4.234378v-.10937q-.0625-1.10156-.59375-1.70313-.53125-.60937-1.437503-.60937zm16.265623 3.28906q0 1.9375-.89062 3.11719-.89063 1.17187-2.39063 1.17187-1.60156 0-2.47656-1.13281l-.0703.97656h-1.32813v-12h1.44532v4.47657q.875-1.08594 2.41406-1.08594t2.41406 1.16406q.88281 1.16406.88281 3.1875zm-1.44531-.16406q0-1.47656-.57031-2.28125-.57031-.80469-1.64063-.80469-1.42968 0-2.05468 1.32813v3.65625q.66406 1.32812 2.07031 1.32812 1.03906 0 1.61719-.80469.57812-.80468.57812-2.42187zm8.48438 4.29687q-.125-.25-.20313-.89062-1.00781 1.04687-2.40625 1.04687-1.25 0-2.05469-.70312-.79687-.71094-.79687-1.79688 0-1.32031 1-2.04687 1.00781-.73438 2.82812-.73438h1.40625v-.66406q0-.75781-.45312-1.20312-.45313-.45313-1.33594-.45313-.77344 0-1.29687.39063-.52344.39062-.52344.94531h-1.45313q0-.63281.44532-1.21875.45312-.59375 1.21875-.9375.77343-.34375 1.69531-.34375 1.46094 0 2.28906.73437.82813.72657.85938 2.00782v3.89062q0 1.16406.29687 1.85156v.125zm-2.39844-1.10156q.67969 0 1.28906-.35156.60938-.35156.88281-.91406v-1.73438h-1.13281q-2.65625 0-2.65625 1.55469 0 .67969.45313 1.0625.45312.38281 1.16406.38281zm7.84375-9.39844v2.04688h1.57812v1.11719h-1.57812v5.24218q0 .50782.21093.76563.21094.25.71875.25.25 0 .6875-.0937v1.17187q-.57031.15625-1.10937.15625-.96875 0-1.46094-.58593-.49218-.58594-.49218-1.66407v-5.24218h-1.53907v-1.11719h1.53907v-2.04688zm5.22656 0v2.04688h1.57812v1.11719h-1.57812v5.24218q0 .50782.21094.76563.21093.25.71875.25.25 0 .6875-.0937v1.17187q-.57032.15625-1.10938.15625-.96875 0-1.46094-.58593-.49218-.58594-.49218-1.66407v-5.24218h-1.53907v-1.11719h1.53907v-2.04688zm6.77344 10.65625q-1.71875 0-2.79688-1.125-1.07812-1.13281-1.07812-3.02343v-.26563q0-1.25781.47656-2.24219.48437-.99218 1.34375-1.54687.86719-.5625 1.875-.5625 1.64844 0 2.5625 1.08594.91406 1.08593.91406 3.10937v.60156h-5.72656q.0312 1.25.72656 2.02344.70313.76563 1.78125.76563.76563 0 1.29688-.3125t.92968-.82813l.88282.6875q-1.0625 1.63281-3.1875 1.63281zm-.17969-7.57812q-.875 0-1.46875.64062-.59375.63282-.73438 1.78125h4.23438v-.10937q-.0625-1.10156-.59375-1.70313-.53125-.60937-1.4375-.60937zm9.23437.26562q-.32812-.0547-.71093-.0547-1.42188 0-1.92969 1.21093v6h-1.44531v-8.45312h1.40625l.0234.97656q.71094-1.13281 2.01563-1.13281.42187 0 .64062.10937zm4.23438 5.03907 1.96875-6.33594h1.54687l-3.39843 9.75781q-.78907 2.10938-2.50782 2.10938l-.27343-.0234-.53907-.10156v-1.17188l.39063.0312q.73437 0 1.14062-.29687.41407-.29688.67969-1.08594l.32031-.85938-3.01562-8.35937h1.57812zM95.035156 394.71582q0 1.92969-.882812 3.10938-.882813 1.17968-2.390625 1.17968-1.539063 0-2.421875-.97656v4.07031h-1.445313v-11.70312h1.320313l.07031.9375q.882813-1.09375 2.453125-1.09375 1.523438 0 2.40625 1.14844.890625 1.14843.890625 3.19531zm-1.445312-.16406q0-1.42969-.609375-2.25781-.609375-.82813-1.671875-.82813-1.3125 0-1.96875 1.16406v4.03907q.648437 1.15625 1.984375 1.15625 1.039062 0 1.648437-.82032.617188-.82812.617188-2.45312zm8.499996 4.29687q-.125-.25-.20312-.89062-1.00781 1.04687-2.406251 1.04687-1.25 0-2.054688-.70312-.796875-.71094-.796875-1.79688 0-1.32031 1-2.04687 1.007813-.73438 2.828124-.73438h1.40625v-.66406q0-.75781-.45312-1.20312-.45313-.45313-1.33594-.45313-.773439 0-1.296876.39063-.523438.39062-.523438.94531h-1.453125q0-.63281.445313-1.21875.453125-.59375 1.21875-.9375.773437-.34375 1.695316-.34375 1.46093 0 2.28906.73437.82812.72657.85937 2.00782v3.89062q0 1.16406.29688 1.85156v.125zm-2.398434-1.10156q.679684 0 1.289064-.35156.60937-.35156.88281-.91406v-1.73438h-1.13281q-2.656251 0-2.656251 1.55469 0 .67969.453125 1.0625t1.164062.38281zm9.273434.0781q.77344 0 1.35157-.46875.57812-.46875.64062-1.17188h1.36719q-.0391.72656-.5 1.38281-.46094.65625-1.23438 1.04688-.76562.39062-1.625.39062-1.72656 0-2.75-1.14843-1.01562-1.15625-1.01562-3.15625v-.24219q0-1.23438.45312-2.19531.45313-.96094 1.29688-1.49219.85156-.53125 2.00781-.53125 1.42188 0 2.35938.85156.94531.85156 1.00781 2.21094h-1.36719q-.0625-.82031-.625-1.34375-.55469-.53125-1.375-.53125-1.10156 0-1.71094.79687-.60156.78907-.60156 2.28907v.27343q0 1.46094.60156 2.25.60157.78907 1.71875.78907zm7.34375-2.89063-.90625.94531v2.96875h-1.44531v-12h1.44531v7.25782l.77344-.92969 2.63281-2.78125h1.75782l-3.28907 3.53125 3.67188 4.92187h-1.69531z" style="-inkscape-font-specification:Roboto"/></g><path fill="#d97b3c" d="M116.17188 166v-11.375h3.5q1.5 0 2.67968.67969 1.1875.67187 1.85157 1.92187.66406 1.24219.66406 2.82813v.52343q0 1.58594-.65625 2.82032-.64844 1.23437-1.83594 1.91406-1.1875.67969-2.67969.6875zm2.34375-9.47656v7.59375h1.13281q1.375 0 2.10156-.89844.72656-.89844.74219-2.57031v-.60157q0-1.73437-.71875-2.625-.71875-.89843-2.10156-.89843zM131.32031 166q-.15625-.30469-.22656-.75781-.82031.91406-2.13281.91406-1.24219 0-2.0625-.71875-.8125-.71875-.8125-1.8125 0-1.34375.99219-2.0625.99999-.71875 2.88281-.72656H131v-.48438q0-.58594-.30469-.9375-.29687-.35156-.94531-.35156-.57031 0-.89844.27344-.32031.27343-.32031.75h-2.25781q0-.73438.45312-1.35938.45313-.625 1.28125-.97656.82813-.35938 1.85938-.35938 1.5625 0 2.47656.78907.92187.78125.92187 2.20312v3.66406q.008 1.20313.33594 1.82032V166Zm-1.86719-1.57031q.5 0 .92188-.21875.42187-.22657.625-.60157v-1.45312h-.84375q-1.69531 0-1.80469 1.17187l-.008.13282q0 .42187.29687.69531.29688.27344.8125.27344zm7.66407-6.88282.0703.94532q.89844-1.10157 2.42969-1.10157 1.63281 0 2.24218 1.28907.89063-1.28907 2.53907-1.28907 1.375 0 2.04687.80469.67188.79688.67188 2.40625V166h-2.26563v-5.39063q0-.71875-.28125-1.04687-.28125-.33594-.99219-.33594-1.01562 0-1.40625.96875l.008 5.80469h-2.25782v-5.38281q0-.73438-.28906-1.0625-.28906-.32813-.98437-.32813-.96094 0-1.39063.79688V166H135v-8.45313zM153.75 166q-.15625-.30469-.22656-.75781-.82032.91406-2.13282.91406-1.24218 0-2.0625-.71875-.8125-.71875-.8125-1.8125 0-1.34375.99219-2.0625 1-.71875 2.88281-.72656h1.03907v-.48438q0-.58594-.30469-.9375-.29688-.35156-.94531-.35156-.57032 0-.89844.27344-.32031.27343-.32031.75h-2.25782q0-.73438.45313-1.35938.45312-.625 1.28125-.97656.82812-.35938 1.85937-.35938 1.5625 0 2.47657.78907.92187.78125.92187 2.20312v3.66406q.008 1.20313.33594 1.82032V166Zm-1.86719-1.57031q.5 0 .92188-.21875.42187-.22657.625-.60157v-1.45312h-.84375q-1.69532 0-1.80469 1.17187l-.008.13282q0 .42187.29687.69531.29688.27344.8125.27344zm5.21875-2.71875q0-1.94532.92188-3.13282.92968-1.1875 2.5-1.1875 1.39062 0 2.16406.95313l.0937-.79688h2.04687v8.17188q0 1.10937-.50781 1.92969-.5.82031-1.41406 1.25-.91406.42968-2.14063.42968-.92968 0-1.8125-.375-.88281-.36718-1.33593-.95312l1-1.375q.84375.94531 2.04687.94531.89844 0 1.39844-.48437.5-.47657.5-1.35938v-.45312q-.78125.88281-2.05469.88281-1.52344 0-2.46875-1.1875-.9375-1.19531-.9375-3.16406zm2.25781.16406q0 1.14844.46094 1.80469.46094.64843 1.26563.64843 1.03125 0 1.47656-.77343V160q-.45313-.77344-1.46094-.77344-.8125 0-1.28125.66406-.46094.66407-.46094 1.98438zm11.09375 4.28125q-1.85937 0-3.03125-1.14063-1.16406-1.14062-1.16406-3.03906v-.21875q0-1.27344.49219-2.27344.49219-1.00781 1.39062-1.54687.90625-.54688 2.0625-.54688 1.73438 0 2.72657 1.09375 1 1.09375 1 3.10157v.92187h-5.38282q.10938.82813.65625 1.32813.55469.5 1.39844.5 1.30469 0 2.03906-.94532l1.10938 1.24219q-.50781.71875-1.375 1.125-.86719.39844-1.92188.39844zm-.25781-6.9375q-.67187 0-1.09375.45312-.41406.45313-.53125 1.29688h3.14063v-.17969q-.0156-.75-.40625-1.15625-.39063-.41406-1.10938-.41406zm4.66406 2.49219q0-1.97657.88282-3.14844.89062-1.17188 2.42968-1.17188 1.23438 0 2.03907.92188V154h2.26562v12h-2.03906l-.10938-.89844q-.84375 1.05469-2.17187 1.05469-1.49219 0-2.39844-1.17188-.89844-1.17968-.89844-3.27343zm2.25782.16406q0 1.1875.41406 1.82031.41406.63281 1.20312.63281 1.04688 0 1.47657-.88281v-3.33594q-.42188-.88281-1.46094-.88281-1.63281 0-1.63281 2.64844zm14.60937 2.46094q.625 0 1.01563-.34375.39062-.34375.40625-.91407h2.11718q-.008.85938-.46875 1.57813-.46093.71094-1.26562 1.10937-.79688.39063-1.76563.39063-1.8125 0-2.85937-1.14844-1.04688-1.15625-1.04688-3.1875v-.14844q0-1.95312 1.03907-3.11718 1.03906-1.16407 2.85156-1.16407 1.58594 0 2.53906.90625.96094.89844.97656 2.39844h-2.11718q-.0156-.65625-.40625-1.0625-.39063-.41406-1.03125-.41406-.78907 0-1.19532.57812-.39843.57032-.39843 1.85938v.23437q0 1.30469.39843 1.875.39844.57032 1.21094.57032zm8.71875 1.82031q-1.85937 0-3.03125-1.14063-1.16406-1.14062-1.16406-3.03906v-.21875q0-1.27344.49219-2.27344.49218-1.00781 1.39062-1.54687.90625-.54688 2.0625-.54688 1.73438 0 2.72656 1.09375 1 1.09375 1 3.10157v.92187h-5.38281q.10938.82813.65625 1.32813.55469.5 1.39844.5 1.30469 0 2.03906-.94532l1.10938 1.24219q-.50782.71875-1.375 1.125-.86719.39844-1.92188.39844zm-.25781-6.9375q-.67188 0-1.09375.45312-.41406.45313-.53125 1.29688h3.14062v-.17969q-.0156-.75-.40625-1.15625-.39062-.41406-1.10937-.41406zM207.58594 166h-2.26563v-12h2.26563zm4.24218 0h-2.26562v-12h2.26562z" aria-label="Damaged cell" style="-inkscape-font-specification:&quot;Roboto Bold&quot;"/><path fill="#363a32" d="M248 248v4h-50v4h50v4l5.19531-3 5.19727-3-5.19727-3z"/><path fill="#c1d0be" d="M288 180c-.2768 0-.54196.0554-.78124.1562-.2396.101-.45204.24892-.63284.42968-.1808.1808-.3288.39336-.42968.63282-.1012.23948-.15624.5043-.15624.7813v4h-4c-2.216 0-4 1.784-4 4v54c0 2.216 1.784 4 4 4h20c2.216 0 4-1.784 4-4v-54c0-2.216-1.784-4-4-4h-4v-4c0-.277-.0552-.5418-.1564-.78124-.1008-.23944-.2488-.45206-.42968-.63282-.1808-.1808-.3932-.32876-.63284-.4297C296.5418 180.05534 296.2768 180 296 180ZM328 180c-.2768 0-.54196.0554-.78124.1562-.2396.101-.45204.24892-.63284.42968-.1808.1808-.3288.39336-.42968.63282-.1012.23948-.15624.5043-.15624.7813v4h-4c-2.216 0-4 1.784-4 4v54c0 2.216 1.784 4 4 4h20c2.216 0 4-1.784 4-4v-54c0-2.216-1.784-4-4-4h-4v-4c0-.277-.0552-.5418-.1564-.78124-.1008-.23944-.2488-.45206-.42968-.63282-.1808-.1808-.3932-.32876-.63284-.4297C336.5418 180.05534 336.2768 180 336 180ZM368 180c-.2768 0-.54196.0554-.78124.1562-.2396.101-.45204.24892-.63284.42968-.1808.1808-.3288.39336-.42968.63282-.1012.23948-.15624.5043-.15624.7813v4h-4c-2.216 0-4 1.784-4 4v54c0 2.216 1.784 4 4 4h20c2.216 0 4-1.784 4-4v-54c0-2.216-1.784-4-4-4h-4v-4c0-.277-.0552-.5418-.1564-.78124-.1008-.23944-.2488-.45206-.42968-.63282-.1808-.1808-.3932-.32876-.63284-.4297C376.5418 180.05534 376.2768 180 376 180ZM288 260c-.2768 0-.54196.0554-.78124.1562-.2396.101-.45204.24892-.63284.42968-.1808.1808-.3288.39336-.42968.63282-.1012.23948-.15624.5043-.15624.7813v4h-4c-2.216 0-4 1.784-4 4v54c0 2.216 1.784 4 4 4h20c2.216 0 4-1.784 4-4v-54c0-2.216-1.784-4-4-4h-4v-4c0-.277-.0552-.5418-.1564-.78124-.1008-.23944-.2488-.45206-.42968-.63282-.1808-.1808-.3932-.32876-.63284-.4297C296.5418 260.05534 296.2768 260 296 260ZM328 260c-.2768 0-.54196.0554-.78124.1562-.2396.101-.45204.24892-.63284.42968-.1808.1808-.3288.39336-.42968.63282-.1012.23948-.15624.5043-.15624.7813v4h-4c-2.216 0-4 1.784-4 4v54c0 2.216 1.784 4 4 4h20c2.216 0 4-1.784 4-4v-54c0-2.216-1.784-4-4-4h-4v-4c0-.277-.0552-.5418-.1564-.78124-.1008-.23944-.2488-.45206-.42968-.63282-.1808-.1808-.3932-.32876-.63284-.4297C336.5418 260.05534 336.2768 260 336 260ZM368 260c-.2768 0-.54196.0554-.78124.1562-.2396.101-.45204.24892-.63284.42968-.1808.1808-.3288.39336-.42968.63282-.1012.23948-.15624.5043-.15624.7813v4h-4c-2.216 0-4 1.784-4 4v54c0 2.216 1.784 4 4 4h20c2.216 0 4-1.784 4-4v-54c0-2.216-1.784-4-4-4h-4v-4c0-.277-.0552-.5418-.1564-.78124-.1008-.23944-.2488-.45206-.42968-.63282-.1808-.1808-.3932-.32876-.63284-.4297C376.5418 260.05534 376.2768 260 376 260ZM408 260c-.2768 0-.54196.0554-.78124.1562-.2396.101-.45204.24892-.63284.42968-.1808.1808-.3288.39336-.42968.63282-.1012.23948-.15624.5043-.15624.7813v4h-4c-2.216 0-4 1.784-4 4v54c0 2.216 1.784 4 4 4h20c2.216 0 4-1.784 4-4v-54c0-2.216-1.784-4-4-4h-4v-4c0-.277-.0552-.5418-.1564-.78124-.1008-.23944-.2488-.45206-.42968-.63282-.1808-.1808-.3932-.32876-.63284-.4297C416.5418 260.05534 416.2768 260 416 260Z"/><g fill="#363a32" stroke-width="2" aria-label="State-of-health assessment with" font-family="Roboto" font-size="16px" font-weight="700" style="-inkscape-font-specification:&quot;Roboto Bold&quot;;text-align:center" text-anchor="middle"><path d="M304.50781 353.77832q-1.92969-.55469-2.8125-1.35937-.875-.8125-.875-2 0-1.34375 1.07031-2.21875 1.07813-.88282 2.79688-.88282 1.17187 0 2.08594.45313.92187.45312 1.42187 1.25.50781.79687.50781 1.74219h-1.50781q0-1.03125-.65625-1.61719-.65625-.59375-1.85156-.59375-1.10938 0-1.73438.49219-.61718.48437-.61718 1.35156 0 .69531.58593 1.17969.59375.47656 2.00782.875 1.42187.39843 2.21875.88281.80468.47656 1.1875 1.11719.39062.64062.39062 1.50781 0 1.38281-1.07812 2.21875-1.07813.82812-2.88282.82812-1.17187 0-2.1875-.44531-1.01562-.45312-1.57031-1.23437-.54687-.78125-.54687-1.77344h1.50781q0 1.03125.75781 1.63281.76563.59375 2.03906.59375 1.1875 0 1.82032-.48437.63281-.48438.63281-1.32032 0-.83593-.58594-1.28906-.58594-.46094-2.125-.90625zm7.875-5.42969v2.04688h1.57813v1.11719h-1.57813v5.24218q0 .50782.21094.76563.21094.25.71875.25.25 0 .6875-.0937v1.17187q-.57031.15625-1.10938.15625-.96875 0-1.46093-.58593-.49219-.58594-.49219-1.66407v-5.24218h-1.53906v-1.11719h1.53906v-2.04688zm8.48438 10.5q-.125-.25-.20313-.89062-1.00781 1.04687-2.40625 1.04687-1.25 0-2.05469-.70312-.79687-.71094-.79687-1.79688 0-1.32031 1-2.04687 1.00781-.73438 2.82812-.73438h1.40625v-.66406q0-.75781-.45312-1.20312-.45313-.45313-1.33594-.45313-.77344 0-1.29687.39063-.52344.39062-.52344.94531h-1.45313q0-.63281.44532-1.21875.45312-.59375 1.21875-.9375.77343-.34375 1.69531-.34375 1.46094 0 2.28906.73437.82813.72657.85938 2.00782v3.89062q0 1.16406.29687 1.85156v.125zm-2.39844-1.10156q.67969 0 1.28906-.35156.60938-.35156.88281-.91406v-1.73438h-1.13281q-2.65625 0-2.65625 1.55469 0 .67969.45313 1.0625.45312.38281 1.16406.38281zm7.84375-9.39844v2.04688h1.57812v1.11719h-1.57812v5.24218q0 .50782.21094.76563.21093.25.71875.25.25 0 .6875-.0937v1.17187q-.57032.15625-1.10938.15625-.96875 0-1.46094-.58593-.49218-.58594-.49218-1.66407v-5.24218h-1.53907v-1.11719h1.53907v-2.04688zm6.77344 10.65625q-1.71875 0-2.79688-1.125-1.07812-1.13281-1.07812-3.02343v-.26563q0-1.25781.47656-2.24219.48437-.99218 1.34375-1.54687.86719-.5625 1.875-.5625 1.64844 0 2.5625 1.08594.91406 1.08593.91406 3.10937v.60156h-5.72656q.0312 1.25.72656 2.02344.70313.76563 1.78125.76563.76563 0 1.29688-.3125t.92968-.82813l.88282.6875q-1.0625 1.63281-3.1875 1.63281zm-.17969-7.57812q-.875 0-1.46875.64062-.59375.63282-.73438 1.78125h4.23438v-.10937q-.0625-1.10156-.59375-1.70313-.53125-.60937-1.4375-.60937zm8.15625 3.17969H337.25v-1.17969h3.8125zm1.02344-.0625q0-1.24219.48437-2.23438.49219-.99219 1.35938-1.53125.875-.53906 1.99218-.53906 1.72657 0 2.78907 1.19531 1.07031 1.19531 1.07031 3.17969v.10156q0 1.23438-.47656 2.21875-.46875.97656-1.35157 1.52344-.875.54687-2.01562.54687-1.71875 0-2.78906-1.19531-1.0625-1.19531-1.0625-3.16406zm1.45312.17187q0 1.40625.64844 2.25781.65625.85157 1.75.85157 1.10156 0 1.75-.85938.64844-.86719.64844-2.42187 0-1.39063-.66407-2.25-.65625-.86719-1.75-.86719-1.07031 0-1.72656.85156t-.65625 2.4375zm8.76563 4.13281v-7.33593h-1.33594v-1.11719h1.33594v-.86719q0-1.35937.72656-2.10156.72656-.74219 2.05469-.74219.5 0 .99218.13281L356 347.98926q-.36719-.0703-.78125-.0703-.70313 0-1.08594.41406-.38281.40625-.38281 1.17187v.89063h1.80469v1.11719H353.75v7.33593zm7.85156-4.24218h-3.8125v-1.17969h3.8125zm2.85156-3.1875q.96094-1.17969 2.5-1.17969 2.67969 0 2.70313 3.02344v5.58593h-1.44532v-5.59375q-.008-.91406-.42187-1.35156-.40625-.4375-1.27344-.4375-.70312 0-1.23437.375t-.82813.98438v6.02343h-1.44531v-12h1.44531zm10.875 7.58593q-1.71875 0-2.79687-1.125-1.07813-1.13281-1.07813-3.02343v-.26563q0-1.25781.47656-2.24219.48438-.99218 1.34375-1.54687.86719-.5625 1.875-.5625 1.64844 0 2.5625 1.08594.91407 1.08593.91407 3.10937v.60156h-5.72657q.0312 1.25.72657 2.02344.70312.76563 1.78125.76563.76562 0 1.29687-.3125t.92969-.82813l.88281.6875q-1.0625 1.63281-3.1875 1.63281zm-.17969-7.57812q-.875 0-1.46875.64062-.59375.63282-.73437 1.78125h4.23437v-.10937q-.0625-1.10156-.59375-1.70313-.53125-.60937-1.4375-.60937zm10.36719 7.42187q-.125-.25-.20312-.89062-1.00782 1.04687-2.40625 1.04687-1.25 0-2.05469-.70312-.79688-.71094-.79688-1.79688 0-1.32031 1-2.04687 1.00782-.73438 2.82813-.73438h1.40625v-.66406q0-.75781-.45313-1.20312-.45312-.45313-1.33593-.45313-.77344 0-1.29688.39063-.52344.39062-.52344.94531h-1.45312q0-.63281.44531-1.21875.45313-.59375 1.21875-.9375.77344-.34375 1.69531-.34375 1.46094 0 2.28907.73437.82812.72657.85937 2.00782v3.89062q0 1.16406.29688 1.85156v.125zm-2.39844-1.10156q.67969 0 1.28907-.35156.60937-.35156.88281-.91406v-1.73438h-1.13281q-2.65625 0-2.65625 1.55469 0 .67969.45312 1.0625.45313.38281 1.16406.38281zm7.45313 1.10156h-1.44531v-12h1.44531zm4.27344-10.5v2.04688h1.57812v1.11719h-1.57812v5.24218q0 .50782.21093.76563.21094.25.71875.25.25 0 .6875-.0937v1.17187q-.57031.15625-1.10937.15625-.96875 0-1.46094-.58593-.49219-.58594-.49219-1.66407v-5.24218h-1.53906v-1.11719h1.53906v-2.04688zm4.71093 3.07032q.96094-1.17969 2.5-1.17969 2.67969 0 2.70313 3.02344v5.58593h-1.44531v-5.59375q-.008-.91406-.42188-1.35156-.40625-.4375-1.27344-.4375-.70312 0-1.23437.375t-.82813.98438v6.02343h-1.44531v-12h1.44531zM298.10156 378.84863q-.125-.25-.20312-.89062-1.00782 1.04687-2.40625 1.04687-1.25 0-2.05469-.70312-.79688-.71094-.79688-1.79688 0-1.32031 1-2.04687 1.00782-.73438 2.82813-.73438h1.40625v-.66406q0-.75781-.45313-1.20312-.45312-.45313-1.33593-.45313-.77344 0-1.29688.39063-.52344.39062-.52344.94531h-1.45312q0-.63281.44531-1.21875.45313-.59375 1.21875-.9375.77344-.34375 1.69531-.34375 1.46094 0 2.28907.73437.82812.72657.85937 2.00782v3.89062q0 1.16406.29688 1.85156v.125zm-2.39844-1.10156q.67969 0 1.28907-.35156.60937-.35156.88281-.91406v-1.73438h-1.13281q-2.65625 0-2.65625 1.55469 0 .67969.45312 1.0625.45313.38281 1.16406.38281zm10.80469-1.14062q0-.58594-.44531-.90625-.4375-.32813-1.53906-.5625-1.09375-.23438-1.74219-.5625-.64063-.32813-.95313-.78125-.30468-.45313-.30468-1.07813 0-1.03906.875-1.75781.88281-.71875 2.25-.71875 1.4375 0 2.32812.74219.89844.74218.89844 1.89843h-1.45313q0-.59375-.50781-1.02343-.5-.42969-1.26562-.42969-.78907 0-1.23438.34375t-.44531.89844q0 .52343.41406.78906.41406.26562 1.49219.50781 1.08594.24219 1.75781.57813.67188.33593.99219.8125.32812.46875.32812 1.14843 0 1.13282-.90625 1.82032-.90625.67968-2.35156.67968-1.01562 0-1.79687-.35937-.78125-.35938-1.22657-1-.4375-.64844-.4375-1.39844h1.44532q.0391.72656.57812 1.15625.54688.42188 1.4375.42188.82031 0 1.3125-.32813.5-.33594.5-.89062zm8.25 0q0-.58594-.44531-.90625-.4375-.32813-1.53906-.5625-1.09375-.23438-1.74219-.5625-.64063-.32813-.95313-.78125-.30468-.45313-.30468-1.07813 0-1.03906.875-1.75781.88281-.71875 2.25-.71875 1.4375 0 2.32812.74219.89844.74218.89844 1.89843h-1.45313q0-.59375-.50781-1.02343-.5-.42969-1.26562-.42969-.78907 0-1.23438.34375t-.44531.89844q0 .52343.41406.78906.41406.26562 1.49219.50781 1.08594.24219 1.75781.57813.67188.33593.99219.8125.32812.46875.32812 1.14843 0 1.13282-.90625 1.82032-.90625.67968-2.35156.67968-1.01562 0-1.79687-.35937-.78125-.35938-1.22657-1-.4375-.64844-.4375-1.39844h1.44532q.0391.72656.57812 1.15625.54688.42188 1.4375.42188.82031 0 1.3125-.32813.5-.33594.5-.89062zm6.83594 2.39843q-1.71875 0-2.79688-1.125-1.07812-1.13281-1.07812-3.02343v-.26563q0-1.25781.47656-2.24219.48438-.99218 1.34375-1.54687.86719-.5625 1.875-.5625 1.64844 0 2.5625 1.08594.91406 1.08593.91406 3.10937v.60156h-5.72656q.0312 1.25.72656 2.02344.70313.76563 1.78125.76563.76563 0 1.29688-.3125t.92969-.82813l.88281.6875q-1.0625 1.63281-3.1875 1.63281zm-.17969-7.57812q-.875 0-1.46875.64062-.59375.63282-.73437 1.78125h4.23437v-.10937q-.0625-1.10156-.59375-1.70313-.53125-.60937-1.4375-.60937zm10.07031 5.17969q0-.58594-.44531-.90625-.4375-.32813-1.53906-.5625-1.09375-.23438-1.74219-.5625-.64062-.32813-.95312-.78125-.30469-.45313-.30469-1.07813 0-1.03906.875-1.75781.88281-.71875 2.25-.71875 1.4375 0 2.32812.74219.89844.74218.89844 1.89843h-1.45312q0-.59375-.50782-1.02343-.5-.42969-1.26562-.42969-.78906 0-1.23438.34375-.44531.34375-.44531.89844 0 .52343.41406.78906.41407.26562 1.49219.50781 1.08594.24219 1.75781.57813.67188.33593.99219.8125.32813.46875.32813 1.14843 0 1.13282-.90625 1.82032-.90625.67968-2.35157.67968-1.01562 0-1.79687-.35937-.78125-.35938-1.22656-1-.4375-.64844-.4375-1.39844h1.44531q.0391.72656.57812 1.15625.54688.42188 1.4375.42188.82032 0 1.3125-.32813.5-.33594.5-.89062zm8.25 0q0-.58594-.44531-.90625-.4375-.32813-1.53906-.5625-1.09375-.23438-1.74219-.5625-.64062-.32813-.95312-.78125-.30469-.45313-.30469-1.07813 0-1.03906.875-1.75781.88281-.71875 2.25-.71875 1.4375 0 2.32812.74219.89844.74218.89844 1.89843h-1.45312q0-.59375-.50782-1.02343-.5-.42969-1.26562-.42969-.78906 0-1.23438.34375-.44531.34375-.44531.89844 0 .52343.41406.78906.41407.26562 1.49219.50781 1.08594.24219 1.75781.57813.67188.33593.99219.8125.32813.46875.32813 1.14843 0 1.13282-.90625 1.82032-.90625.67968-2.35157.67968-1.01562 0-1.79687-.35937-.78125-.35938-1.22656-1-.4375-.64844-.4375-1.39844h1.44531q.0391.72656.57812 1.15625.54688.42188 1.4375.42188.82032 0 1.3125-.32813.5-.33594.5-.89062zm4.6875-6.21094.0391.9375q.92968-1.09375 2.50781-1.09375 1.77344 0 2.41406 1.35937.42188-.60937 1.09375-.98437.67969-.375 1.60156-.375 2.78125 0 2.82813 2.94531v5.66406h-1.44531v-5.57812q0-.90625-.41407-1.35156-.41406-.45313-1.39062-.45313-.80469 0-1.33594.48438-.53125.47656-.61719 1.28906v5.60937H348.25v-5.53906q0-1.84375-1.80469-1.84375-1.42187 0-1.94531 1.21094v6.17187h-1.44531v-8.45312zm16.17188 8.60937q-1.71875 0-2.79688-1.125-1.07812-1.13281-1.07812-3.02343v-.26563q0-1.25781.47656-2.24219.48438-.99218 1.34375-1.54687.86719-.5625 1.875-.5625 1.64844 0 2.5625 1.08594.91406 1.08593.91406 3.10937v.60156h-5.72656q.0312 1.25.72656 2.02344.70313.76563 1.78125.76563.76563 0 1.29688-.3125t.92969-.82813l.88281.6875q-1.0625 1.63281-3.1875 1.63281zm-.17969-7.57812q-.875 0-1.46875.64062-.59375.63282-.73437 1.78125h4.23437v-.10937q-.0625-1.10156-.59375-1.70313-.53125-.60937-1.4375-.60937zm6.51563-1.03125.0469 1.0625q.96875-1.21875 2.53125-1.21875 2.67969 0 2.70313 3.02344v5.58593h-1.44532v-5.59375q-.008-.91406-.42187-1.35156-.40625-.4375-1.27344-.4375-.70312 0-1.23437.375t-.82813.98438v6.02343h-1.44531v-8.45312zm9.42187-2.04688v2.04688h1.57813v1.11719h-1.57813v5.24218q0 .50782.21094.76563.21094.25.71875.25.25 0 .6875-.0937v1.17187q-.57031.15625-1.10938.15625-.96875 0-1.46093-.58593-.49219-.58594-.49219-1.66407v-5.24218h-1.53906v-1.11719h1.53906v-2.04688zm14.71094 8.50782 1.625-6.46094h1.44531l-2.46094 8.45312H390.5l-2.05469-6.40625-2 6.40625h-1.17187l-2.45313-8.45312h1.4375l1.66406 6.32812 1.96875-6.32812h1.16407zm6.10937 1.99218h-1.44531v-8.45312h1.44531zm-1.5625-10.69531q0-.35156.21094-.59375.21875-.24219.64063-.24219.42187 0 .64062.24219.21875.24219.21875.59375t-.21875.58594q-.21875.23437-.64062.23437-.42188 0-.64063-.23437-.21094-.23438-.21094-.58594zm5.83594.19531v2.04688h1.57813v1.11719h-1.57813v5.24218q0 .50782.21094.76563.21094.25.71875.25.25 0 .6875-.0937v1.17187q-.57031.15625-1.10938.15625-.96875 0-1.46093-.58593Q400 377.83301 400 376.75488v-5.24218h-1.53906v-1.11719H400v-2.04688zm4.71094 3.07032q.96094-1.17969 2.5-1.17969 2.67969 0 2.70312 3.02344v5.58593h-1.44531v-5.59375q-.008-.91406-.42187-1.35156-.40625-.4375-1.27344-.4375-.70313 0-1.23438.375t-.82812.98438v6.02343h-1.44531v-12h1.44531z" style="-inkscape-font-specification:Roboto"/></g><g fill="#d97b3c" stroke-width="2" aria-label="Identify and swap the damaged cell" font-family="Roboto" font-size="16px" font-weight="700" style="-inkscape-font-specification:&quot;Roboto Bold&quot;;text-align:center" text-anchor="middle"><path d="M338.20752 32.164062h-2.34375v-11.375h2.34375zm1.67187-4.289062q0-1.976563.88282-3.148438.89062-1.171875 2.42968-1.171875 1.23438 0 2.03907.921875v-4.3125h2.26562v12h-2.03906l-.10938-.898437q-.84375 1.054687-2.17187 1.054687-1.49219 0-2.39844-1.171875-.89844-1.179687-.89844-3.273437zm2.25782.164062q0 1.1875.41406 1.820313.41406.632812 1.20312.632812 1.04688 0 1.47657-.882812v-3.335938q-.42188-.882812-1.46094-.882812-1.63281 0-1.63281 2.648437zm11 4.28125q-1.85938 0-3.03125-1.140625-1.16407-1.140625-1.16407-3.039062v-.21875q0-1.273438.49219-2.273438.49219-1.007812 1.39063-1.546875.90625-.546875 2.0625-.546875 1.73437 0 2.72656 1.09375 1 1.09375 1 3.101563v.921875h-5.38281Q351.34033 29.5 351.88721 30q.55468.5 1.39843.5 1.30469 0 2.03907-.945313l1.10937 1.242188q-.50781.71875-1.375 1.125-.86719.398437-1.92187.398437zm-.25782-6.9375q-.67187 0-1.09375.453125-.41406.453125-.53125 1.296875h3.14063v-.179687q-.0156-.75-.40625-1.15625-.39063-.414063-1.10938-.414063zm7.09375-1.671875.0703.976563q.90625-1.132813 2.42968-1.132813 1.34375 0 2 .789063.65625.789062.67188 2.359375v5.460937h-2.25781v-5.40625q0-.71875-.3125-1.039062-.3125-.328125-1.03907-.328125-.95312 0-1.42968.8125v5.960937h-2.25782v-8.453125zm9.58594-2.078125v2.078125h1.44531v1.65625h-1.44531v4.21875q0 .46875.17969.671875t.6875.203125q.375 0 .66406-.05469v1.710937q-.66406.203125-1.36719.203125-2.375 0-2.42187-2.398437v-4.554688h-1.23438v-1.65625h1.23438v-2.078125zm5.08594 10.53125h-2.26563v-8.453125h2.26563zm-2.39844-10.640625q0-.507812.33594-.835937.34375-.328125.92969-.328125.57812 0 .92187.328125t.34375.835937q0 .515625-.35156.84375-.34375.328125-.91406.328125-.57032 0-.92188-.328125-.34375-.328125-.34375-.84375zm4.875 10.640625v-6.796875h-1.25781v-1.65625h1.25781v-.71875q0-1.421875.8125-2.203125Q378.75439 20 380.22314 20q.46875 0 1.14844.15625l-.0234 1.75q-.28125-.07031-.6875-.07031-1.27343 0-1.27343 1.195313v.679687h1.67968v1.65625h-1.67968v6.796875zm8.27344-3.195312 1.5625-5.257813h2.42187l-3.39843 9.765625-.1875.445313q-.75782 1.65625-2.5 1.65625-.49219 0-1-.148438V33.71875l.34375.0078q.64062 0 .95312-.195312.32031-.195313.5-.648438l.26563-.695312-2.96094-8.476563h2.42969zm13.75781 3.195312q-.15625-.304687-.22656-.757812-.82031.914062-2.13281.914062-1.24219 0-2.0625-.71875-.8125-.71875-.8125-1.8125 0-1.34375.99218-2.0625 1-.71875 2.88282-.726562h1.03906v-.484375q0-.585938-.30469-.9375-.29687-.351563-.94531-.351563-.57031 0-.89844.273438-.32031.273437-.32031.75h-2.25781q0-.734375.45312-1.359375.45313-.625 1.28125-.976563.82813-.359375 1.85938-.359375 1.5625 0 2.47656.789063.92187.78125.92187 2.203125v3.664062q.008 1.203125.33594 1.820313v.132812zm-1.86719-1.570312q.5 0 .92188-.21875.42187-.226563.625-.601563v-1.453125h-.84375q-1.69531 0-1.80469 1.171875l-.008.132813q0 .421875.29687.695312.29688.273438.8125.273438zm7.625-6.882813.0703.976563q.90625-1.132813 2.42968-1.132813 1.34375 0 2 .789063.65625.789062.67188 2.359375v5.460937h-2.25781v-5.40625q0-.71875-.3125-1.039062-.3125-.328125-1.03907-.328125-.95312 0-1.42968.8125v5.960937h-2.25782v-8.453125zm6.53125 4.164063q0-1.976563.88282-3.148438.89062-1.171875 2.42968-1.171875 1.23438 0 2.03907.921875v-4.3125h2.26562v12h-2.03906l-.10938-.898437q-.84375 1.054687-2.17187 1.054687-1.49219 0-2.39844-1.171875-.89844-1.179687-.89844-3.273437zm2.25782.164062q0 1.1875.41406 1.820313.41406.632812 1.20312.632812 1.04688 0 1.47657-.882812v-3.335938q-.42188-.882812-1.46094-.882812-1.63281 0-1.63281 2.648437zm15.67187 1.789063q0-.414063-.41406-.648438-.40625-.242187-1.3125-.429687-3.01563-.632813-3.01563-2.5625 0-1.125.92969-1.875.9375-.757813 2.44531-.757813 1.60938 0 2.57032.757813.96875.757812.96875 1.96875h-2.25782q0-.484375-.3125-.796875-.3125-.320313-.97656-.320313-.57031 0-.88281.257813-.3125.257812-.3125.65625 0 .375.35156.609375.35938.226562 1.20313.398437.84375.164063 1.42187.375 1.78906.65625 1.78906 2.273438 0 1.15625-.99218 1.875-.99219.710937-2.5625.710937-1.0625 0-1.89063-.375-.82031-.382812-1.28906-1.039062-.46875-.664063-.46875-1.429688h2.14062q.0312.601563.44532.921875.41406.320313 1.10937.320313.64844 0 .97656-.242188.33594-.25.33594-.648437zm11-.734375 1.10938-5.382813h2.17968l-2.15625 8.453125h-1.89062l-1.60156-5.320312-1.60157 5.320312h-1.88281l-2.15625-8.453125h2.17969l1.10156 5.375 1.54688-5.375h1.63281zm9.30469 3.070312q-.15625-.304687-.22656-.757812-.82032.914062-2.13282.914062-1.24218 0-2.0625-.71875-.8125-.71875-.8125-1.8125 0-1.34375.99219-2.0625 1-.71875 2.88281-.726562h1.03907v-.484375q0-.585938-.30469-.9375-.29688-.351563-.94531-.351563-.57032 0-.89844.273438-.32031.273437-.32031.75h-2.25782q0-.734375.45313-1.359375.45312-.625 1.28125-.976563.82812-.359375 1.85937-.359375 1.5625 0 2.47657.789063.92187.78125.92187 2.203125v3.664062q.008 1.203125.33594 1.820313v.132812zm-1.86719-1.570312q.5 0 .92188-.21875.42187-.226563.625-.601563v-1.453125h-.84375q-1.69532 0-1.80469 1.171875l-.008.132813q0 .421875.29687.695312.29688.273438.8125.273438zm13.15625-2.578125q0 1.953125-.89062 3.132812-.88282 1.171875-2.39063 1.171875-1.28125 0-2.07031-.890625v3.984375h-2.25781V23.710937h2.09375l.0781.828125q.82031-.984375 2.14063-.984375 1.5625 0 2.42968 1.15625.86719 1.15625.86719 3.1875zm-2.25781-.164063q0-1.179687-.42188-1.820312-.41406-.640625-1.21093-.640625-1.0625 0-1.46094.8125v3.460937q.41406.835938 1.47656.835938 1.61719 0 1.61719-2.648438zm10.34375-6.21875v2.078125h1.44531v1.65625h-1.44531v4.21875q0 .46875.17969.671875.17968.203125.6875.203125.375 0 .66406-.05469v1.710937q-.66406.203125-1.36719.203125-2.375 0-2.42187-2.398437v-4.554688h-1.23438v-1.65625h1.23438v-2.078125zm4.90625 3q.89844-1.078125 2.25781-1.078125 2.75 0 2.78906 3.195313v5.414062h-2.25781V26.8125q0-.726563-.3125-1.070313-.3125-.351562-1.03906-.351562-.99219 0-1.4375.765625v6.007812h-2.25781v-12h2.25781zm10.64062 7.6875q-1.85937 0-3.03125-1.140625-1.16406-1.140625-1.16406-3.039062v-.21875q0-1.273438.49219-2.273438.49219-1.007812 1.39062-1.546875.90625-.546875 2.0625-.546875 1.73438 0 2.72657 1.09375 1 1.09375 1 3.101563v.921875h-5.38282Q482.80127 29.5 483.34814 30q.55469.5 1.39844.5 1.30469 0 2.03906-.945313l1.10938 1.242188q-.50781.71875-1.375 1.125-.86719.398437-1.92188.398437zm-.25781-6.9375q-.67187 0-1.09375.453125-.41406.453125-.53125 1.296875h3.14063v-.179687q-.0156-.75-.40625-1.15625-.39063-.414063-1.10938-.414063zM365.96143 47.875q0-1.976563.88281-3.148438.89062-1.171875 2.42969-1.171875 1.23437 0 2.03906.921875v-4.3125h2.26562v12h-2.03906l-.10937-.898437q-.84375 1.054687-2.17188 1.054687-1.49219 0-2.39844-1.171875-.89843-1.179687-.89843-3.273437zm2.25781.164062q0 1.1875.41406 1.820313.41406.632812 1.20313.632812 1.04687 0 1.47656-.882812v-3.335938q-.42188-.882812-1.46094-.882812-1.63281 0-1.63281 2.648437zm12.00781 4.125q-.15625-.304687-.22656-.757812-.82031.914062-2.13281.914062-1.24219 0-2.0625-.71875-.8125-.71875-.8125-1.8125 0-1.34375.99218-2.0625 1-.71875 2.88282-.726562h1.03906v-.484375q0-.585938-.30469-.9375-.29687-.351563-.94531-.351563-.57031 0-.89844.273438-.32031.273437-.32031.75h-2.25781q0-.734375.45312-1.359375.45313-.625 1.28125-.976563.82813-.359375 1.85938-.359375 1.5625 0 2.47656.789063.92187.78125.92187 2.203125v3.664062q.008 1.203125.33594 1.820313v.132812zm-1.86719-1.570312q.5 0 .92188-.21875.42187-.226563.625-.601563v-1.453125h-.84375q-1.69531 0-1.80469 1.171875l-.008.132813q0 .421875.29687.695312.29688.273438.8125.273438zm7.66407-6.882813.0703.945313q.89844-1.101563 2.42969-1.101563 1.63281 0 2.24218 1.289063.89063-1.289063 2.53907-1.289063 1.375 0 2.04687.804688.67188.796875.67188 2.40625v5.398437h-2.26563v-5.390625q0-.71875-.28125-1.046875-.28125-.335937-.99219-.335937-1.01562 0-1.40625.96875l.008 5.804687h-2.25782V46.78125q0-.734375-.28906-1.0625t-.98437-.328125q-.96094 0-1.39063.796875v5.976562h-2.25781v-8.453125zm16.63281 8.453125q-.15625-.304687-.22656-.757812-.82032.914062-2.13282.914062-1.24218 0-2.0625-.71875-.8125-.71875-.8125-1.8125 0-1.34375.99219-2.0625 1-.71875 2.88281-.726562h1.03907v-.484375q0-.585938-.30469-.9375-.29688-.351563-.94531-.351563-.57032 0-.89844.273438-.32031.273437-.32031.75h-2.25782q0-.734375.45313-1.359375.45312-.625 1.28125-.976563.82812-.359375 1.85937-.359375 1.5625 0 2.47657.789063.92187.78125.92187 2.203125v3.664062q.008 1.203125.33594 1.820313v.132812zm-1.86719-1.570312q.5 0 .92188-.21875.42187-.226563.625-.601563v-1.453125h-.84375q-1.69532 0-1.80469 1.171875l-.008.132813q0 .421875.29687.695312.29688.273438.8125.273438zm5.21875-2.71875q0-1.945313.92188-3.132813.92968-1.1875 2.5-1.1875 1.39062 0 2.16406.953125l.0937-.796875h2.04687v8.171875q0 1.109375-.50781 1.929688-.5.820312-1.41406 1.25-.91406.429687-2.14063.429687-.92968 0-1.8125-.375-.88281-.367187-1.33593-.953125l1-1.375q.84375.945313 2.04687.945313.89844 0 1.39844-.484375.5-.476563.5-1.359375V51.4375q-.78125.882812-2.05469.882812-1.52344 0-2.46875-1.1875-.9375-1.195312-.9375-3.164062zm2.25781.164062q0 1.148438.46094 1.804688.46094.648437 1.26563.648437 1.03125 0 1.47656-.773437v-3.554688q-.45313-.773437-1.46094-.773437-.8125 0-1.28125.664062-.46094.664063-.46094 1.984375zm11.09375 4.28125q-1.85937 0-3.03125-1.140625-1.16406-1.140625-1.16406-3.039062v-.21875q0-1.273438.49219-2.273438.49219-1.007812 1.39062-1.546875.90625-.546875 2.0625-.546875 1.73438 0 2.72657 1.09375 1 1.09375 1 3.101563v.921875h-5.38282Q417.56299 49.5 418.10986 50q.55469.5 1.39844.5 1.30469 0 2.03906-.945313l1.10938 1.242188q-.50781.71875-1.375 1.125-.86719.398437-1.92188.398437zm-.25781-6.9375q-.67187 0-1.09375.453125-.41406.453125-.53125 1.296875h3.14063v-.179687q-.0156-.75-.40625-1.15625-.39063-.414063-1.10938-.414063zm4.66406 2.492188q0-1.976563.88282-3.148438.89062-1.171875 2.42968-1.171875 1.23438 0 2.03907.921875v-4.3125h2.26562v12h-2.03906l-.10938-.898437q-.84375 1.054687-2.17187 1.054687-1.49219 0-2.39844-1.171875-.89844-1.179687-.89844-3.273437zm2.25782.164062q0 1.1875.41406 1.820313.41406.632812 1.20312.632812 1.04688 0 1.47657-.882812v-3.335938q-.42188-.882812-1.46094-.882812-1.63281 0-1.63281 2.648437zM440.6333 50.5q.625 0 1.01563-.34375.39062-.34375.40625-.914063h2.11718q-.008.859375-.46875 1.578125-.46093.710938-1.26562 1.109375-.79688.390625-1.76563.390625-1.8125 0-2.85937-1.148437-1.04688-1.15625-1.04688-3.1875v-.148438q0-1.953125 1.03907-3.117187 1.03906-1.164063 2.85156-1.164063 1.58594 0 2.53906.90625.96094.898438.97656 2.398438h-2.11718q-.0156-.65625-.40625-1.0625-.39063-.414063-1.03125-.414063-.78907 0-1.19532.578125-.39843.570313-.39843 1.859375v.234375q0 1.304688.39843 1.875.39844.570313 1.21094.570313Zm8.71875 1.820312q-1.85937 0-3.03125-1.140625-1.16406-1.140625-1.16406-3.039062v-.21875q0-1.273438.49219-2.273438.49218-1.007812 1.39062-1.546875.90625-.546875 2.0625-.546875 1.73438 0 2.72656 1.09375 1 1.09375 1 3.101563v.921875h-5.38281Q447.55518 49.5 448.10205 50q.55469.5 1.39844.5 1.30469 0 2.03906-.945313l1.10938 1.242188q-.50782.71875-1.375 1.125-.86719.398437-1.92188.398437zm-.25781-6.9375q-.67188 0-1.09375.453125-.41406.453125-.53125 1.296875h3.14062v-.179687q-.0156-.75-.40625-1.15625-.39062-.414063-1.10937-.414063zm7.39844 6.78125h-2.26563v-12h2.26563zm4.24218 0h-2.26562v-12h2.26562z"/></g><path fill="#363a32" d="M496 248v4h-50v4h50v4l5.19531-3 5.19727-3-5.19727-3z"/><path fill="#c1d0be" d="M538 180c-.2768 0-.54196.0554-.78124.1562-.2396.101-.45204.24892-.63284.42968-.1808.1808-.3288.39336-.42968.63282-.1012.23948-.15624.5043-.15624.7813v4h-4c-2.216 0-4 1.784-4 4v54c0 2.216 1.784 4 4 4h20c2.216 0 4-1.784 4-4v-54c0-2.216-1.784-4-4-4h-4v-4c0-.277-.0552-.5418-.1564-.78124-.1008-.23944-.2488-.45206-.42968-.63282-.1808-.1808-.3932-.32876-.63284-.4297C546.5418 180.05534 546.2768 180 546 180ZM578 180c-.2768 0-.54196.0554-.78124.1562-.2396.101-.45204.24892-.63284.42968-.1808.1808-.3288.39336-.42968.63282-.1012.23948-.15624.5043-.15624.7813v4h-4c-2.216 0-4 1.784-4 4v54c0 2.216 1.784 4 4 4h20c2.216 0 4-1.784 4-4v-54c0-2.216-1.784-4-4-4h-4v-4c0-.277-.0552-.5418-.1564-.78124-.1008-.23944-.2488-.45206-.42968-.63282-.1808-.1808-.3932-.32876-.63284-.4297C586.5418 180.05534 586.2768 180 586 180ZM618 180c-.2768 0-.54196.0554-.78124.1562-.2396.101-.45204.24892-.63284.42968-.1808.1808-.3288.39336-.42968.63282-.1012.23948-.15624.5043-.15624.7813v4h-4c-2.216 0-4 1.784-4 4v54c0 2.216 1.784 4 4 4h20c2.216 0 4-1.784 4-4v-54c0-2.216-1.784-4-4-4h-4v-4c0-.277-.0552-.5418-.1564-.78124-.1008-.23944-.2488-.45206-.42968-.63282-.1808-.1808-.3932-.32876-.63284-.4297C626.5418 180.05534 626.2768 180 626 180Z"/><path fill="#30af59" d="M658 180c-.2768 0-.54196.0554-.78124.1562-.2396.101-.45204.24892-.63284.42968-.1808.1808-.3288.39336-.42968.63282-.1012.23948-.15624.5043-.15624.7813v4h-4c-2.216 0-4 1.784-4 4v54c0 2.216 1.784 4 4 4h20c2.216 0 4-1.784 4-4v-54c0-2.216-1.784-4-4-4h-4v-4c0-.277-.0552-.5418-.1564-.78124-.1008-.23944-.2488-.45206-.42968-.63282-.1808-.1808-.3932-.32876-.63284-.4297C666.5418 180.05534 666.2768 180 666 180Z"/><path fill="#c1d0be" d="M538 260c-.2768 0-.54196.0554-.78124.1562-.2396.101-.45204.24892-.63284.42968-.1808.1808-.3288.39336-.42968.63282-.1012.23948-.15624.5043-.15624.7813v4h-4c-2.216 0-4 1.784-4 4v54c0 2.216 1.784 4 4 4h20c2.216 0 4-1.784 4-4v-54c0-2.216-1.784-4-4-4h-4v-4c0-.277-.0552-.5418-.1564-.78124-.1008-.23944-.2488-.45206-.42968-.63282-.1808-.1808-.3932-.32876-.63284-.4297C546.5418 260.05534 546.2768 260 546 260ZM578 260c-.2768 0-.54196.0554-.78124.1562-.2396.101-.45204.24892-.63284.42968-.1808.1808-.3288.39336-.42968.63282-.1012.23948-.15624.5043-.15624.7813v4h-4c-2.216 0-4 1.784-4 4v54c0 2.216 1.784 4 4 4h20c2.216 0 4-1.784 4-4v-54c0-2.216-1.784-4-4-4h-4v-4c0-.277-.0552-.5418-.1564-.78124-.1008-.23944-.2488-.45206-.42968-.63282-.1808-.1808-.3932-.32876-.63284-.4297C586.5418 260.05534 586.2768 260 586 260ZM618 260c-.2768 0-.54196.0554-.78124.1562-.2396.101-.45204.24892-.63284.42968-.1808.1808-.3288.39336-.42968.63282-.1012.23948-.15624.5043-.15624.7813v4h-4c-2.216 0-4 1.784-4 4v54c0 2.216 1.784 4 4 4h20c2.216 0 4-1.784 4-4v-54c0-2.216-1.784-4-4-4h-4v-4c0-.277-.0552-.5418-.1564-.78124-.1008-.23944-.2488-.45206-.42968-.63282-.1808-.1808-.3932-.32876-.63284-.4297C626.5418 260.05534 626.2768 260 626 260ZM658 260c-.2768 0-.54196.0554-.78124.1562-.2396.101-.45204.24892-.63284.42968-.1808.1808-.3288.39336-.42968.63282-.1012.23948-.15624.5043-.15624.7813v4h-4c-2.216 0-4 1.784-4 4v54c0 2.216 1.784 4 4 4h20c2.216 0 4-1.784 4-4v-54c0-2.216-1.784-4-4-4h-4v-4c0-.277-.0552-.5418-.1564-.78124-.1008-.23944-.2488-.45206-.42968-.63282-.1808-.1808-.3932-.32876-.63284-.4297C666.5418 260.05534 666.2768 260 666 260Z"/><g fill="#363a32" stroke-width="2" aria-label="Ready-to-use second-life pack with a new cell" font-family="Roboto" font-size="16px" font-weight="700" style="-inkscape-font-specification:&quot;Roboto Bold&quot;;text-align:center" text-anchor="middle"><path d="M561.03125 354.08301h-2.67188v4.60156h-1.50781v-11.375h3.76563q1.92187 0 2.95312.875 1.03906.875 1.03906 2.54688 0 1.0625-.57812 1.85156-.57031.78906-1.59375 1.17969l2.67187 4.82812v.0937H563.5Zm-2.67188-1.22656h2.30469q1.11719 0 1.77344-.57813.66406-.57812.66406-1.54687 0-1.05469-.63281-1.61719-.625-.5625-1.8125-.57031h-2.29688zm11.63282 5.98437q-1.71875 0-2.79688-1.125-1.07812-1.13281-1.07812-3.02344v-.26562q0-1.25781.47656-2.24219.48437-.99219 1.34375-1.54687.86719-.5625 1.875-.5625 1.64844 0 2.5625 1.08593.91406 1.08594.91406 3.10938v.60156h-5.72656q.0312 1.25.72656 2.02344.70313.76562 1.78125.76562.76563 0 1.29688-.3125t.92968-.82812l.88282.6875q-1.0625 1.63281-3.1875 1.63281zm-.17969-7.57812q-.875 0-1.46875.64062-.59375.63281-.73438 1.78125h4.23438v-.10937q-.0625-1.10157-.59375-1.70313-.53125-.60937-1.4375-.60937zm10.36719 7.42187q-.125-.25-.20313-.89062-1.00781 1.04687-2.40625 1.04687-1.25 0-2.05469-.70312-.79687-.71094-.79687-1.79688 0-1.32031 1-2.04687 1.00781-.73438 2.82812-.73438h1.40625v-.66406q0-.75781-.45312-1.20313-.45313-.45312-1.33594-.45312-.77344 0-1.29687.39062-.52344.39063-.52344.94532h-1.45313q0-.63282.44532-1.21875.45312-.59375 1.21875-.9375.77343-.34375 1.69531-.34375 1.46094 0 2.28906.73437.82813.72656.85938 2.00781v3.89063q0 1.16406.29687 1.85156v.125zm-2.39844-1.10156q.67969 0 1.28906-.35156.60938-.35157.88281-.91407v-1.73437h-1.13281q-2.65625 0-2.65625 1.55469 0 .67968.45313 1.0625.45312.38281 1.16406.38281zm5.53125-3.19531q0-1.94532.92187-3.125.92188-1.1875 2.41407-1.1875 1.48437 0 2.35156 1.01562v-4.40625h1.44531v12h-1.32812l-.0703-.90625q-.86718 1.0625-2.41406 1.0625-1.46875 0-2.39844-1.20312-.92187-1.20313-.92187-3.14063zm1.44531.16406q0 1.4375.59375 2.25t1.64063.8125q1.375 0 2.00781-1.23438v-3.88281q-.64844-1.19531-1.99219-1.19531-1.0625 0-1.65625.82031t-.59375 2.42969zm10.69531 2.01562 1.96875-6.33593h1.54688l-3.39844 9.75781q-.78906 2.10937-2.50781 2.10937l-.27344-.0234-.53906-.10157v-1.17187l.39062.0312q.73438 0 1.14063-.29688.41406-.29687.67969-1.08593l.32031-.85938-3.01563-8.35937h1.57813zm7.8125-2.125h-3.8125v-1.17968h3.8125zm3.36719-6.25781v2.04688h1.57813v1.11718h-1.57813v5.24219q0 .50781.21094.76563.21094.25.71875.25.25 0 .6875-.0937v1.17187q-.57031.15625-1.10938.15625-.96875 0-1.46093-.58594-.49219-.58593-.49219-1.66406v-5.24219h-1.53906v-1.11718h1.53906v-2.04688zm2.72656 6.19531q0-1.24218.48438-2.23437.49219-.99219 1.35937-1.53125.875-.53906 1.99219-.53906 1.72656 0 2.78906 1.19531 1.07032 1.19531 1.07032 3.17969v.10156q0 1.23437-.47657 2.21875-.46875.97656-1.35156 1.52344-.875.54687-2.01562.54687-1.71875 0-2.78907-1.19531-1.0625-1.19531-1.0625-3.16406zm1.45313.17188q0 1.40625.64844 2.25781.65625.85156 1.75.85156 1.10156 0 1.75-.85937.64843-.86719.64843-2.42188 0-1.39062-.66406-2.25-.65625-.86718-1.75-.86718-1.07031 0-1.72656.85156t-.65625 2.4375zm11.0625-.10938h-3.8125v-1.17968h3.8125zm6.625 3.40625q-.84375.99219-2.47656.99219-1.35157 0-2.0625-.78125-.70313-.78906-.71094-2.32812v-5.5h1.44531v5.46093q0 1.92188 1.5625 1.92188 1.65625 0 2.20313-1.23438v-6.14843h1.44531v8.45312h-1.375zm8.52344-1.40625q0-.58593-.44532-.90625-.4375-.32812-1.53906-.5625-1.09375-.23437-1.74219-.5625-.64062-.32812-.95312-.78125-.30469-.45312-.30469-1.07812 0-1.03906.875-1.75781.88281-.71875 2.25-.71875 1.4375 0 2.32813.74218.89843.74219.89843 1.89844h-1.45312q0-.59375-.50781-1.02344-.5-.42968-1.26563-.42968-.78906 0-1.23437.34375-.44532.34375-.44532.89843 0 .52344.41407.78907.41406.26562 1.49218.50781 1.08594.24219 1.75782.57812.67187.33594.99218.8125.32813.46875.32813 1.14844 0 1.13281-.90625 1.82031-.90625.67969-2.35156.67969-1.01563 0-1.79688-.35937-.78125-.35938-1.22656-1-.4375-.64844-.4375-1.39844h1.44531q.0391.72656.57813 1.15625.54687.42187 1.4375.42187.82031 0 1.3125-.32812.5-.33594.5-.89063zm6.83593 2.39844q-1.71875 0-2.79687-1.125-1.07813-1.13281-1.07813-3.02344v-.26562q0-1.25781.47657-2.24219.48437-.99219 1.34375-1.54687.86718-.5625 1.875-.5625 1.64843 0 2.5625 1.08593.91406 1.08594.91406 3.10938v.60156h-5.72656q.0312 1.25.72656 2.02344.70312.76562 1.78125.76562.76562 0 1.29687-.3125t.92969-.82812l.88281.6875q-1.0625 1.63281-3.1875 1.63281zm-.17968-7.57812q-.875 0-1.46875.64062-.59375.63281-.73438 1.78125h4.23438v-.10937q-.0625-1.10157-.59375-1.70313-.53125-.60937-1.4375-.60937zM549.53906 376.44238q0-.58593-.44531-.90625-.4375-.32812-1.53906-.5625-1.09375-.23437-1.74219-.5625-.64063-.32812-.95313-.78125-.30468-.45312-.30468-1.07812 0-1.03906.875-1.75781.88281-.71875 2.25-.71875 1.4375 0 2.32812.74218.89844.74219.89844 1.89844h-1.45313q0-.59375-.50781-1.02344-.5-.42968-1.26562-.42968-.78907 0-1.23438.34375t-.44531.89843q0 .52344.41406.78907.41406.26562 1.49219.50781 1.08594.24219 1.75781.57812.67188.33594.99219.8125.32812.46875.32812 1.14844 0 1.13281-.90625 1.82031-.90625.67969-2.35156.67969-1.01562 0-1.79687-.35937-.78125-.35938-1.22657-1-.4375-.64844-.4375-1.39844h1.44532q.0391.72656.57812 1.15625.54688.42187 1.4375.42187.82031 0 1.3125-.32812.5-.33594.5-.89063zm6.83594 2.39844q-1.71875 0-2.79688-1.125-1.07812-1.13281-1.07812-3.02344v-.26562q0-1.25781.47656-2.24219.48438-.99219 1.34375-1.54687.86719-.5625 1.875-.5625 1.64844 0 2.5625 1.08593.91406 1.08594.91406 3.10938v.60156h-5.72656q.0312 1.25.72656 2.02344.70313.76562 1.78125.76562.76563 0 1.29688-.3125t.92969-.82812l.88281.6875q-1.0625 1.63281-3.1875 1.63281zm-.17969-7.57812q-.875 0-1.46875.64062-.59375.63281-.73437 1.78125h4.23437v-.10937q-.0625-1.10157-.59375-1.70313-.53125-.60937-1.4375-.60937zm8.53906 6.39843q.77344 0 1.35157-.46875.57812-.46875.64062-1.17187h1.36719q-.0391.72656-.5 1.38281-.46094.65625-1.23438 1.04688-.76562.39062-1.625.39062-1.72656 0-2.75-1.14844-1.01562-1.15625-1.01562-3.15625v-.24218q0-1.23438.45312-2.19532.45313-.96093 1.29688-1.49218.85156-.53125 2.00781-.53125 1.42188 0 2.35938.85156.94531.85156 1.00781 2.21094h-1.36719q-.0625-.82032-.625-1.34375-.55469-.53125-1.375-.53125-1.10156 0-1.71094.79687-.60156.78906-.60156 2.28906v.27344q0 1.46094.60156 2.25.60157.78906 1.71875.78906zm4.60157-3.28125q0-1.24218.48437-2.23437.49219-.99219 1.35938-1.53125.875-.53906 1.99218-.53906 1.72657 0 2.78907 1.19531 1.07031 1.19531 1.07031 3.17969v.10156q0 1.23437-.47656 2.21875-.46875.97656-1.35157 1.52344-.875.54687-2.01562.54687-1.71875 0-2.78906-1.19531-1.0625-1.19531-1.0625-3.16406zm1.45312.17188q0 1.40625.64844 2.25781.65625.85156 1.75.85156 1.10156 0 1.75-.85937.64844-.86719.64844-2.42188 0-1.39062-.66407-2.25-.65625-.86718-1.75-.86718-1.07031 0-1.72656.85156t-.65625 2.4375zm9.42188-4.32031.0469 1.0625q.96875-1.21875 2.53125-1.21875 2.67969 0 2.70313 3.02343v5.58594h-1.44532v-5.59375q-.008-.91406-.42187-1.35156-.40625-.4375-1.27344-.4375-.70312 0-1.23437.375t-.82813.98437v6.02344h-1.44531v-8.45312zm7.10937 4.15625q0-1.94532.92188-3.125.92187-1.1875 2.41406-1.1875 1.48437 0 2.35156 1.01562v-4.40625h1.44531v12H593.125l-.0703-.90625q-.86719 1.0625-2.41407 1.0625-1.46875 0-2.39843-1.20312-.92188-1.20313-.92188-3.14063zm1.44531.16406q0 1.4375.59375 2.25t1.64063.8125q1.375 0 2.00781-1.23438v-3.88281q-.64844-1.19531-1.99219-1.19531-1.0625 0-1.65625.82031t-.59375 2.42969zm10.9375-.10938h-3.8125v-1.17968h3.8125zm2.97657 4.24219h-1.44532v-12h1.44532zm3.88281 0h-1.44531v-8.45312h1.44531zM605 367.98926q0-.35156.21094-.59375.21875-.24219.64062-.24219.42188 0 .64063.24219.21875.24219.21875.59375t-.21875.58594q-.21875.23437-.64063.23437-.42187 0-.64062-.23437-.21094-.23438-.21094-.58594Zm4.58594 10.69531v-7.33594H608.25v-1.11718h1.33594v-.86719q0-1.35938.72656-2.10156.72656-.74219 2.05469-.74219.5 0 .99218.13281l-.0781 1.17188q-.36719-.0703-.78125-.0703-.70313 0-1.08594.41407-.38281.40625-.38281 1.17187v.89063h1.80469v1.11718h-1.80469v7.33594zm8.16406.15625q-1.71875 0-2.79688-1.125-1.07812-1.13281-1.07812-3.02344v-.26562q0-1.25781.47656-2.24219.48438-.99219 1.34375-1.54687.86719-.5625 1.875-.5625 1.64844 0 2.5625 1.08593.91406 1.08594.91406 3.10938v.60156h-5.72656q.0312 1.25.72656 2.02344.70313.76562 1.78125.76562.76563 0 1.29688-.3125t.92969-.82812l.88281.6875q-1.0625 1.63281-3.1875 1.63281zm-.17969-7.57812q-.875 0-1.46875.64062-.59375.63281-.73437 1.78125h4.23437v-.10937q-.0625-1.10157-.59375-1.70313-.53125-.60937-1.4375-.60937zm16.25 3.28906q0 1.92969-.88281 3.10937-.88281 1.17969-2.39063 1.17969-1.53906 0-2.42187-.97656v4.07031h-1.44531v-11.70312H628l.0703.9375q.88281-1.09375 2.45313-1.09375 1.52343 0 2.40625 1.14843.89062 1.14844.89062 3.19532zm-1.44531-.16406q0-1.42969-.60938-2.25782-.60937-.82812-1.67187-.82812-1.3125 0-1.96875 1.16406v4.03906q.64844 1.15625 1.98437 1.15625 1.03907 0 1.64844-.82031.61719-.82812.61719-2.45312zm8.5 4.29687q-.125-.25-.20313-.89062-1.00781 1.04687-2.40625 1.04687-1.25 0-2.05468-.70312-.79688-.71094-.79688-1.79688 0-1.32031 1-2.04687 1.00781-.73438 2.82813-.73438h1.40625v-.66406q0-.75781-.45313-1.20313-.45312-.45312-1.33594-.45312-.77343 0-1.29687.39062-.52344.39063-.52344.94532h-1.45312q0-.63282.44531-1.21875.45312-.59375 1.21875-.9375.77344-.34375 1.69531-.34375 1.46094 0 2.28906.73437.82813.72656.85938 2.00781v3.89063q0 1.16406.29687 1.85156v.125zm-2.39844-1.10156q.67969 0 1.28906-.35156.60938-.35157.88282-.91407v-1.73437h-1.13282q-2.65625 0-2.65625 1.55469 0 .67968.45313 1.0625.45312.38281 1.16406.38281zm9.27344.0781q.77344 0 1.35156-.46875.57813-.46875.64063-1.17187h1.36718q-.0391.72656-.5 1.38281-.46093.65625-1.23437 1.04688-.76563.39062-1.625.39062-1.72656 0-2.75-1.14844-1.01563-1.15625-1.01563-3.15625v-.24218q0-1.23438.45313-2.19532.45312-.96093 1.29687-1.49218.85157-.53125 2.00782-.53125 1.42187 0 2.35937.85156.94531.85156 1.00781 2.21094h-1.36718q-.0625-.82032-.625-1.34375-.55469-.53125-1.375-.53125-1.10157 0-1.71094.79687-.60156.78906-.60156 2.28906v.27344q0 1.46094.60156 2.25.60156.78906 1.71875.78906zm7.34375-2.89062-.90625.94531v2.96875h-1.44531v-12h1.44531v7.25781l.77344-.92968 2.63281-2.78125h1.75781l-3.28906 3.53125 3.67187 4.92187h-1.69531zM557.97656 396.69238l1.625-6.46093h1.44531l-2.46093 8.45312h-1.17188l-2.05469-6.40625-2 6.40625h-1.17187l-2.45313-8.45312h1.4375l1.66407 6.32812 1.96875-6.32812h1.16406zm6.10938 1.99219h-1.44532v-8.45312h1.44532zm-1.5625-10.69531q0-.35156.21093-.59375.21875-.24219.64063-.24219.42187 0 .64062.24219.21875.24219.21875.59375t-.21875.58594q-.21875.23437-.64062.23437-.42188 0-.64063-.23437-.21093-.23438-.21093-.58594zm5.83593.19531v2.04688h1.57813v1.11718h-1.57813v5.24219q0 .50781.21094.76563.21094.25.71875.25.25 0 .6875-.0937v1.17187q-.57031.15625-1.10937.15625-.96875 0-1.46094-.58594-.49219-.58593-.49219-1.66406v-5.24219H565.375v-1.11718h1.53906v-2.04688zm4.71094 3.07031q.96094-1.17968 2.5-1.17968 2.67969 0 2.70313 3.02343v5.58594h-1.44532v-5.59375q-.008-.91406-.42187-1.35156-.40625-.4375-1.27344-.4375-.70312 0-1.23437.375t-.82813.98437v6.02344H571.625v-12h1.44531zm16.54688 7.42969q-.125-.25-.20313-.89062-1.00781 1.04687-2.40625 1.04687-1.25 0-2.05469-.70312-.79687-.71094-.79687-1.79688 0-1.32031 1-2.04687 1.00781-.73438 2.82812-.73438h1.40625v-.66406q0-.75781-.45312-1.20313-.45313-.45312-1.33594-.45312-.77344 0-1.29687.39062-.52344.39063-.52344.94532h-1.45313q0-.63282.44532-1.21875.45312-.59375 1.21875-.9375.77343-.34375 1.69531-.34375 1.46094 0 2.28906.73437.82813.72656.85938 2.00781v3.89063q0 1.16406.29687 1.85156v.125zm-2.39844-1.10156q.67969 0 1.28906-.35156.60938-.35157.88281-.91407v-1.73437h-1.13281q-2.65625 0-2.65625 1.55469 0 .67968.45313 1.0625.45312.38281 1.16406.38281zm11.21094-7.35156.0469 1.0625q.96875-1.21875 2.53125-1.21875 2.67969 0 2.70313 3.02343v5.58594h-1.44532v-5.59375q-.008-.91406-.42187-1.35156-.40625-.4375-1.27344-.4375-.70312 0-1.23437.375t-.82813.98437v6.02344h-1.44531v-8.45312zm10.96875 8.60937q-1.71875 0-2.79688-1.125-1.07812-1.13281-1.07812-3.02344v-.26562q0-1.25781.47656-2.24219.48437-.99219 1.34375-1.54687.86719-.5625 1.875-.5625 1.64844 0 2.5625 1.08593.91406 1.08594.91406 3.10938v.60156h-5.72656q.0312 1.25.72656 2.02344.70313.76562 1.78125.76562.76563 0 1.29688-.3125t.92968-.82812l.88282.6875q-1.0625 1.63281-3.1875 1.63281zm-.17969-7.57812q-.875 0-1.46875.64062-.59375.63281-.73438 1.78125H611.25v-.10937q-.0625-1.10157-.59375-1.70313-.53125-.60937-1.4375-.60937zm12.63281 5.42968 1.625-6.46093h1.44531l-2.46093 8.45312h-1.17188l-2.05469-6.40625-2 6.40625h-1.17187l-2.45313-8.45312h1.4375l1.66407 6.32812 1.96875-6.32812h1.16406zm11.89063.96875q.77343 0 1.35156-.46875.57812-.46875.64062-1.17187h1.36719q-.0391.72656-.5 1.38281-.46094.65625-1.23437 1.04688-.76563.39062-1.625.39062-1.72657 0-2.75-1.14844-1.01563-1.15625-1.01563-3.15625v-.24218q0-1.23438.45313-2.19532.45312-.96093 1.29687-1.49218.85156-.53125 2.00781-.53125 1.42188 0 2.35938.85156.94531.85156 1.00781 2.21094h-1.36719q-.0625-.82032-.625-1.34375-.55468-.53125-1.375-.53125-1.10156 0-1.71093.79687-.60157.78906-.60157 2.28906v.27344q0 1.46094.60157 2.25.60156.78906 1.71875.78906zm8.49218 1.17969q-1.71875 0-2.79687-1.125-1.07813-1.13281-1.07813-3.02344v-.26562q0-1.25781.47657-2.24219.48437-.99219 1.34375-1.54687.86718-.5625 1.875-.5625 1.64843 0 2.5625 1.08593.91406 1.08594.91406 3.10938v.60156h-5.72656q.0312 1.25.72656 2.02344.70312.76562 1.78125.76562.76562 0 1.29687-.3125t.92969-.82812l.88281.6875q-1.0625 1.63281-3.1875 1.63281zm-.17968-7.57812q-.875 0-1.46875.64062-.59375.63281-.73438 1.78125h4.23438v-.10937q-.0625-1.10157-.59375-1.70313-.53125-.60937-1.4375-.60937zm6.71875 7.42187h-1.44532v-12h1.44532zm3.88281 0h-1.44531v-12h1.44531z" style="-inkscape-font-specification:Roboto"/></g><path fill="#363a32" d="M409 390v4h-4v3h4v4h3v-4h4v-3h-4v-4zm-121 4v32h124v-22h-3v19H291v-26h111v-3zm7 7v18h11.58398v-2.97852h-7.875V401Zm16.5 0c-.277 0-.5.223-.5.5v1.5h3v-1.5c0-.277-.223-.5-.5-.5zm7.85352 0v18h3.70703v-7.35547h7.12109v-2.99219h-7.12109v-4.64843h8.01172V401Zm13.86914 0v18h12.0664v-2.97852h-8.35742v-4.82226h7.12109v-2.90625h-7.12109v-4.28906h8.33203V401Zm13.37695 0v3.00391h5.43945V419h3.70899v-14.99609h5.51367V401Zm17.01172 0v18h3.70898v-18zm7.14453 0v18h3.70898v-4.91992l-.37109-8.48047L378.94141 419h2.54492l4.85937-13.41406-.37109 8.49414V419h3.7207v-18h-4.87109l-4.59766 13.05469L375.60352 401Zm22.17969 0v18H405v-2.97852h-8.35547v-4.82226h7.12109v-2.90625h-7.12109v-4.28906h8.33203V401ZM310 403.5c-.554 0-1 .446-1 1v2.5h7v-2.5c0-.554-.446-1-1-1zm-1 4v3.5h7v-3.5zm0 4v3.5h7v-3.5zm0 4v2.5c0 .554.446 1 1 1h5c.554 0 1-.446 1-1v-2.5z"/><path fill="#d97b3c" d="M408 66c-.2768 0-.54196.0554-.78124.1562-.2396.101-.45204.24892-.63284.42968-.1808.1808-.3288.39336-.42968.63282-.1012.23948-.15624.5043-.15624.7813v4h-4c-2.216 0-4 1.784-4 4v54c0 2.216 1.784 4 4 4h20c2.216 0 4-1.784 4-4V76c0-2.216-1.784-4-4-4h-4v-4c0-.277-.0552-.5418-.1564-.78124-.1008-.23944-.2488-.45206-.42968-.63282-.1808-.1808-.3932-.32876-.63284-.4297C416.5418 66.05534 416.2768 66 416 66Z"/><path fill="#fff" d="m409.2 100.2 2.225-3.675-1.475-2.45q-.3-.5-.8625-.5t-.8625.5l-2.45 4.075zm9.675 6.8-2.225-3.7 3.475-2 1.6 2.675q.275.425.3.95.025.525-.225.975-.25.5-.7375.8-.4875.3-1.0625.3ZM416 114l-4-4 4-4v2h4.75l-1.45 2.9q-.275.5-.75.8-.475.3-1.05.3H416Zm-9.675-2q-.5 0-.9125-.2625t-.6125-.6875q-.2-.4-.1875-.8375.0125-.4375.2375-.8125l.85-1.4h4.3v4zm-2.475-2.85-1.625-3.25q-.225-.45-.2125-.9625.0125-.5125.2875-.9625l.4-.675-1.7-1.025 5.475-1.375 1.375 5.5-1.725-1.05zm13.5-8.55-5.475-1.375L413.6 98.2l-3.125-5.2H414q.525 0 .9875.2625t.7375.7125l1.3 2.175 1.7-1.05z"/><path fill="#363a32" d="m662 164.39258-3-5.19727L656 154h4V81.64062A6 5.9999986 0 0 1 656 76a6 5.9999986 0 0 1 6-6 6 5.9999986 0 0 1 6 6 6 5.9999986 0 0 1-4 5.65625V154h4l-3 5.19531z"/><path fill="#30af59" d="M685.07031 40.164062v12h2.26563v-12h-2.26563zm4.24219 0v12h2.26562v-12h-2.26562zm-56.89062.625v11.375h2.34374v-7.484374l4.5625 7.484374h2.34376v-11.375h-2.33594v7.5l-4.57032-7.5h-2.34374zm14.78906 2.765626c-.77084 0-1.45834.182292-2.0625.546874-.59896.359375-1.0625.875002-1.39063 1.546876-.32812.666666-.49219 1.424479-.49219 2.273437v.21875c.00001 1.265623.38802 2.278647 1.16407 3.039063.78124.760415 1.79166 1.140624 3.03125 1.140624.70312 0 1.34375-.132813 1.92187-.398437.57813-.270833 1.03646-.645834 1.375-1.125l-1.10937-1.242187c-.48959.630208-1.16927.945312-2.03906.945312-.5625 0-1.02866-.166667-1.39844-.5-.36459-.333333-.58334-.776042-.65625-1.328125h5.38281V47.75c0-1.338541-.33333-2.372397-1-3.101562-.66146-.729166-1.57032-1.09375-2.72656-1.09375zm24.28906 0c-1.20833-.000001-2.15886.388021-2.85156 1.164062-.69272.776041-1.03906 1.815105-1.03906 3.117188v.148437c0 1.354165.34895 2.416667 1.04687 3.1875.69791.765624 1.65104 1.148437 2.85937 1.148437.64584.000001 1.23438-.130208 1.76563-.390624.53646-.265625.95834-.635417 1.26563-1.109376.30716-.479166.46341-1.005208.46874-1.578124h-2.11718c-.01042.380208-.14584.684896-.40625.914062-.26042.229166-.59896.34375-1.01563.34375-.54166 0-.94531-.190104-1.21094-.570312-.26561-.380208-.39843-1.005209-.39843-1.875v-.234376c0-.859373.13282-1.479166.39843-1.859374.27084-.385417.66927-.578126 1.19532-.578126.42708 0 .77083.138021 1.03125.414063.26043.270833.39585.625.40625 1.0625h2.11718c-.01041-.999999-.33593-1.799479-.97656-2.398437-.63541-.604167-1.48177-.90625-2.53906-.90625zm8.44531 0c-.77083 0-1.45833.182292-2.0625.546874-.59896.359375-1.0625.875002-1.39062 1.546876-.32813.666666-.49219 1.424479-.49219 2.273437v.21875c0 1.265623.38802 2.278647 1.16406 3.039063.78126.760415 1.79167 1.140624 3.03125 1.140624.70313 0 1.34375-.132813 1.92188-.398437.57812-.270833 1.03645-.645834 1.375-1.125l-1.10938-1.242187c-.48958.630208-1.16927.945312-2.03906.945312-.5625 0-1.02864-.166667-1.39844-.5-.36458-.333333-.58333-.776042-.65625-1.328125h5.38282V47.75c0-1.338541-.33334-2.372397-1-3.101562-.66146-.729166-1.57032-1.09375-2.72657-1.09375zm-28.375.15625 2.15625 8.453124h1.88282l1.60156-5.320312 1.60156 5.320312h1.89062l2.15626-8.453124h-2.17969l-1.10938 5.382812-1.53906-5.382812h-1.63281l-1.54688 5.375-1.10156-5.375h-2.17969zm-4.36719 1.671874c.47917 0 .84896.138021 1.10938.414063.26043.270833.39585.65625.40625 1.15625v.179687h-3.14063c.07813-.562499.25522-.994791.53126-1.296874.28125-.302084.64583-.453126 1.09374-.453126zm32.73438 0c.47917 0 .84896.138021 1.10938.414063.26043.270833.39585.65625.40624 1.15625v.179687h-3.14062c.07813-.562499.25521-.994791.53125-1.296874.28125-.302084.64583-.453126 1.09375-.453126z" font-family="Roboto" font-size="24px" font-weight="700" style="-inkscape-font-specification:Roboto;text-align:center" text-anchor="middle"/></svg>