<svg xmlns="http://www.w3.org/2000/svg" viewBox="0 0 100 100"><path fill="#f99d25" d="M.00000422.00000816h100v100h-100z" class="cls-9"/><path fill="#fff" d="M28.6875 8.5410156a1.9339243 1.9339243 0 0 0-1.386719.46875 1.7566479 1.7566479 0 0 0-.5 1.3203124 2.1434328 2.1434328 0 0 0 .226563 1.015625 3.0136987 3.0136987 0 0 0 .626953.742188l.919922.804687a4.8348108 4.8348108 0 0 1 .564453.613281 1.353747 1.353747 0 0 1 .224609.789063.78968576.78968576 0 0 1-.144531.484375.49959712.49959712 0 0 1-.451172.193359.6285254.6285254 0 0 1-.46875-.162109 1.1281225 1.1281225 0 0 1-.257812-.5 3.4165996 3.4165996 0 0 1-.111328-.757813l-1.128907.226563a3.3682515 3.3682515 0 0 0 .242188 1.224609 1.6116036 1.6116036 0 0 0 .660156.742188 2.1434328 2.1434328 0 0 0 1.113281.257812 2.0145045 2.0145045 0 0 0 .949219-.226562 1.8533441 1.8533441 0 0 0 .644531-.628906 1.9500404 1.9500404 0 0 0 .226563-.933594 2.2723611 2.2723611 0 0 0-.322266-1.22461 3.4004836 3.4004836 0 0 0-.773437-.886718l-.902344-.806641a2.3045931 2.3045931 0 0 1-.435547-.482422 1.0475423 1.0475423 0 0 1-.162109-.613281.70910558.70910558 0 0 1 .162109-.482422.54794522.54794522 0 0 1 .451172-.1933594.59629333.59629333 0 0 1 .435547.1445313.91861405.91861405 0 0 1 .208984.4355471 5.6889607 5.6889607 0 0 1 .080078.611328l1.128906-.208985a3.7550364 3.7550364 0 0 0-.128906-.742187 2.1273168 2.1273168 0 0 0-.291015-.6445312 1.6116036 1.6116036 0 0 0-.546875-.4335938 2.1917809 2.1917809 0 0 0-.853516-.1464844zm8.798828 0a1.8694602 1.8694602 0 0 0-1.371094.46875 1.7082998 1.7082998 0 0 0-.515625 1.3203124 1.9661564 1.9661564 0 0 0 .242188 1.015625 2.6430299 2.6430299 0 0 0 .613281.742188l.917969.804687a3.9967769 3.9967769 0 0 1 .580078.613281 1.4665593 1.4665593 0 0 1 .208984.789063.90249802.90249802 0 0 1-.128906.484375.54794522.54794522 0 0 1-.466797.193359.66075748.66075748 0 0 1-.466797-.162109 1.321515 1.321515 0 0 1-.257812-.5 3.4649477 3.4649477 0 0 1-.097656-.757813l-1.144532.226563a3.3682515 3.3682515 0 0 0 .242188 1.224609 1.6116036 1.6116036 0 0 0 .677734.742188 2.0789686 2.0789686 0 0 0 1.095703.257812 1.9661564 1.9661564 0 0 0 1.03125-.226562 1.8533441 1.8533441 0 0 0 .644532-.628906 1.9500404 1.9500404 0 0 0 .224609-.933594 2.1434328 2.1434328 0 0 0-.322266-1.22461 3.6744562 3.6744562 0 0 0-.755859-.886718l-.919922-.806641a2.3045931 2.3045931 0 0 1-.433594-.482422 1.1925867 1.1925867 0 0 1-.162109-.613281.78968576.78968576 0 0 1 .162109-.482422.56406126.56406126 0 0 1 .451172-.1933594.59629333.59629333 0 0 1 .433594.1445313.78968576.78968576 0 0 1 .210938.4355471 3.3199034 3.3199034 0 0 1 0 .611328l1.126953-.208985a3.7389204 3.7389204 0 0 0-.113282-.742187 2.6430299 2.6430299 0 0 0-.304687-.6445312 1.4987913 1.4987913 0 0 0-.548828-.4335938 2.1917809 2.1917809 0 0 0-.853516-.1464844zm36.212891 0a2.3368252 2.3368252 0 0 0-1.257813.2910156 1.4987913 1.4987913 0 0 0-.628906.8378907 3.9806609 3.9806609 0 0 0-.193359 1.3046871v2.595703a3.6744562 3.6744562 0 0 0 .193359 1.25586 1.6116036 1.6116036 0 0 0 .628906.871094 2.1917809 2.1917809 0 0 0 1.257813.30664 2.2078969 2.2078969 0 0 0 1.175781-.226562 1.4987913 1.4987913 0 0 0 .613281-.789063 3.561644 3.561644 0 0 0 .160157-1.144531v-.595703H74.375v1.255859a.77356973.77356973 0 0 1-.177734.404297.61240937.61240937 0 0 1-.482422.160156.67687351.67687351 0 0 1-.451172-.128906.66075748.66075748 0 0 1-.226563-.386719 2.4012894 2.4012894 0 0 1 0-.644531v-3.222656a3.3037874 3.3037874 0 0 1 0-.597656.78968576.78968576 0 0 1 .19336-.4179691.66075748.66075748 0 0 1 .5-.1621094.61240937.61240937 0 0 1 .484375.1464844.66075748.66075748 0 0 1 .177734.4023441 5.6244966 5.6244966 0 0 1 0 .564453v.626953h1.271484v-.611328a2.9814667 2.9814667 0 0 0-.175781-1.1113284 1.3859791 1.3859791 0 0 0-.613281-.7421875 2.3690573 2.3690573 0 0 0-1.175781-.2421875zm15.470703 0a1.9339243 1.9339243 0 0 0-1.386719.46875 1.7082998 1.7082998 0 0 0-.498047 1.3203124 2.1434328 2.1434328 0 0 0 .22461 1.015625 3.0136987 3.0136987 0 0 0 .628906.742188l.917969.804687a4.8348108 4.8348108 0 0 1 .564453.613281 1.353747 1.353747 0 0 1 .226562.789063.78968576.78968576 0 0 1-.146484.484375.49959712.49959712 0 0 1-.451172.193359.6285254.6285254 0 0 1-.466797-.162109 1.1281225 1.1281225 0 0 1-.257812-.5 3.4165996 3.4165996 0 0 1-.113282-.757813l-1.144531.226563a3.7228043 3.7228043 0 0 0 .257813 1.224609 1.6116036 1.6116036 0 0 0 .662109.742188 2.1434328 2.1434328 0 0 0 1.111328.257812 2.0145045 2.0145045 0 0 0 .951172-.226562 1.8533441 1.8533441 0 0 0 .644531-.628906 1.9500404 1.9500404 0 0 0 .22461-.933594 2.2723611 2.2723611 0 0 0-.322266-1.22461 3.4004836 3.4004836 0 0 0-.773437-.886718l-.902344-.806641a2.3045931 2.3045931 0 0 1-.433594-.482422 1.0475423 1.0475423 0 0 1-.162109-.613281.70910558.70910558 0 0 1 .162109-.482422.54794522.54794522 0 0 1 .451172-.1933594.59629333.59629333 0 0 1 .433594.1445313.91861405.91861405 0 0 1 .210937.4355471 5.6889607 5.6889607 0 0 1 .080078.611328l1.126953-.208985a3.7550364 3.7550364 0 0 0-.128906-.742187 2.1273168 2.1273168 0 0 0-.289062-.6445312 1.6116036 1.6116036 0 0 0-.548828-.4335938 2.1917809 2.1917809 0 0 0-.853516-.1464844zm-58.179688.0820313v4.9296871a4.480258 4.480258 0 0 0 .177735 1.306641 1.6116036 1.6116036 0 0 0 .613281.853516 2.3690573 2.3690573 0 0 0 1.273438.291015 2.2723611 2.2723611 0 0 0 1.160156-.291015 1.5149074 1.5149074 0 0 0 .611328-.853516 4.480258 4.480258 0 0 0 .177734-1.306641V8.6230469h-1.289062v5.0761721a4.029009 4.029009 0 0 1 0 .644531.83803387.83803387 0 0 1-.208985.482422.59629333.59629333 0 0 1-.5.193359.6285254.6285254 0 0 1-.5-.193359.74133766.74133766 0 0 1-.208984-.482422 4.029009 4.029009 0 0 1 0-.644531V8.6230469h-1.306641zm21.242188 0v4.1562501l-1.72461-4.060547h-.935546v7.285156h1.080078v-4.351562l1.789062 4.351562h.886719V8.6230469h-1.095703zM9.5078125 8.6875a5.8501211 5.8501211 0 0 1-1.6113281 1.1601562 17.324739 17.324739 0 0 1-1.9335938.9492188v2.691406c.1772762-.064464.4022013-.12739 1.2402344-.433593.8380331-.306205 1.3383488-.500957 1.515625-.597657v15.310547h3.642578V8.6875H9.5078125zm8.0742185 0a6.4464144 6.4464144 0 0 1-1.611328 1.1601562 18.839646 18.839646 0 0 1-1.949219.9492188v2.691406c.177277-.064464.402202-.12739 1.240235-.433593.838033-.306205 1.338348-.500957 1.515625-.597657v15.310547h3.642578V8.6875h-2.837891zm43.054688.0058594a3.8517326 3.8517326 0 0 0-.44336.0253906h-1.789062v7.285156L60.5 15.921875a3.0459308 3.0459308 0 0 0 .902344-.128906 1.6116036 1.6116036 0 0 0 1.015625-1.078125 2.6430299 2.6430299 0 0 0 .128906-.919922 2.4496375 2.4496375 0 0 0-.128906-.886719 1.3698631 1.3698631 0 0 0-1.144531-.902344 1.3698631 1.3698631 0 0 0 .580078-.240234 1.1603546 1.1603546 0 0 0 .371093-.5 2.1434328 2.1434328 0 0 0 .111329-.757813 2.4979856 2.4979856 0 0 0-.144532-.9179682 1.6116036 1.6116036 0 0 0-.435547-.5644532 1.8533441 1.8533441 0 0 0-.675781-.3066406 3.8517326 3.8517326 0 0 0-.443359-.0253906zM39.419922 8.71875v.9667969h1.160156v6.3183591h1.337891V9.6855469H43.0625V8.71875h-3.642578zm4.851562 0-1.466796 7.285156h1.255859l.291015-1.611328H45.625l.289062 1.611328h1.22461L45.689453 8.71875h-1.417969zm3.238282 0v7.285156h1.30664V8.71875h-1.30664zm7.6875 0-1.451172 7.285156h1.242187l.306641-1.611328h1.271484l.275391 1.611328h1.240234L56.615234 8.71875h-1.417968zm7.849609 0v7.285156h3.09375v-.919922h-1.757813V8.71875h-1.335937zm3.382813 0v7.285156h3.078124v-1.015625h-1.740234v-2.417969h1.353516v-.917968h-1.353516V9.5566406h1.72461V8.71875h-3.0625zm9.832031 0v7.285156h1.320312V8.71875h-1.320312zm1.642578 0v.9667969h1.160156v6.3183591h1.322266V9.6855469h1.144531V8.71875h-3.626953zm3.964844 0v7.285156h1.322265V8.71875h-1.322265zm2.080078 0v7.285156h3.078125v-1.015625h-1.757813v-2.417969h1.371094v-.917968h-1.371094V9.5566406h1.72461V8.71875h-3.044922zm-24.207031.9179688H60a2.4657535 2.4657535 0 0 1 .660156.0820312.59629333.59629333 0 0 1 .386719.289062 1.0153103 1.0153103 0 0 1 .146484.595704 1.6116036 1.6116036 0 0 1-.097656.613281.5801773.5801773 0 0 1-.289062.355469 1.3053989 1.3053989 0 0 1-.613282.111328h-.451171V9.6367188zm-14.761719.7734372.498047 3.0625h-.982422l.484375-3.0625zm10.876953 0 .5 3.0625h-.998047l.498047-3.0625zm3.933594 2.19336h.451172a1.2248187 1.2248187 0 0 1 .644531.144531.85414991.85414991 0 0 1 .33789.402344 2.256245 2.256245 0 0 1 .097657.724609 1.6116036 1.6116036 0 0 1-.210938.904297.96696216.96696216 0 0 1-.820312.289062h-.548828l.048828-2.464843zm-15.617188 7.912109a2.3368252 2.3368252 0 0 0-1.255859.291016 1.6116036 1.6116036 0 0 0-.628907.83789 4.480258 4.480258 0 0 0-.177734 1.304688v2.59375a4.1418213 4.1418213 0 0 0 .177734 1.257812 1.7405319 1.7405319 0 0 0 .628907.871094 2.1917809 2.1917809 0 0 0 1.255859.304687 2.3207092 2.3207092 0 0 0 1.19336-.224609 1.4665593 1.4665593 0 0 0 .595703-.789062 3.5455279 3.5455279 0 0 0 .177734-1.144532v-.597656h-1.289063v.662109a3.126511 3.126511 0 0 1 0 .580079.67687351.67687351 0 0 1-.177734.417968.56406126.56406126 0 0 1-.466797.16211.66075748.66075748 0 0 1-.451172-.128907.67687351.67687351 0 0 1-.242187-.386718 3.6261081 3.6261081 0 0 1 0-.644532v-3.224609a3.4165996 3.4165996 0 0 1 0-.595703.69298955.69298955 0 0 1 .208984-.417969.64464144.64464144 0 0 1 .5-.162109.66075748.66075748 0 0 1 .482422.144531.61240937.61240937 0 0 1 .16211.404297 3.0459308 3.0459308 0 0 1 0 .5625v.628906h1.289062v-.611328a3.3521355 3.3521355 0 0 0-.177734-1.113281 1.6116036 1.6116036 0 0 0-.611328-.740235 2.4335214 2.4335214 0 0 0-1.19336-.242187zm4.560547 0a2.256245 2.256245 0 0 0-1.224609.273437 1.4987913 1.4987913 0 0 0-.660157.806641 3.6744562 3.6744562 0 0 0-.193359 1.257813v2.738281a3.7711524 3.7711524 0 0 0 .193359 1.273437 1.6116036 1.6116036 0 0 0 .660157.822266 2.256245 2.256245 0 0 0 1.224609.289062 2.3368252 2.3368252 0 0 0 1.257813-.208984 1.6116036 1.6116036 0 0 0 .644531-.822266 3.4649477 3.4649477 0 0 0 .208984-1.271484v-2.820312a3.3199034 3.3199034 0 0 0-.208984-1.257813 1.6116036 1.6116036 0 0 0-.644531-.806641 2.3529413 2.3529413 0 0 0-1.257813-.273437zm36.455078 0a1.9016922 1.9016922 0 0 0-1.386719.466797 1.6116036 1.6116036 0 0 0-.498046 1.322266 2.1434328 2.1434328 0 0 0 .224609 1.015624 2.9492346 2.9492346 0 0 0 .613281.740235l.917969.806641a3.9967769 3.9967769 0 0 1 .580078.611328 1.337631 1.337631 0 0 1 .208984.791015.77356973.77356973 0 0 1-.128906.482422.49959712.49959712 0 0 1-.451172.193359.6285254.6285254 0 0 1-.466797-.160156 1.1281225 1.1281225 0 0 1-.257812-.5 3.4165996 3.4165996 0 0 1-.113281-.757812l-1.144532.226562a3.3682515 3.3682515 0 0 0 .257813 1.22461 1.6116036 1.6116036 0 0 0 .662109.740234 2.1273168 2.1273168 0 0 0 1.095703.257812 2.0467366 2.0467366 0 0 0 .966797-.224609 1.772764 1.772764 0 0 0 .644531-.644531 1.8533441 1.8533441 0 0 0 .22461-.917969 2.2723611 2.2723611 0 0 0-.322266-1.226562 3.4004836 3.4004836 0 0 0-.773437-.884766l-.902344-.806641a3.0298148 3.0298148 0 0 1-.451172-.484375 1.1925867 1.1925867 0 0 1-.144531-.611328.70910558.70910558 0 0 1 .160156-.484375.54794522.54794522 0 0 1 .451172-.193359.59629333.59629333 0 0 1 .435547.146484 1.0958904 1.0958904 0 0 1 .210937.433594 5.6889607 5.6889607 0 0 1 .080078.613281l1.126954-.208984a3.561644 3.561644 0 0 0-.128907-.742188 1.8372281 1.8372281 0 0 0-.304687-.644531 1.4343272 1.4343272 0 0 0-.533203-.435547 2.1917809 2.1917809 0 0 0-.853516-.144531zm-57.130859.080078-1.451172 7.285156h1.208984l.306641-1.611328h1.273437l.273438 1.611328h1.273437l-1.451171-7.285156h-1.433594zm3.222656 0v7.285156h1.128906v-4.351562l1.78711 4.351562h.886718v-7.285156h-1.095703v4.158203l-1.771484-4.158203h-.935547zm4.529297 0v7.285156h1.771484a2.8203063 2.8203063 0 0 0 1.337891-.257812 1.6116036 1.6116036 0 0 0 .708984-.789063 3.7550364 3.7550364 0 0 0 .208985-1.30664v-2.673828a3.561644 3.561644 0 0 0-.208985-1.273438 1.4504432 1.4504432 0 0 0-.708984-.742187 3.3199034 3.3199034 0 0 0-1.402344-.242188h-1.707031zm15.761719 0-.128907 7.285156h.998047l.097656-5.09375 1.046876 5.09375h.80664l1.03125-5.060547.111328 5.060547h.984375l-.128906-7.285156h-1.337891l-1.080078 5.044922-1.03125-5.044922h-1.36914zm5.769531 0-.128906 7.285156h.949218l.097657-5.09375 1.0625 5.09375h.791015l1.046875-5.060547.097656 5.060547h.998047l-.144531-7.285156h-1.322266l-1.080078 5.044922-1.03125-5.044922h-1.335937zm5.623047 0v4.931641a4.5124901 4.5124901 0 0 0 .162109 1.30664 1.6116036 1.6116036 0 0 0 .628906.853516 2.2723611 2.2723611 0 0 0 1.25586.289062 2.2723611 2.2723611 0 0 0 1.160156-.289062 1.6116036 1.6116036 0 0 0 .628906-.853516 4.5124901 4.5124901 0 0 0 .16211-1.30664v-4.931641h-1.289063v5.078125a4.029009 4.029009 0 0 1 0 .644531.95084612.95084612 0 0 1-.195312.482422.66075748.66075748 0 0 1-.515625.19336.6285254.6285254 0 0 1-.498047-.19336.83803387.83803387 0 0 1-.210938-.482422 4.029009 4.029009 0 0 1 0-.644531v-5.078125h-1.289062zm4.771484 0v7.285156h1.175781v-4.351562l1.773438 4.351562h.886719v-7.285156h-1.128907v4.158203l-1.773437-4.158203h-.933594zm4.576172 0v7.285156h1.304688v-7.285156H72.3125zm1.644531 0v.966797h1.160157v6.318359h1.289062V21.5625h1.175781v-.966797h-3.625zm3.964844 0v7.285156h1.304687v-7.285156h-1.304687zm2.0625 0v7.285156H83.0625v-.917968h-1.740234v-2.417969h1.353515v-.917969h-1.353515V21.53125h1.724609v-.935547h-3.0625zm-31.25.886719a.74133766.74133766 0 0 1 .5.144531.64464144.64464144 0 0 1 .208984.371094 2.8847704 2.8847704 0 0 1 0 .548828v3.367187a3.0136987 3.0136987 0 0 1 0 .548829.75745369.75745369 0 0 1-.208984.386718.74133766.74133766 0 0 1-.5.144532.72522162.72522162 0 0 1-.482422-.144532.66075748.66075748 0 0 1-.210937-.386718 3.0136987 3.0136987 0 0 1 0-.548829v-3.367187a2.8847704 2.8847704 0 0 1 0-.548828.5801773.5801773 0 0 1 .226562-.371094.64464144.64464144 0 0 1 .466797-.144531zm-11.585937.048828h.386718a1.2409348 1.2409348 0 0 1 .644532.128906.56406126.56406126 0 0 1 .257812.402344 2.7880742 2.7880742 0 0 1 0 .708984v2.789063a5.1248994 5.1248994 0 0 1 0 .757812.69298955.69298955 0 0 1-.242188.466797 1.0153103 1.0153103 0 0 1-.660156.160156h-.404297l.017579-5.414062zm-8.429688.757812.5 3.060547h-1l.5-3.060547zm6.236328 17.097657a.37066883.37066883 0 0 0-.36914.371093v50.121094a.35455279.35455279 0 0 0 .36914.355469h14.666016a.35455279.35455279 0 0 0 .355468-.355469V39.757812a.35455279.35455279 0 0 0-.355468-.371093H34.955078zm2.386719 6.802734h3.351562a.19339243.19339243 0 0 1 .19336.193359v3.753907a.19339243.19339243 0 0 1-.19336.193359h-3.351562a.19339243.19339243 0 0 1-.193359-.193359v-3.753907a.19339243.19339243 0 0 1 .193359-.193359zm6.589844 0h3.353515a.19339243.19339243 0 0 1 .19336.193359v3.753907a.19339243.19339243 0 0 1-.19336.193359h-3.353515a.19339243.19339243 0 0 1-.19336-.193359v-3.753907a.19339243.19339243 0 0 1 .19336-.193359zm22.820312 2.384766-.111328.144531-14.408203 18.388672a.4029009.4029009 0 0 0-.128906.289062v22.466797a.37066883.37066883 0 0 0 .371093.371094h14.648438a.35455279.35455279 0 0 0 .355469-.371094V48.927734a.38678486.38678486 0 0 0-.146485-.064453.4029009.4029009 0 0 0-.36914-.289062.33843676.33843676 0 0 0-.210938 0zm-1.498047 5.49414a.43513297.43513297 0 0 1 .402344.339844v4.625a.41901694.41901694 0 0 1-.402344.417969h-3.673828a.41901694.41901694 0 0 1-.404297-.417969.4029009.4029009 0 0 1 .082031-.242187l.111329-.128907c.983077-1.273165 2.643417-3.319657 3.449218-4.302734l.113282-.128906a.41901694.41901694 0 0 1 .322265-.16211zm-27.912109.742188h3.351562a.19339243.19339243 0 0 1 .19336.193359v3.722656a.19339243.19339243 0 0 1-.19336.19336h-3.351562a.19339243.19339243 0 0 1-.193359-.19336v-3.722656a.19339243.19339243 0 0 1 .193359-.193359zm6.589844 0h3.353515a.19339243.19339243 0 0 1 .19336.193359v3.722656a.19339243.19339243 0 0 1-.19336.19336h-3.353515a.19339243.19339243 0 0 1-.19336-.19336v-3.722656a.19339243.19339243 0 0 1 .19336-.193359zm17.003906 6.269531h4.367187a.35455279.35455279 0 0 1 .353516.353516v2.740234a.35455279.35455279 0 0 1-.353516.355469h-4.367187a.35455279.35455279 0 0 1-.355469-.355469v-2.740234a.35455279.35455279 0 0 1 .355469-.353516zm-2.578125 1.75586a.4029009.4029009 0 0 1 .449219.322265l.177734.048828v5.978516a.35455279.35455279 0 0 1-.353516.355469h-4.367187a.35455279.35455279 0 0 1-.419922-.355469v-.757813a.30620468.30620468 0 0 1 0-.128906c.564061-.789685 3.07892-3.898218 4.142578-5.1875l.111328-.128906a.4029009.4029009 0 0 1 .259766-.146484zm-21.015625.548828h3.351562a.19339243.19339243 0 0 1 .19336.193359v3.738281a.19339243.19339243 0 0 1-.19336.19336h-3.351562a.19339243.19339243 0 0 1-.193359-.19336v-3.738281a.19339243.19339243 0 0 1 .193359-.193359zm6.589844 0h3.353515a.19339243.19339243 0 0 1 .19336.193359v3.738281a.19339243.19339243 0 0 1-.19336.19336h-3.353515a.19339243.19339243 0 0 1-.19336-.19336v-3.738281a.19339243.19339243 0 0 1 .19336-.193359zm-19.628907 2.464843v.082032l-7.332031 9.667968-.193359.033203a.45124901.45124901 0 0 0 0 .208985.37066883.37066883 0 0 0 .273437.402344h15.117188a.37066883.37066883 0 0 0 .371093-.369141.32232072.32232072 0 0 0-.097656-.242188l-7.607422-9.669921a.37066883.37066883 0 0 0-.273437-.113282.48348108.48348108 0 0 0-.257813 0zm36.632813.291016h4.367187a.35455279.35455279 0 0 1 .353516.353516v2.740234a.35455279.35455279 0 0 1-.353516.355469h-4.367187a.35455279.35455279 0 0 1-.355469-.355469v-2.740234a.35455279.35455279 0 0 1 .355469-.353516zm8.376953 3.544922c-.10526 0-.191406.084193-.191406.189453v3.246094c0 .10526.086146.191406.191406.191406h15.300781c.10526 0 .189453-.086146.189453-.191406V69.875c0-.10526-.084193-.189453-.189453-.189453H69.3125zm-15.066406 1.498047h4.43164a.37066883.37066883 0 0 1 .371094.371094l-.064453 2.724609a.37066883.37066883 0 0 1-.371094.371094h-4.367187a.35455279.35455279 0 0 1-.353516-.371094v-2.724609a.35455279.35455279 0 0 1 .353516-.371094zm6.689453 0h4.367187a.35455279.35455279 0 0 1 .353516.371094v2.724609a.35455279.35455279 0 0 1-.353516.371094h-4.367187a.35455279.35455279 0 0 1-.355469-.371094v-2.724609a.35455279.35455279 0 0 1 .355469-.371094zm-23.59375.791015h3.351562a.19339243.19339243 0 0 1 .19336.19336v3.738281a.19339243.19339243 0 0 1-.19336.193359h-3.351562a.19339243.19339243 0 0 1-.193359-.193359v-3.738281a.19339243.19339243 0 0 1 .193359-.19336zm6.589844 0h3.353515a.19339243.19339243 0 0 1 .19336.19336v3.738281a.19339243.19339243 0 0 1-.19336.193359h-3.353515a.19339243.19339243 0 0 1-.19336-.193359v-3.738281a.19339243.19339243 0 0 1 .19336-.19336zm25.544921 2.546875a.35455279.35455279 0 0 0-.355468.353516v15.132812a.35455279.35455279 0 0 0 .355468.355469h14.988282a.35455279.35455279 0 0 0 .36914-.355469V74.875a.35455279.35455279 0 0 0-.36914-.353516H69.476562zm-15.230468 1.722657h4.43164a.35455279.35455279 0 0 1 .371094.355468l-.064453 2.740235a.35455279.35455279 0 0 1-.371094.353515h-4.367187a.35455279.35455279 0 0 1-.353516-.353515v-2.740235a.35455279.35455279 0 0 1 .353516-.355468zm6.689453 0h4.367187a.35455279.35455279 0 0 1 .353516.355468v2.740235a.35455279.35455279 0 0 1-.353516.353515h-4.367187a.35455279.35455279 0 0 1-.355469-.353515v-2.740235a.35455279.35455279 0 0 1 .355469-.355468zm10.474609.048828h4.480469a.35455279.35455279 0 0 1 .353516.355469l.017578 2.722656a.35455279.35455279 0 0 1-.355469.355468h-4.496094a.35455279.35455279 0 0 1-.371094-.355468v-2.722656a.35455279.35455279 0 0 1 .371094-.355469zm6.865235 0h4.464843a.35455279.35455279 0 0 1 .371094.355469v2.722656a.35455279.35455279 0 0 1-.371094.355468h-4.464843a.35455279.35455279 0 0 1-.371094-.355468v-2.722656a.35455279.35455279 0 0 1 .371094-.355469zm-61.289063 1.322265a.37066883.37066883 0 0 0-.371094.371094v11.861328a.37066883.37066883 0 0 0 .371094.369141h4.833984v-7.460938a.37066883.37066883 0 0 1 .371094-.371093h4.529297a.37066883.37066883 0 0 1 .371094.371093v7.460938h4.996094a.37066883.37066883 0 0 0 .36914-.369141V77.986328a.37066883.37066883 0 0 0-.33789-.371094H16.986328zm20.355469 2.964844h3.351562a.1772764.1772764 0 0 1 .19336.177734v3.753907a.19339243.19339243 0 0 1-.19336.193359h-3.351562a.19339243.19339243 0 0 1-.193359-.193359v-3.753907a.1772764.1772764 0 0 1 .193359-.177734zm6.589844 0h3.353515a.1772764.1772764 0 0 1 .19336.177734v3.753907a.19339243.19339243 0 0 1-.19336.193359h-3.353515a.19339243.19339243 0 0 1-.19336-.193359v-3.753907a.1772764.1772764 0 0 1 .19336-.177734zm10.314453.72461h4.43164a.35455279.35455279 0 0 1 .371094.355468l-.064453 2.740235a.35455279.35455279 0 0 1-.371094.353515h-4.367187a.35455279.35455279 0 0 1-.353516-.353515v-2.740235a.35455279.35455279 0 0 1 .353516-.355468zm6.689453 0h4.367187a.35455279.35455279 0 0 1 .353516.355468v2.740235a.35455279.35455279 0 0 1-.353516.353515h-4.367187a.35455279.35455279 0 0 1-.355469-.353515v-2.740235a.35455279.35455279 0 0 1 .355469-.355468zm10.474609.017578h4.480469a.35455279.35455279 0 0 1 .353516.353515l.017578 2.72461a.35455279.35455279 0 0 1-.355469.353515h-4.496094a.35455279.35455279 0 0 1-.371094-.353515v-2.72461a.35455279.35455279 0 0 1 .371094-.353515zm6.865235 0h4.464843a.35455279.35455279 0 0 1 .371094.353515v2.72461a.35455279.35455279 0 0 1-.371094.353515h-4.464843a.35455279.35455279 0 0 1-.371094-.353515v-2.72461a.35455279.35455279 0 0 1 .371094-.353515z" class="cls-19"/></svg>