<svg xmlns="http://www.w3.org/2000/svg" viewBox="0 0 100 100"><path fill="#cd8b2a" d="M.00000235.00000835h100v100h-100z" class="cls-17"/><path fill="#fff" d="M19.876953 8.4433594a4.5103092 4.5103092 0 0 0-.353515.0292968 4.8324741 4.8324741 0 0 0-3.947266 1.6113278 6.6204895 6.6204895 0 0 0-1.25586 4.251954v.935546h3.527344v-.871093a4.8324741 4.8324741 0 0 1 .306641-2.125 1.4014175 1.4014175 0 0 1 1.369141-.757813A1.1920103 1.1920103 0 0 1 20.537109 12a2.3034793 2.3034793 0 0 1 .355469 1.402344 4.6874999 4.6874999 0 0 1-.419922 1.980468 19.136597 19.136597 0 0 1-1.320312 2.25586l-.289063.417969-4.607422 7.136718.064453 2.578125h9.746094v-2.867187h-5.669922l3.671875-5.509766c.612113-.918169 1.07871-1.643223 1.384766-2.142578a10.067654 10.067654 0 0 0 .773437-1.722656 6.1211339 6.1211339 0 0 0 .322266-2.046875 4.5103092 4.5103092 0 0 0-4.671875-5.0390626zm22.003906.109375a1.9329896 1.9329896 0 0 0-1.384765.46875 1.7074742 1.7074742 0 0 0-.5 1.3203126 2.1423969 2.1423969 0 0 0 .226562 1.013672 2.6900772 2.6900772 0 0 0 .611328.742187l.917969.820313a2.931701 2.931701 0 0 1 .580078.613281 1.2564433 1.2564433 0 0 1 .226563.773438.80541235.80541235 0 0 1-.146485.498046.49935566.49935566 0 0 1-.449218.19336.64432988.64432988 0 0 1-.46875-.175782 1.0470361 1.0470361 0 0 1-.257813-.5A3.4149484 3.4149484 0 0 1 41.125 13.5625l-1.144531.226562a3.7210051 3.7210051 0 0 0 .257812 1.22461 1.6108247 1.6108247 0 0 0 .660157.740234 2.1423969 2.1423969 0 0 0 1.111328.257813 1.8524484 1.8524484 0 0 0 .951172-.257813 1.7235824 1.7235824 0 0 0 .644531-.628906 1.9490979 1.9490979 0 0 0 .224609-.933594 2.2712628 2.2712628 0 0 0-.322266-1.224609 3.6887886 3.6887886 0 0 0-.773437-.884766l-.900391-.80664a1.9652061 1.9652061 0 0 1-.435546-.482422 1.0470361 1.0470361 0 0 1-.16211-.613281.70876287.70876287 0 0 1 .16211-.4824224.64432988.64432988 0 0 1 .884765 0 .7893041.7893041 0 0 1 .210938.4179684 5.6862112 5.6862112 0 0 1 .080078.613282l1.126953-.19336a3.7210051 3.7210051 0 0 0-.128906-.7578122 1.8846649 1.8846649 0 0 0-.289063-.6269532 1.498067 1.498067 0 0 0-.548828-.4511718 2.1907216 2.1907216 0 0 0-.853516-.1464844zm8.84375 0a2.3195876 2.3195876 0 0 0-1.240234.2753906 1.4658505 1.4658505 0 0 0-.644531.8046875 3.3182989 3.3182989 0 0 0-.208985 1.2558595v2.738281a3.3988401 3.3988401 0 0 0 .208985 1.273438 1.5141752 1.5141752 0 0 0 .644531.820312 2.3195876 2.3195876 0 0 0 1.240234.291016 2.2390463 2.2390463 0 0 0 1.240235-.291016 1.6108247 1.6108247 0 0 0 .660156-.820312 3.3988401 3.3988401 0 0 0 .210938-1.273438v-2.738281A3.3182989 3.3182989 0 0 0 52.625 9.6328125a1.498067 1.498067 0 0 0-.660156-.8046875 2.2551546 2.2551546 0 0 0-1.240235-.2753906zm9.166016 0a1.9329896 1.9329896 0 0 0-1.384766.46875 1.7074742 1.7074742 0 0 0-.5 1.3203126 2.1423969 2.1423969 0 0 0 .22461 1.013672 2.6900772 2.6900772 0 0 0 .613281.742187l.917969.820313a2.931701 2.931701 0 0 1 .580078.613281 1.2564433 1.2564433 0 0 1 .224609.773438.80541235.80541235 0 0 1-.144531.498046.49935566.49935566 0 0 1-.451172.19336.64432988.64432988 0 0 1-.466797-.175782 1.0470361 1.0470361 0 0 1-.257812-.5 3.4149484 3.4149484 0 0 1-.113282-.757812l-1.142578.226562a3.7210051 3.7210051 0 0 0 .257813 1.22461 1.6108247 1.6108247 0 0 0 .660156.740234 2.1423969 2.1423969 0 0 0 1.111328.257813 1.8524484 1.8524484 0 0 0 1.03125-.257813 1.7235824 1.7235824 0 0 0 .644531-.628906 1.9490979 1.9490979 0 0 0 .22461-.933594 2.2712628 2.2712628 0 0 0-.322266-1.224609 3.6887886 3.6887886 0 0 0-.773437-.884766l-.902344-.80664a1.9652061 1.9652061 0 0 1-.433594-.482422 1.0470361 1.0470361 0 0 1-.162109-.613281.70876287.70876287 0 0 1 .162109-.4824224.64432988.64432988 0 0 1 .884766 0 .7893041.7893041 0 0 1 .210937.4179684 5.6862112 5.6862112 0 0 1 0 .613282l1.126954-.19336a3.7210051 3.7210051 0 0 0-.128907-.7578122 1.8846649 1.8846649 0 0 0-.291015-.6269532 1.498067 1.498067 0 0 0-.546875-.4511718 2.1907216 2.1907216 0 0 0-.853516-.1464844zM9.375 8.6992188a6.52384 6.52384 0 0 1-1.6113281 1.1425781 17.316366 17.316366 0 0 1-1.9316407.9511721v2.705078c.1610824-.080541.4026064-.145115 1.2402344-.451172.837628-.306056 1.3364814-.499053 1.5136719-.595703v15.302734h3.6406245V8.6992188H9.375zm22.455078.03125v7.2812502h1.320313v-3.333985h.613281l.884766 3.333985h1.33789l-1.015625-3.591797a1.175902 1.175902 0 0 0 .53125-.371094 1.5141752 1.5141752 0 0 0 .275391-.611328 3.8337628 3.8337628 0 0 0 .080078-.789062 2.1101804 2.1101804 0 0 0-.273438-1.1445318 1.3208763 1.3208763 0 0 0-.773437-.5957031 3.4793814 3.4793814 0 0 0-1.240235-.1777343h-1.740234zm4.751953 0v7.2812502h3.076172v-1.015625h-1.740234v-2.416016h1.353515v-.917969h-1.353515V9.5683594h1.724609v-.8378906h-3.060547zm7.683594 0v7.2812502l1.335937-.015625v-3.222656h.726563a2.5612113 2.5612113 0 0 0 1.029297-.19336 1.4497422 1.4497422 0 0 0 .677734-.644531 2.3195876 2.3195876 0 0 0 .242188-1.142578 2.867268 2.867268 0 0 0-.19336-1.1113284 1.4497422 1.4497422 0 0 0-.597656-.7089844 2.0940721 2.0940721 0 0 0-1.078125-.2421874h-2.142578zm9.277344 0v7.2812502h1.175781v-4.34961l1.789062 4.34961h.837891V8.7304688h-1.111328v4.1562502l-1.771484-4.1562502h-.919922zm8.779297 0v7.2812502h1.304687V8.7304688h-1.304687zm2.240234 0v7.2812502h2.09375a2.9639174 2.9639174 0 0 0 .902344-.128907 1.7557989 1.7557989 0 0 0 .644531-.402343 2.0457474 2.0457474 0 0 0 .386719-.660157 3.2216494 3.2216494 0 0 0 .126953-.935546A2.4323453 2.4323453 0 0 0 68.572266 13a1.3369845 1.3369845 0 0 0-.417969-.595703 1.4819587 1.4819587 0 0 0-.724609-.306641 1.3369845 1.3369845 0 0 0 .595703-.242187 1.2725515 1.2725515 0 0 0 .353515-.5 2.1423969 2.1423969 0 0 0 .113282-.75586 2.4967783 2.4967783 0 0 0-.144532-.9179684 1.369201 1.369201 0 0 0-.435547-.5644531 1.8524484 1.8524484 0 0 0-.675781-.3066406 4.8324741 4.8324741 0 0 0-.886719-.0800781H64.5625zm4.669922 0v7.2812502h3.09375v-.837891h-1.771484V8.7304688h-1.322266zm3.480469 0v7.2812502h3.125v-1.015625h-1.72461v-2.416016h1.353516v-.917969h-1.353516V9.5683594h1.72461v-.8378906h-3.125zm-21.988282.7890624a.66043813.66043813 0 0 1 .708985.5156248 2.8833762 2.8833762 0 0 1 0 .548828v3.365235a2.8833762 2.8833762 0 0 1 0 .548828.8215206.8215206 0 0 1-.22461.402344.75708761.75708761 0 0 1-.484375.128906v.048828a.8215206.8215206 0 0 1-.482421-.177734.69265462.69265462 0 0 1-.210938-.402344 2.8833762 2.8833762 0 0 1 0-.548828v-3.365235a2.8833762 2.8833762 0 0 1 0-.548828.64432988.64432988 0 0 1 .210938-.3710935.72487111.72487111 0 0 1 .482421-.1445313zm-17.574218.1132813h.5a.90206183.90206183 0 0 1 .755859.2734375 1.3208763 1.3208763 0 0 1 .210938.822266 1.8685567 1.8685567 0 0 1-.097657.644531.66043813.66043813 0 0 1-.33789.353515 1.304768 1.304768 0 0 1-.611329.113282h-.419921V9.6328125zm12.435547.03125h.5a1.2081185 1.2081185 0 0 1 .611328.1132813.57989689.57989689 0 0 1 .257812.3710942 3.3827319 3.3827319 0 0 1 0 .644531 2.1585051 2.1585051 0 0 1 0 .611328.66043813.66043813 0 0 1-.289062.337891 1.3208763 1.3208763 0 0 1-.564454.097656h-.5l-.015624-2.1757815zm20.90039.0429687a2.3679123 2.3679123 0 0 1 .330078.0214844.67654637.67654637 0 0 1 .402344.2910154 1.2081185 1.2081185 0 0 1 .128906.595703 2.1746133 2.1746133 0 0 1-.080078.611328.66043813.66043813 0 0 1-.304687.355469 1.2886598 1.2886598 0 0 1-.613282.128907h-.451171V9.7285156h.257812a2.3679123 2.3679123 0 0 1 .330078-.0214844zm-.58789 2.9218748h.451171a1.240335 1.240335 0 0 1 .644532.128906.75708761.75708761 0 0 1 .33789.402344 2.3195876 2.3195876 0 0 1 .097657.72461 1.6108247 1.6108247 0 0 1-.210938.902343.96649482.96649482 0 0 1-.820312.291016h-.5v-2.449219zm-27.496094 7.876953a2.4484535 2.4484535 0 0 0-1.240235.273438 1.6108247 1.6108247 0 0 0-.660156.806641 3.7048968 3.7048968 0 0 0-.193359 1.271484v2.722656a3.7048968 3.7048968 0 0 0 .193359 1.271484 1.6108247 1.6108247 0 0 0 .660156.837891 2.2873711 2.2873711 0 0 0 1.240235.291016 2.1746133 2.1746133 0 0 0 1.240234-.226563 1.6108247 1.6108247 0 0 0 .660156-.820312 3.6726803 3.6726803 0 0 0 .19336-1.257813v-2.818359a3.7048968 3.7048968 0 0 0-.19336-1.271484 1.6108247 1.6108247 0 0 0-.660156-.806641 2.48067 2.48067 0 0 0-1.240234-.273438zm9.148437 0a1.9652061 1.9652061 0 0 0-1.36914.466797 1.7074742 1.7074742 0 0 0-.498047 1.337891 1.8685567 1.8685567 0 0 0 .224609.998047 2.6900772 2.6900772 0 0 0 .613281.757812l.917969.804688a3.3827319 3.3827319 0 0 1 .580078.611328 1.3208763 1.3208763 0 0 1 .208985.773437.91817008.91817008 0 0 1-.128907.5.53157215.53157215 0 0 1-.466797.19336.61211339.61211339 0 0 1-.451171-.177735 1.0631443 1.0631443 0 0 1-.275391-.498046 4.6069586 4.6069586 0 0 1-.095703-.742188l-1.144531.226562a2.9800257 2.9800257 0 0 0 .257812 1.207032 1.6108247 1.6108247 0 0 0 .66211.757812 2.2390463 2.2390463 0 0 0 1.09375.257813 1.8685567 1.8685567 0 0 0 1.03125-.242188 1.4819587 1.4819587 0 0 0 .628906-.628906 1.7880154 1.7880154 0 0 0 .242187-.933594 2.3034793 2.3034793 0 0 0-.322265-1.224609 4.0753865 4.0753865 0 0 0-.773438-.884766l-.902344-.80664a2.0618556 2.0618556 0 0 1-.451172-.482422 1.1436855 1.1436855 0 0 1-.144531-.613282.7893041.7893041 0 0 1 .144531-.482421.57989689.57989689 0 0 1 .466797-.19336.53157215.53157215 0 0 1 .435547.16211.93427833.93427833 0 0 1 .208985.417968 3.3988401 3.3988401 0 0 1 0 .611329l1.144531-.19336a3.7210051 3.7210051 0 0 0-.128906-.755859 1.6108247 1.6108247 0 0 0-.306641-.628907 1.1436855 1.1436855 0 0 0-.548828-.435546 1.8846649 1.8846649 0 0 0-.853516-.160157zm25.371094 0a2.4162371 2.4162371 0 0 0-1.224609.273438 1.6108247 1.6108247 0 0 0-.660157.806641 3.7048968 3.7048968 0 0 0-.193359 1.271484v2.722656a3.7048968 3.7048968 0 0 0 .193359 1.271484 1.6108247 1.6108247 0 0 0 .660157.837891 2.2551546 2.2551546 0 0 0 1.224609.291016 2.1907216 2.1907216 0 0 0 1.255859-.226563 1.6108247 1.6108247 0 0 0 .644532-.820312 3.3182989 3.3182989 0 0 0 .208984-1.257813v-2.818359a3.3505154 3.3505154 0 0 0-.208984-1.271484 1.6108247 1.6108247 0 0 0-.644532-.806641 2.5128865 2.5128865 0 0 0-1.255859-.273438zm-39.167969.015625a2.8350515 2.8350515 0 0 0-1.214844.273438 1.6108247 1.6108247 0 0 0-.644531.855469 4.3653349 4.3653349 0 0 0-.177734 1.287109v2.609375a4.3009019 4.3009019 0 0 0 .177734 1.257813 1.7074742 1.7074742 0 0 0 .644531.853515 2.1101804 2.1101804 0 0 0 1.240235.322266 2.1585051 2.1585051 0 0 0 1.160156-.226563 1.4658505 1.4658505 0 0 0 .595703-.789062 3.4793814 3.4793814 0 0 0 .177735-1.142578v-.580078h-1.289063v.660156a3.3182989 3.3182989 0 0 1 0 .580078.70876287.70876287 0 0 1-.177734.417969.59600514.59600514 0 0 1-.466797.162109.75708761.75708761 0 0 1-.451172-.128906.67654637.67654637 0 0 1-.226563-.386719 2.609536 2.609536 0 0 1 0-.660156V22.068359a.74097936.74097936 0 0 1 .210938-.417968.86984534.86984534 0 0 1 .982422 0 .83762884.83762884 0 0 1 .175781.402343V23.244141h1.289063v-.611329a3.3505154 3.3505154 0 0 0-.175782-1.111328 1.433634 1.433634 0 0 0-.613281-.726562 2.8350515 2.8350515 0 0 0-1.216797-.273438zm7.451172.064454v7.28125h1.142578v-4.34961l1.773438 4.34961h.884765v-7.28125h-1.095703v4.15625l-1.771484-4.15625h-.933594zm8.761719 0v4.929687a4.5264174 4.5264174 0 0 0 .177734 1.320313 1.6108247 1.6108247 0 0 0 .613281.83789 2.3356958 2.3356958 0 0 0 1.25586.306641 2.3518041 2.3518041 0 0 0 1.175781-.306641 1.6108247 1.6108247 0 0 0 .611328-.83789 4.5264174 4.5264174 0 0 0 .177735-1.320313v-4.929687h-1.289063v5.089843a4.1881442 4.1881442 0 0 1 0 .644531.95038657.95038657 0 0 1-.208984.484376.69265462.69265462 0 0 1-.515625.175781.69265462.69265462 0 0 1-.498047-.175781 1.111469 1.111469 0 0 1-.210938-.484376 4.1881442 4.1881442 0 0 1 0-.644531v-5.089843h-1.289062zm5.058594 0-.128907 7.28125h.886719l.095703-5.074219 1.046875 5.074219h.806641l1.03125-5.058594.111328 5.058594h.982422l-.128906-7.28125h-1.222657l-1.080078 5.042968-1.03125-5.042968h-1.36914zm5.638671 0v7.28125L62 27.851562v-3.222656h.724609a2.5612113 2.5612113 0 0 0 1.03125-.193359 1.4175257 1.4175257 0 0 0 .677735-.626953 2.3840206 2.3840206 0 0 0 .240234-1.160156 2.867268 2.867268 0 0 0-.193359-1.111329 1.6108247 1.6108247 0 0 0-.595703-.708984 2.0940721 2.0940721 0 0 0-1.078125-.242187h-2.142579zm4.042969 0v.982421h1.160157v6.298829h1.335937v-6.298829h1.144531v-.982421h-3.640625zm4.074219 0v7.28125h1.306641v-7.28125H68.78125zm6.958984 0v7.28125h1.144532v-4.34961l1.771484 4.34961h.886719v-7.28125h-1.095703v4.15625l-1.771485-4.15625h-.935547zm-37.33789.886718a.72487111.72487111 0 0 1 .482422.144532.75708761.75708761 0 0 1 .208984.386718 2.7706185 2.7706185 0 0 1 0 .546875v3.351563a2.8833762 2.8833762 0 0 1 0 .546875.74097936.74097936 0 0 1-.208984.402343.72487111.72487111 0 0 1-.482422.146485.61211339.61211339 0 0 1-.69336-.548828 2.8833762 2.8833762 0 0 1 0-.546875v-3.351563a1.9007731 1.9007731 0 0 1 0-.546875.66043813.66043813 0 0 1 .208985-.386718.69265462.69265462 0 0 1 .484375-.144532zm34.519531 0a.74097936.74097936 0 0 1 .5.144532.75708761.75708761 0 0 1 .208984.386718 2.7706185 2.7706185 0 0 1 0 .546875v3.351563a2.8833762 2.8833762 0 0 1 0 .546875.61211339.61211339 0 0 1-.708984.548828.72487111.72487111 0 0 1-.482422-.146485.64432988.64432988 0 0 1-.210937-.402343 2.8833762 2.8833762 0 0 1 0-.546875v-3.351563a2.7706185 2.7706185 0 0 1 0-.546875.77319586.77319586 0 0 1 .226562-.386718.64432988.64432988 0 0 1 .466797-.144532zm-10.9375.048828h.5a1.2081185 1.2081185 0 0 1 .611328.111328.62822163.62822163 0 0 1 .257813.371094 3.3827319 3.3827319 0 0 1 0 .644532 2.0779639 2.0779639 0 0 1 0 .611328.56378864.56378864 0 0 1-.289063.33789 1.3208763 1.3208763 0 0 1-.564453.097656H62l-.015625-2.173828zm-3.318359 10.888672a2.4162371 2.4162371 0 0 0-1.22461.273438 1.6108247 1.6108247 0 0 0-.660156.804687 3.7048968 3.7048968 0 0 0-.193359 1.273438v2.722656a3.8820875 3.8820875 0 0 0 .193359 1.289063 1.6108247 1.6108247 0 0 0 .660156.820312 2.2551546 2.2551546 0 0 0 1.22461.291016 2.3356958 2.3356958 0 0 0 1.255859-.291016 1.6108247 1.6108247 0 0 0 .644531-.837891A3.3182989 3.3182989 0 0 0 60.777344 37.5v-2.738281a3.3505154 3.3505154 0 0 0-.210938-1.273438 1.6108247 1.6108247 0 0 0-.644531-.804687 2.5128865 2.5128865 0 0 0-1.255859-.273438zm24.757812 0a2.4162371 2.4162371 0 0 0-1.222656.273438 1.6108247 1.6108247 0 0 0-.66211.804687 3.7048968 3.7048968 0 0 0-.193359 1.273438v2.722656a3.8820875 3.8820875 0 0 0 .193359 1.289063 1.6108247 1.6108247 0 0 0 .66211.820312 2.2551546 2.2551546 0 0 0 1.222656.291016 2.3356958 2.3356958 0 0 0 1.257813-.291016 1.7235824 1.7235824 0 0 0 .660156-.837891A3.6726803 3.6726803 0 0 0 85.535156 37.5v-2.738281a3.7048968 3.7048968 0 0 0-.193359-1.273438 1.7074742 1.7074742 0 0 0-.660156-.804687 2.5128865 2.5128865 0 0 0-1.257813-.273438zm-10.445312.025391a2.7706185 2.7706185 0 0 0-1.216797.28125 1.4497422 1.4497422 0 0 0-.626953.835937 3.978737 3.978737 0 0 0-.19336 1.304688v2.59375a3.8176545 3.8176545 0 0 0 .19336 1.257812 1.6108247 1.6108247 0 0 0 .626953.853516 2.1907216 2.1907216 0 0 0 1.257812.322266 2.1585051 2.1585051 0 0 0 1.191407-.177735 1.5141752 1.5141752 0 0 0 .595703-.773437 3.6726803 3.6726803 0 0 0 .160156-1.160156v-.580079h-1.271485v1.240235a.77319586.77319586 0 0 1-.177734.419922.61211339.61211339 0 0 1-.482422.160156.7893041.7893041 0 0 1-.451172-.128906.77319586.77319586 0 0 1-.226562-.386719 2.545103 2.545103 0 0 1 0-.660156v-3.220703a3.4954896 3.4954896 0 0 1 0-.613282.83762884.83762884 0 0 1 .193359-.417968.74097936.74097936 0 0 1 .5-.16211.61211339.61211339 0 0 1 .482422.16211.62822163.62822163 0 0 1 .177735.402343v1.175781h1.273437v-.611328a2.8350515 2.8350515 0 0 0-.177734-1.095703 1.3853092 1.3853092 0 0 0-.611329-.740234 2.7706185 2.7706185 0 0 0-1.216796-.28125zm-40.070313.054687-1.449219 7.296875h1.240235l.30664-1.611328h1.273438l.289062 1.611328h1.22461l-1.451172-7.296875h-1.433594zm3.302735 0v7.296875h1.175781v-4.365234l1.771484 4.365234h.886719v-7.296875h-1.095703v4.15625l-1.771485-4.15625h-.966796zm4.638671 0v7.296875h1.773438a3.1088917 3.1088917 0 0 0 1.351562-.257812 1.5141752 1.5141752 0 0 0 .69336-.789063 3.4954896 3.4954896 0 0 0 .208984-1.320312v-2.658203a3.2216494 3.2216494 0 0 0-.208984-1.273438 1.4175257 1.4175257 0 0 0-.708985-.755859 3.2216494 3.2216494 0 0 0-1.384765-.242188h-1.72461zm6.669922 0v7.296875l1.320313-.015625v-3.222656h.724609a2.5612113 2.5612113 0 0 0 1.03125-.208984 1.4175257 1.4175257 0 0 0 .677735-.626953 2.3679123 2.3679123 0 0 0 .240234-1.144532 2.8833762 2.8833762 0 0 0-.19336-1.126953 1.433634 1.433634 0 0 0-.595703-.708984 2.0940721 2.0940721 0 0 0-1.078125-.242188h-2.126953zm4.429688 0v7.296875h1.335937V36.4375h.613282l.86914 3.349609h1.337891l-1.015625-3.591797a1.3369845 1.3369845 0 0 0 .53125-.386718 1.4497422 1.4497422 0 0 0 .27539-.595703 3.0444587 3.0444587 0 0 0 .080078-.789063 2.2068298 2.2068298 0 0 0-.257812-1.160156 1.4497422 1.4497422 0 0 0-.773438-.595703 3.9948453 3.9948453 0 0 0-1.255859-.177735h-1.740234zm9.535156 0v7.296875h1.773437a3.1088917 3.1088917 0 0 0 1.351563-.257812 1.4497422 1.4497422 0 0 0 .693359-.789063 3.4954896 3.4954896 0 0 0 .208985-1.320312v-2.658203a3.2216494 3.2216494 0 0 0-.208985-1.273438 1.3530927 1.3530927 0 0 0-.708984-.755859 3.2216494 3.2216494 0 0 0-1.384766-.242188h-1.724609zm4.6875 0v4.929688a4.5264174 4.5264174 0 0 0 .177734 1.320312 1.498067 1.498067 0 0 0 .613282.837891 2.2229381 2.2229381 0 0 0 1.271484.306641 2.1262886 2.1262886 0 0 0 1.160156-.306641 1.4175257 1.4175257 0 0 0 .611328-.837891 4.0270617 4.0270617 0 0 0 .177735-1.320312v-4.929688h-1.289063v5.089844a4.1881442 4.1881442 0 0 1 0 .644531.95038657.95038657 0 0 1-.208984.484375.59600514.59600514 0 0 1-.5.175782.61211339.61211339 0 0 1-.498047-.175782.83762884.83762884 0 0 1-.210938-.484375 4.1881442 4.1881442 0 0 1 0-.644531v-5.089844h-1.304687zm9.037109 0v.982422h1.160157v6.314453h1.33789v-6.314453h1.142578v-.982422h-3.640625zm4.076172 0v7.296875h1.384766v-7.296875h-1.384766zm6.958985 0v7.296875h1.078125v-4.365234l1.771484 4.365234h.886719v-7.296875h-1.095703v4.15625l-1.771485-4.15625h-.86914zm-27.578125.886719a.74097936.74097936 0 0 1 .5.144531.75708761.75708761 0 0 1 .208984.386719 2.7706185 2.7706185 0 0 1 0 .546875v3.351563a2.7706185 2.7706185 0 0 1 0 .546875.61211339.61211339 0 0 1-.708984.548828.72487111.72487111 0 0 1-.482422-.146485.64432988.64432988 0 0 1-.210938-.402343 2.7706185 2.7706185 0 0 1 0-.546875v-3.351563a2.7706185 2.7706185 0 0 1 0-.546875.77319586.77319586 0 0 1 .226563-.386719.64432988.64432988 0 0 1 .466797-.144531zm24.757812 0a.74097936.74097936 0 0 1 .5.144531.75708761.75708761 0 0 1 .208984.386719 2.7706185 2.7706185 0 0 1 0 .546875v3.351563a2.7706185 2.7706185 0 0 1 0 .546875.61211339.61211339 0 0 1-.708984.548828.72487111.72487111 0 0 1-.482422-.146485.64432988.64432988 0 0 1-.208984-.402343 2.7706185 2.7706185 0 0 1 0-.546875v-3.351563a2.7706185 2.7706185 0 0 1 0-.546875.77319586.77319586 0 0 1 .224609-.386719.64432988.64432988 0 0 1 .466797-.144531zm-29.441406.029297a.90206183.90206183 0 0 1 .560547.275391 1.4014175 1.4014175 0 0 1 .193359.822265 1.7235824 1.7235824 0 0 1-.097656.628906.64432988.64432988 0 0 1-.322266.353516 1.4175257 1.4175257 0 0 1-.626953.113281h-.404297v-2.191406h.484375a.90206183.90206183 0 0 1 .212891-.001953zm-5.158203.017578h.5a1.369201 1.369201 0 0 1 .611328.113281.62822163.62822163 0 0 1 .257812.371094 3.4954896 3.4954896 0 0 1 0 .644531 2.0779639 2.0779639 0 0 1 0 .611328.5154639.5154639 0 0 1-.289062.337891 1.3208763 1.3208763 0 0 1-.564453.097656h-.5l-.015625-2.175781zm-6.621094.017578h.386719a1.0792525 1.0792525 0 0 1 .628906.128906.57989689.57989689 0 0 1 .273438.386719 3.9465205 3.9465205 0 0 1 0 .707031v2.804688a5.1224225 5.1224225 0 0 1 0 .755859.72487111.72487111 0 0 1-.242188.466797 1.0470361 1.0470361 0 0 1-.660156.16211H42.1875l.015625-5.41211zm20.634766 0h.386718a1.175902 1.175902 0 0 1 .644532.128906.61211339.61211339 0 0 1 .257812.386719 3.9465205 3.9465205 0 0 1 0 .707031v2.804688a5.1224225 5.1224225 0 0 1 0 .755859.72487111.72487111 0 0 1-.242187.466797 1.0148196 1.0148196 0 0 1-.660157.16211h-.402343l.015625-5.41211zm-29.267579.75586.498047 3.060546h-.998047l.5-3.060546zm-.205078 14.341796a16.108247 16.108247 0 0 0-9.685546 3.265626c-2.432343 1.932987-5.316407 5.7014-5.316407 12.660156a14.819587 14.819587 0 0 0 3.09375 9.955078 15.125644 15.125644 0 0 0 15.189453 5.251953 14.497422 14.497422 0 0 0 5.958985-2.771484l2.126953 1.933593a.33827319.33827319 0 0 0 .484375 0 .32216494.32216494 0 0 0 .095703-.226562l1.529297-9.455078v-.095703a.32216494.32216494 0 0 0-.111328-.257813.30605669.30605669 0 0 0-.226563-.080078h-.160156l-9.068359 2.527344h-.16211a.38659793.38659793 0 0 0-.177734.097656.33827319.33827319 0 0 0 0 .482422l.097656.113281 2.029297 1.820313a9.519974 9.519974 0 0 1-3.318359 1.417968 10.599227 10.599227 0 0 1-10.59961-3.43164 10.389819 10.389819 0 0 1-2.173828-7.201172c0-4.107599 1.207778-7.167588 3.591797-9.06836a11.58183 11.58183 0 0 1 8.392578-2.158203h.208984c3.060564.692654 7.265973 1.61108 13.048829 13.273438 3.012239 6.024479 6.779804 9.970383 11.515625 12.064453a16.784793 16.784793 0 0 0 7.216796 1.611328 14.159149 14.159149 0 0 0 5.025391-.886719c2.738399-1.014818 9.134766-4.526207 9.134766-14.916015 0-6.942648-2.931926-10.71106-5.396485-12.660156L75.5 51.884766a16.44652 16.44652 0 0 0-12.46875-3.060547h-.257812c-2.480668.596004-6.443828 1.610669-11.050782 7.296875v.097656a.45103092.45103092 0 0 0 0 .208984.33827319.33827319 0 0 0 0 .19336l.097656.175781c.579897.982602 1.321482 2.22302 1.933594 3.382813a.38659793.38659793 0 0 0 .353516.210937.33827319.33827319 0 0 0 .273437-.113281.28994845.28994845 0 0 0 .082032-.113282c4.107599-5.670097 7.328811-6.443037 9.519531-6.974609h.257812a11.968428 11.968428 0 0 1 8.552735 2.191406c2.416234 1.91688 3.65625 4.961245 3.65625 9.052735 0 6.878215-3.349512 9.568682-6.152344 10.599609a11.452964 11.452964 0 0 1-8.537109-.564453l-.177735-.080078c-2.400126-1.030928-5.960034-3.222321-9.310547-9.939453-6.765457-13.57924-12.420589-14.851342-16.109375-15.705078h-.208984a16.108247 16.108247 0 0 0-2.587891-.205079z" class="cls-19"/></svg>