<svg xmlns="http://www.w3.org/2000/svg" viewBox="0 0 100 100"><path fill="#48773c" d="M0 9.1e-7h100v100H0z"/><path fill="#fff" d="M19.478516 8.4355469a5.0719297 5.0719297 0 0 0-3.767578 1.3671875 5.3295515 5.3295515 0 0 0-1.320313 3.8652346v1.029297h3.654297v-.835938a4.5727874 4.5727874 0 0 1 .339844-1.884766 1.1109941 1.1109941 0 0 1 1.126953-.644531 1.2559064 1.2559064 0 0 1 1.207031.595703 3.7355164 3.7355164 0 0 1 .337891 1.804688 3.9287328 3.9287328 0 0 1-.466797 2.173828 1.9804678 1.9804678 0 0 1-1.691406.660156h-.595704v2.65625h.660157a1.7872514 1.7872514 0 0 1 1.611328.773438 4.4439765 4.4439765 0 0 1 .451172 2.269531 5.6032747 5.6032747 0 0 1-.291016 2.109375 1.1270955 1.1270955 0 0 1-1.158203.644531 1.239805 1.239805 0 0 1-1.208984-.628906 5.0236256 5.0236256 0 0 1-.353516-2.109375v-.626953h-3.623047v.660156a6.7947756 6.7947756 0 0 0 1.191406 4.265625 4.8304092 4.8304092 0 0 0 3.945313 1.5625 4.6210915 4.6210915 0 0 0 3.880859-1.609375 6.810877 6.810877 0 0 0 1.222656-4.316406c0-2.415202-.821512-3.912062-2.43164-4.507813a2.8177387 2.8177387 0 0 0 1.740234-1.40039 5.0719297 5.0719297 0 0 0 .691406-2.753906 5.1363351 5.1363351 0 0 0-1.335937-3.7988286 5.2812474 5.2812474 0 0 0-3.816406-1.3203125zm14.732422.1445312a2.254191 2.254191 0 0 0-1.25586.3046875 1.6101364 1.6101364 0 0 0-.642578.8378906 4.4761792 4.4761792 0 0 0-.177734 1.3046878v2.591797A4.1380505 4.1380505 0 0 0 32.3125 14.875a1.6101364 1.6101364 0 0 0 .642578.869141 2.12538 2.12538 0 0 0 1.25586.30664 2.077076 2.077076 0 0 0 1.160156-.257812 1.4652241 1.4652241 0 0 0 .595703-.789063 3.5423001 3.5423001 0 0 0 .177734-1.142578v-.595703h-1.273437v.642578a3.3007796 3.3007796 0 0 1 0 .595703.82116956.82116956 0 0 1-.160156.419922.66015592.66015592 0 0 1-.482422.144531.66015592.66015592 0 0 1-.451172-.128906.5796491.5796491 0 0 1-.226563-.386719 2.3991032 2.3991032 0 0 1 0-.644531v-3.21875a3.3007796 3.3007796 0 0 1 0-.595703.67625729.67625729 0 0 1 .19336-.4199219.86947366.86947366 0 0 1 .982421 0 .72456138.72456138 0 0 1 .177735.4023439 5.619376 5.619376 0 0 1 0 .564453v.660156h1.271484v-.611328a3.3490837 3.3490837 0 0 0-.177734-1.111328 1.4652241 1.4652241 0 0 0-.611328-.7402344 2.3991032 2.3991032 0 0 0-1.175781-.2578125zm2.625.0800781v7.2929688l3.091796.064453v-.916016h-1.755859V8.6601562h-1.335937zm3.542968 0v7.2929688h1.320313V8.6601562h-1.320313zm2.253906 0-.128906 7.2929688h.998047l.097656-5.087891 1.0625 5.087891h.789063l1.044922-5.054687.097656 5.054687h.998047l-.144531-7.2929688h-1.320313l-1.078125 5.0566408-1.046875-5.0566408h-1.369141zm6.859376 0-1.464844 7.2929688h1.255859l.289063-1.609375h1.271484l.291016 1.609375h1.238281l-1.464844-7.2929688h-1.416015zm2.607421 0v.9824219h1.160157v6.3105469h1.287109V9.6425781h1.191406v-.9824219h-3.638672zm3.994141 0v7.2929688h3.074219v-.916016h-1.753907v-2.416015h1.369141v-.917969h-1.369141v-2.09375h1.738282v-.9492188H56.09375zm-46.4375.015625a6.1185183 6.1185183 0 0 1-1.609375 1.1601563 14.491228 14.491228 0 0 1-1.9472656.9335935v2.720703c.1771198-.080507.5957-.225753 1.2558594-.451172a15.682729 15.682729 0 0 0 1.4960937-.595703v15.3125h3.6562495V8.6757812H9.65625zm40.480469 1.6914068.482422 3.058593h-.982422l.5-3.058593zM38.558594 20.494141a2.12538 2.12538 0 0 0-1.25586.30664 1.6101364 1.6101364 0 0 0-.644531.837891 4.4761792 4.4761792 0 0 0-.175781 1.302734v2.59375a4.1380505 4.1380505 0 0 0 .175781 1.25586 1.6101364 1.6101364 0 0 0 .644531.853515 2.0126705 2.0126705 0 0 0 1.25586.320313 2.0609746 2.0609746 0 0 0 1.160156-.320313 1.4330214 1.4330214 0 0 0 .595703-.773437 3.6228069 3.6228069 0 0 0 .175781-1.144532v-.595703H39.21875v.757813a3.1236646 3.1236646 0 0 1 0 .580078.75676411.75676411 0 0 1-.160156.417969.61185183.61185183 0 0 1-.484375.160156.75676411.75676411 0 0 1-.449219-.126953.5796491.5796491 0 0 1-.226562-.386719 2.5440155 2.5440155 0 0 1 0-.660156v-3.220703a3.493996 3.493996 0 0 1 0-.611328.72456138.72456138 0 0 1 .193359-.419922.74066274.74066274 0 0 1 .5-.160156.66015592.66015592 0 0 1 .482422.160156.72456138.72456138 0 0 1 .177734.402344v1.175781h1.271485v-.611328a3.2202728 3.2202728 0 0 0-.177735-1.095703 1.4652241 1.4652241 0 0 0-.611328-.740235 2.2380896 2.2380896 0 0 0-1.175781-.257812zm10.402344 0a2.4152046 2.4152046 0 0 0-1.22461.273437 1.6101364 1.6101364 0 0 0-.660156.806641 3.7033137 3.7033137 0 0 0-.19336 1.271484v2.720703a3.8804287 3.8804287 0 0 0 .19336 1.289063 1.6101364 1.6101364 0 0 0 .660156.820312 2.254191 2.254191 0 0 0 1.22461.289063 2.3346978 2.3346978 0 0 0 1.255859-.289063 1.6101364 1.6101364 0 0 0 .660156-.83789 3.671111 3.671111 0 0 0 .193359-1.25586v-2.736328a3.7033137 3.7033137 0 0 0-.193359-1.271484 1.7067446 1.7067446 0 0 0-.660156-.806641 2.5118128 2.5118128 0 0 0-1.255859-.273437zm-15.634766.080078-1.449219 7.294922h1.255859l.289063-1.609375h1.273437l.289063 1.609375h1.224609l-1.449218-7.294922h-1.433594zm7.503906 0v.982422h1.158203v6.3125h1.335938v-6.3125h1.144531v-.982422h-3.638672zm3.992188 0v7.294922h1.304687v-7.294922h-1.304687zm6.955078 0v7.294922l1.144531.015625v-4.363282l1.771484 4.347657h.884766v-7.294922h-1.095703v4.154297l-1.769531-4.154297h-.935547zm-2.816406.886719a.74066274.74066274 0 0 1 .498046.144531.75676411.75676411 0 0 1 .210938.386719 2.7694346 2.7694346 0 0 1 0 .546874v3.34961a3.0592592 3.0592592 0 0 1 0 .5625.75676411.75676411 0 0 1-.210938.386719.74066274.74066274 0 0 1-.498046.146484.72456138.72456138 0 0 1-.484376-.146484.66015592.66015592 0 0 1-.208984-.386719 3.0592592 3.0592592 0 0 1 0-.5625v-3.34961a2.7694346 2.7694346 0 0 1 0-.546874.77286547.77286547 0 0 1 .226563-.386719.64405456.64405456 0 0 1 .466797-.144531zm-14.97461.820312.5 3.060547h-1l.5-3.060547zm16.769531 21.837891a45.953293 45.953293 0 0 0-36.896484 18.480468l-.289063.402344.289063.417969a45.937191 45.937191 0 0 0 73.744141.113281.45083819.45083819 0 0 0 0-.837891 45.953293 45.953293 0 0 0-36.847657-18.576171zm.023438 3.554687a15.521715 15.521715 0 0 1 15.072265 11.898438 3.2202728 3.2202728 0 0 1 0 .724609 1.0143859 1.0143859 0 0 1-1.820312.128906c-.16101-.225419-.820787-.852227-.804688.226563.0161 1.07879 1.046589 1.174306 0 1.818359a3.8965301 3.8965301 0 0 1-1.611328.660156 2.077076 2.077076 0 0 0-.787109 1.851563c.11271.595749 1.513386 2.206984.466797 2.142578a6.1185183 6.1185183 0 0 1-2.400391-2.09375c-.322029-.853371-.676449-1.707509-.917969-2.351562a.91777775.91777775 0 0 0-1.496093-.515626c-.54744.370332.160352.741855-.242188 1.611329-.402529.869472-.67621 1.513671-1.255859.853515-1.513519-1.738945-3.718511-.886197-4.056641-2.818359-.19322-1.046587-1.095278-.94922-1.835937-1.609375-.74067-.660155-1.175878-.903011-1.304688-.484375-.12882.418634 2.365859 2.352421 2.542969 2.851562.25762.756764-.755909 1.416159-1.480469 1.609375-.724569.193216-1.06254-.419018-1.787109-1.175781-.724559-.756763-1.029815-1.287156-1.078125-.691406a3.3490837 3.3490837 0 0 0 1.416016 2.576172c.627959.386431 1.320162.578603 1.126953 1.222656-.19322.644054-.000525.27444-.708985.966797a1.8677582 1.8677582 0 0 0-.789062 1.882812c0 .982182-.208606 1.030871-.353516 1.835938-.14491.805068-.514383.113665-.820312 1.289062l-.064454.144532a4.1541519 4.1541519 0 0 1-.951171 1.980468 3.0753605 3.0753605 0 0 1-2.109375.804688c-.70846 0-.804688-1.932357-.804688-2.898438 0-.338127-.467464.661106-.708984-1.351562-.16102-1.288109-.996622.127285-1.044922-.742188-.0483-.869473-.483704-.675209-.902344-1.222656-.418629-.547445-.981426.000239-1.609375.322266-.627959.322027-.35513.418254-1.224609.144531a15.714931 15.714931 0 0 1-1.207032-6.037109c0-.531345-.000421-1.047781.080079-1.611328a.56354774.56354774 0 0 1 .095703-.144532c.821169-.982183.80664-1.207031.80664-1.207031l.900391-.306641a14.925964 14.925964 0 0 1 2.544922.644532c.901669.338128 2.302924 1.093988 3.220703.755859.595749-.24152 1.046357-.563358.998047-1.0625-.0483-.499142-.548782-.77215-1.144531-.353516-.22542.161014-.690693-.935022-1.044922-.886718-.35423.0483.448983 1.289586.126953 1.33789-.32203.0483-.932687-1.272628-1.029297-1.498047-.0966-.225418-.59651-.740424-1.03125-.33789-.901669.869472-2.39768.803878-2.6875 1.029297-.917779.676256-1.145006-.224038-1.128906-.771485a3.2202728 3.2202728 0 0 1 .113281-.371094 1.8677582 1.8677582 0 0 1 1.722656-.193359c.40253.273723.692506.00081.853516-.224609.16101-.225419.0966-.419589 0-.628906-.0966-.209317.193034-.38529.402344-.433594a9.6608184 9.6608184 0 0 0 1.175781-.69336 3.8965301 3.8965301 0 0 1 2.367187 0 1.2559064 1.2559064 0 0 0 1.609375-.304687 3.8160233 3.8160233 0 0 1 1.126954-.935547c.225419-.11271-.562972-.83727-1.207032 0-.644049.83727-.966039.853516-1.255859.853516-.28983 0-2.09294-.434024-2.318359-1.013672-.22542-.579649.562506-.982661 1.222656-1.304688a16.101364 16.101364 0 0 1 2.93164-.402344c.933879-.209317 2.142047-.675972 2.753907-.273437.611849.402534-2.528061 1.126334-1.513672 1.609375.370329.209318 2.028247-.948458 2.591797-1.238281 1.336408-.692359-1.287349-.919495-.949219-2.320313.33812-1.400816-3.220564-.964748-5.007813-.835937a15.3446 15.3446 0 0 1 8.226563-2.431641zm-10.738281 4.25c.225419 0 .545925.080701.578125.257813a1.9321637 1.9321637 0 0 1-.208985.998047 2.5118128 2.5118128 0 0 1-1.609375.724609c-.354229 0-.499957-.320885-.435547-.433594h-.03125c.20932-.289825.868719-1.127525.949219-1.240234a1.1270955 1.1270955 0 0 1 .757813-.306641zm-.935547 2.615234c.310204.036983.608306.203269.644531.396485.0483.257622-.964993.707651-1.158203.884765-.53135.499142-1.368523 1.49862-1.851563 1.611329a.54744638.54744638 0 0 1-.402343 0 14.668343 14.668343 0 0 1 1.158203-2.302735l.080078-.048828v-.095703a1.9643664 1.9643664 0 0 1 1.224609-.435547c.09661-.020127.201286-.022093.304688-.009766zm25.859375 6.789063a1.2720078 1.2720078 0 0 1 1.335937 1.09375v.886719a15.811539 15.811539 0 0 1-.308593 3.158203c-.443582-.164016-2.122191-2.532254-.769532-4.091797.24152-.257622-.451032-1.030773-.257812-1.046875zm-3.058594 3.074219c.32203.161013.740234.629097.740234.886718 0 .257622-.627577.224563-.804687.160157-.16102 0-.306737-.224897-.435547-.611328a.33812864.33812864 0 0 1 .5-.435547zM54 64.484375c.515249 0 1.303967.67502.998047.964844a1.4330214 1.4330214 0 0 1-1.480469-.144531c-.386429-.305926.257002-.804212.482422-.820313zm8.501953 1.431641c.51525 0 1.303967.693074.998047.966796a1.4008187 1.4008187 0 0 1-1.480469-.128906c-.386429-.305925.240902-.805687.482422-.83789zm2.097656 1.322265c.112961-.014843.200624.047495.285157.22461l.193359.36914a2.4635087 2.4635087 0 0 1 .224609.998047 15.553918 15.553918 0 0 1-3.558593 5.47461 2.7372319 2.7372319 0 0 1-.482422-.19336c-.853379-.418634-.739574.258193-1.158203.113281-.41864-.144911.466846-1.127809-.789063-.30664-1.255899.821168-.901769-.127003-1.449219-1.511719a2.8016373 2.8016373 0 0 1 1.609375-3.300781 17.147953 17.147953 0 0 1 2.81836-.742188c1.400818-.350204 1.967757-1.080469 2.30664-1.125zm-15.794921.060547c.27976.078494.356798.501097-.150391 1.322266v-.015625c-.22542.354229-.804977 2.962175-1.191406 2.65625-.38643-.305926.160727-3.027488.273437-3.220703.305925-.555497.788599-.820682 1.06836-.742188zm9.99414 7.923828a2.3507991 2.3507991 0 0 1 1.416016.355469 15.553918 15.553918 0 0 1-9.402344 3.21875l-.064453-.064453a15.618323 15.618323 0 0 1-4.363281-.626953.66015592.66015592 0 0 1-.19336-.757813 3.4778946 3.4778946 0 0 1 3.042969-1.851562c2.511807-.241521 5.812401 1.611613 6.34375 1.33789.531339-.273722 1.610565-1.611328 3.220703-1.611328z" class="cls-19"/></svg>