<svg xmlns="http://www.w3.org/2000/svg" viewBox="0 0 100 100"><path fill="#fdb714" d="M-3.9e-7.00000297h100v100h-100z" class="cls-7"/><path fill="#fff" d="M39.003906 8.5898438a1.9348597 1.9348597 0 0 0-.355468.0039062 1.9671074 1.9671074 0 0 0-1.611329.5976562 2.7249274 2.7249274 0 0 0-.484375 1.7558598v2.726562a2.8216704 2.8216704 0 0 0 .484375 1.789063 1.9671074 1.9671074 0 0 0 1.611329.595703 1.9026121 1.9026121 0 0 0 1.613281-.611328 2.8055466 2.8055466 0 0 0 .5-1.773438v-2.726562a2.7249274 2.7249274 0 0 0-.5-1.7558598 1.9348597 1.9348597 0 0 0-1.257813-.6015624zm4.681641.0820312a2.8377943 2.8377943 0 0 0-.361328.0019531h-1.757813v7.3046879h1.322266V12.625h.628906l.871094 3.337891h1.33789l-1.015624-3.580079a1.3060303 1.3060303 0 0 0 .693359-.644531 2.5153176 2.5153176 0 0 0 .210937-1.128906 1.8058691 1.8058691 0 0 0-.564453-1.5 2.8377943 2.8377943 0 0 0-1.365234-.4375zm-17.515625.0019531-1.46875 7.2890629h1.257812L26.25 14.349609h1.273438l.291015 1.613282h1.224609l-1.451171-7.2890629h-1.417969zm3.417969 0 .064453 7.3046879h1.322265v-3.402344h1.369141v-.917969h-1.369141V9.5292969h1.611329v-.8554688h-2.998047zm3.546875 0 .064453 7.3046879h1.322265v-3.402344h1.371094v-.917969h-1.371094V9.5292969h1.611328v-.8554688h-2.998046zm13.269531 0v7.2890629h1.773437a2.8216704 2.8216704 0 0 0 1.337891-.257813 1.4188971 1.4188971 0 0 0 .710937-.757812 3.5633667 3.5633667 0 0 0 .208985-1.355469v-2.644531a3.2247662 3.2247662 0 0 0-.208985-1.3046879 1.4188971 1.4188971 0 0 0-.710937-.7265625 3.2247662 3.2247662 0 0 0-1.386719-.2421875h-1.724609zm5.837891 0-1.451172 7.2890629h1.240234l.306641-1.613282h1.273437l.275391 1.613282h1.240234l-1.466797-7.2890629h-1.417968zm3.433593 0v7.3847659h2.144531a1.999355 1.999355 0 0 0 1.515626-.53125 2.1767172 2.1767172 0 0 0 .515624-1.613282c.000001-1.048047-.419374-1.643449-1.257812-1.804687.693324-.177362 1.048828-.694224 1.048828-1.613281a1.6123831 1.6123831 0 0 0-.548828-1.402344 2.6281845 2.6281845 0 0 0-1.611328-.4199219h-1.806641zm4.837891 0v7.3046879h3.095703V15.125h-1.775391V8.6738281h-1.320312zm3.626953 0v7.3046879H67.1875v-.917969h-1.740234v-2.419922h1.353515v-.935547h-1.353515V9.609375H67.1875v-.9355469h-3.046875zm6.740234 0-1.5 7.3046879h1.242188l.306641-1.611328h1.273437l.322266 1.611328h1.289062l-1.515625-7.3046879h-1.417969zm3.433594 0-.015625 7.3046879h1.128906v-4.369141l1.804688 4.369141h.886719V8.6738281h-1.111329v4.1601559l-1.773437-4.1601559h-.919922zm4.724609 0v7.2890629H80.8125a2.8216704 2.8216704 0 0 0 1.337891-.257813 1.4188971 1.4188971 0 0 0 .710937-.757812 3.5633667 3.5633667 0 0 0 .208984-1.355469v-2.644531a3.2247662 3.2247662 0 0 0-.208984-1.3046879 1.4833925 1.4833925 0 0 0-.710937-.7265625 3.2247662 3.2247662 0 0 0-1.386719-.2421875h-1.72461zm-70.8320308.0175781v2.7734378h5.1914068L9.3203125 27.845703h3.5957035l4.029296-16.705078V8.6914062H8.2070312zm30.4414068.8691407a.66107707.66107707 0 0 1 .613281.2753906 1.7574976 1.7574976 0 0 1 .144531.8066405v3.353516a1.6123831 1.6123831 0 0 1-.160156.804687.59658175.59658175 0 0 1-.597656.291016.61270558.61270558 0 0 1-.595704-.291016 1.7574976 1.7574976 0 0 1-.146484-.804687v-3.353516a1.8058691 1.8058691 0 0 1 .146484-.8066405.62882941.62882941 0 0 1 .595704-.2753906zm4.240234.0175781h.5a.91905837.91905837 0 0 1 .757812.2734375 1.2737826 1.2737826 0 0 1 .210938.8378905 1.2576588 1.2576588 0 0 1-.242188.855469 1.0641728 1.0641728 0 0 1-.80664.257812h-.419922V9.578125zm14.109375.03125h.273437a1.6123831 1.6123831 0 0 1 .902344.1933594.87068687.87068687 0 0 1 .275391.7578126 1.3060303 1.3060303 0 0 1-.208985.839844.95130603.95130603 0 0 1-.791015.257812h-.451172V9.609375zM47.726562 9.625h.402344a1.241535 1.241535 0 0 1 .628906.1132812.58045792.58045792 0 0 1 .275391.3710938 4.3373105 4.3373105 0 0 1 0 .742187v2.789063a5.1757498 5.1757498 0 0 1 0 .822266.64495324.64495324 0 0 1-.242187.419921 1.0319252 1.0319252 0 0 1-.644532.160157h-.419922V9.625zm32.650391 0h.404297a1.2899065 1.2899065 0 0 1 .628906.1132812.56433408.56433408 0 0 1 .257813.3710938 2.9990326 2.9990326 0 0 1 0 .742187v2.789063a5.1757498 5.1757498 0 0 1 0 .822266.61270558.61270558 0 0 1-.257813.419921.95130603.95130603 0 0 1-.628906.160157h-.404297V9.625zm-53.498047.757812.5 3.048829h-.984375l.484375-3.048829zm26.087891 0 .5 3.048829h-1l.5-3.048829zm18.638672 0 .5 3.048829h-1l.5-3.048829zm-14.671875 2.19336h.466797a1.0319252 1.0319252 0 0 1 .839843.30664 1.4995163 1.4995163 0 0 1 .240235.951172 1.6123831 1.6123831 0 0 1-.22461.919922 1.0158014 1.0158014 0 0 1-.80664.273438h-.515625v-2.451172zm10.605468 7.853516a1.9509836 1.9509836 0 0 0-.351562.015624 1.8864882 1.8864882 0 0 0-1.611328.628907 3.2247662 3.2247662 0 0 0-.46875 1.886719v2.451171a3.2247662 3.2247662 0 0 0 .451172 1.853516 1.6930023 1.6930023 0 0 0 1.662109.677734 1.241535 1.241535 0 0 0 1.224609-.80664l.097657.708984h.853515v-3.708984h-1.982422v.839843h.789063v.69336a2.1444695 2.1444695 0 0 1-.175781.966797.66107707.66107707 0 0 1-.628906.322265.64495324.64495324 0 0 1-.628907-.30664 2.2412125 2.2412125 0 0 1-.162109-.917969v-3.064453a3.4988713 3.4988713 0 0 1 0-.644531.85456304.85456304 0 0 1 .208984-.419922.66107707.66107707 0 0 1 .5-.160157.74169623.74169623 0 0 1 .46875.128907.53208642.53208642 0 0 1 .208985.353515 3.3215092 3.3215092 0 0 1 0 .628907v.419921h1.273437v-.386718a2.3702032 2.3702032 0 0 0-.466797-1.613282 1.9509836 1.9509836 0 0 0-1.261719-.546874zm-40.357421.080078a2.4185747 2.4185747 0 0 0-1.738282.613281 3.0312802 3.0312802 0 0 0-.466797 1.820312v2.597657a3.0796517 3.0796517 0 0 0 .466797 1.804687 1.9026121 1.9026121 0 0 0 1.564453.726563 1.8058691 1.8058691 0 0 0 1.611329-.582032 2.6765559 2.6765559 0 0 0 .435547-1.611328v-.597656H27.78125v.662109a3.2247662 3.2247662 0 0 1 0 .628907.61270558.61270558 0 0 1-.177734.386718.6772009.6772009 0 0 1-.466797.144532.64495324.64495324 0 0 1-.580078-.273438 1.7736214 1.7736214 0 0 1-.16211-.886719V22.71875a3.3860045 3.3860045 0 0 1 0-.644531.74169623.74169623 0 0 1 .208985-.404297.72557239.72557239 0 0 1 .484375-.144531.64495324.64495324 0 0 1 .466797.144531.64495324.64495324 0 0 1 .195312.355469 5.5949694 5.5949694 0 0 1 0 .613281v.628906h1.273438v-.613281a2.3540793 2.3540793 0 0 0-.451172-1.613281 2.4185747 2.4185747 0 0 0-1.390625-.53125zm35.289062.078125a2.8377943 2.8377943 0 0 0-.361328.001953h-1.757813v7.289062h1.322266v-3.33789h.628906l.886719 3.33789h1.322266l-1.015625-3.595703a1.2092873 1.2092873 0 0 0 .693359-.628906 2.5636891 2.5636891 0 0 0 .208985-1.128906 1.8058691 1.8058691 0 0 0-.564454-1.5 2.8377943 2.8377943 0 0 0-1.363281-.4375zm-32.722656.001953v7.289062h3.095703v-.919922h-1.773438v-6.36914h-1.322265zm3.611328 0v7.289062h3.080078v-.919922h-1.757812v-2.417968h1.371093v-.919922h-1.371093v-2.095703h1.742187v-.935547h-3.064453zm4.773437 0-1.402343 7.289062h1.193359l.289063-1.613281h1.273437l.291016 1.613281h1.224609l-1.451172-7.289062h-1.417969zm3.433594 0v7.289062h1.128906v-4.353515l1.773438 4.353515h.904297v-7.289062h-1.097656V24.75l-1.773438-4.160156h-.935547zm6.72461 0v7.289062h3.095703v-.919922h-1.757813v-2.417968H51v-.919922h-1.371094v-2.095703h1.708985v-.935547h-3.046875zm3.660156 0-.033203 7.289062h1.146484v-4.353515l1.773438 4.353515h.886718v-7.289062h-1.097656V24.75l-1.773437-4.160156h-.902344zm4.724609 0v7.289062h3.080078v-.919922h-1.742187v-2.417968h1.289062v-.919922h-1.289062v-2.095703h1.724609v-.935547h-3.0625zm12.882813 0 1.482422 4.498047.048828 2.791015h1.257812v-2.791015l1.466797-4.498047h-1.257812l-.853516 2.886718-.904297-2.886718h-1.240234zm-7.177735.90039a.91905837.91905837 0 0 1 .550782.261719 1.3060303 1.3060303 0 0 1 .208984.837891 1.2254112 1.2254112 0 0 1-.242187.853515.98355369.98355369 0 0 1-.789063.257813h-.435547v-2.208984h.5a.91905837.91905837 0 0 1 .207031-.001954zm-23.539062.792969.5 3.0625h-1l.5-3.0625zM49.902344 37.625a1.2092875 1.2092875 0 0 0-1.0625 1.201172v6.449219a1.2254112 1.2254112 0 0 0 1.208984 1.128906 1.241535 1.241535 0 0 0 1.208984-1.128906v-6.449219A1.2092875 1.2092875 0 0 0 49.902344 37.625zm12.238281 3.228516a1.2099591 1.2099591 0 0 0-.951172.601562l-3.224609 5.59375a1.241535 1.241535 0 0 0 .5 1.613281l-.015625-.033203a1.1931635 1.1931635 0 0 0 1.611328-.371094l3.224609-5.59375a1.2099591 1.2099591 0 0 0-1.144531-1.810546zm-24.339844.066406a1.2092873 1.2092873 0 0 0-1.070312 1.728516l3.224609 5.578124a1.2254112 1.2254112 0 0 0 1.611328.371094v.048828a1.2254112 1.2254112 0 0 0 .484375-1.613281l-3.224609-5.578125a1.2092873 1.2092873 0 0 0-1.025391-.535156zm12.248047 7.791016a14.721058 14.721058 0 1 0 14.720703 14.720703 14.721058 14.721058 0 0 0-14.720703-14.720703zm21.154297 1.220703a1.2092873 1.2092873 0 0 0-.5.117187l-5.595703 3.22461a1.2254112 1.2254112 0 0 0-.371094 1.611328h-.03125a1.241535 1.241535 0 0 0 1.611328.484375l5.580078-3.22461a1.2092873 1.2092873 0 0 0-.693359-2.21289zm-42.394531.017578a1.2092873 1.2092873 0 0 0-.607422 2.210937l5.59375 3.22461a1.241535 1.241535 0 0 0 1.613281-.5l-.033203.017578a1.2254112 1.2254112 0 0 0-.386719-1.613282l-5.59375-3.224609a1.2092873 1.2092873 0 0 0-.585937-.115234zm21.240234 3.548828a1.1286682 1.1286682 0 0 1 1.095703 1.033203v4.982422a1.1286682 1.1286682 0 0 1-1.095703 1.03125 1.1286682 1.1286682 0 0 1-1.097656-1.03125V54.53125a1.1125443 1.1125443 0 0 1 1.097656-1.033203zm-2.273437 2.5v2.853515a5.0306353 5.0306353 0 1 0 4.53125 0v-2.853515a7.6588197 7.6588197 0 0 1-2.257813 14.978515 7.6588197 7.6588197 0 0 1-2.273437-14.978515zm-22.21875 6.095703a1.241535 1.241535 0 0 0-1.128907 1.208984 1.2254112 1.2254112 0 0 0 1.128907 1.208985h6.449218a1.2092873 1.2092873 0 0 0 1.128907-1.208985 1.2254112 1.2254112 0 0 0-1.128907-1.208984h-6.449218zm42.535156 0a1.2092875 1.2092875 0 0 0 0 2.417969h6.449219a1.2254112 1.2254112 0 0 0 1.128906-1.208985 1.241535 1.241535 0 0 0-1.128906-1.208984h-6.449219zm-2.376953 8.978516a1.2092873 1.2092873 0 0 0-.607422 2.210937l5.595703 3.224609a1.241535 1.241535 0 0 0 1.611328-.5l-.03125.015626a1.2092873 1.2092873 0 0 0-.386719-1.611329L66.300781 71.1875a1.2092873 1.2092873 0 0 0-.585937-.115234zm-31.330078.001953a1.209959 1.209959 0 0 0-.556641.160156l-5.580078 3.224609a1.2737826 1.2737826 0 0 0-.386719 1.613282l-.03125.015625a1.2254112 1.2254112 0 0 0 1.611328.46875l5.595703-3.22461a1.209959 1.209959 0 0 0-.652343-2.257812zm6.632812 6.6875a1.209959 1.209959 0 0 0-.949219.599609l-3.224609 5.595703a1.2254112 1.2254112 0 0 0 .5 1.611328l-.017578-.03125a1.2092873 1.2092873 0 0 0 1.613281-.371093l3.224609-5.595704a1.209959 1.209959 0 0 0-1.146484-1.808593zm18.027344.019531a1.2576588 1.2576588 0 0 0-.580078.144531 1.241535 1.241535 0 0 0-.466797 1.613281l3.224609 5.578126a1.241535 1.241535 0 0 0 1.611328.386718l-.015625.017578a1.2254112 1.2254112 0 0 0 .484375-1.613281L60.078125 78.3125a1.2576588 1.2576588 0 0 0-1.033203-.53125zm-8.996094 2.435547a1.2254112 1.2254112 0 0 0-1.208984 1.128906v6.449219a1.2092873 1.2092873 0 0 0 1.208984 1.128906 1.2254112 1.2254112 0 0 0 1.208984-1.128906v-6.449219a1.241535 1.241535 0 0 0-1.208984-1.128906z" class="cls-19"/></svg>